g bone5
v -0.0005550045 -0.01281184 0.02071992
v 0.0009088999 -0.02302946 0.02517547
v 0.005299447 -0.008713375 0.02595655
v -0.01282292 -0.00871336 0.02595655
v -0.008432364 -0.02302946 0.02517547
v -0.006968478 -0.01281185 0.02071993
v 0.005299452 -0.008713384 -0.02556396
v 0.0009089023 -0.02302949 -0.02471986
v -0.0005549639 -0.01281186 -0.02071994
v -0.006968478 -0.01281187 -0.02071994
v -0.008432354 -0.02302946 -0.02471986
v -0.0128229 -0.008713393 -0.02556396
v 0.0009088999 -0.02302946 0.02517547
v 0.0009088879 -0.01746687 0.028809
v 0.005299447 -0.008713375 0.02595655
v -0.01282292 -0.00871336 0.02595655
v -0.008432367 -0.01746687 0.028809
v -0.008432364 -0.02302946 0.02517547
v 0.005299452 -0.008713384 -0.02556396
v 0.00222061 -0.01746688 -0.02932942
v 0.0009089023 -0.02302949 -0.02471986
v -0.008432354 -0.02302946 -0.02471986
v -0.007120661 -0.01746687 -0.02932942
v -0.0128229 -0.008713393 -0.02556396
v -0.0128229 -0.008713393 -0.02556396
v -0.00712066 0.001435551 -0.02845512
v -0.008432366 0.007052321 -0.02273235
v 0.0009089166 0.007052321 -0.02273234
v 0.002220595 0.001435541 -0.02845512
v 0.005299452 -0.008713384 -0.02556396
v 0.005299447 -0.008713375 0.02595655
v 0.0009089094 0.001435522 0.02850461
v 0.0009089166 0.00705233 0.02448349
v -0.008432366 0.00705234 0.02448348
v -0.008432373 0.001435532 0.0285046
v -0.01282292 -0.00871336 0.02595655
v -0.008432367 -0.01746687 0.028809
v -0.01282292 -0.00871336 0.02595655
v 0.005299447 -0.008713375 0.02595655
v 0.0009088879 -0.01746687 0.028809
v -0.006968471 -0.002456723 0.02071993
v -0.00696845 -0.002456713 -0.02071994
v -0.0005549759 -0.002456737 -0.02071993
v -0.0005549973 -0.002456713 0.02071993
v -0.0128229 -0.008713393 -0.02556396
v -0.007120661 -0.01746687 -0.02932942
v 0.00222061 -0.01746688 -0.02932942
v 0.005299452 -0.008713384 -0.02556396
v -0.006968478 -0.01281187 -0.02071994
v -0.006968478 -0.01281185 0.02071993
v -0.0005550045 -0.01281184 0.02071992
v -0.0005549639 -0.01281186 -0.02071994
v -0.006968478 -0.01281185 0.02071993
v -0.008432364 -0.02302946 0.02517547
v 0.0009088999 -0.02302946 0.02517547
v -0.0005550045 -0.01281184 0.02071992
v -0.0005549973 -0.002456713 0.02071993
v 0.0009089166 0.00705233 0.02448349
v -0.008432366 0.00705234 0.02448348
v -0.006968471 -0.002456723 0.02071993
v -0.00696845 -0.002456713 -0.02071994
v -0.008432366 0.007052321 -0.02273235
v 0.0009089166 0.007052321 -0.02273234
v -0.0005549759 -0.002456737 -0.02071993
v -0.0005549639 -0.01281186 -0.02071994
v 0.0009089023 -0.02302949 -0.02471986
v -0.008432354 -0.02302946 -0.02471986
v -0.006968478 -0.01281187 -0.02071994
v -0.008432364 -0.02302946 0.02517547
v -0.008432367 -0.01746687 0.028809
v 0.0009088879 -0.01746687 0.028809
v 0.0009088999 -0.02302946 0.02517547
v 0.0009089166 0.00705233 0.02448349
v 0.0009089094 0.001435522 0.02850461
v -0.008432373 0.001435532 0.0285046
v -0.008432366 0.00705234 0.02448348
v -0.008432366 0.007052321 -0.02273235
v -0.00712066 0.001435551 -0.02845512
v 0.002220595 0.001435541 -0.02845512
v 0.0009089166 0.007052321 -0.02273234
v 0.0009089023 -0.02302949 -0.02471986
v 0.00222061 -0.01746688 -0.02932942
v -0.007120661 -0.01746687 -0.02932942
v -0.008432354 -0.02302946 -0.02471986
v -0.006968478 -0.01281187 -0.02071994
v -0.00696845 -0.002456713 -0.02071994
v -0.006968471 -0.002456723 0.02071993
v -0.006968478 -0.01281185 0.02071993
v -0.0128229 -0.008713393 -0.02556396
v -0.008432366 0.007052321 -0.02273235
v -0.00696845 -0.002456713 -0.02071994
v -0.006968478 -0.01281187 -0.02071994
v -0.00712066 0.001435551 -0.02845512
v -0.0128229 -0.008713393 -0.02556396
v 0.005299452 -0.008713384 -0.02556396
v 0.002220595 0.001435541 -0.02845512
v -0.0005549759 -0.002456737 -0.02071993
v 0.0009089166 0.007052321 -0.02273234
v 0.005299452 -0.008713384 -0.02556396
v -0.0005549639 -0.01281186 -0.02071994
v -0.0005550045 -0.01281184 0.02071992
v -0.0005549973 -0.002456713 0.02071993
v -0.0005549759 -0.002456737 -0.02071993
v -0.0005549639 -0.01281186 -0.02071994
v 0.005299447 -0.008713375 0.02595655
v 0.0009089166 0.00705233 0.02448349
v -0.0005549973 -0.002456713 0.02071993
v -0.0005550045 -0.01281184 0.02071992
v -0.01282292 -0.00871336 0.02595655
v -0.008432373 0.001435532 0.0285046
v 0.0009089094 0.001435522 0.02850461
v 0.005299447 -0.008713375 0.02595655
v -0.006968471 -0.002456723 0.02071993
v -0.008432366 0.00705234 0.02448348
v -0.01282292 -0.00871336 0.02595655
v -0.006968478 -0.01281185 0.02071993
vt 0.7989943 0.143122
vt 0.799176 0.1402379
vt 0.7991691 0.1466224
vt 0.7968529 0.1466146
vt 0.7969017 0.1402379
vt 0.7970678 0.1431865
vt 0.7991695 0.1753586
vt 0.799176 0.1817424
vt 0.7989101 0.1791495
vt 0.7971449 0.1789099
vt 0.7969017 0.1817424
vt 0.7968531 0.1753663
vt 0.799176 0.1402379
vt 0.799176 0.1402379
vt 0.7991691 0.1466224
vt 0.7968529 0.1466146
vt 0.7969017 0.1402379
vt 0.7969017 0.1402379
vt 0.7991695 0.1753586
vt 0.799176 0.1817424
vt 0.799176 0.1817424
vt 0.7969017 0.1817424
vt 0.7969017 0.1817424
vt 0.7968531 0.1753663
vt 0.7968531 0.1753663
vt 0.7969017 0.1679076
vt 0.7969017 0.1679076
vt 0.799176 0.1679076
vt 0.799176 0.1679076
vt 0.7991695 0.1753586
vt 0.7991691 0.1466224
vt 0.799176 0.1540728
vt 0.799176 0.1540728
vt 0.7969017 0.1540728
vt 0.7969017 0.1540728
vt 0.7968529 0.1466146
vt 0.7969017 0.1402379
vt 0.7968529 0.1466146
vt 0.7991691 0.1466224
vt 0.799176 0.1402379
vt 0.7810978 0.1381074
vt 0.7825942 0.1983227
vt 0.7848848 0.1982809
vt 0.7833884 0.1380655
vt 0.07476613 0.08037473
vt 0.08654018 0.007792318
vt 0.08648349 0.00534026
vt 0.07465614 0.006815339
vt 0.7971449 0.1789099
vt 0.7970291 0.1955173
vt 0.7991756 0.1955772
vt 0.7989101 0.1791495
vt 0.7970678 0.1431865
vt 0.7969017 0.1402379
vt 0.799176 0.1402379
vt 0.7989943 0.143122
vt 0.799176 0.1540728
vt 0.799176 0.1540728
vt 0.7969017 0.1540728
vt 0.7969017 0.1540728
vt 0.7969017 0.1679076
vt 0.7969017 0.1679076
vt 0.799176 0.1679076
vt 0.799176 0.1679076
vt 0.7989101 0.1791495
vt 0.799176 0.1817424
vt 0.7969017 0.1817424
vt 0.7971449 0.1789099
vt 0.7969017 0.1402379
vt 0.7969017 0.1402379
vt 0.799176 0.1402379
vt 0.799176 0.1402379
vt 0.799176 0.1540728
vt 0.799176 0.1540728
vt 0.7969017 0.1540728
vt 0.7969017 0.1540728
vt 0.05915642 0.08027869
vt 0.07148452 0.007038007
vt 0.07142784 0.004585957
vt 0.05909973 0.0606634
vt 0.799176 0.1817424
vt 0.799176 0.1817424
vt 0.7969017 0.1817424
vt 0.7969017 0.1817424
vt 0.7946274 0.1402387
vt 0.7946274 0.1540728
vt 0.7969017 0.1540728
vt 0.7970678 0.1431865
vt 0.7968531 0.1753663
vt 0.7969017 0.1679076
vt 0.7969017 0.1679076
vt 0.7971449 0.1789099
vt 0.07148452 0.007038007
vt 0.07476613 0.08037473
vt 0.07465614 0.006815339
vt 0.07142784 0.004585957
vt 0.799176 0.1679076
vt 0.799176 0.1679076
vt 0.7991695 0.1753586
vt 0.7989101 0.1791495
vt 0.7989943 0.143122
vt 0.799176 0.1540728
vt 0.8014503 0.1540728
vt 0.8014243 0.1406512
vt 0.7991691 0.1466224
vt 0.799176 0.1540728
vt 0.799176 0.1540728
vt 0.7989943 0.143122
vt 0.7968529 0.1466146
vt 0.7969017 0.1540728
vt 0.799176 0.1540728
vt 0.7991691 0.1466224
vt 0.7969017 0.1540728
vt 0.7969017 0.1540728
vt 0.7968529 0.1466146
vt 0.7970678 0.1431865
vn 0.5399008 -0.3695711 -0.7562568
vn 0.5399008 -0.3695711 -0.7562568
vn 0.5399008 -0.3695711 -0.7562568
vn -0.6216768 -0.3541676 -0.6986296
vn -0.6216769 -0.3541675 -0.6986296
vn -0.6216769 -0.3541676 -0.6986294
vn 0.5399007 -0.3695719 0.7562564
vn 0.5399006 -0.3695718 0.7562566
vn 0.5399007 -0.3695719 0.7562564
vn -0.6216753 -0.3541687 0.6986304
vn -0.6216753 -0.3541687 0.6986305
vn -0.6216753 -0.3541687 0.6986303
vn 0.7849665 -0.3235342 0.5283496
vn 0.7849663 -0.3235343 0.5283499
vn 0.7849663 -0.3235342 0.5283498
vn -0.8686438 -0.3250001 0.3739422
vn -0.8686438 -0.3250001 0.3739423
vn -0.8686438 -0.3250001 0.3739422
vn 0.7849663 -0.3235331 -0.5283507
vn 0.7849663 -0.323533 -0.5283507
vn 0.7849663 -0.323533 -0.5283507
vn -0.868644 -0.3250001 -0.373942
vn -0.868644 -0.3250001 -0.373942
vn -0.868644 -0.3250001 -0.373942
vn -0.8733057 0.3374895 -0.3513373
vn -0.8733057 0.3374894 -0.3513374
vn -0.8733057 0.3374895 -0.3513373
vn 0.7896082 0.3543345 -0.500965
vn 0.7896082 0.3543345 -0.500965
vn 0.7896084 0.3543345 -0.5009649
vn 0.7896084 0.3543354 0.500964
vn 0.7896084 0.3543353 0.5009641
vn 0.7896084 0.3543354 0.500964
vn -0.8733056 0.3374896 0.3513379
vn -0.8733056 0.3374896 0.3513376
vn -0.8733056 0.3374896 0.3513376
vn 0 0.6833331 0.7301067
vn 0 0.6833331 0.7301067
vn 0 0.6833331 0.7301067
vn 0 0.6833331 0.7301067
vn 0 1 1.192093E-07
vn 0 1 1.192093E-07
vn 0 1 1.192093E-07
vn 0 1 1.192093E-07
vn 0 0.6833334 -0.7301065
vn 0 0.6833334 -0.7301065
vn 0 0.6833334 -0.7301065
vn 0 0.6833334 -0.7301065
vn 0 -1 -1.192093E-07
vn 0 -1 -1.192093E-07
vn 0 -1 -1.192093E-07
vn 0 -1 -1.192093E-07
vn 0 -0.5183159 -0.8551892
vn 0 -0.5183159 -0.8551892
vn 0 -0.5183159 -0.8551892
vn 0 -0.5183159 -0.8551892
vn 0 0.4044483 -0.9145609
vn 0 0.4044483 -0.9145609
vn 0 0.4044483 -0.9145609
vn 0 0.4044483 -0.9145609
vn 0 0.4044499 0.9145601
vn 0 0.4044499 0.9145601
vn 0 0.4044499 0.9145601
vn 0 0.4044499 0.9145601
vn 0 -0.5183172 0.8551884
vn 0 -0.5183171 0.8551885
vn 0 -0.5183171 0.8551885
vn 0 -0.5183173 0.8551884
vn 0 -0.8824705 0.4703677
vn 0 -0.8824705 0.4703677
vn 0 -0.8824705 0.4703677
vn 0 -0.8824705 0.4703677
vn 0 0.8992901 0.4373527
vn 0 0.8992901 0.4373527
vn 0 0.8992901 0.4373527
vn 0 0.8992901 0.4373527
vn 0 0.8992894 -0.4373539
vn 0 0.8992894 -0.4373539
vn 0 0.8992894 -0.4373539
vn 0 0.8992894 -0.4373539
vn 0 -0.88247 -0.4703686
vn 0 -0.88247 -0.4703686
vn 0 -0.88247 -0.4703686
vn 0 -0.88247 -0.4703686
vn -0.8817735 0.4716732 1.192093E-07
vn -0.8817735 0.4716732 1.192093E-07
vn -0.8817735 0.4716732 1.192093E-07
vn -0.8817735 0.4716732 1.192093E-07
vn -0.6516659 0.2641538 0.7110234
vn -0.651666 0.2641538 0.7110233
vn -0.6516659 0.2641539 0.7110234
vn -0.651666 0.2641538 0.7110233
vn 0 -0.5848932 -0.8111104
vn 0 -0.5848933 -0.8111103
vn 0 -0.5848933 -0.8111103
vn 0 -0.5848932 -0.8111104
vn 0.5675737 0.2737232 0.7764894
vn 0.5675737 0.2737232 0.7764894
vn 0.5675737 0.2737232 0.7764894
vn 0.5675737 0.2737232 0.7764894
vn 0.8817725 0.4716749 -1.192093E-07
vn 0.8817725 0.4716749 -1.192093E-07
vn 0.8817725 0.4716749 -1.192093E-07
vn 0.8817725 0.4716749 -1.192093E-07
vn 0.5675749 0.2737219 -0.776489
vn 0.5675749 0.2737219 -0.7764888
vn 0.5675749 0.2737219 -0.776489
vn 0.5675749 0.2737219 -0.776489
vn 0 -0.5848943 0.8111095
vn 0 -0.5848943 0.8111095
vn 0 -0.5848943 0.8111095
vn 0 -0.5848943 0.8111095
vn -0.6516687 0.2641524 -0.7110214
vn -0.6516686 0.2641524 -0.7110215
vn -0.6516688 0.2641524 -0.7110212
vn -0.6516687 0.2641524 -0.7110214
g bone5_0
f 3/3/3 2/2/2 1/1/1
f 6/6/6 5/5/5 4/4/4
f 9/9/9 8/8/8 7/7/7
f 12/12/12 11/11/11 10/10/10
f 15/15/15 14/14/14 13/13/13
f 18/18/18 17/17/17 16/16/16
f 21/21/21 20/20/20 19/19/19
f 24/24/24 23/23/23 22/22/22
f 27/27/27 26/26/26 25/25/25
f 30/30/30 29/29/29 28/28/28
f 33/33/33 32/32/32 31/31/31
f 36/36/36 35/35/35 34/34/34
f 39/39/39 38/38/38 37/37/37
f 40/40/40 39/39/39 37/37/37
f 43/43/43 42/42/42 41/41/41
f 44/44/44 43/43/43 41/41/41
f 47/47/47 46/46/46 45/45/45
f 48/48/48 47/47/47 45/45/45
f 51/51/51 50/50/50 49/49/49
f 52/52/52 51/51/51 49/49/49
f 55/55/55 54/54/54 53/53/53
f 56/56/56 55/55/55 53/53/53
f 59/59/59 58/58/58 57/57/57
f 60/60/60 59/59/59 57/57/57
f 63/63/63 62/62/62 61/61/61
f 64/64/64 63/63/63 61/61/61
f 67/67/67 66/66/66 65/65/65
f 68/68/68 67/67/67 65/65/65
f 71/71/71 70/70/70 69/69/69
f 72/72/72 71/71/71 69/69/69
f 75/75/75 74/74/74 73/73/73
f 76/76/76 75/75/75 73/73/73
f 79/79/79 78/78/78 77/77/77
f 80/80/80 79/79/79 77/77/77
f 83/83/83 82/82/82 81/81/81
f 84/84/84 83/83/83 81/81/81
f 87/87/87 86/86/86 85/85/85
f 88/88/88 87/87/87 85/85/85
f 91/91/91 90/90/90 89/89/89
f 92/92/92 91/91/91 89/89/89
f 95/95/95 94/94/94 93/93/93
f 96/96/96 95/95/95 93/93/93
f 99/99/99 98/98/98 97/97/97
f 100/100/100 99/99/99 97/97/97
f 103/103/103 102/102/102 101/101/101
f 104/104/104 103/103/103 101/101/101
f 107/107/107 106/106/106 105/105/105
f 108/108/108 107/107/107 105/105/105
f 111/111/111 110/110/110 109/109/109
f 112/112/112 111/111/111 109/109/109
f 115/115/115 114/114/114 113/113/113
f 116/116/116 115/115/115 113/113/113
