g bone9
v -0.0005549783 -0.01281187 0.02071992
v 0.0009088927 -0.02302947 0.02691264
v 0.005299442 -0.008713408 0.02915605
v -0.01282291 -0.008713389 0.02915605
v -0.008432361 -0.02302947 0.02691264
v -0.006968477 -0.01281186 0.02071992
v 0.005299452 -0.008713413 -0.02915606
v 0.0009089094 -0.02302945 -0.02691267
v -0.0005549807 -0.01281186 -0.02071993
v -0.006968478 -0.01281185 -0.02071993
v -0.008432353 -0.02302946 -0.02691267
v -0.0128229 -0.008713393 -0.02915606
v 0.0009088927 -0.02302947 0.02691264
v 0.0009088903 -0.01746688 0.03734876
v 0.005299442 -0.008713408 0.02915605
v -0.01282291 -0.008713389 0.02915605
v -0.008432364 -0.01746689 0.03734876
v -0.008432361 -0.02302947 0.02691264
v 0.005299452 -0.008713413 -0.02915606
v 0.0009088951 -0.01746689 -0.03734877
v 0.0009089094 -0.02302945 -0.02691267
v -0.008432353 -0.02302946 -0.02691267
v -0.008432359 -0.01746689 -0.03734877
v -0.0128229 -0.008713393 -0.02915606
v -0.0128229 -0.008713393 -0.02915606
v -0.008432341 0.001435513 -0.03647444
v -0.008432347 0.007052292 -0.02492516
v 0.000908907 0.007052301 -0.02492516
v 0.0009089214 0.001435522 -0.03647444
v 0.005299452 -0.008713413 -0.02915606
v 0.005299442 -0.008713408 0.02915605
v 0.0009088975 0.001435522 0.03647446
v 0.0009089023 0.007052321 0.02492513
v -0.008432345 0.007052321 0.02492513
v -0.008432358 0.001435513 0.03647446
v -0.01282291 -0.008713389 0.02915605
v -0.008432364 -0.01746689 0.03734876
v -0.01282291 -0.008713389 0.02915605
v 0.005299442 -0.008713408 0.02915605
v 0.0009088903 -0.01746688 0.03734876
v -0.006968471 -0.002456733 0.02071993
v -0.006968465 -0.002456723 -0.02071992
v -0.0005549735 -0.002456737 -0.02071992
v -0.0005549925 -0.002456718 0.02071993
v -0.0128229 -0.008713393 -0.02915606
v -0.008432359 -0.01746689 -0.03734877
v 0.0009088951 -0.01746689 -0.03734877
v 0.005299452 -0.008713413 -0.02915606
v -0.006968478 -0.01281185 -0.02071993
v -0.006968477 -0.01281186 0.02071992
v -0.0005549783 -0.01281187 0.02071992
v -0.0005549807 -0.01281186 -0.02071993
v -0.006968477 -0.01281186 0.02071992
v -0.008432361 -0.02302947 0.02691264
v 0.0009088927 -0.02302947 0.02691264
v -0.0005549783 -0.01281187 0.02071992
v -0.0005549925 -0.002456718 0.02071993
v 0.0009089023 0.007052321 0.02492513
v -0.008432345 0.007052321 0.02492513
v -0.006968471 -0.002456733 0.02071993
v -0.006968465 -0.002456723 -0.02071992
v -0.008432347 0.007052292 -0.02492516
v 0.000908907 0.007052301 -0.02492516
v -0.0005549735 -0.002456737 -0.02071992
v -0.0005549807 -0.01281186 -0.02071993
v 0.0009089094 -0.02302945 -0.02691267
v -0.008432353 -0.02302946 -0.02691267
v -0.006968478 -0.01281185 -0.02071993
v -0.008432361 -0.02302947 0.02691264
v -0.008432364 -0.01746689 0.03734876
v 0.0009088903 -0.01746688 0.03734876
v 0.0009088927 -0.02302947 0.02691264
v 0.0009089023 0.007052321 0.02492513
v 0.0009088975 0.001435522 0.03647446
v -0.008432358 0.001435513 0.03647446
v -0.008432345 0.007052321 0.02492513
v -0.008432347 0.007052292 -0.02492516
v -0.008432341 0.001435513 -0.03647444
v 0.0009089214 0.001435522 -0.03647444
v 0.000908907 0.007052301 -0.02492516
v 0.0009089094 -0.02302945 -0.02691267
v 0.0009088951 -0.01746689 -0.03734877
v -0.008432359 -0.01746689 -0.03734877
v -0.008432353 -0.02302946 -0.02691267
v -0.006968478 -0.01281185 -0.02071993
v -0.006968465 -0.002456723 -0.02071992
v -0.006968471 -0.002456733 0.02071993
v -0.006968477 -0.01281186 0.02071992
v -0.0128229 -0.008713393 -0.02915606
v -0.008432347 0.007052292 -0.02492516
v -0.006968465 -0.002456723 -0.02071992
v -0.006968478 -0.01281185 -0.02071993
v -0.008432341 0.001435513 -0.03647444
v -0.0128229 -0.008713393 -0.02915606
v 0.005299452 -0.008713413 -0.02915606
v 0.0009089214 0.001435522 -0.03647444
v -0.0005549735 -0.002456737 -0.02071992
v 0.000908907 0.007052301 -0.02492516
v 0.005299452 -0.008713413 -0.02915606
v -0.0005549807 -0.01281186 -0.02071993
v -0.0005549783 -0.01281187 0.02071992
v -0.0005549925 -0.002456718 0.02071993
v -0.0005549735 -0.002456737 -0.02071992
v -0.0005549807 -0.01281186 -0.02071993
v 0.005299442 -0.008713408 0.02915605
v 0.0009089023 0.007052321 0.02492513
v -0.0005549925 -0.002456718 0.02071993
v -0.0005549783 -0.01281187 0.02071992
v -0.01282291 -0.008713389 0.02915605
v -0.008432358 0.001435513 0.03647446
v 0.0009088975 0.001435522 0.03647446
v 0.005299442 -0.008713408 0.02915605
v -0.006968471 -0.002456733 0.02071993
v -0.008432345 0.007052321 0.02492513
v -0.01282291 -0.008713389 0.02915605
v -0.006968477 -0.01281186 0.02071992
vt 0.03327036 0.05539401
vt 0.03665626 0.06902546
vt 0.03715098 0.05492149
vt 0.03614974 0.03982411
vt 0.0361402 0.06124345
vt 0.03291583 0.05005113
vt 0.01107621 0.05690346
vt 0.01258779 0.07085495
vt 0.01473993 0.05680256
vt 0.01438552 0.05145961
vt 0.01207149 0.06307288
vt 0.01007468 0.04180603
vt 0.03665626 0.06902546
vt 0.04103118 0.06179894
vt 0.03715098 0.05492149
vt 0.03614974 0.03982411
vt 0.04051495 0.05401693
vt 0.0361402 0.06124345
vt 0.01107621 0.05690346
vt 0.007629216 0.06433785
vt 0.01258779 0.07085495
vt 0.01207149 0.06307288
vt 0.007113099 0.05655591
vt 0.01007468 0.04180603
vt 0.01007468 0.04180603
vt 0.006512403 0.03317502
vt 0.01138216 0.02584378
vt 0.01189834 0.03362576
vt 0.00702858 0.040957
vt 0.01107621 0.05690346
vt 0.03715098 0.05492149
vt 0.03964865 0.03847753
vt 0.0341894 0.03193142
vt 0.03367323 0.02414943
vt 0.03913218 0.03069557
vt 0.03614974 0.03982411
vt 0.04051495 0.05401693
vt 0.03614974 0.03982411
vt 0.03715098 0.05492149
vt 0.04103118 0.06179894
vt 0.06337097 0.07892958
vt 0.08341489 0.06176113
vt 0.08342789 0.05419168
vt 0.06338396 0.06048306
vt 0.01007468 0.04180603
vt 0.007113099 0.05655591
vt 0.007629216 0.06433785
vt 0.01107621 0.05690346
vt 0.01438552 0.05145961
vt 0.03291583 0.05005113
vt 0.03327036 0.05539401
vt 0.01473993 0.05680256
vt 0.03291583 0.05005113
vt 0.0361402 0.06124345
vt 0.03665626 0.06902546
vt 0.03327036 0.05539401
vt 0.06338396 0.06048306
vt 0.06106441 0.05179666
vt 0.06104548 0.07864697
vt 0.06337097 0.07892958
vt 0.08341489 0.06176113
vt 0.08515739 0.05525338
vt 0.08517633 0.007740311
vt 0.08342789 0.05419168
vt 0.01473993 0.05680256
vt 0.01258779 0.07085495
vt 0.01207149 0.06307288
vt 0.01438552 0.05145961
vt 0.0361402 0.06124345
vt 0.04051495 0.05401693
vt 0.04103118 0.06179894
vt 0.03665626 0.06902546
vt 0.06106441 0.05179666
vt 0.05564857 0.05803756
vt 0.05562964 0.07898414
vt 0.06104548 0.07864697
vt 0.08515739 0.05525338
vt 0.09091408 0.05798741
vt 0.09093301 0.007947477
vt 0.08517633 0.007740311
vt 0.01258779 0.07085495
vt 0.007629216 0.06433785
vt 0.007113099 0.05655591
vt 0.01207149 0.06307288
vt 0.01438552 0.05145961
vt 0.01384228 0.03866735
vt 0.03237277 0.03725886
vt 0.03291583 0.05005113
vt 0.01007468 0.04180603
vt 0.01138216 0.02584378
vt 0.01384228 0.03866735
vt 0.01438552 0.05145961
vt 0.006512403 0.03317502
vt 0.01007468 0.04180603
vt 0.01107621 0.05690346
vt 0.00702858 0.040957
vt 0.01419669 0.04401035
vt 0.01189834 0.03362576
vt 0.01107621 0.05690346
vt 0.01473993 0.05680256
vt 0.03327036 0.05539401
vt 0.032727 0.04260177
vt 0.01419669 0.04401035
vt 0.01473993 0.05680256
vt 0.03715098 0.05492149
vt 0.0341894 0.03193142
vt 0.032727 0.04260177
vt 0.03327036 0.05539401
vt 0.03614974 0.03982411
vt 0.03913218 0.03069557
vt 0.03964865 0.03847753
vt 0.03715098 0.05492149
vt 0.03237277 0.03725886
vt 0.03367323 0.02414943
vt 0.03614974 0.03982411
vt 0.03291583 0.05005113
vn 0.5399008 -0.3695711 -0.7562568
vn 0.5399009 -0.3695711 -0.7562568
vn 0.5399008 -0.3695711 -0.7562568
vn -0.6216767 -0.3541675 -0.6986297
vn -0.6216767 -0.3541675 -0.6986296
vn -0.6216768 -0.3541676 -0.6986296
vn 0.5399007 -0.3695719 0.7562565
vn 0.5399007 -0.3695719 0.7562565
vn 0.5399007 -0.3695719 0.7562565
vn -0.6216755 -0.3541688 0.6986302
vn -0.6216754 -0.3541688 0.6986302
vn -0.6216754 -0.3541688 0.6986302
vn 0.7849663 -0.323534 0.5283501
vn 0.7849663 -0.323534 0.52835
vn 0.7849662 -0.323534 0.52835
vn -0.8686441 -0.3250001 0.3739417
vn -0.8686441 -0.3250001 0.3739417
vn -0.8686441 -0.3250001 0.3739417
vn 0.7849665 -0.3235331 -0.5283502
vn 0.7849664 -0.3235331 -0.5283502
vn 0.7849664 -0.3235331 -0.5283502
vn -0.868644 -0.325 -0.373942
vn -0.868644 -0.325 -0.373942
vn -0.868644 -0.325 -0.373942
vn -0.8733056 0.3374893 -0.3513378
vn -0.8733056 0.3374892 -0.3513378
vn -0.8733056 0.3374893 -0.3513378
vn 0.7896084 0.3543346 -0.5009649
vn 0.7896084 0.3543346 -0.5009649
vn 0.7896084 0.3543345 -0.5009649
vn 0.7896084 0.3543353 0.5009642
vn 0.7896084 0.3543352 0.5009642
vn 0.7896084 0.3543353 0.5009642
vn -0.8733057 0.3374896 0.3513375
vn -0.8733057 0.3374896 0.3513375
vn -0.8733057 0.3374895 0.3513375
vn 0 0.6833333 0.7301066
vn 0 0.6833332 0.7301067
vn 0 0.6833333 0.7301066
vn 0 0.6833333 0.7301066
vn 0 1 0
vn 0 1 0
vn 0 1 0
vn 0 1 0
vn 0 0.6833334 -0.7301065
vn 0 0.6833335 -0.7301065
vn 0 0.6833334 -0.7301065
vn 0 0.6833335 -0.7301065
vn 0 -1 0
vn 0 -1 0
vn 0 -1 0
vn 0 -1 0
vn 0 -0.5183159 -0.8551892
vn 0 -0.518316 -0.8551892
vn 0 -0.518316 -0.8551892
vn 0 -0.518316 -0.8551892
vn 0 0.4044483 -0.9145609
vn 0 0.4044483 -0.9145609
vn 0 0.4044483 -0.9145609
vn 0 0.4044482 -0.9145609
vn 0 0.4044499 0.9145601
vn 0 0.4044499 0.9145601
vn 0 0.4044499 0.9145601
vn 0 0.4044499 0.9145601
vn 0 -0.5183172 0.8551884
vn 0 -0.5183172 0.8551884
vn 0 -0.5183172 0.8551884
vn 0 -0.5183172 0.8551884
vn 0 -0.8824705 0.4703679
vn 0 -0.8824705 0.4703679
vn 0 -0.8824705 0.4703679
vn 0 -0.8824705 0.4703679
vn 0 0.89929 0.4373527
vn 0 0.89929 0.4373527
vn 0 0.89929 0.4373527
vn 0 0.89929 0.4373527
vn 0 0.8992894 -0.4373539
vn 0 0.8992894 -0.4373539
vn 0 0.8992894 -0.4373539
vn 0 0.8992894 -0.4373539
vn 0 -0.8824701 -0.4703684
vn 0 -0.8824701 -0.4703684
vn 0 -0.8824701 -0.4703684
vn 0 -0.8824701 -0.4703684
vn -0.8817735 0.4716733 0
vn -0.8817735 0.4716733 0
vn -0.8817735 0.4716733 0
vn -0.8817735 0.4716733 0
vn -0.651666 0.2641538 0.7110232
vn -0.651666 0.2641538 0.7110232
vn -0.6516662 0.2641539 0.7110232
vn -0.651666 0.2641538 0.7110232
vn 0 -0.5848933 -0.8111102
vn 0 -0.5848933 -0.8111102
vn 0 -0.5848933 -0.8111102
vn 0 -0.5848933 -0.8111102
vn 0.5675737 0.2737231 0.7764894
vn 0.5675737 0.2737231 0.7764893
vn 0.5675737 0.2737232 0.7764894
vn 0.5675736 0.2737231 0.7764894
vn 0.8817725 0.4716749 0
vn 0.8817725 0.4716749 0
vn 0.8817725 0.4716749 0
vn 0.8817725 0.4716749 0
vn 0.5675749 0.2737219 -0.776489
vn 0.5675749 0.2737219 -0.776489
vn 0.567575 0.273722 -0.7764888
vn 0.567575 0.273722 -0.7764888
vn 0 -0.5848942 0.8111095
vn 0 -0.5848942 0.8111095
vn 0 -0.5848942 0.8111095
vn 0 -0.5848942 0.8111095
vn -0.6516686 0.2641523 -0.7110215
vn -0.6516685 0.2641523 -0.7110215
vn -0.6516686 0.2641523 -0.7110214
vn -0.6516686 0.2641523 -0.7110214
g bone9_0
f 3/3/3 2/2/2 1/1/1
f 6/6/6 5/5/5 4/4/4
f 9/9/9 8/8/8 7/7/7
f 12/12/12 11/11/11 10/10/10
f 15/15/15 14/14/14 13/13/13
f 18/18/18 17/17/17 16/16/16
f 21/21/21 20/20/20 19/19/19
f 24/24/24 23/23/23 22/22/22
f 27/27/27 26/26/26 25/25/25
f 30/30/30 29/29/29 28/28/28
f 33/33/33 32/32/32 31/31/31
f 36/36/36 35/35/35 34/34/34
f 39/39/39 38/38/38 37/37/37
f 40/40/40 39/39/39 37/37/37
f 43/43/43 42/42/42 41/41/41
f 44/44/44 43/43/43 41/41/41
f 47/47/47 46/46/46 45/45/45
f 48/48/48 47/47/47 45/45/45
f 51/51/51 50/50/50 49/49/49
f 52/52/52 51/51/51 49/49/49
f 55/55/55 54/54/54 53/53/53
f 56/56/56 55/55/55 53/53/53
f 59/59/59 58/58/58 57/57/57
f 60/60/60 59/59/59 57/57/57
f 63/63/63 62/62/62 61/61/61
f 64/64/64 63/63/63 61/61/61
f 67/67/67 66/66/66 65/65/65
f 68/68/68 67/67/67 65/65/65
f 71/71/71 70/70/70 69/69/69
f 72/72/72 71/71/71 69/69/69
f 75/75/75 74/74/74 73/73/73
f 76/76/76 75/75/75 73/73/73
f 79/79/79 78/78/78 77/77/77
f 80/80/80 79/79/79 77/77/77
f 83/83/83 82/82/82 81/81/81
f 84/84/84 83/83/83 81/81/81
f 87/87/87 86/86/86 85/85/85
f 88/88/88 87/87/87 85/85/85
f 91/91/91 90/90/90 89/89/89
f 92/92/92 91/91/91 89/89/89
f 95/95/95 94/94/94 93/93/93
f 96/96/96 95/95/95 93/93/93
f 99/99/99 98/98/98 97/97/97
f 100/100/100 99/99/99 97/97/97
f 103/103/103 102/102/102 101/101/101
f 104/104/104 103/103/103 101/101/101
f 107/107/107 106/106/106 105/105/105
f 108/108/108 107/107/107 105/105/105
f 111/111/111 110/110/110 109/109/109
f 112/112/112 111/111/111 109/109/109
f 115/115/115 114/114/114 113/113/113
f 116/116/116 115/115/115 113/113/113
