g bone8
v -0.0005549735 -0.01281188 0.02071993
v 0.0009088856 -0.02302947 0.02691265
v 0.005299462 -0.008713398 0.02915605
v -0.01282289 -0.008713418 0.02915605
v -0.008432365 -0.02302947 0.02691265
v -0.006968445 -0.01281189 0.02071992
v 0.005299452 -0.008713418 -0.02915605
v 0.000908907 -0.02302949 -0.02691266
v -0.0005549783 -0.01281189 -0.02071992
v -0.006968467 -0.01281187 -0.02071992
v -0.008432345 -0.02302949 -0.02691266
v -0.0128229 -0.008713403 -0.02915605
v 0.0009088856 -0.02302947 0.02691265
v 0.0009088975 -0.01746689 0.03734876
v 0.005299462 -0.008713398 0.02915605
v -0.01282289 -0.008713418 0.02915605
v -0.008432359 -0.01746689 0.03734876
v -0.008432365 -0.02302947 0.02691265
v 0.005299452 -0.008713418 -0.02915605
v 0.000908907 -0.0174669 -0.03734876
v 0.000908907 -0.02302949 -0.02691266
v -0.008432345 -0.02302949 -0.02691266
v -0.008432357 -0.01746691 -0.03734876
v -0.0128229 -0.008713403 -0.02915605
v -0.0128229 -0.008713403 -0.02915605
v -0.008432359 0.001435503 -0.03647446
v -0.008432347 0.007052301 -0.02492514
v 0.0009088975 0.007052301 -0.02492514
v 0.000908907 0.001435503 -0.03647446
v 0.005299452 -0.008713418 -0.02915605
v 0.005299462 -0.008713398 0.02915605
v 0.0009088975 0.001435513 0.03647447
v 0.0009089023 0.007052282 0.02492513
v -0.008432361 0.007052321 0.02492513
v -0.008432358 0.001435503 0.03647447
v -0.01282289 -0.008713418 0.02915605
v -0.008432359 -0.01746689 0.03734876
v -0.01282289 -0.008713418 0.02915605
v 0.005299462 -0.008713398 0.02915605
v 0.0009088975 -0.01746689 0.03734876
v -0.006968459 -0.002456757 0.02071992
v -0.00696848 -0.002456742 -0.02071992
v -0.0005549901 -0.002456718 -0.02071992
v -0.0005550021 -0.002456752 0.02071992
v -0.0128229 -0.008713403 -0.02915605
v -0.008432357 -0.01746691 -0.03734876
v 0.000908907 -0.0174669 -0.03734876
v 0.005299452 -0.008713418 -0.02915605
v -0.006968467 -0.01281187 -0.02071992
v -0.006968445 -0.01281189 0.02071992
v -0.0005549735 -0.01281188 0.02071993
v -0.0005549783 -0.01281189 -0.02071992
v -0.006968445 -0.01281189 0.02071992
v -0.008432365 -0.02302947 0.02691265
v 0.0009088856 -0.02302947 0.02691265
v -0.0005549735 -0.01281188 0.02071993
v -0.0005550021 -0.002456752 0.02071992
v 0.0009089023 0.007052282 0.02492513
v -0.008432361 0.007052321 0.02492513
v -0.006968459 -0.002456757 0.02071992
v -0.00696848 -0.002456742 -0.02071992
v -0.008432347 0.007052301 -0.02492514
v 0.0009088975 0.007052301 -0.02492514
v -0.0005549901 -0.002456718 -0.02071992
v -0.0005549783 -0.01281189 -0.02071992
v 0.000908907 -0.02302949 -0.02691266
v -0.008432345 -0.02302949 -0.02691266
v -0.006968467 -0.01281187 -0.02071992
v -0.008432365 -0.02302947 0.02691265
v -0.008432359 -0.01746689 0.03734876
v 0.0009088975 -0.01746689 0.03734876
v 0.0009088856 -0.02302947 0.02691265
v 0.0009089023 0.007052282 0.02492513
v 0.0009088975 0.001435513 0.03647447
v -0.008432358 0.001435503 0.03647447
v -0.008432361 0.007052321 0.02492513
v -0.008432347 0.007052301 -0.02492514
v -0.008432359 0.001435503 -0.03647446
v 0.000908907 0.001435503 -0.03647446
v 0.0009088975 0.007052301 -0.02492514
v 0.000908907 -0.02302949 -0.02691266
v 0.000908907 -0.0174669 -0.03734876
v -0.008432357 -0.01746691 -0.03734876
v -0.008432345 -0.02302949 -0.02691266
v -0.006968467 -0.01281187 -0.02071992
v -0.00696848 -0.002456742 -0.02071992
v -0.006968459 -0.002456757 0.02071992
v -0.006968445 -0.01281189 0.02071992
v -0.0128229 -0.008713403 -0.02915605
v -0.008432347 0.007052301 -0.02492514
v -0.00696848 -0.002456742 -0.02071992
v -0.006968467 -0.01281187 -0.02071992
v -0.008432359 0.001435503 -0.03647446
v -0.0128229 -0.008713403 -0.02915605
v 0.005299452 -0.008713418 -0.02915605
v 0.000908907 0.001435503 -0.03647446
v -0.0005549901 -0.002456718 -0.02071992
v 0.0009088975 0.007052301 -0.02492514
v 0.005299452 -0.008713418 -0.02915605
v -0.0005549783 -0.01281189 -0.02071992
v -0.0005549735 -0.01281188 0.02071993
v -0.0005550021 -0.002456752 0.02071992
v -0.0005549901 -0.002456718 -0.02071992
v -0.0005549783 -0.01281189 -0.02071992
v 0.005299462 -0.008713398 0.02915605
v 0.0009089023 0.007052282 0.02492513
v -0.0005550021 -0.002456752 0.02071992
v -0.0005549735 -0.01281188 0.02071993
v -0.01282289 -0.008713418 0.02915605
v -0.008432358 0.001435503 0.03647447
v 0.0009088975 0.001435513 0.03647447
v 0.005299462 -0.008713398 0.02915605
v -0.006968459 -0.002456757 0.02071992
v -0.008432361 0.007052321 0.02492513
v -0.01282289 -0.008713418 0.02915605
v -0.006968445 -0.01281189 0.02071992
vt 0.03289288 0.0554833
vt 0.03641176 0.06909406
vt 0.03657115 0.05503965
vt 0.03600228 0.03987788
vt 0.03611869 0.06127878
vt 0.0326916 0.05011749
vt 0.01047194 0.05703371
vt 0.01232076 0.0709347
vt 0.01434529 0.05690043
vt 0.01414406 0.05153468
vt 0.01202768 0.06311951
vt 0.009903252 0.04187195
vt 0.03641176 0.06909406
vt 0.04070097 0.06187873
vt 0.03657115 0.05503965
vt 0.03600228 0.03987788
vt 0.04040778 0.05406357
vt 0.03611869 0.06127878
vt 0.01047194 0.05703371
vt 0.007268071 0.0644332
vt 0.01232076 0.0709347
vt 0.01202768 0.06311951
vt 0.006974876 0.05661799
vt 0.009903252 0.04187195
vt 0.009903252 0.04187195
vt 0.006068826 0.03328254
vt 0.01085258 0.02596227
vt 0.01114577 0.03377751
vt 0.006362021 0.04109766
vt 0.01047194 0.05703371
vt 0.03657115 0.05503965
vt 0.03901237 0.03860296
vt 0.0334577 0.03207271
vt 0.03316444 0.02425756
vt 0.03871912 0.03078783
vt 0.03600228 0.03987788
vt 0.04040778 0.05406357
vt 0.03600228 0.03987788
vt 0.03657115 0.05503965
vt 0.04070097 0.06187873
vt 0.06313375 0.06187727
vt 0.08321615 0.07894994
vt 0.08322914 0.06085996
vt 0.06314674 0.05430781
vt 0.009903252 0.04187195
vt 0.006974876 0.05661799
vt 0.007268071 0.0644332
vt 0.01047194 0.05703371
vt 0.01414406 0.05153468
vt 0.0326916 0.05011749
vt 0.03289288 0.0554833
vt 0.01434529 0.05690043
vt 0.0326916 0.05011749
vt 0.03611869 0.06127878
vt 0.03641176 0.06909406
vt 0.03289288 0.0554833
vt 0.06314674 0.05430781
vt 0.0613548 0.007747369
vt 0.06133587 0.05534659
vt 0.06313375 0.06187727
vt 0.08321615 0.07894994
vt 0.08549409 0.07866894
vt 0.08551302 0.05220342
vt 0.08322914 0.06085996
vt 0.01434529 0.05690043
vt 0.01232076 0.0709347
vt 0.01202768 0.06311951
vt 0.01414406 0.05153468
vt 0.03611869 0.06127878
vt 0.04040778 0.05406357
vt 0.04070097 0.06187873
vt 0.03641176 0.06909406
vt 0.0613548 0.007747369
vt 0.05561426 0.007948879
vt 0.05559533 0.05800585
vt 0.06133587 0.05534659
vt 0.08549409 0.07866894
vt 0.09094752 0.07900993
vt 0.09096646 0.0585149
vt 0.08551302 0.05220342
vt 0.01232076 0.0709347
vt 0.007268071 0.0644332
vt 0.006974876 0.05661799
vt 0.01202768 0.06311951
vt 0.01414406 0.05153468
vt 0.0134334 0.03876738
vt 0.03198081 0.03735019
vt 0.0326916 0.05011749
vt 0.009903252 0.04187195
vt 0.01085258 0.02596227
vt 0.0134334 0.03876738
vt 0.01414406 0.05153468
vt 0.006068826 0.03328254
vt 0.009903252 0.04187195
vt 0.01047194 0.05703371
vt 0.006362021 0.04109766
vt 0.01363462 0.04413316
vt 0.01114577 0.03377751
vt 0.01047194 0.05703371
vt 0.01434529 0.05690043
vt 0.03289288 0.0554833
vt 0.03218222 0.04271602
vt 0.01363462 0.04413316
vt 0.01434529 0.05690043
vt 0.03657115 0.05503965
vt 0.0334577 0.03207271
vt 0.03218222 0.04271602
vt 0.03289288 0.0554833
vt 0.03600228 0.03987788
vt 0.03871912 0.03078783
vt 0.03901237 0.03860296
vt 0.03657115 0.05503965
vt 0.03198081 0.03735019
vt 0.03316444 0.02425756
vt 0.03600228 0.03987788
vt 0.0326916 0.05011749
vn 0.5399008 -0.369571 -0.7562568
vn 0.5399008 -0.369571 -0.7562568
vn 0.5399008 -0.369571 -0.7562568
vn -0.6216768 -0.3541676 -0.6986296
vn -0.6216769 -0.3541675 -0.6986295
vn -0.6216769 -0.3541676 -0.6986295
vn 0.5399006 -0.3695718 0.7562566
vn 0.5399007 -0.3695718 0.7562566
vn 0.5399006 -0.3695718 0.7562566
vn -0.6216756 -0.3541688 0.6986301
vn -0.6216754 -0.3541688 0.6986302
vn -0.6216754 -0.3541688 0.6986302
vn 0.7849661 -0.323534 0.5283502
vn 0.7849662 -0.323534 0.5283501
vn 0.7849662 -0.323534 0.52835
vn -0.8686441 -0.325 0.3739418
vn -0.8686441 -0.3250001 0.3739417
vn -0.8686441 -0.325 0.3739418
vn 0.7849665 -0.323533 -0.5283502
vn 0.7849665 -0.3235331 -0.5283502
vn 0.7849665 -0.3235331 -0.5283502
vn -0.868644 -0.325 -0.3739421
vn -0.8686439 -0.325 -0.3739421
vn -0.8686439 -0.325 -0.3739421
vn -0.8733056 0.3374893 -0.3513378
vn -0.8733056 0.3374892 -0.3513378
vn -0.8733056 0.3374893 -0.3513378
vn 0.7896084 0.3543345 -0.5009649
vn 0.7896084 0.3543345 -0.5009649
vn 0.7896084 0.3543344 -0.5009649
vn 0.7896084 0.3543354 0.5009643
vn 0.7896084 0.3543352 0.5009642
vn 0.7896083 0.3543353 0.5009643
vn -0.8733056 0.3374895 0.3513375
vn -0.8733056 0.3374895 0.3513375
vn -0.8733056 0.3374896 0.3513375
vn 0 0.6833331 0.7301067
vn 0 0.6833331 0.7301067
vn 0 0.6833331 0.7301067
vn 0 0.6833331 0.7301067
vn 0 1 0
vn 0 1 0
vn 0 1 0
vn 0 1 0
vn 0 0.6833334 -0.7301065
vn 0 0.6833334 -0.7301065
vn 0 0.6833334 -0.7301065
vn 0 0.6833334 -0.7301065
vn 0 -1 0
vn 0 -1 0
vn 0 -1 0
vn 0 -1 0
vn 0 -0.5183161 -0.8551892
vn 0 -0.5183161 -0.8551892
vn 0 -0.5183161 -0.8551892
vn 0 -0.5183161 -0.8551892
vn 0 0.4044483 -0.9145609
vn 0 0.4044483 -0.9145609
vn 0 0.4044483 -0.9145609
vn 0 0.4044482 -0.9145609
vn 0 0.4044499 0.9145601
vn 0 0.4044499 0.9145601
vn 0 0.4044499 0.9145601
vn 0 0.4044498 0.9145603
vn 0 -0.5183171 0.8551885
vn 0 -0.518317 0.8551885
vn 0 -0.518317 0.8551885
vn 0 -0.518317 0.8551885
vn 0 -0.8824705 0.4703679
vn 0 -0.8824705 0.4703679
vn 0 -0.8824705 0.4703679
vn 0 -0.8824705 0.4703679
vn 0 0.89929 0.4373527
vn 0 0.89929 0.4373527
vn 0 0.89929 0.4373527
vn 0 0.89929 0.4373527
vn 0 0.8992894 -0.4373539
vn 0 0.8992894 -0.4373539
vn 0 0.8992894 -0.4373539
vn 0 0.8992894 -0.4373539
vn 0 -0.8824701 -0.4703686
vn 0 -0.8824701 -0.4703686
vn 0 -0.8824701 -0.4703686
vn 0 -0.8824701 -0.4703686
vn -0.8817735 0.4716731 0
vn -0.8817735 0.4716731 0
vn -0.8817735 0.4716731 0
vn -0.8817735 0.4716731 0
vn -0.6516662 0.2641539 0.7110232
vn -0.651666 0.2641539 0.7110232
vn -0.6516662 0.2641538 0.7110232
vn -0.651666 0.2641538 0.7110232
vn 0 -0.5848933 -0.8111102
vn 0 -0.5848933 -0.8111102
vn 0 -0.5848933 -0.8111102
vn 0 -0.5848933 -0.8111102
vn 0.5675737 0.2737231 0.7764894
vn 0.5675737 0.2737232 0.7764893
vn 0.5675737 0.2737232 0.7764893
vn 0.5675737 0.2737231 0.7764894
vn 0.8817725 0.4716748 0
vn 0.8817725 0.4716748 0
vn 0.8817725 0.4716748 0
vn 0.8817725 0.4716748 0
vn 0.567575 0.273722 -0.7764888
vn 0.567575 0.273722 -0.7764888
vn 0.567575 0.273722 -0.7764888
vn 0.567575 0.273722 -0.7764888
vn 0 -0.5848942 0.8111095
vn 0 -0.5848942 0.8111095
vn 0 -0.5848942 0.8111095
vn 0 -0.5848942 0.8111095
vn -0.6516686 0.2641523 -0.7110215
vn -0.6516686 0.2641523 -0.7110215
vn -0.6516687 0.2641523 -0.7110214
vn -0.6516687 0.2641523 -0.7110214
g bone8_0
f 3/3/3 2/2/2 1/1/1
f 6/6/6 5/5/5 4/4/4
f 9/9/9 8/8/8 7/7/7
f 12/12/12 11/11/11 10/10/10
f 15/15/15 14/14/14 13/13/13
f 18/18/18 17/17/17 16/16/16
f 21/21/21 20/20/20 19/19/19
f 24/24/24 23/23/23 22/22/22
f 27/27/27 26/26/26 25/25/25
f 30/30/30 29/29/29 28/28/28
f 33/33/33 32/32/32 31/31/31
f 36/36/36 35/35/35 34/34/34
f 39/39/39 38/38/38 37/37/37
f 40/40/40 39/39/39 37/37/37
f 43/43/43 42/42/42 41/41/41
f 44/44/44 43/43/43 41/41/41
f 47/47/47 46/46/46 45/45/45
f 48/48/48 47/47/47 45/45/45
f 51/51/51 50/50/50 49/49/49
f 52/52/52 51/51/51 49/49/49
f 55/55/55 54/54/54 53/53/53
f 56/56/56 55/55/55 53/53/53
f 59/59/59 58/58/58 57/57/57
f 60/60/60 59/59/59 57/57/57
f 63/63/63 62/62/62 61/61/61
f 64/64/64 63/63/63 61/61/61
f 67/67/67 66/66/66 65/65/65
f 68/68/68 67/67/67 65/65/65
f 71/71/71 70/70/70 69/69/69
f 72/72/72 71/71/71 69/69/69
f 75/75/75 74/74/74 73/73/73
f 76/76/76 75/75/75 73/73/73
f 79/79/79 78/78/78 77/77/77
f 80/80/80 79/79/79 77/77/77
f 83/83/83 82/82/82 81/81/81
f 84/84/84 83/83/83 81/81/81
f 87/87/87 86/86/86 85/85/85
f 88/88/88 87/87/87 85/85/85
f 91/91/91 90/90/90 89/89/89
f 92/92/92 91/91/91 89/89/89
f 95/95/95 94/94/94 93/93/93
f 96/96/96 95/95/95 93/93/93
f 99/99/99 98/98/98 97/97/97
f 100/100/100 99/99/99 97/97/97
f 103/103/103 102/102/102 101/101/101
f 104/104/104 103/103/103 101/101/101
f 107/107/107 106/106/106 105/105/105
f 108/108/108 107/107/107 105/105/105
f 111/111/111 110/110/110 109/109/109
f 112/112/112 111/111/111 109/109/109
f 115/115/115 114/114/114 113/113/113
f 116/116/116 115/115/115 113/113/113
