g ice_rock2
v -0.2133918 0.3995486 -0.2000214
v -0.2670494 0.3761268 0.00177226
v -0.2373392 0.3730826 -0.2206354
v -0.2444624 0.4061007 0.002282327
v -0.2463596 0.3730826 0.1788116
v -0.222014 0.3995486 0.1591274
v -0.2373392 0.3730826 -0.2206354
v -0.0566247 0.3754702 -0.2730186
v -0.05717378 0.4047008 -0.2487067
v -0.2133918 0.3995486 -0.2000214
v 0.1373443 0.3995486 -0.1910775
v -0.05717378 0.4047008 -0.2487067
v -0.0566247 0.3754702 -0.2730186
v 0.1621077 0.3730826 -0.2116148
v 0.1621077 0.3730826 -0.2116148
v 0.1817478 0.3757203 0.01190705
v 0.1584822 0.4051787 0.01138163
v 0.1373443 0.3995486 -0.1910775
v 0.1817478 0.3757203 0.01190705
v 0.1530872 0.3730826 0.187832
v 0.1298174 0.3995486 0.1660719
v 0.1584822 0.4051787 0.01138163
v -0.222014 0.3995486 0.1591274
v -0.06765948 0.4055664 0.2156271
v -0.06819405 0.3758543 0.2392993
v -0.2463596 0.3730826 0.1788116
v -0.06765948 0.4055664 0.2156271
v 0.1298174 0.3995486 0.1660719
v 0.1530872 0.3730826 0.187832
v -0.06819405 0.3758543 0.2392993
v -0.2133918 0.3995486 -0.2000214
v -0.0629342 0.4587601 0.006381636
v -0.2444624 0.4061007 0.002282327
v -0.05717378 0.4047008 -0.2487067
v 0.1584822 0.4051787 0.01138163
v 0.1373443 0.3995486 -0.1910775
v -0.06765948 0.4055664 0.2156271
v -0.222014 0.3995486 0.1591274
v -0.2444624 0.4061007 0.002282327
v -0.0629342 0.4587601 0.006381636
v 0.1584822 0.4051787 0.01138163
v 0.1298174 0.3995486 0.1660719
v -0.0566247 0.3754702 -0.2730186
v -0.2373392 0.3730826 -0.2206354
v -0.2353437 0.01022258 -0.2217447
v -0.0566247 0.01245697 -0.2730186
v 0.1621077 0.3730826 -0.2116148
v 0.1601025 0.01022258 -0.2128145
v 0.1817478 0.01245697 0.01190705
v 0.1817478 0.3757203 0.01190705
v 0.1530872 0.01245697 0.187832
v 0.1530872 0.3730826 0.187832
v -0.06819405 0.3758543 0.2392993
v 0.1530872 0.3730826 0.187832
v 0.1530872 0.01245697 0.187832
v -0.06819405 0.01245697 0.2392993
v -0.2463596 0.01245697 0.1788116
v -0.2463596 0.3730826 0.1788116
v -0.06819405 0.3758543 0.2392993
v -0.06819405 0.01245697 0.2392993
v -0.2670494 0.3761268 0.00177226
v -0.2463596 0.3730826 0.1788116
v -0.2463596 0.01245697 0.1788116
v -0.2670494 0.01245697 0.00177226
v -0.2353437 0.01022258 -0.2217447
v -0.2373392 0.3730826 -0.2206354
v 0.1601025 0.01022258 -0.2128145
v 0.1621077 0.3730826 -0.2116148
v -0.0566247 0.3754702 -0.2730186
v -0.0566247 0.01245697 -0.2730186
vt 0.9154114 0.9896594
vt 0.9101754 0.9896594
vt 0.9106216 0.9896594
vt 0.9145025 0.9896594
vt 0.9108825 0.9896594
vt 0.9152666 0.9896594
vt 0.9106216 0.9896594
vt 0.9489515 0.9896594
vt 0.9492784 0.9896594
vt 0.9154114 0.9896594
vt 0.9910422 0.9896594
vt 0.9492784 0.9896594
vt 0.9495395 0.9896594
vt 0.9955019 0.9896595
vt 0.9955019 0.9896595
vt 0.9961529 0.9896595
vt 0.9916958 0.9896594
vt 0.9910422 0.9896594
vt 0.9961529 0.9896595
vt 0.9961528 0.9896594
vt 0.9913229 0.9896594
vt 0.9916958 0.9896594
vt 0.9152666 0.9896594
vt 0.9492784 0.9896594
vt 0.948903 0.9896594
vt 0.9108825 0.9896594
vt 0.9492784 0.9896594
vt 0.9913229 0.9896594
vt 0.9961528 0.9896594
vt 0.9495785 0.9896595
vt 0.9329575 0.9842761
vt 0.9455464 0.9879888
vt 0.9152635 0.984687
vt 0.9622359 0.9845992
vt 0.9824837 0.9846291
vt 0.9914051 0.9842761
vt 0.9318563 0.9846534
vt 0.9093736 0.9842761
vt 0.9152635 0.984687
vt 0.9455464 0.9879888
vt 0.9824837 0.9846291
vt 0.9681286 0.9842761
vt 0.9191289 0.941866
vt 0.9176148 0.9412783
vt 0.9176148 0.9043596
vt 0.9191289 0.9043596
vt 0.9346305 0.9412783
vt 0.9346305 0.9043596
vt 0.9598989 0.9043596
vt 0.9598989 0.9419276
vt 0.9780165 0.9043596
vt 0.9780165 0.9412783
vt 0.9747743 0.9419606
vt 0.9780165 0.9412783
vt 0.9780165 0.9043596
vt 0.9747744 0.9043596
vt 0.9610008 0.9043596
vt 0.9610008 0.9412783
vt 0.9747743 0.9419606
vt 0.9747744 0.9043596
vt 0.9407811 0.9420276
vt 0.9610008 0.9412783
vt 0.9610008 0.9043596
vt 0.9407811 0.9043596
vt 0.9176148 0.9043596
vt 0.9176148 0.9412783
vt 0.9346305 0.9043596
vt 0.9346305 0.9412783
vt 0.9191289 0.941866
vt 0.9191289 0.9043596
vn -0.74313 0.6580757 -0.121219
vn -0.7487676 0.6625865 -0.01806284
vn -0.74313 0.6580757 -0.121219
vn -0.7487836 0.6625959 -0.01702604
vn -0.744221 0.6579477 0.1150646
vn -0.7442211 0.6579477 0.1150646
vn -0.2276065 0.6674925 -0.7089774
vn 0.0201093 0.6858802 -0.7274367
vn 0.01548832 0.6859269 -0.7275057
vn -0.2276065 0.6674925 -0.7089774
vn 0.2167076 0.6701314 -0.7099026
vn 0.01548832 0.6859269 -0.7275057
vn 0.0201093 0.6858802 -0.7274367
vn 0.2167076 0.6701314 -0.7099026
vn 0.7409258 0.6663306 -0.08385976
vn 0.7416994 0.6705518 0.01556512
vn 0.7416676 0.6705612 0.01663877
vn 0.7409258 0.6663306 -0.08385976
vn 0.7416994 0.6705518 0.01556512
vn 0.7318426 0.6661822 0.1435537
vn 0.7318426 0.6661822 0.1435537
vn 0.7416676 0.6705612 0.01663877
vn -0.2648149 0.6599239 0.703117
vn -0.01746777 0.6789482 0.7339784
vn -0.01294099 0.6789012 0.7341156
vn -0.2648149 0.6599239 0.703117
vn -0.01746777 0.6789482 0.7339784
vn 0.1887652 0.6625706 0.7248227
vn 0.1887652 0.6625706 0.7248226
vn -0.01294099 0.6789012 0.7341156
vn -0.1853685 0.9720988 -0.1437445
vn 0.001684201 0.9999975 -0.001463843
vn -0.1936337 0.9810491 -0.006991015
vn 0.008005721 0.9901584 -0.1397224
vn 0.1593325 0.9872245 0.0009730294
vn 0.158181 0.9784178 -0.132956
vn 0.001000635 0.9850307 0.172376
vn -0.1988651 0.965655 0.1672219
vn -0.1936337 0.9810491 -0.006991015
vn 0.001684201 0.9999975 -0.001463843
vn 0.1593325 0.9872245 0.0009730294
vn 0.1566348 0.9726385 0.1715809
vn -0.2771057 0.0007065746 -0.9608392
vn -0.2771057 0.0007065746 -0.9608392
vn -0.2771057 0.0007065746 -0.9608392
vn -0.2771057 0.0007065746 -0.9608392
vn 0.9957843 -0.002598407 -0.09168867
vn 0.9957843 -0.002598407 -0.09168866
vn 0.9998094 -0.001467616 0.01946777
vn 0.9998041 -0.001464829 0.01973921
vn 0.9869879 0 0.1607941
vn 0.9869879 0 0.1607941
vn 0.2265406 0 0.9740017
vn 0.2265406 0 0.9740017
vn 0.2265406 0 0.9740017
vn 0.2265406 0 0.9740017
vn -0.3214805 0 0.9469162
vn -0.3214805 0 0.9469162
vn -0.3214805 0 0.9469162
vn -0.3214805 0 0.9469162
vn -0.9996775 -0.001416611 -0.0253543
vn -0.9932404 0 0.1160755
vn -0.9932404 0 0.1160755
vn -0.9996711 -0.001419117 -0.02560653
vn -0.9906494 -0.002512582 -0.1364094
vn -0.9906494 -0.002512581 -0.1364094
vn 0.2689802 0.0008487279 -0.9631453
vn 0.2689803 0.0008487279 -0.9631453
vn 0.2689803 0.0008487279 -0.9631453
vn 0.2689802 0.000848728 -0.9631453
g ice_rock2_0
f 3/3/3 2/2/2 1/1/1
f 2/2/2 4/4/4 1/1/1
f 2/2/2 5/5/5 4/4/4
f 5/5/5 6/6/6 4/4/4
f 9/9/9 8/8/8 7/7/7
f 10/10/10 9/9/9 7/7/7
f 13/13/13 12/12/12 11/11/11
f 14/14/14 13/13/13 11/11/11
f 17/17/17 16/16/16 15/15/15
f 18/18/18 17/17/17 15/15/15
f 21/21/21 20/20/20 19/19/19
f 22/22/22 21/21/21 19/19/19
f 25/25/25 24/24/24 23/23/23
f 26/26/26 25/25/25 23/23/23
f 29/29/29 28/28/28 27/27/27
f 30/30/30 29/29/29 27/27/27
f 33/33/33 32/32/32 31/31/31
f 32/32/32 34/34/34 31/31/31
f 32/32/32 35/35/35 34/34/34
f 35/35/35 36/36/36 34/34/34
f 39/39/39 38/38/38 37/37/37
f 40/40/40 39/39/39 37/37/37
f 40/40/40 37/37/37 41/41/41
f 37/37/37 42/42/42 41/41/41
f 45/45/45 44/44/44 43/43/43
f 46/46/46 45/45/45 43/43/43
f 49/49/49 48/48/48 47/47/47
f 50/50/50 49/49/49 47/47/47
f 49/49/49 50/50/50 51/51/51
f 50/50/50 52/52/52 51/51/51
f 55/55/55 54/54/54 53/53/53
f 56/56/56 55/55/55 53/53/53
f 59/59/59 58/58/58 57/57/57
f 60/60/60 59/59/59 57/57/57
f 63/63/63 62/62/62 61/61/61
f 64/64/64 63/63/63 61/61/61
f 64/64/64 61/61/61 65/65/65
f 61/61/61 66/66/66 65/65/65
f 69/69/69 68/68/68 67/67/67
f 70/70/70 69/69/69 67/67/67
