g obstacles_rock16
v -0.4486472 0.8854251 0.8210409
v -0.4359066 -0.02186632 1.162887
v -0.5519639 -0.02312255 1.145017
v -0.3688687 0.8900011 0.8322383
v -0.3844956 0.9160426 0.7556501
v -0.4485058 0.9082544 0.7650259
v 0.02209064 0.9279711 0.7391544
v 0.0372245 0.9000814 0.8118618
v 0.7299348 -0.01046038 1.068472
v 0.8384944 -0.008065701 1.009893
v 0.1149112 0.8979924 0.7769251
v 0.08781824 0.9221408 0.7297097
v 0.1149112 0.8979924 0.7769251
v 0.8716631 -0.005843163 0.8911539
v 0.8384944 -0.008065701 1.009893
v 0.1417874 0.8895743 0.7017589
v 0.09511694 0.9207976 0.6621788
v 0.08781824 0.9221408 0.7297097
v 0.06533167 0.8808239 0.3543616
v 0.1110182 0.85219 0.3943224
v 0.8133652 7.632783E-17 0.4404495
v 0.1180974 0.7439888 0.07413916
v 0.1636427 0.7033947 0.07542447
v -0.1239932 0.7028282 -0.1487572
v 0.8498118 0.02427077 -0.590038
v -0.08060423 0.6614547 -0.1541471
v 0.5152383 0.01637435 -1.036762
v -0.08060423 0.6614547 -0.1541471
v 0.4254948 0.01408124 -1.111414
v 0.5152383 0.01637435 -1.036762
v -0.150042 0.6584792 -0.2420163
v -0.1239932 0.7028282 -0.1487572
v -0.1686877 0.6874976 -0.1990587
v -0.150042 0.6584792 -0.2420163
v 0.3120495 0.01091647 -1.137155
v 0.4254948 0.01408124 -1.111414
v -0.2295586 0.6554668 -0.2383084
v -0.2370245 0.6908896 -0.1896658
v -0.1686877 0.6874976 -0.1990587
v -0.4597191 0.6839807 -0.1852033
v -0.4459223 0.6479273 -0.2369947
v -0.5314687 -0.00104022 -1.106834
v -0.6439801 -0.004693031 -1.078152
v -0.5255417 0.6490295 -0.2290246
v -0.5224651 0.6775768 -0.1895148
v -0.4247727 0.9175768 0.6765154
v -0.01756874 0.890177 0.3417599
v 0.01200852 0.9316998 0.6510001
v -0.6725687 0.8724623 0.437301
v -0.6760029 0.7500079 0.1823821
v 0.0337542 0.7630451 0.1002698
v -0.4912104 0.7111652 -0.1157324
v -0.2060699 0.7199032 -0.1275291
v -0.49652 0.9058287 0.716343
v -0.3844956 0.9160426 0.7556501
v -0.4485058 0.9082544 0.7650259
v -0.4247727 0.9175768 0.6765154
v -0.7450618 0.8611465 0.4858642
v -0.6725687 0.8724623 0.437301
v -0.7482175 0.7283132 0.1717494
v -0.6760029 0.7500079 0.1823821
v 0.01200852 0.9316998 0.6510001
v -0.5610074 0.6906345 -0.1164853
v 0.02209064 0.9279711 0.7391544
v -0.4912104 0.7111652 -0.1157324
v 0.09511694 0.9207976 0.6621788
v 0.08781824 0.9221408 0.7297097
v -0.01756874 0.890177 0.3417599
v 0.06533167 0.8808239 0.3543616
v 0.0337542 0.7630451 0.1002698
v 0.1180974 0.7439888 0.07413916
v -0.2060699 0.7199032 -0.1275291
v -0.1239932 0.7028282 -0.1487572
v -0.2370245 0.6908896 -0.1896658
v -0.1686877 0.6874976 -0.1990587
v -0.4597191 0.6839807 -0.1852033
v -0.5224651 0.6775768 -0.1895148
v -0.7450618 0.8611465 0.4858642
v -0.49652 0.9058287 0.716343
v -0.4834541 0.8733482 0.7612677
v -0.7319952 0.8286681 0.5307993
v -0.5523795 -0.0209868 0.9818109
v -0.7482175 0.7283132 0.1717494
v -0.9185592 -0.02661395 0.5881302
v -0.7351512 0.6875412 0.1930631
v -0.5610074 0.6906345 -0.1164853
v -0.9287947 -0.01562738 -0.4864251
v -0.5479409 0.6500077 -0.09475752
v -0.6577543 -0.01047635 -0.9471874
v -0.4486472 0.8854251 0.8210409
v -0.5519639 -0.02312255 1.145017
v -0.5523795 -0.0209868 0.9818109
v -0.4834541 0.8733482 0.7612677
v -0.4485058 0.9082544 0.7650259
v -0.49652 0.9058287 0.716343
v -0.6439801 -0.004693031 -1.078152
v -0.5479409 0.6500077 -0.09475752
v -0.6577543 -0.01047635 -0.9471874
v -0.5255417 0.6490295 -0.2290246
v -0.5224651 0.6775768 -0.1895148
v -0.5610074 0.6906345 -0.1164853
vt 0.09180541 0.7981945
vt 0.003910216 0.7944429
vt 0.003919115 0.7975496
vt 0.09177313 0.7942644
vt 0.09211843 0.7959607
vt 0.09248763 0.797606
vt 0.09204597 0.7801923
vt 0.09171029 0.7787564
vt 0.003859187 0.7766275
vt 0.003847932 0.7726957
vt 0.09171246 0.7781163
vt 0.0923983 0.7746069
vt 0.09171246 0.7781163
vt 0.003859503 0.7768736
vt 0.003847932 0.7726957
vt 0.09171534 0.7786614
vt 0.09208117 0.7794396
vt 0.0923983 0.7746069
vt 0.09248935 0.7907734
vt 0.0918163 0.7906499
vt 0.003891731 0.7884997
vt 0.09237627 0.8124288
vt 0.09170695 0.812325
vt 0.09206649 0.8311722
vt 0.004034473 0.8105567
vt 0.091714 0.8306805
vt 0.003993208 0.8294269
vt 0.09416761 0.6300437
vt 0.008176873 0.6233796
vt 0.008568898 0.630466
vt 0.09383325 0.6233874
vt 0.09771432 0.6326444
vt 0.09683061 0.6261212
vt 0.09174032 0.8344742
vt 0.003975468 0.8370461
vt 0.003983753 0.8337389
vt 0.09170651 0.8384112
vt 0.09207342 0.8368014
vt 0.09243127 0.8351712
vt 0.09206165 0.8454686
vt 0.0917164 0.8466384
vt 0.003948314 0.8478695
vt 0.003940007 0.8511785
vt 0.09173908 0.8484191
vt 0.09237012 0.8500358
vt 0.03187952 0.3921633
vt 0.008271072 0.4138979
vt 0.006284956 0.3924003
vt 0.04665804 0.4102324
vt 0.04743338 0.4541028
vt 0.005934808 0.4580501
vt 0.03693256 0.4752744
vt 0.02023432 0.4752744
vt 0.009143054 0.189803
vt 0.007760854 0.1916268
vt 0.007981229 0.1905402
vt 0.009348982 0.191062
vt 0.01656897 0.1859508
vt 0.01698826 0.1872344
vt 0.03634507 0.1868076
vt 0.03537154 0.1880216
vt 0.009295636 0.1984158
vt 0.04484797 0.1903362
vt 0.007626531 0.1984621
vt 0.0441296 0.1915225
vt 0.009734063 0.1997905
vt 0.008202686 0.1995749
vt 0.01833952 0.1983411
vt 0.01865673 0.1997103
vt 0.03673537 0.200026
vt 0.03780485 0.2014511
vt 0.04401853 0.1963165
vt 0.04490773 0.1976985
vt 0.04628958 0.1958639
vt 0.04637621 0.1970124
vt 0.04642377 0.1921231
vt 0.04644175 0.1910669
vt 0.08903971 0.7920395
vt 0.08906331 0.8298597
vt 0.08551703 0.8297562
vt 0.08549339 0.7919359
vt 0.005794385 0.8274281
vt 0.08943205 0.6914843
vt 0.005770778 0.7896079
vt 0.08588577 0.6913807
vt 0.08904816 0.649186
vt 0.006163059 0.6890528
vt 0.08550183 0.6490824
vt 0.005779212 0.6467544
vt 0.09476328 0.6313219
vt 0.007610619 0.633178
vt 0.007677436 0.6185942
vt 0.09442478 0.6218523
vt 0.09780812 0.6285682
vt 0.09828365 0.6219985
vt 0.008087057 0.6200559
vt 0.09437586 0.6335342
vt 0.007622071 0.6317264
vt 0.09450594 0.6244892
vt 0.09760197 0.6269248
vt 0.09823492 0.6336144
vn -0.6951594 0.3201027 0.6436518
vn 0.03892422 0.3293558 0.9434033
vn -0.6565795 0.3056176 0.6895659
vn 0.04119471 0.359682 0.9321652
vn -0.03048287 0.985292 0.168139
vn -0.2462124 0.933672 0.2600692
vn 0.0008531425 0.9812587 0.1926931
vn 0.08518922 0.3615796 0.9284412
vn 0.1395156 0.3729544 0.9173005
vn 0.6309009 0.6241415 0.4608812
vn 0.5651275 0.6128844 0.5522713
vn 0.2725601 0.9508295 0.1470856
vn 0.5651275 0.6128844 0.5522713
vn 0.7739395 0.6322106 -0.03643284
vn 0.6309009 0.6241415 0.4608812
vn 0.7708095 0.6352927 -0.04749627
vn 0.3839778 0.9146236 -0.1265895
vn 0.2725601 0.9508295 0.1470856
vn 0.3408599 0.9030932 -0.2612226
vn 0.7523057 0.6554701 -0.06629466
vn 0.755059 0.6532171 -0.0565085
vn 0.414544 0.8041366 -0.4260486
vn 0.6464475 0.7491727 -0.1443805
vn 0.247959 0.8705567 -0.4250264
vn 0.5550131 0.7958755 -0.2419555
vn 0.3882336 0.8299972 -0.4004738
vn 0.3810094 0.8381348 -0.3903356
vn 0.3882336 0.8299972 -0.4004738
vn 0.2329202 0.8517491 -0.4693311
vn 0.3810094 0.8381348 -0.3903356
vn 0.2131663 0.8493633 -0.4828479
vn 0.247959 0.8705567 -0.4250264
vn 0.163091 0.8548692 -0.4925443
vn 0.2131663 0.8493633 -0.4828479
vn -0.01510859 0.8071471 -0.5901571
vn 0.2329202 0.8517491 -0.4693311
vn -0.02596425 0.804621 -0.5932208
vn -0.03147476 0.8812748 -0.471555
vn 0.163091 0.8548692 -0.4925443
vn -0.05297811 0.8854095 -0.4617829
vn -0.04570718 0.802654 -0.5946909
vn -0.04621088 0.8024246 -0.5949616
vn -0.4052597 0.7525768 -0.5190305
vn -0.6916842 0.6144434 -0.3795159
vn -0.5188588 0.7019183 -0.4879511
vn -0.05343574 0.9930056 -0.1052834
vn -0.04508679 0.9447981 -0.3245364
vn -0.01436588 0.9944624 -0.1041059
vn -0.09979334 0.9418183 -0.3209666
vn -0.1038519 0.9243148 -0.3672286
vn -0.02453875 0.9319058 -0.3618692
vn -0.05643753 0.981869 -0.1809638
vn -0.02281245 0.9830213 -0.1820681
vn -0.3677071 0.9015308 0.2281091
vn -0.03048287 0.985292 0.168139
vn -0.2462124 0.933672 0.2600692
vn -0.05343574 0.9930056 -0.1052834
vn -0.70017 0.7138397 0.0139624
vn -0.09979334 0.9418183 -0.3209666
vn -0.8117653 0.4418409 -0.3818556
vn -0.1038519 0.9243148 -0.3672286
vn -0.01436588 0.9944624 -0.1041059
vn -0.6130153 0.6451622 -0.456046
vn 0.0008531425 0.9812587 0.1926931
vn -0.05643753 0.981869 -0.1809638
vn 0.3839778 0.9146236 -0.1265895
vn 0.2725601 0.9508295 0.1470856
vn -0.04508679 0.9447981 -0.3245364
vn 0.3408599 0.9030932 -0.2612226
vn -0.02453875 0.9319058 -0.3618692
vn 0.414544 0.8041366 -0.4260486
vn -0.02281245 0.9830213 -0.1820681
vn 0.247959 0.8705567 -0.4250264
vn -0.03147476 0.8812748 -0.471555
vn 0.163091 0.8548692 -0.4925443
vn -0.05297811 0.8854095 -0.4617829
vn -0.5188588 0.7019183 -0.4879511
vn -0.70017 0.7138397 0.0139624
vn -0.3677071 0.9015308 0.2281091
vn -0.7847034 0.2113236 0.5827374
vn -0.896605 0.2453121 0.3686755
vn -0.8007744 0.1993633 0.5648139
vn -0.8117653 0.4418409 -0.3818556
vn -0.924383 0.2458767 0.2916513
vn -0.9440337 0.3137406 -0.1018193
vn -0.6130153 0.6451622 -0.456046
vn -0.8111475 0.5088248 -0.2883351
vn -0.6966919 0.5841202 -0.4164422
vn -0.7953449 0.5187637 -0.3135452
vn -0.6951594 0.3201027 0.6436518
vn -0.6565795 0.3056176 0.6895659
vn -0.8007744 0.1993633 0.5648139
vn -0.7847034 0.2113236 0.5827374
vn -0.2462124 0.933672 0.2600692
vn -0.3677071 0.9015308 0.2281091
vn -0.4052597 0.7525768 -0.5190305
vn -0.6966919 0.5841202 -0.4164422
vn -0.7953449 0.5187637 -0.3135452
vn -0.6916842 0.6144434 -0.3795159
vn -0.5188588 0.7019183 -0.4879511
vn -0.6130153 0.6451622 -0.456046
g obstacles_rock16_0
f 3/3/3 2/2/2 1/1/1
f 2/2/2 4/4/4 1/1/1
f 1/1/1 4/4/4 5/5/5
f 6/6/6 1/1/1 5/5/5
f 7/7/7 5/5/5 4/4/4
f 4/4/4 2/2/2 8/8/8
f 8/8/8 7/7/7 4/4/4
f 2/2/2 9/9/9 8/8/8
f 9/9/9 10/10/10 8/8/8
f 10/10/10 11/11/11 8/8/8
f 7/7/7 8/8/8 11/11/11
f 12/12/12 7/7/7 11/11/11
f 15/15/15 14/14/14 13/13/13
f 14/14/14 16/16/16 13/13/13
f 13/13/13 16/16/16 17/17/17
f 18/18/18 13/13/13 17/17/17
f 17/17/17 16/16/16 19/19/19
f 20/20/20 16/16/16 14/14/14
f 16/16/16 20/20/20 19/19/19
f 21/21/21 20/20/20 14/14/14
f 22/22/22 19/19/19 20/20/20
f 20/20/20 21/21/21 23/23/23
f 23/23/23 22/22/22 20/20/20
f 24/24/24 22/22/22 23/23/23
f 21/21/21 25/25/25 23/23/23
f 26/26/26 24/24/24 23/23/23
f 26/26/26 23/23/23 25/25/25
f 27/27/27 26/26/26 25/25/25
f 30/30/30 29/29/29 28/28/28
f 29/29/29 31/31/31 28/28/28
f 32/32/32 28/28/28 31/31/31
f 33/33/33 32/32/32 31/31/31
f 36/36/36 35/35/35 34/34/34
f 35/35/35 37/37/37 34/34/34
f 34/34/34 37/37/37 38/38/38
f 39/39/39 34/34/34 38/38/38
f 40/40/40 38/38/38 37/37/37
f 41/41/41 37/37/37 35/35/35
f 41/41/41 40/40/40 37/37/37
f 42/42/42 41/41/41 35/35/35
f 42/42/42 43/43/43 41/41/41
f 43/43/43 44/44/44 41/41/41
f 40/40/40 41/41/41 44/44/44
f 45/45/45 40/40/40 44/44/44
f 48/48/48 47/47/47 46/46/46
f 47/47/47 49/49/49 46/46/46
f 50/50/50 49/49/49 47/47/47
f 51/51/51 50/50/50 47/47/47
f 50/50/50 51/51/51 52/52/52
f 51/51/51 53/53/53 52/52/52
f 56/56/56 55/55/55 54/54/54
f 55/55/55 57/57/57 54/54/54
f 58/58/58 54/54/54 57/57/57
f 59/59/59 58/58/58 57/57/57
f 60/60/60 58/58/58 59/59/59
f 61/61/61 60/60/60 59/59/59
f 62/62/62 57/57/57 55/55/55
f 63/63/63 60/60/60 61/61/61
f 64/64/64 62/62/62 55/55/55
f 65/65/65 63/63/63 61/61/61
f 66/66/66 62/62/62 64/64/64
f 67/67/67 66/66/66 64/64/64
f 62/62/62 66/66/66 68/68/68
f 66/66/66 69/69/69 68/68/68
f 70/70/70 68/68/68 69/69/69
f 71/71/71 70/70/70 69/69/69
f 72/72/72 70/70/70 71/71/71
f 73/73/73 72/72/72 71/71/71
f 74/74/74 72/72/72 73/73/73
f 65/65/65 72/72/72 74/74/74
f 75/75/75 74/74/74 73/73/73
f 76/76/76 65/65/65 74/74/74
f 63/63/63 65/65/65 76/76/76
f 77/77/77 63/63/63 76/76/76
f 80/80/80 79/79/79 78/78/78
f 81/81/81 80/80/80 78/78/78
f 82/82/82 80/80/80 81/81/81
f 81/81/81 78/78/78 83/83/83
f 84/84/84 82/82/82 81/81/81
f 85/85/85 81/81/81 83/83/83
f 84/84/84 81/81/81 85/85/85
f 85/85/85 83/83/83 86/86/86
f 87/87/87 84/84/84 85/85/85
f 88/88/88 85/85/85 86/86/86
f 87/87/87 85/85/85 88/88/88
f 89/89/89 87/87/87 88/88/88
f 92/92/92 91/91/91 90/90/90
f 93/93/93 92/92/92 90/90/90
f 93/93/93 90/90/90 94/94/94
f 95/95/95 93/93/93 94/94/94
f 98/98/98 97/97/97 96/96/96
f 97/97/97 99/99/99 96/96/96
f 99/99/99 97/97/97 100/100/100
f 97/97/97 101/101/101 100/100/100
