g obstacles_rock15
v -0.3373174 0.8793612 1.069795
v -0.5699239 -0.03608871 1.203697
v -0.763292 -0.03816199 1.216644
v -0.233765 0.9285805 1.092007
v -0.2105335 1.004668 1.048574
v -0.3132855 0.974184 1.048731
v 0.4201657 1.531545 1.130951
v 0.4263559 1.485515 1.253364
v 0.7363363 -0.01726389 1.349874
v 0.9282624 -0.01331186 1.281954
v 0.5619247 1.482068 1.216147
v 0.5297505 1.521923 1.132263
v 0.5619247 1.482068 1.216147
v 1.012545 -0.009643555 1.096759
v 0.9282624 -0.01331186 1.281954
v 0.6248665 1.468174 1.100407
v 0.5588252 1.519706 1.023995
v 0.5297505 1.521923 1.132263
v 0.4881842 1.826466 0.4901895
v 0.6570377 1.68039 0.4901902
v 1.067059 4.163336E-17 0.7751962
v 0.2132977 1.024341 -0.3775648
v 0.3295566 0.9743187 -0.3604783
v -0.07478479 0.9558299 -0.8485991
v 0.8164347 0.04005694 -0.8159516
v -0.009259731 0.9025872 -0.8040258
v 0.3844388 0.02702475 -1.62951
v -0.009259731 0.9025872 -0.8040258
v 0.2570764 0.02323985 -1.774068
v 0.3844388 0.02702475 -1.62951
v -0.09693685 0.8903577 -0.9855691
v -0.07478479 0.9558299 -0.8485991
v -0.134257 0.9291146 -0.9459711
v -0.09693685 0.8903577 -0.9855691
v 0.07862481 0.01801705 -1.844891
v 0.2570764 0.02323985 -1.774068
v -0.2265266 0.8830564 -1.006297
v -0.2473896 0.933131 -0.9524795
v -0.134257 0.9291146 -0.9459711
v -0.6119927 0.9224524 -0.9997982
v -0.5808731 0.8733149 -1.051575
v -0.6828374 -0.001716614 -1.648077
v -0.8736039 -0.007745266 -1.629917
v -0.7118477 0.8731081 -1.064525
v -0.7135624 0.912667 -1.020575
v -0.2513734 1.046446 0.9508256
v 0.3785362 1.821381 0.490189
v 0.4261416 1.537699 0.9846324
v -0.4680738 1.306892 0.4948036
v -0.5522097 0.7864766 -0.4724656
v 0.08176956 1.046867 -0.3842212
v -0.663134 0.9540236 -0.9116145
v -0.2103637 0.9756646 -0.8583428
v -0.3706111 0.9903779 0.97374
v -0.2105335 1.004668 1.048574
v -0.3132855 0.974184 1.048731
v -0.2513734 1.046446 0.9508256
v -0.5703214 1.261421 0.4912046
v -0.4680738 1.306892 0.4948036
v -0.6701983 0.784301 -0.4400702
v -0.5522097 0.7864766 -0.4724656
v 0.4261416 1.537699 0.9846324
v -0.7435099 0.9093831 -0.9127189
v 0.4201657 1.531545 1.130951
v -0.663134 0.9540236 -0.9116145
v 0.5588252 1.519706 1.023995
v 0.5297505 1.521923 1.132263
v 0.3785362 1.821381 0.490189
v 0.4881842 1.826466 0.4901895
v 0.08176956 1.046867 -0.3842212
v 0.2132977 1.024341 -0.3775648
v -0.2103637 0.9756646 -0.8583428
v -0.07478479 0.9558299 -0.8485991
v -0.2473896 0.933131 -0.9524795
v -0.134257 0.9291146 -0.9459711
v -0.6119927 0.9224524 -0.9997982
v -0.7135624 0.912667 -1.020575
v -0.5703214 1.261421 0.4912046
v -0.3706111 0.9903779 0.97374
v -0.4286186 0.8921204 0.942335
v -0.7326227 1.116285 0.4901911
v -0.9513587 -0.03463697 1.049929
v -0.6701983 0.784301 -0.4400702
v -1.373455 -0.04392433 0.2312116
v -0.6854457 0.7156708 -0.4127787
v -0.7435099 0.9093831 -0.9127189
v -1.205721 -0.02579188 -1.029406
v -0.7432438 0.8354418 -0.9009949
v -0.9293689 -0.01729035 -1.419853
v -0.3373174 0.8793612 1.069795
v -0.763292 -0.03816199 1.216644
v -0.9513587 -0.03463697 1.049929
v -0.4286186 0.8921204 0.942335
v -0.3132855 0.974184 1.048731
v -0.3706111 0.9903779 0.97374
v -0.8736039 -0.007745266 -1.629917
v -0.7432438 0.8354418 -0.9009949
v -0.9293689 -0.01729035 -1.419853
v -0.7118477 0.8731081 -1.064525
v -0.7135624 0.912667 -1.020575
v -0.7435099 0.9093831 -0.9127189
vt 0.09180541 0.7981945
vt 0.003910216 0.7944429
vt 0.003919115 0.7975496
vt 0.09177313 0.7942644
vt 0.09211843 0.7959607
vt 0.09248763 0.797606
vt 0.09204597 0.7801923
vt 0.09171029 0.7787564
vt 0.003859187 0.7766275
vt 0.003847932 0.7726957
vt 0.09171246 0.7781163
vt 0.0923983 0.7746069
vt 0.09171246 0.7781163
vt 0.003859503 0.7768736
vt 0.003847932 0.7726957
vt 0.09171534 0.7786614
vt 0.09208117 0.7794396
vt 0.0923983 0.7746069
vt 0.09248935 0.7907734
vt 0.0918163 0.7906499
vt 0.003891731 0.7884997
vt 0.09237627 0.8124288
vt 0.09170695 0.812325
vt 0.09206649 0.8311722
vt 0.004034473 0.8105567
vt 0.091714 0.8306805
vt 0.003993208 0.8294269
vt 0.09416761 0.6300437
vt 0.008176873 0.6233796
vt 0.008568898 0.630466
vt 0.09383325 0.6233874
vt 0.09771432 0.6326444
vt 0.09683061 0.6261212
vt 0.09174032 0.8344742
vt 0.003975468 0.8370461
vt 0.003983753 0.8337389
vt 0.09170651 0.8384112
vt 0.09207342 0.8368014
vt 0.09243127 0.8351712
vt 0.09206165 0.8454686
vt 0.0917164 0.8466384
vt 0.003948314 0.8478695
vt 0.003940007 0.8511785
vt 0.09173908 0.8484191
vt 0.09237012 0.8500358
vt 0.03187952 0.3921633
vt 0.008271072 0.4138979
vt 0.006284956 0.3924003
vt 0.04665804 0.4102324
vt 0.04743338 0.4541028
vt 0.005934808 0.4580501
vt 0.03693256 0.4752744
vt 0.02023432 0.4752744
vt 0.009143054 0.189803
vt 0.007760854 0.1916268
vt 0.007981229 0.1905402
vt 0.009348982 0.191062
vt 0.01656897 0.1859508
vt 0.01698826 0.1872344
vt 0.03634507 0.1868076
vt 0.03537154 0.1880216
vt 0.009295636 0.1984158
vt 0.04484797 0.1903362
vt 0.007626531 0.1984621
vt 0.0441296 0.1915225
vt 0.009734063 0.1997905
vt 0.008202686 0.1995749
vt 0.01833952 0.1983411
vt 0.01865673 0.1997103
vt 0.03673537 0.200026
vt 0.03780485 0.2014511
vt 0.04401853 0.1963165
vt 0.04490773 0.1976985
vt 0.04628958 0.1958639
vt 0.04637621 0.1970124
vt 0.04642377 0.1921231
vt 0.04644175 0.1910669
vt 0.08903971 0.7920395
vt 0.08906331 0.8298597
vt 0.08551703 0.8297562
vt 0.08549339 0.7919359
vt 0.005794385 0.8274281
vt 0.08943205 0.6914843
vt 0.005770778 0.7896079
vt 0.08588577 0.6913807
vt 0.08904816 0.649186
vt 0.006163059 0.6890528
vt 0.08550183 0.6490824
vt 0.005779212 0.6467544
vt 0.09476328 0.6313219
vt 0.007610619 0.633178
vt 0.007677436 0.6185942
vt 0.09442478 0.6218523
vt 0.09780812 0.6285682
vt 0.09828365 0.6219985
vt 0.008087057 0.6200559
vt 0.09437586 0.6335342
vt 0.007622071 0.6317264
vt 0.09450594 0.6244892
vt 0.09760197 0.6269248
vt 0.09823492 0.6336144
vn -0.391129 0.3134741 0.8653046
vn -0.1612387 0.09530399 0.982303
vn -0.5068805 0.3662921 0.7803219
vn -0.1862489 0.1024396 0.9771476
vn -0.6060969 0.7123691 0.3538035
vn -0.47044 0.575642 0.6688216
vn -0.5416107 0.7811893 0.3104854
vn -0.1219456 0.1487555 0.9813262
vn -0.07927474 0.09373575 0.992436
vn 0.6630712 0.1948535 0.7227508
vn 0.5935166 0.2140065 0.7758474
vn 0.246642 0.95083 0.1873235
vn 0.5935166 0.2140065 0.7758474
vn 0.9435372 0.2508627 0.2163456
vn 0.6630712 0.1948535 0.7227508
vn 0.9350146 0.2759628 0.2226929
vn 0.3900925 0.8480859 0.3585781
vn 0.246642 0.95083 0.1873235
vn 0.3303412 0.858433 -0.3923869
vn 0.9000355 0.379458 -0.2143543
vn 0.9400021 0.3088607 -0.1449173
vn 0.3185121 0.705745 -0.6328301
vn 0.8326082 0.4183812 -0.3629336
vn 0.2917049 0.8996419 -0.3248884
vn 0.8133194 0.4545497 -0.3631749
vn 0.6369116 0.6327702 -0.4403922
vn 0.6349899 0.6368753 -0.4372388
vn 0.6369116 0.6327702 -0.4403922
vn 0.3939542 0.7099637 -0.5837393
vn 0.6349899 0.6368753 -0.4372388
vn 0.4385539 0.7054456 -0.5567916
vn 0.2917049 0.8996419 -0.3248884
vn 0.2682232 0.8269696 -0.4941432
vn 0.4385539 0.7054456 -0.5567916
vn -0.03561438 0.6549753 -0.7548106
vn 0.3939542 0.7099637 -0.5837393
vn -0.05432623 0.6508386 -0.75727
vn 0.04058176 0.8697788 -0.4917701
vn 0.2682232 0.8269696 -0.4941432
vn 0.004726178 0.8810558 -0.4729887
vn -0.09710224 0.6180211 -0.7801417
vn -0.1005534 0.6091157 -0.7866811
vn -0.5415687 0.5338879 -0.649359
vn -0.6236972 0.513134 -0.589657
vn -0.5734252 0.6862858 -0.4474318
vn -0.4758452 0.7241243 0.4992147
vn -0.4056607 0.9088995 -0.09664962
vn -0.4417146 0.7495748 0.4929766
vn -0.4558407 0.8769311 -0.1523189
vn -0.3535134 0.8951585 -0.2715134
vn -0.3198746 0.8423774 -0.4336825
vn -0.2286825 0.959964 0.161782
vn -0.2075471 0.9706533 0.1214765
vn -0.5206678 0.6091567 0.5981914
vn -0.6060969 0.7123691 0.3538035
vn -0.47044 0.575642 0.6688216
vn -0.4758452 0.7241243 0.4992147
vn -0.5617445 0.8272885 0.006069786
vn -0.4558407 0.8769311 -0.1523189
vn -0.5956941 0.7716919 -0.2228008
vn -0.3535134 0.8951585 -0.2715134
vn -0.4417146 0.7495748 0.4929766
vn -0.5789548 0.7839052 0.2242856
vn -0.5416107 0.7811893 0.3104854
vn -0.2286825 0.959964 0.161782
vn 0.3900925 0.8480859 0.3585781
vn 0.246642 0.95083 0.1873235
vn -0.4056607 0.9088995 -0.09664962
vn 0.3303412 0.858433 -0.3923869
vn -0.3198746 0.8423774 -0.4336825
vn 0.3185121 0.705745 -0.6328301
vn -0.2075471 0.9706533 0.1214765
vn 0.2917049 0.8996419 -0.3248884
vn 0.04058176 0.8697788 -0.4917701
vn 0.2682232 0.8269696 -0.4941432
vn 0.004726178 0.8810558 -0.4729887
vn -0.5734252 0.6862858 -0.4474318
vn -0.5617445 0.8272885 0.006069786
vn -0.5206678 0.6091567 0.5981914
vn -0.7386752 0.4055099 0.5384427
vn -0.8328587 0.52267 0.1821056
vn -0.7517912 0.3970545 0.5264577
vn -0.5956941 0.7716919 -0.2228008
vn -0.8382854 0.5425204 0.05430602
vn -0.810042 0.5588199 -0.1776301
vn -0.5789548 0.7839052 0.2242856
vn -0.8255051 0.5392051 -0.1667309
vn -0.8934241 0.4281643 -0.1359003
vn -0.8962365 0.4140687 -0.1590822
vn -0.391129 0.3134741 0.8653046
vn -0.5068805 0.3662921 0.7803219
vn -0.7517912 0.3970545 0.5264577
vn -0.7386752 0.4055099 0.5384427
vn -0.47044 0.575642 0.6688216
vn -0.5206678 0.6091567 0.5981914
vn -0.5415687 0.5338879 -0.649359
vn -0.8934241 0.4281643 -0.1359003
vn -0.8962365 0.4140687 -0.1590822
vn -0.6236972 0.513134 -0.589657
vn -0.5734252 0.6862858 -0.4474318
vn -0.5789548 0.7839052 0.2242856
g obstacles_rock15_0
f 3/3/3 2/2/2 1/1/1
f 2/2/2 4/4/4 1/1/1
f 1/1/1 4/4/4 5/5/5
f 6/6/6 1/1/1 5/5/5
f 7/7/7 5/5/5 4/4/4
f 4/4/4 2/2/2 8/8/8
f 8/8/8 7/7/7 4/4/4
f 2/2/2 9/9/9 8/8/8
f 9/9/9 10/10/10 8/8/8
f 10/10/10 11/11/11 8/8/8
f 7/7/7 8/8/8 11/11/11
f 12/12/12 7/7/7 11/11/11
f 15/15/15 14/14/14 13/13/13
f 14/14/14 16/16/16 13/13/13
f 13/13/13 16/16/16 17/17/17
f 18/18/18 13/13/13 17/17/17
f 17/17/17 16/16/16 19/19/19
f 20/20/20 16/16/16 14/14/14
f 16/16/16 20/20/20 19/19/19
f 21/21/21 20/20/20 14/14/14
f 22/22/22 19/19/19 20/20/20
f 20/20/20 21/21/21 23/23/23
f 23/23/23 22/22/22 20/20/20
f 24/24/24 22/22/22 23/23/23
f 21/21/21 25/25/25 23/23/23
f 26/26/26 24/24/24 23/23/23
f 26/26/26 23/23/23 25/25/25
f 27/27/27 26/26/26 25/25/25
f 30/30/30 29/29/29 28/28/28
f 29/29/29 31/31/31 28/28/28
f 32/32/32 28/28/28 31/31/31
f 33/33/33 32/32/32 31/31/31
f 36/36/36 35/35/35 34/34/34
f 35/35/35 37/37/37 34/34/34
f 34/34/34 37/37/37 38/38/38
f 39/39/39 34/34/34 38/38/38
f 40/40/40 38/38/38 37/37/37
f 41/41/41 37/37/37 35/35/35
f 41/41/41 40/40/40 37/37/37
f 42/42/42 41/41/41 35/35/35
f 42/42/42 43/43/43 41/41/41
f 43/43/43 44/44/44 41/41/41
f 40/40/40 41/41/41 44/44/44
f 45/45/45 40/40/40 44/44/44
f 48/48/48 47/47/47 46/46/46
f 47/47/47 49/49/49 46/46/46
f 50/50/50 49/49/49 47/47/47
f 51/51/51 50/50/50 47/47/47
f 50/50/50 51/51/51 52/52/52
f 51/51/51 53/53/53 52/52/52
f 56/56/56 55/55/55 54/54/54
f 55/55/55 57/57/57 54/54/54
f 58/58/58 54/54/54 57/57/57
f 59/59/59 58/58/58 57/57/57
f 60/60/60 58/58/58 59/59/59
f 61/61/61 60/60/60 59/59/59
f 62/62/62 57/57/57 55/55/55
f 63/63/63 60/60/60 61/61/61
f 64/64/64 62/62/62 55/55/55
f 65/65/65 63/63/63 61/61/61
f 66/66/66 62/62/62 64/64/64
f 67/67/67 66/66/66 64/64/64
f 62/62/62 66/66/66 68/68/68
f 66/66/66 69/69/69 68/68/68
f 70/70/70 68/68/68 69/69/69
f 71/71/71 70/70/70 69/69/69
f 72/72/72 70/70/70 71/71/71
f 73/73/73 72/72/72 71/71/71
f 74/74/74 72/72/72 73/73/73
f 65/65/65 72/72/72 74/74/74
f 75/75/75 74/74/74 73/73/73
f 76/76/76 65/65/65 74/74/74
f 63/63/63 65/65/65 76/76/76
f 77/77/77 63/63/63 76/76/76
f 80/80/80 79/79/79 78/78/78
f 81/81/81 80/80/80 78/78/78
f 82/82/82 80/80/80 81/81/81
f 81/81/81 78/78/78 83/83/83
f 84/84/84 82/82/82 81/81/81
f 85/85/85 81/81/81 83/83/83
f 84/84/84 81/81/81 85/85/85
f 85/85/85 83/83/83 86/86/86
f 87/87/87 84/84/84 85/85/85
f 88/88/88 85/85/85 86/86/86
f 87/87/87 85/85/85 88/88/88
f 89/89/89 87/87/87 88/88/88
f 92/92/92 91/91/91 90/90/90
f 93/93/93 92/92/92 90/90/90
f 93/93/93 90/90/90 94/94/94
f 95/95/95 93/93/93 94/94/94
f 98/98/98 97/97/97 96/96/96
f 97/97/97 99/99/99 96/96/96
f 99/99/99 97/97/97 100/100/100
f 97/97/97 101/101/101 100/100/100
