g obstacles_rock15
v -0.7186054 1.142004 -1.198302
v -0.7846912 -0.03816199 -1.773538
v -0.5913235 -0.03608871 -1.760591
v -0.6002935 1.203049 -1.201629
v -0.6756233 1.265609 -1.107279
v -0.7592589 1.201727 -1.129404
v 0.4201657 1.531545 -1.130951
v 0.4263559 1.485515 -1.253364
v 0.7713069 -0.01726389 -1.778106
v 0.9632329 -0.01331186 -1.710186
v 0.5619247 1.482068 -1.216147
v 0.5297505 1.521923 -1.132263
v 0.5619247 1.482068 -1.216147
v 0.9632329 -0.01331186 -1.710186
v 1.047516 -0.009643555 -1.524991
v 0.6248665 1.468174 -1.100407
v 0.5588252 1.519706 -1.023995
v 0.5297505 1.521923 -1.132263
v 0.4881842 1.826466 -0.4901895
v 0.6570377 1.68039 -0.4901902
v 1.067059 4.163336E-17 -0.7751962
v 0.2630611 1.024341 0.4219273
v 0.3295566 0.9743187 0.3604783
v -0.07478479 0.9558299 0.8485991
v 0.8164347 0.04005694 0.8159516
v -0.009259731 0.9025872 0.8040258
v 0.3844388 0.02702475 1.62951
v -0.009259731 0.9025872 0.8040258
v 0.3844388 0.02702475 1.62951
v 0.2570764 0.02323985 1.774068
v -0.09693685 0.8903577 0.9855692
v -0.07478479 0.9558299 0.8485991
v -0.134257 0.9291146 0.9459711
v -0.09693685 0.8903577 0.9855692
v 0.2570764 0.02323985 1.774068
v 0.07862481 0.01801705 1.844891
v -0.2265266 0.8830564 1.006297
v -0.2473896 0.933131 0.9524795
v -0.134257 0.9291146 0.9459711
v -0.6119927 0.9224524 0.9997982
v -0.5808731 0.8733149 1.051575
v -0.585215 -0.001716614 1.940079
v -0.7759827 -0.007745266 1.921919
v -0.7118477 0.8731081 1.064525
v -0.7135624 0.912667 1.020575
v -0.7726616 1.277029 -0.9980263
v 0.4261416 1.537699 -0.9846324
v 0.3785362 1.821381 -0.490189
v -0.9699627 1.536558 -0.4901897
v -1.055499 1.02535 0.4724656
v 0.1227936 1.046867 0.4258817
v -0.6783463 0.9612434 0.9116145
v -0.2103637 0.9756646 0.8583428
v -0.8505946 1.186527 -1.064766
v -0.7592589 1.201727 -1.129404
v -0.6756233 1.265609 -1.107279
v -0.7726616 1.277029 -0.9980263
v -1.073228 1.49807 -0.4901904
v -0.9699627 1.536558 -0.4901897
v -1.173487 0.9962208 0.4893775
v -1.055499 1.02535 0.4724656
v 0.4261416 1.537699 -0.9846324
v -0.7947611 0.9337084 0.9127189
v 0.4201657 1.531545 -1.130951
v -0.6783463 0.9612434 0.9116145
v 0.5588252 1.519706 -1.023995
v 0.5297505 1.521923 -1.132263
v 0.3785362 1.821381 -0.490189
v 0.4881842 1.826466 -0.4901895
v 0.1227936 1.046867 0.4258817
v 0.2630611 1.024341 0.4219273
v -0.2103637 0.9756646 0.8583428
v -0.07478479 0.9558299 0.8485991
v -0.2473896 0.933131 0.9524795
v -0.134257 0.9291146 0.9459711
v -0.6119927 0.9224524 0.9997982
v -0.7135624 0.912667 1.020575
v -1.073228 1.49807 -0.4901904
v -0.8581988 1.085975 -1.133433
v -0.8505946 1.186527 -1.064766
v -1.126948 1.303442 -0.4901911
v -0.9739052 -0.03463697 -1.613212
v -1.173487 0.9962208 0.4893775
v -1.462281 -0.04392433 -0.7254905
v -1.163606 0.9426177 0.4127787
v -0.7947611 0.9337084 0.9127189
v -1.205721 -0.02579188 1.029406
v -0.7848798 0.8801053 0.8361202
v -0.8317477 -0.01729035 1.711855
v -0.7186054 1.142004 -1.198302
v -0.9739052 -0.03463697 -1.613212
v -0.7846912 -0.03816199 -1.773538
v -0.8581988 1.085975 -1.133433
v -0.7592589 1.201727 -1.129404
v -0.8505946 1.186527 -1.064766
v -0.7759827 -0.007745266 1.921919
v -0.8317477 -0.01729035 1.711855
v -0.7848798 0.8801053 0.8361202
v -0.7118477 0.8731081 1.064525
v -0.7135624 0.912667 1.020575
v -0.7947611 0.9337084 0.9127189
vt 0.09180541 0.7981945
vt 0.003919115 0.7975496
vt 0.003910216 0.7944429
vt 0.09177313 0.7942644
vt 0.09211843 0.7959607
vt 0.09248763 0.797606
vt 0.09204597 0.7801923
vt 0.09171029 0.7787564
vt 0.003859187 0.7766275
vt 0.003847932 0.7726957
vt 0.09171246 0.7781163
vt 0.0923983 0.7746069
vt 0.09171246 0.7781163
vt 0.003847932 0.7726957
vt 0.003859503 0.7768736
vt 0.09171534 0.7786614
vt 0.09208117 0.7794396
vt 0.0923983 0.7746069
vt 0.09248935 0.7907734
vt 0.0918163 0.7906499
vt 0.003891731 0.7884997
vt 0.09237627 0.8124288
vt 0.09170695 0.812325
vt 0.09206649 0.8311722
vt 0.004034473 0.8105567
vt 0.091714 0.8306805
vt 0.003993208 0.8294269
vt 0.09416761 0.6300437
vt 0.008568898 0.630466
vt 0.008176873 0.6233796
vt 0.09383325 0.6233874
vt 0.09771432 0.6326444
vt 0.09683061 0.6261212
vt 0.09174032 0.8344742
vt 0.003983753 0.8337389
vt 0.003975468 0.8370461
vt 0.09170651 0.8384112
vt 0.09207342 0.8368014
vt 0.09243127 0.8351712
vt 0.09206165 0.8454686
vt 0.0917164 0.8466384
vt 0.003948314 0.8478695
vt 0.003940007 0.8511785
vt 0.09173908 0.8484191
vt 0.09237012 0.8500358
vt 0.03187952 0.3921633
vt 0.006284956 0.3924003
vt 0.008271072 0.4138979
vt 0.04665804 0.4102324
vt 0.04743338 0.4541028
vt 0.005934808 0.4580501
vt 0.03693256 0.4752744
vt 0.02023432 0.4752744
vt 0.009143054 0.189803
vt 0.007981229 0.1905402
vt 0.007760854 0.1916268
vt 0.009348982 0.191062
vt 0.01656897 0.1859508
vt 0.01698826 0.1872344
vt 0.03634507 0.1868076
vt 0.03537154 0.1880216
vt 0.009295636 0.1984158
vt 0.04484797 0.1903362
vt 0.007626531 0.1984621
vt 0.0441296 0.1915225
vt 0.009734063 0.1997905
vt 0.008202686 0.1995749
vt 0.01833952 0.1983411
vt 0.01865673 0.1997103
vt 0.03673537 0.200026
vt 0.03780485 0.2014511
vt 0.04401853 0.1963165
vt 0.04490773 0.1976985
vt 0.04628958 0.1958639
vt 0.04637621 0.1970124
vt 0.04642377 0.1921231
vt 0.04644175 0.1910669
vt 0.08903971 0.7920395
vt 0.08551703 0.8297562
vt 0.08906331 0.8298597
vt 0.08549339 0.7919359
vt 0.005794385 0.8274281
vt 0.08943205 0.6914843
vt 0.005770778 0.7896079
vt 0.08588577 0.6913807
vt 0.08904816 0.649186
vt 0.006163059 0.6890528
vt 0.08550183 0.6490824
vt 0.005779212 0.6467544
vt 0.09476328 0.6313219
vt 0.007677436 0.6185942
vt 0.007610619 0.633178
vt 0.09442478 0.6218523
vt 0.09780812 0.6285682
vt 0.09828365 0.6219985
vt 0.008087057 0.6200559
vt 0.007622071 0.6317264
vt 0.09437586 0.6335342
vt 0.09450594 0.6244892
vt 0.09760197 0.6269248
vt 0.09823492 0.6336144
vn -0.3057886 0.4282632 -0.8503434
vn -0.3329637 0.4171014 -0.8456722
vn -0.07071997 0.3656556 -0.9280597
vn -0.08572128 0.4054415 -0.9100928
vn -0.2428139 0.9264181 -0.287734
vn -0.4566 0.6319425 -0.626231
vn -0.2015683 0.9297109 -0.3082337
vn -0.04067831 0.4017843 -0.9148304
vn -0.01632714 0.363622 -0.9314035
vn 0.592752 0.3924139 -0.7033181
vn 0.5833228 0.4145308 -0.6984975
vn 0.2466423 0.9508299 -0.1873237
vn 0.5833228 0.4145308 -0.6984975
vn 0.592752 0.3924139 -0.7033181
vn 0.9414014 0.2958991 -0.1618857
vn 0.9431358 0.3032067 -0.1362377
vn 0.3900922 0.8480859 -0.3585782
vn 0.2466423 0.9508299 -0.1873237
vn 0.3797084 0.8513173 0.3620501
vn 0.913874 0.3590305 0.1895558
vn 0.94181 0.3080205 0.1346006
vn 0.3894824 0.6538973 0.6486307
vn 0.8390072 0.4091686 0.3586753
vn 0.3071437 0.8763944 0.3709388
vn 0.8133194 0.4545497 0.3631749
vn 0.6472901 0.6176439 0.4466895
vn 0.6349899 0.6368752 0.4372388
vn 0.6472901 0.6176439 0.4466895
vn 0.6349899 0.6368752 0.4372388
vn 0.3939542 0.7099636 0.5837395
vn 0.4385538 0.7054456 0.5567918
vn 0.3071437 0.8763944 0.3709388
vn 0.2682228 0.82697 0.4941429
vn 0.4385538 0.7054456 0.5567918
vn 0.3939542 0.7099636 0.5837395
vn 0.1007025 0.7095711 0.6974008
vn 0.0959067 0.7107733 0.6968524
vn 0.04622656 0.8625412 0.5038708
vn 0.2682228 0.82697 0.4941429
vn 0.02158552 0.8702949 0.4920577
vn 0.05460064 0.7103258 0.7017522
vn 0.05099067 0.7087874 0.7035768
vn -0.4240578 0.6503667 0.6302367
vn -0.6431713 0.5554056 0.5271199
vn -0.4795043 0.6336781 0.6070648
vn -0.2030126 0.8536341 -0.4796817
vn -0.1705185 0.8766345 -0.4499283
vn -0.125894 0.9754936 0.1804522
vn -0.1471734 0.953849 0.2617479
vn -0.09901112 0.8667898 0.4887456
vn -0.06310626 0.8548422 0.5150363
vn -0.02484396 0.9828319 0.1828231
vn 0.001831758 0.9838051 0.1792324
vn -0.7343244 0.4409427 -0.5160788
vn -0.4566 0.6319425 -0.626231
vn -0.2428139 0.9264181 -0.287734
vn -0.2030126 0.8536341 -0.4796817
vn -0.7064661 0.7072118 -0.02751972
vn -0.1471734 0.953849 0.2617479
vn -0.7895801 0.4634264 0.4022427
vn -0.09901112 0.8667898 0.4887456
vn -0.1705185 0.8766345 -0.4499283
vn -0.5331703 0.658627 0.5309799
vn -0.2015683 0.9297109 -0.3082337
vn -0.02484396 0.9828319 0.1828231
vn 0.3900922 0.8480859 -0.3585782
vn 0.2466423 0.9508299 -0.1873237
vn -0.125894 0.9754936 0.1804522
vn 0.3797084 0.8513173 0.3620501
vn -0.06310626 0.8548422 0.5150363
vn 0.3894824 0.6538973 0.6486307
vn 0.001831758 0.9838051 0.1792324
vn 0.3071437 0.8763944 0.3709388
vn 0.04622656 0.8625412 0.5038708
vn 0.2682228 0.82697 0.4941429
vn 0.02158552 0.8702949 0.4920577
vn -0.4795043 0.6336781 0.6070648
vn -0.7064661 0.7072118 -0.02751972
vn -0.805656 0.3058763 -0.5073048
vn -0.7343244 0.4409427 -0.5160788
vn -0.9658135 0.2275868 -0.1241313
vn -0.786018 0.3142655 -0.5323655
vn -0.7895801 0.4634264 0.4022427
vn -0.9592498 0.2362076 -0.1550671
vn -0.962526 0.2133914 0.1673558
vn -0.5331703 0.658627 0.5309799
vn -0.8970736 0.3159484 0.3089265
vn -0.7711917 0.3849875 0.5069988
vn -0.8184739 0.3972045 0.4151254
vn -0.3057886 0.4282632 -0.8503434
vn -0.786018 0.3142655 -0.5323655
vn -0.3329637 0.4171014 -0.8456722
vn -0.805656 0.3058763 -0.5073048
vn -0.4566 0.6319425 -0.626231
vn -0.7343244 0.4409427 -0.5160788
vn -0.4240578 0.6503667 0.6302367
vn -0.8184739 0.3972045 0.4151254
vn -0.7711917 0.3849875 0.5069988
vn -0.6431713 0.5554056 0.5271199
vn -0.4795043 0.6336781 0.6070648
vn -0.5331703 0.658627 0.5309799
g obstacles_rock15_0
f 3/3/3 2/2/2 1/1/1
f 4/4/4 3/3/3 1/1/1
f 4/4/4 1/1/1 5/5/5
f 1/1/1 6/6/6 5/5/5
f 5/5/5 7/7/7 4/4/4
f 3/3/3 4/4/4 8/8/8
f 7/7/7 8/8/8 4/4/4
f 9/9/9 3/3/3 8/8/8
f 10/10/10 9/9/9 8/8/8
f 11/11/11 10/10/10 8/8/8
f 8/8/8 7/7/7 11/11/11
f 7/7/7 12/12/12 11/11/11
f 15/15/15 14/14/14 13/13/13
f 16/16/16 15/15/15 13/13/13
f 16/16/16 13/13/13 17/17/17
f 13/13/13 18/18/18 17/17/17
f 16/16/16 17/17/17 19/19/19
f 16/16/16 20/20/20 15/15/15
f 20/20/20 16/16/16 19/19/19
f 20/20/20 21/21/21 15/15/15
f 19/19/19 22/22/22 20/20/20
f 21/21/21 20/20/20 23/23/23
f 22/22/22 23/23/23 20/20/20
f 22/22/22 24/24/24 23/23/23
f 25/25/25 21/21/21 23/23/23
f 24/24/24 26/26/26 23/23/23
f 23/23/23 26/26/26 25/25/25
f 26/26/26 27/27/27 25/25/25
f 30/30/30 29/29/29 28/28/28
f 31/31/31 30/30/30 28/28/28
f 28/28/28 32/32/32 31/31/31
f 32/32/32 33/33/33 31/31/31
f 36/36/36 35/35/35 34/34/34
f 37/37/37 36/36/36 34/34/34
f 37/37/37 34/34/34 38/38/38
f 34/34/34 39/39/39 38/38/38
f 38/38/38 40/40/40 37/37/37
f 37/37/37 41/41/41 36/36/36
f 40/40/40 41/41/41 37/37/37
f 41/41/41 42/42/42 36/36/36
f 43/43/43 42/42/42 41/41/41
f 44/44/44 43/43/43 41/41/41
f 41/41/41 40/40/40 44/44/44
f 40/40/40 45/45/45 44/44/44
f 48/48/48 47/47/47 46/46/46
f 49/49/49 48/48/48 46/46/46
f 49/49/49 50/50/50 48/48/48
f 50/50/50 51/51/51 48/48/48
f 51/51/51 50/50/50 52/52/52
f 53/53/53 51/51/51 52/52/52
f 56/56/56 55/55/55 54/54/54
f 57/57/57 56/56/56 54/54/54
f 54/54/54 58/58/58 57/57/57
f 58/58/58 59/59/59 57/57/57
f 58/58/58 60/60/60 59/59/59
f 60/60/60 61/61/61 59/59/59
f 57/57/57 62/62/62 56/56/56
f 60/60/60 63/63/63 61/61/61
f 62/62/62 64/64/64 56/56/56
f 63/63/63 65/65/65 61/61/61
f 62/62/62 66/66/66 64/64/64
f 66/66/66 67/67/67 64/64/64
f 66/66/66 62/62/62 68/68/68
f 69/69/69 66/66/66 68/68/68
f 68/68/68 70/70/70 69/69/69
f 70/70/70 71/71/71 69/69/69
f 70/70/70 72/72/72 71/71/71
f 72/72/72 73/73/73 71/71/71
f 72/72/72 74/74/74 73/73/73
f 72/72/72 65/65/65 74/74/74
f 74/74/74 75/75/75 73/73/73
f 65/65/65 76/76/76 74/74/74
f 65/65/65 63/63/63 76/76/76
f 63/63/63 77/77/77 76/76/76
f 80/80/80 79/79/79 78/78/78
f 79/79/79 81/81/81 78/78/78
f 79/79/79 82/82/82 81/81/81
f 78/78/78 81/81/81 83/83/83
f 82/82/82 84/84/84 81/81/81
f 81/81/81 85/85/85 83/83/83
f 81/81/81 84/84/84 85/85/85
f 83/83/83 85/85/85 86/86/86
f 84/84/84 87/87/87 85/85/85
f 85/85/85 88/88/88 86/86/86
f 85/85/85 87/87/87 88/88/88
f 87/87/87 89/89/89 88/88/88
f 92/92/92 91/91/91 90/90/90
f 91/91/91 93/93/93 90/90/90
f 90/90/90 93/93/93 94/94/94
f 93/93/93 95/95/95 94/94/94
f 98/98/98 97/97/97 96/96/96
f 99/99/99 98/98/98 96/96/96
f 98/98/98 99/99/99 100/100/100
f 101/101/101 98/98/98 100/100/100
