g Plate1
v 0.558982 1.349508 -0.3142885
v 0.7537553 1.819734 -0.5550423
v 0.3842597 1.931818 -0.5550423
v 0.8115175 1.214525 -0.3142885
v 1.094285 1.637717 -0.5550423
v 0.2849655 1.432629 -0.3142885
v 8.806948E-08 1.969664 -0.5550423
v 1.032866 1.032869 -0.3142885
v 1.392761 1.392764 -0.5550423
v 3.691443E-08 1.460695 -0.3142885
v -0.3842624 1.931817 -0.5550423
v 1.214523 0.8115203 -0.3142885
v 1.637715 1.094289 -0.5550423
v -0.2849675 1.432629 -0.3142885
v -0.753758 1.819732 -0.5550423
v 1.349506 0.5589855 -0.3142885
v 1.819732 0.7537597 -0.5550423
v -0.5589841 1.349506 -0.3142885
v -1.094287 1.637716 -0.5550423
v 1.432629 0.2849689 -0.3142885
v 1.931818 0.3842642 -0.5550423
v -0.811519 1.214524 -0.3142885
v -1.392763 1.392763 -0.5550423
v 1.460696 1.239099E-06 -0.3142885
v 1.969664 1.565079E-06 -0.5550423
v -1.032868 1.032867 -0.3142885
v -1.637716 1.094287 -0.5550423
v 1.432629 -0.2849665 -0.3142885
v 1.931818 -0.3842611 -0.5550423
v -1.214524 0.8115188 -0.3142885
v -1.819732 0.7537577 -0.5550423
v 1.349507 -0.5589831 -0.3142885
v 1.819734 -0.7537569 -0.5550423
v -1.349507 0.5589839 -0.3142885
v -1.931818 0.3842622 -0.5550423
v 1.214525 -0.8115183 -0.3142885
v 1.637717 -1.094286 -0.5550423
v -1.432629 0.2849675 -0.3142885
v -1.969665 -1.881217E-07 -0.5550423
v 1.032869 -1.032867 -0.3142885
v 1.392764 -1.392763 -0.5550423
v -1.460696 -6.106826E-08 -0.3142885
v -1.931818 -0.3842626 -0.5550423
v 0.8115197 -1.214524 -0.3142885
v 1.094288 -1.637716 -0.5550423
v -1.432629 -0.2849676 -0.3142885
v -1.819733 -0.7537582 -0.5550423
v 0.5589847 -1.349506 -0.3142885
v 0.7537589 -1.819732 -0.5550423
v -1.349507 -0.558984 -0.3142885
v -1.637716 -1.094287 -0.5550423
v 0.2849682 -1.432629 -0.3142885
v 0.3842634 -1.931818 -0.5550423
v -1.214524 -0.8115191 -0.3142885
v -1.392763 -1.392764 -0.5550423
v 5.128695E-07 -1.460696 -0.3142885
v 7.298677E-07 -1.969665 -0.5550423
v -1.032868 -1.032868 -0.3142885
v -1.094287 -1.637716 -0.5550423
v -0.2849672 -1.432629 -0.3142885
v -0.3842619 -1.931818 -0.5550423
v -0.8115189 -1.214524 -0.3142885
v -0.7537577 -1.819733 -0.5550423
v -0.5589838 -1.349507 -0.3142885
v -0.9486153 -0.3929292 -0.1565517
v -0.8537312 -0.5704449 -0.1565517
v -0.7260387 -0.7260388 -0.1565517
v -0.5704449 -0.8537311 -0.1565517
v -0.3929292 -0.9486153 -0.1565517
v -0.2003134 -1.007045 -0.1565517
v -1.007045 -0.2003136 -0.1565517
v 3.13066E-07 -1.026774 -0.1565517
v -1.026774 2.954482E-08 -0.1565517
v 0.200314 -1.007045 -0.1565517
v -1.007045 0.2003136 -0.1565517
v 0.3929297 -0.9486149 -0.1565517
v -0.9486151 0.3929293 -0.1565517
v 0.5704454 -0.8537309 -0.1565517
v -0.8537312 0.5704449 -0.1565517
v 0.7260391 -0.7260383 -0.1565517
v -0.7260387 0.7260385 -0.1565517
v 0.8537315 -0.5704443 -0.1565517
v -0.5704449 0.853731 -0.1565517
v 0.9486156 -0.3929285 -0.1565517
v -0.3929293 0.9486151 -0.1565517
v 1.007045 -0.2003128 -0.1565517
v -0.2003136 1.007044 -0.1565517
v 1.026774 9.434773E-07 -0.1565517
v -2.149937E-08 1.026774 -0.1565517
v 1.007044 0.2003146 -0.1565517
v 0.2003121 1.007045 -0.1565517
v 0.9486147 0.3929303 -0.1565517
v 0.3929279 0.9486158 -0.1565517
v 0.8537304 0.570446 -0.1565517
v 0.5704437 0.8537319 -0.1565517
v 0.7260376 0.7260395 -0.1565517
v 0.1225211 0.6159602 -0.04494748
v 0.2403347 0.580222 -0.04494748
v 0.3489125 0.5221862 -0.04494748
v 0.1818887 0.2722167 -2.712011E-06
v 0.4440817 0.4440829 -0.04494748
v 0.5221851 0.348914 -0.04494748
v 0.2315006 0.2315014 -2.712011E-06
v 0.272216 0.1818896 -2.712011E-06
v 0.5802212 0.2403364 -0.04494748
v 0.3211009 0.06387149 -2.712011E-06
v 0.3024703 0.1252879 -2.712011E-06
v 0.6159598 0.1225228 -0.04494748
v 0.6280272 6.861413E-07 -0.04494748
v 0.3273917 4.997944E-07 -2.712011E-06
v 0.61596 -0.1225214 -0.04494748
v 0.321101 -0.06387049 -2.712011E-06
v 0.2722164 -0.1818888 -2.712011E-06
v 0.5802217 -0.2403351 -0.04494748
v 0.3024706 -0.125287 -2.712011E-06
v 0.5221858 -0.3489128 -0.04494748
v 0.4440826 -0.444082 -0.04494748
v 0.231501 -0.2315006 -2.712011E-06
v 0.3489135 -0.5221853 -0.04494748
v 0.1818892 -0.272216 -2.712011E-06
v 0.06387103 -0.3211008 -2.712011E-06
v -0.06387103 0.3211012 -2.712011E-06
v -0.3211011 -0.06387074 -2.712011E-06
v -0.2722163 0.1818893 -2.712011E-06
v -0.1818892 -0.2722161 -2.712011E-06
v 0.2403359 -0.5802212 -0.04494748
v 0.1252875 -0.3024702 -2.712011E-06
v 0.1225222 -0.6159598 -0.04494748
v 1.601352E-07 -0.6280271 -0.04494748
v 3.931642E-08 -0.3273915 -2.712011E-06
v -0.06387096 -0.3211008 -2.712011E-06
v -0.1225219 -0.6159598 -0.04494748
v -0.1252874 -0.3024704 -2.712011E-06
v -0.2403356 -0.5802215 -0.04494748
v -0.3489133 -0.5221854 -0.04494748
v -0.4440824 -0.4440823 -0.04494748
v -0.231501 -0.2315007 -2.712011E-06
v -0.2722163 -0.1818889 -2.712011E-06
v -0.5221857 -0.3489132 -0.04494748
v -0.3024706 -0.1252872 -2.712011E-06
v -0.5802216 -0.2403355 -0.04494748
v -0.61596 -0.1225219 -0.04494748
v -0.6280273 1.271334E-07 -0.04494748
v -0.3273918 2.083826E-07 -2.712011E-06
v -0.3211011 0.06387116 -2.712011E-06
v -0.61596 0.1225221 -0.04494748
v -0.3024706 0.1252876 -2.712011E-06
v -0.5802215 0.2403357 -0.04494748
v -0.5221857 0.3489133 -0.04494748
v -0.4440824 0.4440824 -0.04494748
v -0.231501 0.2315011 -2.712011E-06
v -0.1818892 0.2722165 -2.712011E-06
v -0.3489133 0.5221856 -0.04494748
v -0.1252875 0.3024707 -2.712011E-06
v -0.2403357 0.5802216 -0.04494748
v -0.1225221 0.61596 -0.04494748
v -4.450212E-08 0.6280274 -0.04494748
v -6.736137E-08 0.327392 -2.712011E-06
v 0.06387041 0.3211013 -2.712011E-06
v 0.1252869 0.3024709 -2.712011E-06
vt 0.7790464 0.270636
vt 0.888297 0.1813311
vt 0.8186667 0.1117013
vt 0.8184313 0.3294825
vt 0.9430051 0.2632073
vt 0.7289379 0.2206039
vt 0.736791 0.05699412
vt 0.8455789 0.3948817
vt 0.9806889 0.3541833
vt 0.6700319 0.1813093
vt 0.6458151 0.01931082
vt 0.8594463 0.4643205
vt 0.9999 0.4507629
vt 0.6045914 0.1542613
vt 0.5492357 0.0001000103
vt 0.8595002 0.5351304
vt 0.9999 0.5492344
vt 0.5351316 0.1404997
vt 0.4507643 9.997988E-05
vt 0.8457387 0.6045903
vt 0.9806891 0.6458141
vt 0.4643217 0.1405535
vt 0.3541849 0.01931066
vt 0.8186907 0.6700307
vt 0.9430056 0.73679
vt 0.3948828 0.1544204
vt 0.263209 0.0569937
vt 0.7793954 0.7289369
vt 0.8882976 0.8186661
vt 0.3294835 0.1815678
vt 0.1813328 0.1117014
vt 0.7293633 0.779045
vt 0.8186677 0.8882959
vt 0.270637 0.2209523
vt 0.1117025 0.1813311
vt 0.6705168 0.8184297
vt 0.7367914 0.9430037
vt 0.2206047 0.2710604
vt 0.05699443 0.2632072
vt 0.6051175 0.845577
vt 0.6458156 0.9806869
vt 0.1813095 0.3299665
vt 0.01931082 0.3541831
vt 0.5356787 0.8594441
vt 0.5492362 0.9998976
vt 0.1542613 0.3954069
vt 9.997988E-05 0.4507627
vt 0.4648688 0.8594978
vt 0.4507648 0.9998975
vt 0.1404998 0.4648668
vt 9.997988E-05 0.5492344
vt 0.3954089 0.8457364
vt 0.3541853 0.9806871
vt 0.1405537 0.5356767
vt 0.01931094 0.6458141
vt 0.3299683 0.8186885
vt 0.2632093 0.9430038
vt 0.1544209 0.6051157
vt 0.05699461 0.7367901
vt 0.2710619 0.7793935
vt 0.181333 0.8882961
vt 0.1815686 0.6705149
vt 0.1117028 0.8186662
vt 0.2209534 0.7293614
vt 0.2526557 0.4759988
vt 0.2527262 0.5247142
vt 0.2622994 0.57248
vt 0.2810074 0.6174601
vt 0.3081311 0.6579264
vt 0.3426283 0.6923236
vt 0.2620903 0.4282057
vt 0.3831732 0.7193297
vt 0.2806678 0.3831716
vt 0.4282076 0.7379071
vt 0.307674 0.342627
vt 0.4760009 0.7473418
vt 0.3420713 0.3081302
vt 0.5247164 0.7472714
vt 0.3825376 0.2810068
vt 0.5724822 0.7376983
vt 0.427518 0.2622991
vt 0.6174626 0.7189907
vt 0.4752838 0.2527262
vt 0.6579289 0.6918672
vt 0.5239993 0.2526558
vt 0.6923262 0.6573703
vt 0.5717926 0.2620905
vt 0.7193324 0.6168258
vt 0.616827 0.2806679
vt 0.7379098 0.5717916
vt 0.6573716 0.3076739
vt 0.7473444 0.5239984
vt 0.6918688 0.3420709
vt 0.7472737 0.4752831
vt 0.7189926 0.3825372
vt 0.7377005 0.4275174
vt 0.5945258 0.3843094
vt 0.6152799 0.4049733
vt 0.6316038 0.4292889
vt 0.5681787 0.4633367
vt 0.6428703 0.456322
vt 0.6486462 0.4850336
vt 0.5740219 0.4773411
vt 0.5770197 0.4922164
vt 0.6487096 0.5143203
vt 0.5741323 0.5222819
vt 0.5770571 0.5073912
vt 0.6430584 0.5430563
vt 0.6319095 0.570138
vt 0.5683624 0.5363172
vt 0.6156915 0.5945244
vt 0.5599647 0.5489562
vt 0.536666 0.5681752
vt 0.5950276 0.6152781
vt 0.5492622 0.5597134
vt 0.5707118 0.6316015
vt 0.5436784 0.6428674
vt 0.5226611 0.5740176
vt 0.5149664 0.648643
vt 0.5077852 0.5770146
vt 0.4777181 0.5741253
vt 0.522282 0.4258721
vt 0.4258678 0.4777154
vt 0.4633342 0.4318223
vt 0.4318213 0.5366606
vt 0.4856795 0.648706
vt 0.4926097 0.5770512
vt 0.4569432 0.6430547
vt 0.4298611 0.6319059
vt 0.4636819 0.568356
vt 0.4510419 0.5599586
vt 0.4054742 0.6156879
vt 0.4402839 0.5492565
vt 0.3847201 0.5950241
vt 0.3683962 0.5707085
vt 0.3571297 0.5436754
vt 0.4259782 0.5226564
vt 0.4229804 0.507781
vt 0.3513539 0.5149638
vt 0.422943 0.4926063
vt 0.3512905 0.4856771
vt 0.3569417 0.456941
vt 0.3680905 0.4298593
vt 0.4316377 0.4636803
vt 0.4400355 0.4510412
vt 0.3843085 0.405473
vt 0.450738 0.440284
vt 0.4049726 0.3847194
vt 0.4292884 0.368396
vt 0.4563218 0.35713
vt 0.4773391 0.4259798
vt 0.492215 0.4229828
vt 0.4850337 0.3513546
vt 0.5073906 0.4229463
vt 0.5143207 0.3512915
vt 0.543057 0.3569429
vt 0.5701391 0.3680916
vt 0.5363182 0.4316415
vt 0.5489581 0.4400387
vt 0.5597161 0.4507409
vn -0.1482927 -0.3580206 -0.9218625
vn -0.1636131 -0.3950397 -0.903977
vn -0.08340894 -0.4193641 -0.9039782
vn -0.215284 -0.3221936 -0.9218698
vn -0.2375607 -0.3555171 -0.903976
vn -0.0755965 -0.3800578 -0.9218683
vn 0 -0.4275996 -0.9039683
vn -0.2740035 -0.2740035 -0.9218699
vn -0.3023518 -0.3023518 -0.9039728
vn 0 -0.3875044 -0.9218679
vn 0.08340894 -0.4193641 -0.9039782
vn -0.3221936 -0.215284 -0.9218698
vn -0.3555171 -0.2375607 -0.903976
vn 0.0755965 -0.3800578 -0.9218683
vn 0.1636131 -0.3950397 -0.903977
vn -0.3580206 -0.1482927 -0.9218625
vn -0.3950397 -0.1636131 -0.903977
vn 0.1482927 -0.3580206 -0.9218625
vn 0.2375607 -0.3555171 -0.903976
vn -0.3800578 -0.0755965 -0.9218683
vn -0.4193641 -0.08340894 -0.9039782
vn 0.215284 -0.3221936 -0.9218698
vn 0.3023518 -0.3023518 -0.9039728
vn -0.3875044 0 -0.9218679
vn -0.4275996 0 -0.9039683
vn 0.2740035 -0.2740035 -0.9218699
vn 0.3555171 -0.2375607 -0.903976
vn -0.3800578 0.0755965 -0.9218683
vn -0.4193641 0.08340894 -0.9039782
vn 0.3221936 -0.215284 -0.9218698
vn 0.3950397 -0.1636131 -0.903977
vn -0.3580206 0.1482927 -0.9218625
vn -0.3950397 0.1636131 -0.903977
vn 0.3580206 -0.1482927 -0.9218625
vn 0.4193641 -0.08340894 -0.9039782
vn -0.3221936 0.215284 -0.9218698
vn -0.3555171 0.2375607 -0.903976
vn 0.3800578 -0.0755965 -0.9218683
vn 0.4275996 0 -0.9039683
vn -0.2740035 0.2740035 -0.9218699
vn -0.3023518 0.3023518 -0.9039728
vn 0.3875044 0 -0.9218679
vn 0.4193641 0.08340894 -0.9039782
vn -0.215284 0.3221936 -0.9218698
vn -0.2375607 0.3555171 -0.903976
vn 0.3800578 0.0755965 -0.9218683
vn 0.3950397 0.1636131 -0.903977
vn -0.1482927 0.3580206 -0.9218625
vn -0.1636131 0.3950397 -0.903977
vn 0.3580206 0.1482927 -0.9218625
vn 0.3555171 0.2375607 -0.903976
vn -0.0755965 0.3800578 -0.9218683
vn -0.08340894 0.4193641 -0.9039782
vn 0.3221936 0.215284 -0.9218698
vn 0.3023518 0.3023518 -0.9039728
vn 0 0.3875044 -0.9218679
vn 0 0.4275996 -0.9039683
vn 0.2740035 0.2740035 -0.9218699
vn 0.2375607 0.3555171 -0.903976
vn 0.0755965 0.3800578 -0.9218683
vn 0.08340894 0.4193641 -0.9039782
vn 0.215284 0.3221936 -0.9218698
vn 0.1636131 0.3950397 -0.903977
vn 0.1482927 0.3580206 -0.9218625
vn 0.2845003 0.1178348 -0.9514066
vn 0.2560277 0.1710615 -0.9514135
vn 0.2177538 0.2177538 -0.9514025
vn 0.1710615 0.2560277 -0.9514135
vn 0.1178348 0.2845003 -0.9514066
vn 0.06006194 0.3020188 -0.951408
vn 0.3020188 0.06006194 -0.951408
vn 0 0.3079389 -0.9514062
vn 0.3079389 0 -0.9514062
vn -0.06006194 0.3020188 -0.951408
vn 0.3020188 -0.06006194 -0.951408
vn -0.1178348 0.2845003 -0.9514066
vn 0.2845003 -0.1178348 -0.9514066
vn -0.1710615 0.2560277 -0.9514135
vn 0.2560277 -0.1710615 -0.9514135
vn -0.2177538 0.2177538 -0.9514025
vn 0.2177538 -0.2177538 -0.9514025
vn -0.2560277 0.1710615 -0.9514135
vn 0.1710615 -0.2560277 -0.9514135
vn -0.2845003 0.1178348 -0.9514066
vn 0.1178348 -0.2845003 -0.9514066
vn -0.3020188 0.06006194 -0.951408
vn 0.06006194 -0.3020188 -0.951408
vn -0.3079389 0 -0.9514062
vn 0 -0.3079389 -0.9514062
vn -0.3020188 -0.06006194 -0.951408
vn -0.06006194 -0.3020188 -0.951408
vn -0.2845003 -0.1178348 -0.9514066
vn -0.1178348 -0.2845003 -0.9514066
vn -0.2560277 -0.1710615 -0.9514135
vn -0.1710615 -0.2560277 -0.9514135
vn -0.2177538 -0.2177538 -0.9514025
vn -0.04150577 -0.208719 -0.9770945
vn -0.08142469 -0.1966034 -0.9770963
vn -0.1182308 -0.176919 -0.9770983
vn -0.04373342 -0.0654628 -0.9968961
vn -0.1504592 -0.1504592 -0.9770998
vn -0.176919 -0.1182308 -0.9770983
vn -0.05566629 -0.05566629 -0.9968965
vn -0.0654628 -0.04373342 -0.9968961
vn -0.1966034 -0.08142469 -0.9770963
vn -0.07721255 -0.01535096 -0.9968965
vn -0.07272633 -0.03012207 -0.996897
vn -0.208719 -0.04150577 -0.9770945
vn -0.2128085 0 -0.977094
vn -0.07870807 0 -0.9968977
vn -0.208719 0.04150577 -0.9770945
vn -0.07721255 0.01535096 -0.9968965
vn -0.0654628 0.04373342 -0.9968961
vn -0.1966034 0.08142469 -0.9770963
vn -0.07272633 0.03012207 -0.996897
vn -0.176919 0.1182308 -0.9770983
vn -0.1504592 0.1504592 -0.9770998
vn -0.05566629 0.05566629 -0.9968965
vn -0.1182308 0.176919 -0.9770983
vn -0.04373342 0.0654628 -0.9968961
vn -0.01535096 0.07721255 -0.9968965
vn 0.01535096 -0.07721255 -0.9968965
vn 0.07721255 0.01535096 -0.9968965
vn 0.0654628 -0.04373342 -0.9968961
vn 0.04373342 0.0654628 -0.9968961
vn -0.08142469 0.1966034 -0.9770963
vn -0.03012207 0.07272633 -0.996897
vn -0.04150577 0.208719 -0.9770945
vn 0 0.2128085 -0.977094
vn 0 0.07870807 -0.9968977
vn 0.01535096 0.07721255 -0.9968965
vn 0.04150577 0.208719 -0.9770945
vn 0.03012207 0.07272633 -0.996897
vn 0.08142469 0.1966034 -0.9770963
vn 0.1182308 0.176919 -0.9770983
vn 0.1504592 0.1504592 -0.9770998
vn 0.05566629 0.05566629 -0.9968965
vn 0.0654628 0.04373342 -0.9968961
vn 0.176919 0.1182308 -0.9770983
vn 0.07272633 0.03012207 -0.996897
vn 0.1966034 0.08142469 -0.9770963
vn 0.208719 0.04150577 -0.9770945
vn 0.2128085 0 -0.977094
vn 0.07870807 0 -0.9968977
vn 0.07721255 -0.01535096 -0.9968965
vn 0.208719 -0.04150577 -0.9770945
vn 0.07272633 -0.03012207 -0.996897
vn 0.1966034 -0.08142469 -0.9770963
vn 0.176919 -0.1182308 -0.9770983
vn 0.1504592 -0.1504592 -0.9770998
vn 0.05566629 -0.05566629 -0.9968965
vn 0.04373342 -0.0654628 -0.9968961
vn 0.1182308 -0.176919 -0.9770983
vn 0.03012207 -0.07272633 -0.996897
vn 0.08142469 -0.1966034 -0.9770963
vn 0.04150577 -0.208719 -0.9770945
vn 0 -0.2128085 -0.977094
vn 0 -0.07870807 -0.9968977
vn -0.01535096 -0.07721255 -0.9968965
vn -0.03012207 -0.07272633 -0.996897
g Plate1_0
f 3/3/3 2/2/2 1/1/1
f 1/1/1 2/2/2 4/4/4
f 2/2/2 5/5/5 4/4/4
f 6/6/6 3/3/3 1/1/1
f 7/7/7 3/3/3 6/6/6
f 4/4/4 5/5/5 8/8/8
f 5/5/5 9/9/9 8/8/8
f 10/10/10 7/7/7 6/6/6
f 11/11/11 7/7/7 10/10/10
f 8/8/8 9/9/9 12/12/12
f 9/9/9 13/13/13 12/12/12
f 14/14/14 11/11/11 10/10/10
f 15/15/15 11/11/11 14/14/14
f 12/12/12 13/13/13 16/16/16
f 13/13/13 17/17/17 16/16/16
f 18/18/18 15/15/15 14/14/14
f 19/19/19 15/15/15 18/18/18
f 16/16/16 17/17/17 20/20/20
f 17/17/17 21/21/21 20/20/20
f 22/22/22 19/19/19 18/18/18
f 23/23/23 19/19/19 22/22/22
f 20/20/20 21/21/21 24/24/24
f 21/21/21 25/25/25 24/24/24
f 26/26/26 23/23/23 22/22/22
f 27/27/27 23/23/23 26/26/26
f 24/24/24 25/25/25 28/28/28
f 25/25/25 29/29/29 28/28/28
f 30/30/30 27/27/27 26/26/26
f 31/31/31 27/27/27 30/30/30
f 28/28/28 29/29/29 32/32/32
f 29/29/29 33/33/33 32/32/32
f 34/34/34 31/31/31 30/30/30
f 35/35/35 31/31/31 34/34/34
f 32/32/32 33/33/33 36/36/36
f 33/33/33 37/37/37 36/36/36
f 38/38/38 35/35/35 34/34/34
f 39/39/39 35/35/35 38/38/38
f 36/36/36 37/37/37 40/40/40
f 37/37/37 41/41/41 40/40/40
f 42/42/42 39/39/39 38/38/38
f 43/43/43 39/39/39 42/42/42
f 40/40/40 41/41/41 44/44/44
f 41/41/41 45/45/45 44/44/44
f 46/46/46 43/43/43 42/42/42
f 47/47/47 43/43/43 46/46/46
f 44/44/44 45/45/45 48/48/48
f 45/45/45 49/49/49 48/48/48
f 50/50/50 47/47/47 46/46/46
f 51/51/51 47/47/47 50/50/50
f 48/48/48 49/49/49 52/52/52
f 49/49/49 53/53/53 52/52/52
f 54/54/54 51/51/51 50/50/50
f 55/55/55 51/51/51 54/54/54
f 52/52/52 53/53/53 56/56/56
f 53/53/53 57/57/57 56/56/56
f 58/58/58 55/55/55 54/54/54
f 59/59/59 55/55/55 58/58/58
f 56/56/56 57/57/57 60/60/60
f 57/57/57 61/61/61 60/60/60
f 62/62/62 59/59/59 58/58/58
f 63/63/63 59/59/59 62/62/62
f 61/61/61 63/63/63 64/64/64
f 60/60/60 61/61/61 64/64/64
f 64/64/64 63/63/63 62/62/62
f 54/54/54 50/50/50 65/65/65
f 58/58/58 54/54/54 66/66/66
f 66/66/66 54/54/54 65/65/65
f 62/62/62 58/58/58 67/67/67
f 67/67/67 58/58/58 66/66/66
f 64/64/64 62/62/62 68/68/68
f 68/68/68 62/62/62 67/67/67
f 60/60/60 64/64/64 69/69/69
f 69/69/69 64/64/64 68/68/68
f 56/56/56 60/60/60 70/70/70
f 70/70/70 60/60/60 69/69/69
f 65/65/65 50/50/50 71/71/71
f 50/50/50 46/46/46 71/71/71
f 72/72/72 56/56/56 70/70/70
f 52/52/52 56/56/56 72/72/72
f 71/71/71 46/46/46 73/73/73
f 46/46/46 42/42/42 73/73/73
f 74/74/74 52/52/52 72/72/72
f 48/48/48 52/52/52 74/74/74
f 73/73/73 42/42/42 75/75/75
f 42/42/42 38/38/38 75/75/75
f 76/76/76 48/48/48 74/74/74
f 44/44/44 48/48/48 76/76/76
f 75/75/75 38/38/38 77/77/77
f 38/38/38 34/34/34 77/77/77
f 78/78/78 44/44/44 76/76/76
f 40/40/40 44/44/44 78/78/78
f 77/77/77 34/34/34 79/79/79
f 34/34/34 30/30/30 79/79/79
f 80/80/80 40/40/40 78/78/78
f 36/36/36 40/40/40 80/80/80
f 79/79/79 30/30/30 81/81/81
f 30/30/30 26/26/26 81/81/81
f 82/82/82 36/36/36 80/80/80
f 32/32/32 36/36/36 82/82/82
f 81/81/81 26/26/26 83/83/83
f 26/26/26 22/22/22 83/83/83
f 84/84/84 32/32/32 82/82/82
f 28/28/28 32/32/32 84/84/84
f 83/83/83 22/22/22 85/85/85
f 22/22/22 18/18/18 85/85/85
f 86/86/86 28/28/28 84/84/84
f 24/24/24 28/28/28 86/86/86
f 85/85/85 18/18/18 87/87/87
f 18/18/18 14/14/14 87/87/87
f 88/88/88 24/24/24 86/86/86
f 20/20/20 24/24/24 88/88/88
f 87/87/87 14/14/14 89/89/89
f 14/14/14 10/10/10 89/89/89
f 90/90/90 20/20/20 88/88/88
f 16/16/16 20/20/20 90/90/90
f 89/89/89 10/10/10 91/91/91
f 10/10/10 6/6/6 91/91/91
f 92/92/92 16/16/16 90/90/90
f 12/12/12 16/16/16 92/92/92
f 91/91/91 6/6/6 93/93/93
f 6/6/6 1/1/1 93/93/93
f 94/94/94 12/12/12 92/92/92
f 8/8/8 12/12/12 94/94/94
f 93/93/93 1/1/1 95/95/95
f 1/1/1 4/4/4 95/95/95
f 4/4/4 8/8/8 96/96/96
f 96/96/96 8/8/8 94/94/94
f 95/95/95 4/4/4 96/96/96
f 89/89/89 91/91/91 97/97/97
f 91/91/91 93/93/93 98/98/98
f 97/97/97 91/91/91 98/98/98
f 93/93/93 95/95/95 99/99/99
f 98/98/98 93/93/93 99/99/99
f 98/98/98 99/99/99 100/100/100
f 95/95/95 96/96/96 101/101/101
f 99/99/99 95/95/95 101/101/101
f 96/96/96 94/94/94 102/102/102
f 101/101/101 96/96/96 102/102/102
f 99/99/99 101/101/101 103/103/103
f 100/100/100 99/99/99 103/103/103
f 103/103/103 101/101/101 104/104/104
f 101/101/101 102/102/102 104/104/104
f 103/103/103 104/104/104 100/100/100
f 102/102/102 94/94/94 105/105/105
f 94/94/94 92/92/92 105/105/105
f 104/104/104 106/106/106 100/100/100
f 107/107/107 106/106/106 104/104/104
f 107/107/107 105/105/105 106/106/106
f 104/104/104 102/102/102 107/107/107
f 102/102/102 105/105/105 107/107/107
f 105/105/105 92/92/92 108/108/108
f 105/105/105 108/108/108 106/106/106
f 92/92/92 90/90/90 108/108/108
f 108/108/108 90/90/90 109/109/109
f 90/90/90 88/88/88 109/109/109
f 106/106/106 108/108/108 110/110/110
f 108/108/108 109/109/109 110/110/110
f 109/109/109 88/88/88 111/111/111
f 88/88/88 86/86/86 111/111/111
f 110/110/110 109/109/109 112/112/112
f 110/110/110 112/112/112 106/106/106
f 109/109/109 111/111/111 112/112/112
f 112/112/112 113/113/113 106/106/106
f 111/111/111 86/86/86 114/114/114
f 86/86/86 84/84/84 114/114/114
f 112/112/112 111/111/111 115/115/115
f 115/115/115 113/113/113 112/112/112
f 111/111/111 114/114/114 115/115/115
f 115/115/115 114/114/114 113/113/113
f 114/114/114 84/84/84 116/116/116
f 114/114/114 116/116/116 113/113/113
f 84/84/84 82/82/82 116/116/116
f 116/116/116 82/82/82 117/117/117
f 82/82/82 80/80/80 117/117/117
f 113/113/113 116/116/116 118/118/118
f 116/116/116 117/117/117 118/118/118
f 117/117/117 80/80/80 119/119/119
f 80/80/80 78/78/78 119/119/119
f 118/118/118 117/117/117 120/120/120
f 118/118/118 120/120/120 113/113/113
f 117/117/117 119/119/119 120/120/120
f 113/113/113 121/121/121 106/106/106
f 120/120/120 121/121/121 113/113/113
f 106/106/106 121/121/121 122/122/122
f 123/123/123 122/122/122 121/121/121
f 124/124/124 122/122/122 123/123/123
f 125/125/125 123/123/123 121/121/121
f 100/100/100 106/106/106 122/122/122
f 119/119/119 78/78/78 126/126/126
f 78/78/78 76/76/76 126/126/126
f 120/120/120 119/119/119 127/127/127
f 127/127/127 121/121/121 120/120/120
f 119/119/119 126/126/126 127/127/127
f 127/127/127 126/126/126 121/121/121
f 126/126/126 76/76/76 128/128/128
f 126/126/126 128/128/128 121/121/121
f 76/76/76 74/74/74 128/128/128
f 128/128/128 74/74/74 129/129/129
f 74/74/74 72/72/72 129/129/129
f 121/121/121 128/128/128 130/130/130
f 128/128/128 129/129/129 130/130/130
f 130/130/130 131/131/131 121/121/121
f 130/130/130 129/129/129 131/131/131
f 131/131/131 125/125/125 121/121/121
f 129/129/129 72/72/72 132/132/132
f 129/129/129 132/132/132 131/131/131
f 72/72/72 70/70/70 132/132/132
f 131/131/131 132/132/132 133/133/133
f 133/133/133 125/125/125 131/131/131
f 132/132/132 70/70/70 134/134/134
f 132/132/132 134/134/134 133/133/133
f 133/133/133 134/134/134 125/125/125
f 70/70/70 69/69/69 134/134/134
f 134/134/134 69/69/69 135/135/135
f 134/134/134 135/135/135 125/125/125
f 69/69/69 68/68/68 135/135/135
f 135/135/135 68/68/68 136/136/136
f 68/68/68 67/67/67 136/136/136
f 125/125/125 135/135/135 137/137/137
f 135/135/135 136/136/136 137/137/137
f 137/137/137 138/138/138 125/125/125
f 137/137/137 136/136/136 138/138/138
f 138/138/138 123/123/123 125/125/125
f 136/136/136 67/67/67 139/139/139
f 136/136/136 139/139/139 138/138/138
f 67/67/67 66/66/66 139/139/139
f 138/138/138 139/139/139 140/140/140
f 140/140/140 123/123/123 138/138/138
f 139/139/139 66/66/66 141/141/141
f 139/139/139 141/141/141 140/140/140
f 140/140/140 141/141/141 123/123/123
f 66/66/66 65/65/65 141/141/141
f 141/141/141 65/65/65 142/142/142
f 141/141/141 142/142/142 123/123/123
f 65/65/65 71/71/71 142/142/142
f 142/142/142 71/71/71 143/143/143
f 71/71/71 73/73/73 143/143/143
f 123/123/123 142/142/142 144/144/144
f 142/142/142 143/143/143 144/144/144
f 144/144/144 145/145/145 123/123/123
f 144/144/144 143/143/143 145/145/145
f 145/145/145 124/124/124 123/123/123
f 143/143/143 73/73/73 146/146/146
f 143/143/143 146/146/146 145/145/145
f 73/73/73 75/75/75 146/146/146
f 145/145/145 146/146/146 147/147/147
f 147/147/147 124/124/124 145/145/145
f 146/146/146 75/75/75 148/148/148
f 146/146/146 148/148/148 147/147/147
f 147/147/147 148/148/148 124/124/124
f 75/75/75 77/77/77 148/148/148
f 148/148/148 77/77/77 149/149/149
f 148/148/148 149/149/149 124/124/124
f 77/77/77 79/79/79 149/149/149
f 149/149/149 79/79/79 150/150/150
f 79/79/79 81/81/81 150/150/150
f 124/124/124 149/149/149 151/151/151
f 149/149/149 150/150/150 151/151/151
f 151/151/151 152/152/152 124/124/124
f 151/151/151 150/150/150 152/152/152
f 152/152/152 122/122/122 124/124/124
f 150/150/150 81/81/81 153/153/153
f 150/150/150 153/153/153 152/152/152
f 81/81/81 83/83/83 153/153/153
f 152/152/152 153/153/153 154/154/154
f 154/154/154 122/122/122 152/152/152
f 153/153/153 83/83/83 155/155/155
f 153/153/153 155/155/155 154/154/154
f 154/154/154 155/155/155 122/122/122
f 83/83/83 85/85/85 155/155/155
f 155/155/155 85/85/85 156/156/156
f 155/155/155 156/156/156 122/122/122
f 85/85/85 87/87/87 156/156/156
f 156/156/156 87/87/87 157/157/157
f 87/87/87 89/89/89 157/157/157
f 157/157/157 89/89/89 97/97/97
f 122/122/122 156/156/156 158/158/158
f 156/156/156 157/157/157 158/158/158
f 158/158/158 159/159/159 122/122/122
f 158/158/158 157/157/157 159/159/159
f 157/157/157 97/97/97 159/159/159
f 159/159/159 100/100/100 122/122/122
f 159/159/159 97/97/97 160/160/160
f 160/160/160 100/100/100 159/159/159
f 97/97/97 98/98/98 160/160/160
f 160/160/160 98/98/98 100/100/100
