g polySurface108
v -0.009385045 1.319409E-05 -0.01663625
v 0.001592316 -9.488973E-07 -0.01884681
v 0.01307783 -1.622914E-05 -0.01799611
v 0.02408224 -3.169774E-05 -0.0120725
v -0.01376748 1.785279E-05 -0.009542114
v 0.02375895 -3.409862E-05 0.005865553
v -0.02382969 2.986194E-05 -0.00151746
v -0.01877619 2.079011E-05 0.01365958
v 0.01769246 -2.74682E-05 0.01456901
v -0.01184635 1.089335E-05 0.01845115
v -0.02444704 -0.02508829 -0.001675255
v -0.0191974 2.130271E-05 0.01397601
v -0.01922758 -0.02508106 0.01399155
v -0.02441358 3.065587E-05 -0.001690733
v -0.01877619 2.079011E-05 0.01365958
v -0.01184635 1.089335E-05 0.01845115
v -0.02382969 2.986194E-05 -0.00151746
v -0.0119722 1.097203E-05 0.01897198
v -0.01922758 -0.02508106 0.01399155
v -0.0119981 -0.0250816 0.0189876
v 0.01769246 -2.74682E-05 0.01456901
v 0.01797627 -2.791404E-05 0.01503603
v -0.0119981 -0.0250816 0.0189876
v 0.01796677 -0.02509948 0.01505193
v 0.02375895 -3.409862E-05 0.005865553
v 0.02425578 -3.478049E-05 0.006026733
v 0.01796677 -0.02509948 0.01505193
v 0.02424995 -0.02510841 0.006042707
v 0.02408224 -3.169774E-05 -0.0120725
v 0.02458761 -3.231048E-05 -0.01236835
v 0.02424995 -0.02510841 0.006042707
v 0.02458177 -0.02512022 -0.01235238
v 0.01307783 -1.622914E-05 -0.01799611
v 0.01322069 -1.635074E-05 -0.01848689
v 0.02458177 -0.02512022 -0.01235238
v 0.001592316 -9.488973E-07 -0.01884681
v 0.01320841 -0.02511826 -0.01847102
v 0.00156107 -8.225354E-07 -0.01935052
v -0.009385045 1.319409E-05 -0.01663625
v 0.001541913 -0.02511282 -0.01933478
v -0.009696733 1.366854E-05 -0.01708362
v -0.009721441 -0.02510559 -0.01706798
v -0.01376748 1.785279E-05 -0.009542114
v -0.01414658 1.840354E-05 -0.009878914
v -0.009721441 -0.02510559 -0.01706798
v -0.01417431 -0.02509874 -0.00986333
v -0.02444704 -0.02508829 -0.001675255
vt 0.4109001 0.1225764
vt 0.4436128 0.1306998
vt 0.4766095 0.1298327
vt 0.5101529 0.1139822
vt 0.3994941 0.1027345
vt 0.5111545 0.0607552
vt 0.3701783 0.07515404
vt 0.3870012 0.03109369
vt 0.4941018 0.03378757
vt 0.4084119 0.01776782
vt 0.2125639 0.9100791
vt 0.213639 0.9072634
vt 0.213639 0.9072634
vt 0.2125639 0.9100791
vt 0.213639 0.9072634
vt 0.2150072 0.9064118
vt 0.2125639 0.9100791
vt 0.2150072 0.9064118
vt 0.213639 0.9072634
vt 0.2150072 0.9064118
vt 0.2204834 0.9074355
vt 0.2204834 0.9074355
vt 0.2150072 0.9064118
vt 0.2204834 0.9074355
vt 0.2215732 0.9091589
vt 0.2215732 0.9091589
vt 0.2204834 0.9074355
vt 0.2215732 0.9091589
vt 0.2215092 0.9125605
vt 0.2215092 0.9125605
vt 0.2215732 0.9091589
vt 0.2215092 0.9125605
vt 0.2193655 0.9135734
vt 0.2193655 0.9135734
vt 0.2215092 0.9125605
vt 0.2172568 0.9136289
vt 0.2193655 0.9135734
vt 0.2172568 0.9136289
vt 0.2151663 0.9131097
vt 0.2172568 0.9136289
vt 0.2151663 0.9131097
vt 0.2151663 0.9131097
vt 0.2144373 0.9118417
vt 0.2144373 0.9118417
vt 0.2151663 0.9131097
vt 0.2144373 0.9118417
vt 0.2125639 0.9100791
vn 0.0005133524 0.9999996 -0.0006328922
vn 0.0005133524 0.9999996 -0.0006328922
vn 0.0005133524 0.9999996 -0.0006328922
vn 0.0005133524 0.9999996 -0.0006328922
vn 0.0005133543 0.9999996 -0.0006328921
vn 0.0005133524 0.9999996 -0.0006328922
vn 0.0005133524 0.9999996 -0.0006328922
vn 0.0005133524 0.9999996 -0.0006328922
vn 0.0005133524 0.9999996 -0.0006328922
vn 0.0005133524 0.9999996 -0.0006328922
vn -0.948734 0.0006871573 0.3160747
vn 0.0005133524 0.9999996 -0.0006328922
vn -0.948734 0.0006871573 0.3160747
vn 0.0005133524 0.9999996 -0.0006328922
vn 0.0005133524 0.9999996 -0.0006328922
vn 0.0005133524 0.9999996 -0.0006328922
vn 0.0005133524 0.9999996 -0.0006328922
vn 0.0005133524 0.9999996 -0.0006328922
vn -0.5685194 0.0008125406 0.8226695
vn -0.5685193 0.0008125406 0.8226695
vn 0.0005133524 0.9999996 -0.0006328922
vn 0.0005133524 0.9999996 -0.0006328922
vn 0.1302247 0.0005606458 0.9914843
vn 0.1302247 0.0005606462 0.9914843
vn 0.0005133524 0.9999996 -0.0006328922
vn 0.0005133524 0.9999996 -0.0006328922
vn 0.8202263 -5.907708E-05 0.5720391
vn 0.8202263 -5.907705E-05 0.5720392
vn 0.0005133524 0.9999996 -0.0006328922
vn 0.0005133524 0.9999996 -0.0006328922
vn 0.9998372 -0.0005018407 0.01803586
vn 0.9998372 -0.0005018388 0.01803586
vn 0.0005133524 0.9999996 -0.0006328922
vn 0.0005133524 0.9999996 -0.0006328922
vn 0.4737719 -0.0008005833 -0.8806472
vn 0.0005133524 0.9999996 -0.0006328922
vn 0.2900314 -0.0007545851 -0.9570168
vn 0.0005133524 0.9999996 -0.0006328922
vn 0.0005133524 0.9999996 -0.0006328922
vn -0.06107467 -0.0006003536 -0.998133
vn 0.0005133524 0.9999996 -0.0006328922
vn -0.1972992 -0.0005191615 -0.9803432
vn 0.0005133543 0.9999996 -0.0006328921
vn 0.0005133543 0.9999996 -0.0006328921
vn -0.8506424 0.0001039312 -0.5257446
vn -0.7225916 -6.655465E-05 -0.6912752
vn -0.6232963 -0.0001749289 -0.7819857
g polySurface108_0
f 3/3/3 2/2/2 1/1/1
f 1/1/1 4/4/4 3/3/3
f 1/1/1 5/5/5 4/4/4
f 5/5/5 6/6/6 4/4/4
f 5/5/5 7/7/7 6/6/6
f 7/7/7 8/8/8 6/6/6
f 8/8/8 9/9/9 6/6/6
f 8/8/8 10/10/10 9/9/9
g polySurface108_1
f 13/13/13 12/12/12 11/11/11
f 12/12/12 14/14/14 11/11/11
f 12/12/12 15/15/15 14/14/14
f 16/16/16 15/15/15 12/12/12
f 15/15/15 17/17/17 14/14/14
f 18/18/18 16/16/16 12/12/12
f 18/18/18 12/12/12 19/19/19
f 20/20/20 18/18/18 19/19/19
f 21/21/21 16/16/16 18/18/18
f 22/22/22 21/21/21 18/18/18
f 22/22/22 18/18/18 23/23/23
f 24/24/24 22/22/22 23/23/23
f 25/25/25 21/21/21 22/22/22
f 26/26/26 25/25/25 22/22/22
f 26/26/26 22/22/22 27/27/27
f 28/28/28 26/26/26 27/27/27
f 29/29/29 25/25/25 26/26/26
f 30/30/30 29/29/29 26/26/26
f 30/30/30 26/26/26 31/31/31
f 32/32/32 30/30/30 31/31/31
f 33/33/33 29/29/29 30/30/30
f 34/34/34 33/33/33 30/30/30
f 34/34/34 30/30/30 35/35/35
f 36/36/36 33/33/33 34/34/34
f 37/37/37 34/34/34 35/35/35
f 38/38/38 36/36/36 34/34/34
f 38/38/38 34/34/34 37/37/37
f 39/39/39 36/36/36 38/38/38
f 40/40/40 38/38/38 37/37/37
f 41/41/41 39/39/39 38/38/38
f 41/41/41 38/38/38 40/40/40
f 42/42/42 41/41/41 40/40/40
f 43/43/43 39/39/39 41/41/41
f 44/44/44 43/43/43 41/41/41
f 44/44/44 41/41/41 45/45/45
f 17/17/17 43/43/43 44/44/44
f 46/46/46 44/44/44 45/45/45
f 14/14/14 17/17/17 44/44/44
f 14/14/14 44/44/44 46/46/46
f 47/47/47 14/14/14 46/46/46
