g polySurface86
v -0.02390718 2.23207E-05 -0.0120536
v 0.0006634676 -8.301786E-06 -0.02342091
v 0.02481817 -4.126077E-05 -0.01649737
v 0.01730795 -3.454452E-05 0.003719417
v -0.02320295 1.647229E-05 0.019032
v -0.01247725 2.667853E-06 0.01686976
v -0.0006267643 -1.31083E-05 0.01774814
v 0.02135902 -4.258399E-05 0.02074036
v 0.01065827 -2.896076E-05 0.02382399
v -0.02443615 -0.02496546 -0.0123542
v -0.02368881 1.701827E-05 0.01964005
v -0.02370963 -0.02494558 0.01965576
v -0.02441364 2.304787E-05 -0.01236986
v -0.02320295 1.647229E-05 0.019032
v -0.01247725 2.667853E-06 0.01686976
v -0.02390718 2.23207E-05 -0.0120536
v -0.0124456 2.546259E-06 0.01737346
v -0.02370963 -0.02494558 0.01965576
v -0.0006267643 -1.31083E-05 0.01774814
v -0.01246057 -0.02495279 0.01738927
v -0.0007699829 -1.300102E-05 0.0182389
v 0.01065827 -2.896076E-05 0.02382399
v -0.0007784533 -0.02495823 0.01825482
v 0.01060044 -2.896791E-05 0.02436085
v 0.01059826 -0.0249602 0.02437688
v 0.02135902 -4.258399E-05 0.02074036
v 0.02195657 -4.342322E-05 0.02108879
v 0.01059826 -0.0249602 0.02437688
v 0.02195993 -0.0249681 0.0211049
v 0.01730795 -3.454452E-05 0.003719417
v 0.01782924 -3.523593E-05 0.003751277
v 0.02195993 -0.0249681 0.0211049
v 0.01783021 -0.02497696 0.00376735
v 0.02481817 -4.126077E-05 -0.01649737
v 0.02547525 -4.207378E-05 -0.0168293
v 0.01783021 -0.02497696 0.00376735
v 0.02548015 -0.02499391 -0.01681316
v 0.0006634676 -8.301786E-06 -0.02342091
v 0.0006222003 -8.153967E-06 -0.02395279
v 0.02548015 -0.02499391 -0.01681316
v 0.0006139236 -0.02498565 -0.02393687
v 0.0006139236 -0.02498565 -0.02393687
v -0.02443615 -0.02496546 -0.0123542
vt 0.7102391 0.4031678
vt 0.7811949 0.4401143
vt 0.8533671 0.4228397
vt 0.8335958 0.362122
vt 0.7160507 0.310137
vt 0.7481065 0.3182864
vt 0.7817727 0.3174951
vt 0.8472258 0.312594
vt 0.8150527 0.3014703
vt 0.2147991 0.919071
vt 0.2151712 0.9131144
vt 0.2151712 0.9131144
vt 0.2147991 0.919071
vt 0.2151712 0.9131144
vt 0.2172236 0.9136362
vt 0.2147991 0.919071
vt 0.2172236 0.9136362
vt 0.2151712 0.9131144
vt 0.2193793 0.9135855
vt 0.2172236 0.9136362
vt 0.2193793 0.9135855
vt 0.2215101 0.9125594
vt 0.2193793 0.9135855
vt 0.2215101 0.9125594
vt 0.2215101 0.9125594
vt 0.2235701 0.9132717
vt 0.2235701 0.9132717
vt 0.2215101 0.9125594
vt 0.2235701 0.9132717
vt 0.2226974 0.9164429
vt 0.2226974 0.9164429
vt 0.2235701 0.9132717
vt 0.2226974 0.9164429
vt 0.2239633 0.9203305
vt 0.2239633 0.9203305
vt 0.2226974 0.9164429
vt 0.2239633 0.9203305
vt 0.2193422 0.9214366
vt 0.2193422 0.9214366
vt 0.2239633 0.9203305
vt 0.2193422 0.9214366
vt 0.2193422 0.9214366
vt 0.2147991 0.919071
vn 0.0005134176 0.9999996 -0.0006328899
vn 0.0005134176 0.9999996 -0.0006328899
vn 0.0005134176 0.9999996 -0.0006328899
vn 0.0005134176 0.9999996 -0.0006328899
vn 0.0005134176 0.9999996 -0.0006328899
vn 0.0005134176 0.9999996 -0.0006328899
vn 0.0005134176 0.9999996 -0.0006328899
vn 0.0005134176 0.9999996 -0.0006328899
vn 0.0005134176 0.9999996 -0.0006328899
vn -0.9997423 0.000527553 0.0226907
vn 0.0005134176 0.9999996 -0.0006328899
vn -0.9997423 0.000527553 0.02269071
vn 0.0005134176 0.9999996 -0.0006328899
vn 0.0005134176 0.9999996 -0.0006328899
vn 0.0005134176 0.9999996 -0.0006328899
vn 0.0005134176 0.9999996 -0.0006328899
vn 0.0005134176 0.9999996 -0.0006328899
vn 0.1975141 0.0005190319 0.9802999
vn 0.0005134176 0.9999996 -0.0006328899
vn 0.06098001 0.0006004118 0.9981388
vn 0.0005134176 0.9999996 -0.0006328899
vn 0.0005134176 0.9999996 -0.0006328899
vn -0.2900101 0.0007545513 0.9570233
vn 0.0005134176 0.9999996 -0.0006328899
vn -0.4738675 0.0008005466 0.8805959
vn 0.0005134176 0.9999996 -0.0006328899
vn 0.0005134176 0.9999996 -0.0006328899
vn 0.2767372 0.000466135 0.9609455
vn 0.2767372 0.000466135 0.9609455
vn 0.0005134176 0.9999996 -0.0006328899
vn 0.0005134176 0.9999996 -0.0006328899
vn 0.9727842 -0.0006461142 -0.231712
vn 0.9727842 -0.0006461161 -0.2317119
vn 0.0005134176 0.9999996 -0.0006328899
vn 0.0005134176 0.9999996 -0.0006328899
vn 0.9373397 -0.0002607079 0.3484169
vn 0.9373397 -0.0002607042 0.348417
vn 0.0005134176 0.9999996 -0.0006328899
vn 0.0005134176 0.9999996 -0.0006328899
vn 0.2754025 -0.0007497828 -0.9613287
vn 0.2754025 -0.0007497834 -0.9613287
vn -0.4196885 -0.0003590029 -0.9076681
vn -0.4196886 -0.000359001 -0.9076681
g polySurface86_0
f 3/3/3 2/2/2 1/1/1
f 1/1/1 4/4/4 3/3/3
f 1/1/1 5/5/5 4/4/4
f 5/5/5 6/6/6 4/4/4
f 4/4/4 6/6/6 7/7/7
f 7/7/7 8/8/8 4/4/4
f 7/7/7 9/9/9 8/8/8
g polySurface86_1
f 12/12/12 11/11/11 10/10/10
f 11/11/11 13/13/13 10/10/10
f 11/11/11 14/14/14 13/13/13
f 15/15/15 14/14/14 11/11/11
f 14/14/14 16/16/16 13/13/13
f 17/17/17 15/15/15 11/11/11
f 17/17/17 11/11/11 18/18/18
f 19/19/19 15/15/15 17/17/17
f 20/20/20 17/17/17 18/18/18
f 21/21/21 19/19/19 17/17/17
f 21/21/21 17/17/17 20/20/20
f 22/22/22 19/19/19 21/21/21
f 23/23/23 21/21/21 20/20/20
f 24/24/24 22/22/22 21/21/21
f 24/24/24 21/21/21 23/23/23
f 25/25/25 24/24/24 23/23/23
f 26/26/26 22/22/22 24/24/24
f 27/27/27 26/26/26 24/24/24
f 27/27/27 24/24/24 28/28/28
f 29/29/29 27/27/27 28/28/28
f 30/30/30 26/26/26 27/27/27
f 31/31/31 30/30/30 27/27/27
f 31/31/31 27/27/27 32/32/32
f 33/33/33 31/31/31 32/32/32
f 34/34/34 30/30/30 31/31/31
f 35/35/35 34/34/34 31/31/31
f 35/35/35 31/31/31 36/36/36
f 37/37/37 35/35/35 36/36/36
f 38/38/38 34/34/34 35/35/35
f 39/39/39 38/38/38 35/35/35
f 39/39/39 35/35/35 40/40/40
f 41/41/41 39/39/39 40/40/40
f 16/16/16 38/38/38 39/39/39
f 13/13/13 16/16/16 39/39/39
f 13/13/13 39/39/39 42/42/42
f 43/43/43 13/13/13 42/42/42
