g polySurface88
v -0.01808996 2.690483E-05 -0.0200366
v 0.01119814 -1.112055E-05 -0.02388829
v 0.02442078 -3.182482E-05 -0.003311769
v -0.01898164 2.746749E-05 -0.01610303
v -0.02421675 3.240276E-05 -0.003680464
v -0.02445926 2.897668E-05 0.0200156
v 0.02074084 -2.854895E-05 0.00670854
v 0.01085288 -1.63753E-05 0.01219862
v 0.006444617 -1.237225E-05 0.02366741
v -0.01342493 1.393724E-05 0.02305068
v 0.002657467 -7.498974E-06 0.02443487
v -0.02474035 -0.02489471 -0.003768345
v -0.02496302 2.957511E-05 0.02039562
v -0.02498777 -0.02487928 0.02041125
v -0.02471533 3.307987E-05 -0.003783971
v -0.01948174 -0.0249053 -0.01624097
v -0.01945912 2.812076E-05 -0.01625664
v -0.01852198 -0.02490848 -0.02047125
v -0.01850001 2.752471E-05 -0.02048695
v -0.02421675 3.240276E-05 -0.003680464
v -0.01898164 2.746749E-05 -0.01610303
v -0.02445926 2.897668E-05 0.0200156
v -0.01342493 1.393724E-05 0.02305068
v -0.01808996 2.690483E-05 -0.0200366
v -0.01351255 1.398016E-05 0.02354496
v -0.02498777 -0.02487928 0.02041125
v 0.002657467 -7.498974E-06 0.02443487
v -0.01353161 -0.02488316 0.02356068
v 0.00268711 -7.611031E-06 0.02493923
v 0.006444617 -1.237225E-05 0.02366741
v 0.002676901 -0.0248906 0.02495512
v 0.006812929 -1.293015E-05 0.024103
v 0.006805159 -0.02489325 0.02411893
v 0.01085288 -1.63753E-05 0.01219862
v 0.01125406 -1.696181E-05 0.01254765
v 0.006805159 -0.02489325 0.02411893
v 0.01124881 -0.02490285 0.01256362
v 0.02074084 -2.854895E-05 0.00670854
v 0.02114552 -2.914261E-05 0.007055505
v 0.01124881 -0.02490285 0.01256362
v 0.02114566 -0.02491141 0.007071584
v 0.02442078 -3.182482E-05 -0.003311769
v 0.02497565 -3.254485E-05 -0.003372861
v 0.02114566 -0.02491141 0.007071584
v 0.02497808 -0.02491998 -0.003356739
v 0.01119814 -1.112055E-05 -0.02388829
v 0.01144715 -1.136851E-05 -0.02442533
v 0.02497808 -0.02491998 -0.003356739
v 0.01144168 -0.02492635 -0.02440935
v 0.01144168 -0.02492635 -0.02440935
v -0.01852198 -0.02490848 -0.02047125
vt 0.3658177 0.1502593
vt 0.4522322 0.1665652
vt 0.4934928 0.1077108
vt 0.3636448 0.1380291
vt 0.3500717 0.1010783
vt 0.3518735 0.03072571
vt 0.4838239 0.07674127
vt 0.456098 0.05968636
vt 0.4442332 0.02501649
vt 0.3853726 0.02351933
vt 0.4323036 0.02219433
vt 0.214 0.9032757
vt 0.2141144 0.8988111
vt 0.2141144 0.8988111
vt 0.214 0.9032757
vt 0.2148614 0.9056207
vt 0.2148614 0.9056207
vt 0.2149993 0.9063968
vt 0.2149993 0.9063968
vt 0.214 0.9032757
vt 0.2148614 0.9056207
vt 0.2141144 0.8988111
vt 0.2162403 0.8983538
vt 0.2149993 0.9063968
vt 0.2162403 0.8983538
vt 0.2141144 0.8988111
vt 0.2192185 0.8982697
vt 0.2162403 0.8983538
vt 0.2192185 0.8982697
vt 0.2199756 0.8984488
vt 0.2192185 0.8982697
vt 0.2199756 0.8984488
vt 0.2199756 0.8984488
vt 0.2207286 0.900649
vt 0.2207286 0.900649
vt 0.2199756 0.8984488
vt 0.2207286 0.900649
vt 0.2224881 0.9017313
vt 0.2224881 0.9017313
vt 0.2207286 0.900649
vt 0.2224881 0.9017313
vt 0.2231016 0.9036967
vt 0.2231016 0.9036967
vt 0.2224881 0.9017313
vt 0.2231016 0.9036967
vt 0.2204833 0.9074316
vt 0.2204833 0.9074316
vt 0.2231016 0.9036967
vt 0.2204833 0.9074316
vt 0.2204833 0.9074316
vt 0.2149993 0.9063968
vn 0.0005134493 0.9999996 -0.0006328886
vn 0.0005134493 0.9999996 -0.0006328886
vn 0.0005134493 0.9999996 -0.0006328886
vn 0.0005134512 0.9999996 -0.0006328886
vn 0.0005134493 0.9999996 -0.0006328886
vn 0.0005134493 0.9999996 -0.0006328886
vn 0.0005134493 0.9999996 -0.0006328886
vn 0.0005134512 0.9999996 -0.0006328886
vn 0.0005134493 0.9999996 -0.0006328886
vn 0.0005134493 0.9999996 -0.0006328886
vn 0.0005134493 0.9999996 -0.0006328886
vn -0.9889038 0.0004136926 -0.1485571
vn 0.0005134493 0.9999996 -0.0006328886
vn -0.9999475 0.0005068462 -0.01023266
vn 0.0005134493 0.9999996 -0.0006328886
vn -0.9371608 0.0002604374 -0.3488977
vn 0.0005134512 0.9999996 -0.0006328886
vn -0.9752159 0.0003607502 -0.2212549
vn 0.0005134493 0.9999996 -0.0006328886
vn 0.0005134493 0.9999996 -0.0006328886
vn 0.0005134512 0.9999996 -0.0006328886
vn 0.0005134493 0.9999996 -0.0006328886
vn 0.0005134493 0.9999996 -0.0006328886
vn 0.0005134493 0.9999996 -0.0006328886
vn 0.0005134493 0.9999996 -0.0006328886
vn -0.265076 0.0007459931 0.9642272
vn 0.0005134493 0.9999996 -0.0006328886
vn -0.1620757 0.0007075887 0.986778
vn 0.0005134493 0.9999996 -0.0006328886
vn 0.0005134493 0.9999996 -0.0006328886
vn -0.02743929 0.00064682 0.9996233
vn 0.0005134493 0.9999996 -0.0006328886
vn 0.1985225 0.0005187353 0.9800962
vn 0.0005134512 0.9999996 -0.0006328886
vn 0.0005134512 0.9999996 -0.0006328886
vn 0.9333645 -0.0002521283 0.35893
vn 0.9333644 -0.0002521246 0.35893
vn 0.0005134493 0.9999996 -0.0006328886
vn 0.0005134493 0.9999996 -0.0006328886
vn 0.4852241 0.0003044184 0.8743898
vn 0.4852242 0.0003044175 0.8743898
vn 0.0005134493 0.9999996 -0.0006328886
vn 0.0005134493 0.9999996 -0.0006328886
vn 0.9386229 -0.0002635171 0.344945
vn 0.9386229 -0.0002635134 0.344945
vn 0.0005134493 0.9999996 -0.0006328886
vn 0.0005134493 0.9999996 -0.0006328886
vn 0.8411314 -0.000774367 -0.5408303
vn 0.8411314 -0.0007743671 -0.5408303
vn -0.130309 -0.0005609592 -0.9914733
vn -0.1303089 -0.0005609596 -0.9914733
g polySurface88_0
f 3/3/3 2/2/2 1/1/1
f 1/1/1 4/4/4 3/3/3
f 4/4/4 5/5/5 3/3/3
f 5/5/5 6/6/6 3/3/3
f 6/6/6 7/7/7 3/3/3
f 6/6/6 8/8/8 7/7/7
f 6/6/6 9/9/9 8/8/8
f 6/6/6 10/10/10 9/9/9
f 10/10/10 11/11/11 9/9/9
g polySurface88_1
f 14/14/14 13/13/13 12/12/12
f 13/13/13 15/15/15 12/12/12
f 12/12/12 15/15/15 16/16/16
f 15/15/15 17/17/17 16/16/16
f 16/16/16 17/17/17 18/18/18
f 17/17/17 19/19/19 18/18/18
f 15/15/15 20/20/20 17/17/17
f 20/20/20 21/21/21 17/17/17
f 17/17/17 21/21/21 19/19/19
f 22/22/22 20/20/20 15/15/15
f 13/13/13 22/22/22 15/15/15
f 23/23/23 22/22/22 13/13/13
f 21/21/21 24/24/24 19/19/19
f 25/25/25 23/23/23 13/13/13
f 25/25/25 13/13/13 26/26/26
f 27/27/27 23/23/23 25/25/25
f 28/28/28 25/25/25 26/26/26
f 29/29/29 27/27/27 25/25/25
f 29/29/29 25/25/25 28/28/28
f 30/30/30 27/27/27 29/29/29
f 31/31/31 29/29/29 28/28/28
f 32/32/32 30/30/30 29/29/29
f 32/32/32 29/29/29 31/31/31
f 33/33/33 32/32/32 31/31/31
f 34/34/34 30/30/30 32/32/32
f 35/35/35 34/34/34 32/32/32
f 35/35/35 32/32/32 36/36/36
f 37/37/37 35/35/35 36/36/36
f 38/38/38 34/34/34 35/35/35
f 39/39/39 38/38/38 35/35/35
f 39/39/39 35/35/35 40/40/40
f 41/41/41 39/39/39 40/40/40
f 42/42/42 38/38/38 39/39/39
f 43/43/43 42/42/42 39/39/39
f 43/43/43 39/39/39 44/44/44
f 45/45/45 43/43/43 44/44/44
f 46/46/46 42/42/42 43/43/43
f 47/47/47 46/46/46 43/43/43
f 47/47/47 43/43/43 48/48/48
f 49/49/49 47/47/47 48/48/48
f 24/24/24 46/46/46 47/47/47
f 19/19/19 24/24/24 47/47/47
f 19/19/19 47/47/47 50/50/50
f 51/51/51 19/19/19 50/50/50
