g polySurface79
v -0.006693742 7.213396E-06 -0.02326232
v 0.005525849 -8.772569E-06 -0.02413723
v 0.01007268 -1.565333E-05 -0.01849156
v -0.01887384 2.315645E-05 -0.02243616
v -0.01688735 1.649742E-05 0.00308204
v 0.01941482 -3.049727E-05 -0.002645489
v 0.01904528 -3.344651E-05 0.01911567
v -0.01534473 1.118306E-05 0.02379004
v 0.01497985 -2.883072E-05 0.02386133
v 0.01052643 -0.02495583 -0.01876134
v 0.005751555 -8.982378E-06 -0.0246546
v 0.005790579 -0.02495567 -0.02463905
v 0.01048457 -1.615878E-05 -0.01877695
v 0.01996441 -0.02495178 -0.002762338
v 0.01991685 -3.113146E-05 -0.00277805
v 0.005525849 -8.772569E-06 -0.02413723
v 0.01007268 -1.565333E-05 -0.01849156
v -0.006693742 7.213396E-06 -0.02326232
v 0.01941482 -3.049727E-05 -0.002645489
v -0.006728046 7.344526E-06 -0.0237611
v 0.005790579 -0.02495567 -0.02463905
v -0.01887384 2.315645E-05 -0.02243616
v -0.006695955 -0.02494869 -0.02374567
v -0.01941128 2.392892E-05 -0.02290085
v -0.0193857 -0.02494165 -0.02288553
v -0.01688735 1.649742E-05 0.00308204
v -0.01738532 1.715068E-05 0.003120063
v -0.0193857 -0.02494165 -0.02288553
v -0.01534473 1.118306E-05 0.02379004
v -0.01735878 -0.02492751 0.003135398
v -0.0158087 1.171951E-05 0.02428894
v -0.01578026 -0.0249163 0.02430433
v 0.01497985 -2.883072E-05 0.02386133
v 0.01520918 -2.921935E-05 0.02436187
v -0.01578026 -0.0249163 0.02430433
v 0.01525474 -0.02493218 0.02437755
v 0.01904528 -3.344651E-05 0.01911567
v 0.01954188 -3.413315E-05 0.01930428
v 0.01525474 -0.02493218 0.02437755
v 0.01958984 -0.0249376 0.01932001
v 0.01958984 -0.0249376 0.01932001
v 0.01996441 -0.02495178 -0.002762338
vt 0.09996879 0.8487644
vt 0.1469928 0.8680848
vt 0.1949677 0.8448259
vt 0.0655635 0.8143585
vt 0.07867813 0.7447407
vt 0.23782 0.7759719
vt 0.2391812 0.6787755
vt 0.08662027 0.6518363
vt 0.2220533 0.656419
vt 0.2363704 0.9358393
vt 0.2343429 0.9368223
vt 0.2343429 0.9368223
vt 0.2363704 0.9358393
vt 0.2381814 0.9329295
vt 0.2381814 0.9329295
vt 0.2343429 0.9368223
vt 0.2363704 0.9358393
vt 0.2323557 0.9360058
vt 0.2381814 0.9329295
vt 0.2323557 0.9360058
vt 0.2343429 0.9368223
vt 0.2309016 0.9345518
vt 0.2323557 0.9360058
vt 0.2309016 0.9345518
vt 0.2309016 0.9345518
vt 0.2314558 0.9316096
vt 0.2314558 0.9316096
vt 0.2309016 0.9345518
vt 0.2317915 0.9276834
vt 0.2314558 0.9316096
vt 0.2317915 0.9276834
vt 0.2317915 0.9276834
vt 0.237515 0.9278771
vt 0.237515 0.9278771
vt 0.2317915 0.9276834
vt 0.237515 0.9278771
vt 0.2382388 0.9288219
vt 0.2382388 0.9288219
vt 0.237515 0.9278771
vt 0.2382388 0.9288219
vt 0.2382388 0.9288219
vt 0.2381814 0.9329295
vn 0.0005450017 0.9999998 -0.0005866776
vn 0.0005450016 0.9999998 -0.0005866776
vn 0.0005450016 0.9999998 -0.0005866776
vn 0.0005450016 0.9999998 -0.0005866776
vn 0.0005450017 0.9999998 -0.0005866776
vn 0.0005450016 0.9999998 -0.0005866776
vn 0.0005450016 0.9999998 -0.0005866776
vn 0.0005450016 0.9999998 -0.0005866776
vn 0.0005450016 0.9999998 -0.0005866776
vn 0.8392508 -0.0007747284 -0.5437439
vn 0.0005450016 0.9999998 -0.0005866776
vn 0.7786863 -0.0007909181 -0.627413
vn 0.0005450016 0.9999998 -0.0005866776
vn 0.8613029 -0.0007657918 -0.5080913
vn 0.0005450016 0.9999998 -0.0005866776
vn 0.0005450016 0.9999998 -0.0005866776
vn 0.0005450016 0.9999998 -0.0005866776
vn 0.0005450017 0.9999998 -0.0005866776
vn 0.0005450016 0.9999998 -0.0005866776
vn 0.0005450017 0.9999998 -0.0005866776
vn -0.07136459 -0.000545683 -0.9974501
vn 0.0005450016 0.9999998 -0.0005866776
vn -0.06948153 -0.0005467759 -0.997583
vn 0.0005450016 0.9999998 -0.0005866776
vn -0.06762794 -0.0005478496 -0.9977105
vn 0.0005450017 0.9999998 -0.0005866776
vn 0.0005450017 0.9999998 -0.0005866776
vn -0.9969797 0.0005878097 0.07766066
vn 0.0005450016 0.9999998 -0.0005866776
vn -0.9970939 0.0005870637 0.07618069
vn 0.0005450016 0.9999998 -0.0005866776
vn -0.9972312 0.0005861453 0.07436083
vn 0.0005450016 0.9999998 -0.0005866776
vn 0.0005450016 0.9999998 -0.0005866776
vn -0.002358984 0.000587252 0.999997
vn -0.002358981 0.0005872519 0.999997
vn 0.0005450016 0.9999998 -0.0005866776
vn 0.0005450016 0.9999998 -0.0005866776
vn 0.7592522 -3.172873E-05 0.6507964
vn 0.7592522 -3.17287E-05 0.6507965
vn 0.999856 -0.0005335315 0.01696059
vn 0.999856 -0.0005335297 0.01696059
g polySurface79_0
f 3/3/3 2/2/2 1/1/1
f 1/1/1 4/4/4 3/3/3
f 4/4/4 5/5/5 3/3/3
f 5/5/5 6/6/6 3/3/3
f 5/5/5 7/7/7 6/6/6
f 5/5/5 8/8/8 7/7/7
f 8/8/8 9/9/9 7/7/7
g polySurface79_1
f 12/12/12 11/11/11 10/10/10
f 11/11/11 13/13/13 10/10/10
f 10/10/10 13/13/13 14/14/14
f 13/13/13 15/15/15 14/14/14
f 11/11/11 16/16/16 13/13/13
f 16/16/16 17/17/17 13/13/13
f 13/13/13 17/17/17 15/15/15
f 18/18/18 16/16/16 11/11/11
f 17/17/17 19/19/19 15/15/15
f 20/20/20 18/18/18 11/11/11
f 20/20/20 11/11/11 21/21/21
f 22/22/22 18/18/18 20/20/20
f 23/23/23 20/20/20 21/21/21
f 24/24/24 22/22/22 20/20/20
f 24/24/24 20/20/20 23/23/23
f 25/25/25 24/24/24 23/23/23
f 26/26/26 22/22/22 24/24/24
f 27/27/27 26/26/26 24/24/24
f 27/27/27 24/24/24 28/28/28
f 29/29/29 26/26/26 27/27/27
f 30/30/30 27/27/27 28/28/28
f 31/31/31 29/29/29 27/27/27
f 31/31/31 27/27/27 30/30/30
f 32/32/32 31/31/31 30/30/30
f 33/33/33 29/29/29 31/31/31
f 34/34/34 33/33/33 31/31/31
f 34/34/34 31/31/31 35/35/35
f 36/36/36 34/34/34 35/35/35
f 37/37/37 33/33/33 34/34/34
f 38/38/38 37/37/37 34/34/34
f 38/38/38 34/34/34 39/39/39
f 40/40/40 38/38/38 39/39/39
f 19/19/19 37/37/37 38/38/38
f 15/15/15 19/19/19 38/38/38
f 15/15/15 38/38/38 41/41/41
f 42/42/42 15/15/15 41/41/41
