g polySurface101
v -0.02188272 3.313435E-05 -0.003037642
v -0.02044567 3.430022E-05 -0.02244068
v -0.007812932 1.737727E-05 -0.02078415
v 0.01660425 -1.661645E-05 -0.009545007
v 0.01350474 -1.030313E-05 -0.02361466
v 0.0214474 -2.652513E-05 0.01271221
v -0.02154099 2.920045E-05 0.0190056
v -0.003036975 3.999602E-06 0.02403684
v -0.007838686 -0.0250112 -0.02127285
v -0.02090397 3.500355E-05 -0.02300517
v -0.02093696 -0.02500557 -0.02298968
v -0.007813573 1.745595E-05 -0.02128849
v 0.01388116 -0.02502419 -0.02415487
v 0.01389459 -1.072036E-05 -0.0241707
v -0.02044567 3.430022E-05 -0.02244068
v -0.007812932 1.737727E-05 -0.02078415
v -0.02188272 3.313435E-05 -0.003037642
v 0.01350474 -1.030313E-05 -0.02361466
v -0.02238236 3.380192E-05 -0.003052245
v -0.02093696 -0.02500557 -0.02298968
v -0.02154099 2.920045E-05 0.0190056
v -0.02241584 -0.02499218 -0.003036764
v -0.02203452 2.979172E-05 0.01938947
v -0.02206718 -0.02497815 0.01940497
v -0.003036975 3.999602E-06 0.02403684
v -0.002993303 3.84463E-06 0.02456705
v -0.02206718 -0.02497815 0.01940497
v -0.003015212 -0.02498466 0.02458274
v 0.0214474 -2.652513E-05 0.01271221
v 0.02202076 -2.732383E-05 0.01299776
v -0.003015212 -0.02498466 0.02458274
v 0.02201265 -0.02500483 0.01301369
v 0.01660425 -1.661645E-05 -0.009545007
v 0.0170931 -1.724111E-05 -0.009651976
v 0.02201265 -0.02500483 0.01301369
v 0.01708127 -0.02501663 -0.009636121
v 0.01388116 -0.02502419 -0.02415487
vt 0.4366862 0.512778
vt 0.4390702 0.5846504
vt 0.4846368 0.5808154
vt 0.5758536 0.5428605
vt 0.5635085 0.5943205
vt 0.5963061 0.4627776
vt 0.4411607 0.4324876
vt 0.5102719 0.418156
vt 0.2135029 0.9276015
vt 0.2111223 0.9278018
vt 0.2111223 0.9278018
vt 0.2135029 0.9276015
vt 0.2176237 0.9283071
vt 0.2176237 0.9283071
vt 0.2111223 0.9278018
vt 0.2135029 0.9276015
vt 0.2109978 0.9240468
vt 0.2176237 0.9283071
vt 0.2109978 0.9240468
vt 0.2111223 0.9278018
vt 0.2112315 0.919852
vt 0.2109978 0.9240468
vt 0.2112315 0.919852
vt 0.2112315 0.919852
vt 0.2148423 0.9191031
vt 0.2148423 0.9191031
vt 0.2112315 0.919852
vt 0.2148423 0.9191031
vt 0.2193372 0.9214345
vt 0.2193372 0.9214345
vt 0.2148423 0.9191031
vt 0.2193372 0.9214345
vt 0.2182687 0.9256185
vt 0.2182687 0.9256185
vt 0.2193372 0.9214345
vt 0.2182687 0.9256185
vt 0.2176237 0.9283071
vn 0.0005133692 0.9999996 -0.0006328915
vn 0.0005133692 0.9999996 -0.0006328915
vn 0.0005133711 0.9999996 -0.0006328915
vn 0.0005133692 0.9999996 -0.0006328915
vn 0.0005133692 0.9999996 -0.0006328915
vn 0.0005133692 0.9999996 -0.0006328915
vn 0.0005133692 0.9999996 -0.0006328915
vn 0.0005133692 0.9999996 -0.0006328915
vn -0.03344651 -0.0006153695 -0.9994403
vn 0.0005133692 0.9999996 -0.0006328915
vn 0.1299606 -0.000694242 -0.9915189
vn 0.0005133711 0.9999996 -0.0006328915
vn -0.1315375 -0.0005598685 -0.9913111
vn 0.0005133692 0.9999996 -0.0006328915
vn 0.0005133692 0.9999996 -0.0006328915
vn 0.0005133711 0.9999996 -0.0006328915
vn 0.0005133692 0.9999996 -0.0006328915
vn 0.0005133692 0.9999996 -0.0006328915
vn 0.0005133692 0.9999996 -0.0006328915
vn -0.9972644 0.0004652623 -0.07391594
vn 0.0005133692 0.9999996 -0.0006328915
vn -0.9996448 0.0004963889 -0.02665034
vn 0.0005133692 0.9999996 -0.0006328915
vn -0.9998792 0.0005232011 0.01553395
vn 0.0005133692 0.9999996 -0.0006328915
vn 0.0005133692 0.9999996 -0.0006328915
vn -0.262258 0.0007453908 0.9649976
vn -0.262258 0.0007453908 0.9649976
vn 0.0005133692 0.9999996 -0.0006328915
vn 0.0005133692 0.9999996 -0.0006328915
vn 0.4195884 0.0003590726 0.9077144
vn 0.4195885 0.0003590708 0.9077144
vn 0.0005133692 0.9999996 -0.0006328915
vn 0.0005133692 0.9999996 -0.0006328915
vn 0.9771089 -0.0006363069 -0.2127385
vn 0.9768951 -0.0006368147 -0.2137185
vn 0.9765597 -0.0006376107 -0.2152459
g polySurface101_0
f 3/3/3 2/2/2 1/1/1
f 1/1/1 4/4/4 3/3/3
f 5/5/5 3/3/3 4/4/4
f 1/1/1 6/6/6 4/4/4
f 1/1/1 7/7/7 6/6/6
f 7/7/7 8/8/8 6/6/6
g polySurface101_1
f 11/11/11 10/10/10 9/9/9
f 10/10/10 12/12/12 9/9/9
f 9/9/9 12/12/12 13/13/13
f 12/12/12 14/14/14 13/13/13
f 10/10/10 15/15/15 12/12/12
f 15/15/15 16/16/16 12/12/12
f 12/12/12 16/16/16 14/14/14
f 17/17/17 15/15/15 10/10/10
f 16/16/16 18/18/18 14/14/14
f 19/19/19 17/17/17 10/10/10
f 19/19/19 10/10/10 20/20/20
f 21/21/21 17/17/17 19/19/19
f 22/22/22 19/19/19 20/20/20
f 23/23/23 21/21/21 19/19/19
f 23/23/23 19/19/19 22/22/22
f 24/24/24 23/23/23 22/22/22
f 25/25/25 21/21/21 23/23/23
f 26/26/26 25/25/25 23/23/23
f 26/26/26 23/23/23 27/27/27
f 28/28/28 26/26/26 27/27/27
f 29/29/29 25/25/25 26/26/26
f 30/30/30 29/29/29 26/26/26
f 30/30/30 26/26/26 31/31/31
f 32/32/32 30/30/30 31/31/31
f 33/33/33 29/29/29 30/30/30
f 34/34/34 33/33/33 30/30/30
f 34/34/34 30/30/30 35/35/35
f 18/18/18 33/33/33 34/34/34
f 36/36/36 34/34/34 35/35/35
f 14/14/14 18/18/18 34/34/34
f 14/14/14 34/34/34 36/36/36
f 37/37/37 14/14/14 36/36/36
