g polySurface109
v -0.02014377 1.907264E-05 0.002397395
v -0.01104633 1.08615E-05 -0.02156193
v 0.01770415 -2.814616E-05 -0.01485479
v 0.01696343 -2.861346E-05 -0.005697219
v 0.01770998 -3.123368E-05 0.004698909
v -0.02357615 2.112065E-05 0.01802967
v -0.00164789 -7.558717E-06 0.01644791
v 0.02349108 -4.083718E-05 0.01714613
v 0.01095426 -2.499665E-05 0.02159668
v -0.02420224 -0.02491174 0.01859269
v -0.02420756 2.18669E-05 0.01857655
v -0.001728137 -7.532492E-06 0.01695504
v -0.001711113 -0.02492431 0.01697138
v -0.001711113 -0.02492431 0.01697138
v -0.001728137 -7.532492E-06 0.01695504
v 0.01094193 -2.506341E-05 0.02213166
v 0.01096611 -0.02492754 0.02214812
v 0.01096611 -0.02492754 0.02214812
v 0.01094193 -2.506341E-05 0.02213166
v 0.02417569 -4.17837E-05 0.01743364
v 0.02420756 -0.02493732 0.01745024
v 0.02420756 -0.02493732 0.01745024
v 0.02417569 -4.17837E-05 0.01743364
v 0.01820177 -3.186072E-05 0.004571464
v 0.01822999 -0.02494239 0.004587999
v 0.01822999 -0.02494239 0.004587999
v 0.01820177 -3.186072E-05 0.004571464
v 0.01746515 -2.926673E-05 -0.005694947
v 0.01749234 -0.0249485 -0.005678439
v 0.01749234 -0.0249485 -0.005678439
v 0.01746515 -2.926673E-05 -0.005694947
v 0.01823778 -2.877558E-05 -0.01524387
v 0.01826516 -0.02495494 -0.01522736
v 0.01826516 -0.02495494 -0.01522736
v 0.01823778 -2.877558E-05 -0.01524387
v -0.01135808 1.136218E-05 -0.02214812
v -0.01134669 -0.02494411 -0.02213188
v -0.01134669 -0.02494411 -0.02213188
v -0.01135808 1.136218E-05 -0.02214812
v -0.02062359 1.971637E-05 0.002254224
v -0.02061682 -0.02492391 0.002270389
v -0.02061682 -0.02492391 0.002270389
v -0.02062359 1.971637E-05 0.002254224
v -0.02420756 2.18669E-05 0.01857655
v -0.02420224 -0.02491174 0.01859269
v -0.01135808 1.136218E-05 -0.02214812
v -0.02014377 1.907264E-05 0.002397395
v -0.02062359 1.971637E-05 0.002254224
v -0.01104633 1.08615E-05 -0.02156193
v -0.02357615 2.112065E-05 0.01802967
v 0.01823778 -2.877558E-05 -0.01524387
v -0.02420756 2.18669E-05 0.01857655
v 0.01770415 -2.814616E-05 -0.01485479
v -0.00164789 -7.558717E-06 0.01644791
v 0.01746515 -2.926673E-05 -0.005694947
v -0.001728137 -7.532492E-06 0.01695504
v 0.01696343 -2.861346E-05 -0.005697219
v 0.01095426 -2.499665E-05 0.02159668
v 0.01820177 -3.186072E-05 0.004571464
v 0.01094193 -2.506341E-05 0.02213166
v 0.01770998 -3.123368E-05 0.004698909
v 0.02349108 -4.083718E-05 0.01714613
v 0.02417569 -4.17837E-05 0.01743364
vt 0.4338267 0.1607126
vt 0.4582253 0.232023
vt 0.5435513 0.2168202
vt 0.5422598 0.1889327
vt 0.5453526 0.1591958
vt 0.4252172 0.1127065
vt 0.4894074 0.1205355
vt 0.5636306 0.1226946
vt 0.5263812 0.1071374
vt 0.2239636 0.9203312
vt 0.2239636 0.9203312
vt 0.2280633 0.9208313
vt 0.2280633 0.9208313
vt 0.2280633 0.9208313
vt 0.2280633 0.9208313
vt 0.2304247 0.9199756
vt 0.2304247 0.9199756
vt 0.2304247 0.9199756
vt 0.2304247 0.9199756
vt 0.2328037 0.9209692
vt 0.2328037 0.9209692
vt 0.2328037 0.9209692
vt 0.2328037 0.9209692
vt 0.2316363 0.9233004
vt 0.2316363 0.9233004
vt 0.2316363 0.9233004
vt 0.2316363 0.9233004
vt 0.2314388 0.9251996
vt 0.2314388 0.9251996
vt 0.2314388 0.9251996
vt 0.2314388 0.9251996
vt 0.2315213 0.9269806
vt 0.2315213 0.9269806
vt 0.2315213 0.9269806
vt 0.2315213 0.9269806
vt 0.2260718 0.9279516
vt 0.2260718 0.9279516
vt 0.2260718 0.9279516
vt 0.2260718 0.9279516
vt 0.2245135 0.9233972
vt 0.2245135 0.9233972
vt 0.2245135 0.9233972
vt 0.2245135 0.9233972
vt 0.2239636 0.9203312
vt 0.2239636 0.9203312
vt 0.2260718 0.9279516
vt 0.2245135 0.9233972
vt 0.2245135 0.9233972
vt 0.2260718 0.9279516
vt 0.2239636 0.9203312
vt 0.2315213 0.9269806
vt 0.2239636 0.9203312
vt 0.2315213 0.9269806
vt 0.2280633 0.9208313
vt 0.2314388 0.9251996
vt 0.2280633 0.9208313
vt 0.2314388 0.9251996
vt 0.2304247 0.9199756
vt 0.2316363 0.9233004
vt 0.2304247 0.9199756
vt 0.2316363 0.9233004
vt 0.2328037 0.9209692
vt 0.2328037 0.9209692
vn 0.001319496 0.9999992 0.000158295
vn 0.001319496 0.9999992 0.000158295
vn 0.001319496 0.9999992 0.000158295
vn 0.001319496 0.9999992 0.000158295
vn 0.001319496 0.9999992 0.000158295
vn 0.001319496 0.9999992 0.000158295
vn 0.001319496 0.9999992 0.000158295
vn 0.001319496 0.9999992 0.000158295
vn 0.001319496 0.9999992 0.000158295
vn 0.07192367 0.0006820523 0.9974099
vn 0.07192367 0.0006820523 0.9974099
vn 0.07192367 0.0006820523 0.9974099
vn 0.07192368 0.0006820523 0.9974099
vn -0.3781327 0.000296511 0.9257514
vn -0.3781326 0.0002965109 0.9257514
vn -0.3781327 0.0002965109 0.9257514
vn -0.3781327 0.000296511 0.9257514
vn 0.3344571 0.001002125 0.9424104
vn 0.3344571 0.001002125 0.9424105
vn 0.3344571 0.001002125 0.9424105
vn 0.3344571 0.001002125 0.9424104
vn 0.9069009 0.0008137159 -0.4213435
vn 0.9069008 0.0008137158 -0.4213434
vn 0.9069009 0.0008137159 -0.4213435
vn 0.9069008 0.0008137158 -0.4213434
vn 0.9974317 0.00106151 -0.07161637
vn 0.9974317 0.00106151 -0.07161637
vn 0.9974317 0.00106151 -0.07161637
vn 0.9974317 0.00106151 -0.07161636
vn 0.9967411 0.001144748 0.08065934
vn 0.9967411 0.001144748 0.08065934
vn 0.9967411 0.001144748 0.08065934
vn 0.9967411 0.001144748 0.08065934
vn 0.2271302 -0.0004628067 -0.9738643
vn 0.2271301 -0.0004628068 -0.9738643
vn 0.2271302 -0.0004628068 -0.9738643
vn 0.2271302 -0.0004628068 -0.9738643
vn -0.9348479 -0.000570749 -0.3550481
vn -0.9348479 -0.000570749 -0.3550482
vn -0.9348479 -0.000570749 -0.3550482
vn -0.9348479 -0.000570749 -0.3550481
vn -0.9767224 -0.0003756941 -0.214507
vn -0.9767223 -0.0003756942 -0.214507
vn -0.9767224 -0.0003756941 -0.214507
vn -0.9767224 -0.0003756941 -0.214507
vn 0.001317348 0.9999992 0.0001633268
vn 0.001304844 0.9999992 0.000152602
vn 0.001304844 0.9999992 0.000152602
vn 0.001317348 0.9999992 0.0001633268
vn 0.00131924 0.9999992 0.0001563522
vn 0.001297252 0.9999992 0.0001564509
vn 0.00131924 0.9999992 0.0001563522
vn 0.001297252 0.9999992 0.0001564509
vn 0.00131924 0.9999992 0.0001563522
vn 0.001308627 0.9999992 0.0001585497
vn 0.00131924 0.9999992 0.0001563522
vn 0.001308627 0.9999992 0.0001585497
vn 0.001319886 0.9999992 0.0001572693
vn 0.001315784 0.9999992 0.0001604852
vn 0.001319886 0.9999992 0.0001572693
vn 0.001315784 0.9999992 0.0001604852
vn 0.001318304 0.9999992 0.000155514
vn 0.001318304 0.9999992 0.000155514
g polySurface109_0
f 3/3/3 2/2/2 1/1/1
f 1/1/1 4/4/4 3/3/3
f 1/1/1 5/5/5 4/4/4
f 1/1/1 6/6/6 5/5/5
f 6/6/6 7/7/7 5/5/5
f 8/8/8 5/5/5 7/7/7
f 7/7/7 9/9/9 8/8/8
g polySurface109_1
f 12/12/12 11/11/11 10/10/10
f 13/13/13 12/12/12 10/10/10
f 16/16/16 15/15/15 14/14/14
f 17/17/17 16/16/16 14/14/14
f 20/20/20 19/19/19 18/18/18
f 21/21/21 20/20/20 18/18/18
f 24/24/24 23/23/23 22/22/22
f 25/25/25 24/24/24 22/22/22
f 28/28/28 27/27/27 26/26/26
f 29/29/29 28/28/28 26/26/26
f 32/32/32 31/31/31 30/30/30
f 33/33/33 32/32/32 30/30/30
f 36/36/36 35/35/35 34/34/34
f 37/37/37 36/36/36 34/34/34
f 40/40/40 39/39/39 38/38/38
f 41/41/41 40/40/40 38/38/38
f 44/44/44 43/43/43 42/42/42
f 45/45/45 44/44/44 42/42/42
f 48/48/48 47/47/47 46/46/46
f 47/47/47 49/49/49 46/46/46
f 50/50/50 47/47/47 48/48/48
f 46/46/46 49/49/49 51/51/51
f 52/52/52 50/50/50 48/48/48
f 49/49/49 53/53/53 51/51/51
f 54/54/54 50/50/50 52/52/52
f 51/51/51 53/53/53 55/55/55
f 56/56/56 54/54/54 52/52/52
f 53/53/53 57/57/57 55/55/55
f 58/58/58 54/54/54 56/56/56
f 55/55/55 57/57/57 59/59/59
f 60/60/60 58/58/58 56/56/56
f 57/57/57 61/61/61 59/59/59
f 62/62/62 58/58/58 60/60/60
f 59/59/59 61/61/61 63/63/63
f 63/63/63 62/62/62 60/60/60
f 61/61/61 62/62/62 63/63/63
