g polySurface126
v 0.01553982 -0.0001395603 -0.02613368
v 0.02341346 -0.0001493545 -0.02985285
v 0.02201953 -0.0001526805 0.002737797
v -0.001620605 -0.0001172991 -0.02371416
v -0.02277894 -8.962113E-05 -0.02222601
v -0.02390306 -9.051282E-05 -0.007224123
v -0.02001872 -9.875495E-05 0.0125849
v 0.02395818 -0.0001578351 0.01918705
v -0.003035028 -0.0001226969 0.02215537
v 0.01825421 -0.0001516147 0.02749624
v -0.01317886 -0.0001105209 0.02984742
v -0.01346365 -0.02510527 0.03065828
v -0.0134002 -0.0001103469 0.03064331
v -0.002923667 -0.0001229211 0.02269869
v -0.002981336 -0.02511569 0.02271375
v -0.002981336 -0.02511569 0.02271375
v -0.002923667 -0.0001229211 0.02269869
v 0.01846867 -0.0001519938 0.02806568
v 0.01842353 -0.02512328 0.02808098
v 0.01842353 -0.02512328 0.02808098
v 0.01846867 -0.0001519938 0.02806568
v 0.0244765 -0.0001585336 0.01931519
v 0.02443397 -0.02513189 0.01933051
v 0.02443397 -0.02513189 0.01933051
v 0.0244765 -0.0001585336 0.01931519
v 0.02252059 -0.0001533337 0.002719088
v 0.02247708 -0.02514139 0.002734401
v 0.02247708 -0.02514139 0.002734401
v 0.02252059 -0.0001533337 0.002719088
v 0.02394814 -0.0001499363 -0.03065828
v 0.02390479 -0.02516325 -0.03064297
v 0.02390479 -0.02516325 -0.03064297
v 0.02394814 -0.0001499363 -0.03065828
v 0.01539521 -0.0001392837 -0.02661821
v 0.01534677 -0.0251563 -0.02660299
v 0.01534677 -0.0251563 -0.02660299
v 0.01539521 -0.0001392837 -0.02661821
v -0.001673086 -0.0001171513 -0.02421171
v -0.00173063 -0.02514601 -0.02419665
v -0.00173063 -0.02514601 -0.02419665
v -0.001673086 -0.0001171513 -0.02421171
v -0.02324462 -8.89321E-05 -0.02269445
v -0.02331403 -0.02513397 -0.02267959
v -0.02331403 -0.02513397 -0.02267959
v -0.02324462 -8.89321E-05 -0.02269445
v -0.02440653 -8.98524E-05 -0.007194146
v -0.0244765 -0.02512356 -0.007179298
v -0.0244765 -0.02512356 -0.007179298
v -0.02440653 -8.98524E-05 -0.007194146
v -0.02050026 -9.814221E-05 0.01272638
v -0.02056796 -0.02511296 0.01274126
v -0.02056796 -0.02511296 0.01274126
v -0.02050026 -9.814221E-05 0.01272638
v -0.0134002 -0.0001103469 0.03064331
v -0.01346365 -0.02510527 0.03065828
v -0.02440653 -8.98524E-05 -0.007194146
v -0.02001872 -9.875495E-05 0.0125849
v -0.02050026 -9.814221E-05 0.01272638
v -0.02390306 -9.051282E-05 -0.007224123
v -0.01317886 -0.0001105209 0.02984742
v -0.02324462 -8.89321E-05 -0.02269445
v -0.0134002 -0.0001103469 0.03064331
v -0.02277894 -8.962113E-05 -0.02222601
v -0.003035028 -0.0001226969 0.02215537
v -0.001673086 -0.0001171513 -0.02421171
v -0.002923667 -0.0001229211 0.02269869
v -0.001620605 -0.0001172991 -0.02371416
v 0.01825421 -0.0001516147 0.02749624
v 0.01539521 -0.0001392837 -0.02661821
v 0.01846867 -0.0001519938 0.02806568
v 0.01553982 -0.0001395603 -0.02613368
v 0.02395818 -0.0001578351 0.01918705
v 0.02394814 -0.0001499363 -0.03065828
v 0.0244765 -0.0001585336 0.01931519
v 0.02341346 -0.0001493545 -0.02985285
v 0.02201953 -0.0001526805 0.002737797
v 0.02252059 -0.0001533337 0.002719088
vt 0.1524785 0.2136236
vt 0.1766734 0.2269624
vt 0.176592 0.1298031
vt 0.1033235 0.2038257
vt 0.04069829 0.1968151
vt 0.03933126 0.151569
vt 0.05326897 0.09436637
vt 0.1842259 0.0821798
vt 0.1056992 0.06799391
vt 0.1682305 0.05589984
vt 0.07633513 0.04364823
vt 0.221893 0.9073981
vt 0.221893 0.9073981
vt 0.223783 0.9089652
vt 0.223783 0.9089652
vt 0.223783 0.9089652
vt 0.223783 0.9089652
vt 0.2278079 0.9081867
vt 0.2278079 0.9081867
vt 0.2278079 0.9081867
vt 0.2278079 0.9081867
vt 0.2288374 0.9098783
vt 0.2288374 0.9098783
vt 0.2288374 0.9098783
vt 0.2288374 0.9098783
vt 0.2283461 0.9129436
vt 0.2283461 0.9129436
vt 0.2283461 0.9129436
vt 0.2283461 0.9129436
vt 0.2283513 0.9191974
vt 0.2283513 0.9191974
vt 0.2283513 0.9191974
vt 0.2283513 0.9191974
vt 0.226794 0.9183388
vt 0.226794 0.9183388
vt 0.226794 0.9183388
vt 0.226794 0.9183388
vt 0.2236301 0.9177082
vt 0.2236301 0.9177082
vt 0.2236301 0.9177082
vt 0.2236301 0.9177082
vt 0.2195992 0.9172569
vt 0.2195992 0.9172569
vt 0.2195992 0.9172569
vt 0.2195992 0.9172569
vt 0.2195111 0.9143446
vt 0.2195111 0.9143446
vt 0.2195111 0.9143446
vt 0.2195111 0.9143446
vt 0.2204083 0.9106627
vt 0.2204083 0.9106627
vt 0.2204083 0.9106627
vt 0.2204083 0.9106627
vt 0.221893 0.9073981
vt 0.221893 0.9073981
vt 0.2195111 0.9143446
vt 0.2204083 0.9106627
vt 0.2204083 0.9106627
vt 0.2195111 0.9143446
vt 0.221893 0.9073981
vt 0.2195992 0.9172569
vt 0.221893 0.9073981
vt 0.2195992 0.9172569
vt 0.223783 0.9089652
vt 0.2236301 0.9177082
vt 0.223783 0.9089652
vt 0.2236301 0.9177082
vt 0.2278079 0.9081867
vt 0.226794 0.9183388
vt 0.2278079 0.9081867
vt 0.226794 0.9183388
vt 0.2288374 0.9098783
vt 0.2283513 0.9191974
vt 0.2288374 0.9098783
vt 0.2283513 0.9191974
vt 0.2283461 0.9129436
vt 0.2283461 0.9129436
vn 0.001319499 0.9999992 0.0001582135
vn 0.001319499 0.9999992 0.0001582135
vn 0.001319499 0.9999992 0.0001582135
vn 0.001319499 0.9999992 0.0001582135
vn 0.001319499 0.9999992 0.0001582135
vn 0.001319499 0.9999992 0.0001582135
vn 0.001319499 0.9999992 0.0001582135
vn 0.001319499 0.9999992 0.0001582135
vn 0.001319499 0.9999992 0.0001582135
vn 0.001319499 0.9999992 0.0001582135
vn 0.001319499 0.9999992 0.0001582135
vn 0.6041282 -0.0009848304 0.7968866
vn 0.6041281 -0.0009848303 0.7968866
vn 0.6041281 -0.0009848304 0.7968866
vn 0.6041282 -0.0009848303 0.7968866
vn -0.2432796 0.001090129 0.9699556
vn -0.2432796 0.001090129 0.9699556
vn -0.2432795 0.001090129 0.9699556
vn -0.2432796 0.001090129 0.9699556
vn 0.8243409 -0.001099784 0.5660926
vn 0.8243409 -0.001099784 0.5660926
vn 0.8243409 -0.001099784 0.5660926
vn 0.8243409 -0.001099784 0.5660926
vn 0.9931218 -0.001782043 -0.1170718
vn 0.9931218 -0.001782043 -0.1170718
vn 0.9931218 -0.001782043 -0.1170718
vn 0.9931218 -0.001782043 -0.1170718
vn 0.9990851 -0.00170936 0.04273378
vn 0.9990851 -0.00170936 0.04273378
vn 0.9990851 -0.00170936 0.04273378
vn 0.9990851 -0.00170936 0.04273377
vn -0.4270008 0.0002315934 -0.9042513
vn -0.4270008 0.0002315934 -0.9042513
vn -0.4270008 0.0002315934 -0.9042513
vn -0.4270008 0.0002315934 -0.9042513
vn -0.1395707 -0.0003036213 -0.990212
vn -0.1395707 -0.0003036213 -0.990212
vn -0.1395707 -0.0003036213 -0.990212
vn -0.1395707 -0.0003036213 -0.990212
vn -0.07013918 -0.000418354 -0.9975371
vn -0.07013918 -0.0004183539 -0.9975371
vn -0.07013918 -0.000418354 -0.9975371
vn -0.07013918 -0.000418354 -0.9975371
vn -0.9971972 0.002731179 -0.07476924
vn -0.9971972 0.002731179 -0.07476924
vn -0.9971972 0.002731179 -0.07476924
vn -0.9971972 0.002731179 -0.07476924
vn -0.9812967 0.002813535 0.1924807
vn -0.9812967 0.002813536 0.1924807
vn -0.9812967 0.002813535 0.1924807
vn -0.9812967 0.002813535 0.1924807
vn -0.9296247 0.002658004 0.3684981
vn -0.9296247 0.002658004 0.3684981
vn -0.9296247 0.002658004 0.3684981
vn -0.9296247 0.002658004 0.3684981
vn 0.001320778 0.9999992 0.0001581641
vn 0.001319901 0.9999992 0.0001555291
vn 0.001319901 0.9999992 0.0001555291
vn 0.001320778 0.9999992 0.0001581641
vn 0.001310232 0.9999992 0.0001471972
vn 0.001319309 0.9999992 0.000160495
vn 0.001310232 0.9999992 0.0001471972
vn 0.001319309 0.9999992 0.000160495
vn 0.001310232 0.9999992 0.0001471972
vn 0.001320528 0.9999992 0.0001585125
vn 0.001310232 0.9999992 0.0001471972
vn 0.001320528 0.9999992 0.0001585125
vn 0.001319626 0.9999992 0.00015612
vn 0.001321791 0.9999992 0.0001647414
vn 0.001319626 0.9999992 0.00015612
vn 0.001321791 0.9999992 0.0001647414
vn 0.001320018 0.9999992 0.0001573689
vn 0.001318365 0.9999992 0.0001585846
vn 0.001320018 0.9999992 0.0001573689
vn 0.001318365 0.9999992 0.0001585846
vn 0.001309062 0.9999992 0.0001593189
vn 0.001309062 0.9999992 0.0001593189
g polySurface126_0
f 3/3/3 2/2/2 1/1/1
f 1/1/1 4/4/4 3/3/3
f 4/4/4 5/5/5 3/3/3
f 5/5/5 6/6/6 3/3/3
f 6/6/6 7/7/7 3/3/3
f 7/7/7 8/8/8 3/3/3
f 7/7/7 9/9/9 8/8/8
f 8/8/8 9/9/9 10/10/10
f 7/7/7 11/11/11 9/9/9
g polySurface126_1
f 14/14/14 13/13/13 12/12/12
f 15/15/15 14/14/14 12/12/12
f 18/18/18 17/17/17 16/16/16
f 19/19/19 18/18/18 16/16/16
f 22/22/22 21/21/21 20/20/20
f 23/23/23 22/22/22 20/20/20
f 26/26/26 25/25/25 24/24/24
f 27/27/27 26/26/26 24/24/24
f 30/30/30 29/29/29 28/28/28
f 31/31/31 30/30/30 28/28/28
f 34/34/34 33/33/33 32/32/32
f 35/35/35 34/34/34 32/32/32
f 38/38/38 37/37/37 36/36/36
f 39/39/39 38/38/38 36/36/36
f 42/42/42 41/41/41 40/40/40
f 43/43/43 42/42/42 40/40/40
f 46/46/46 45/45/45 44/44/44
f 47/47/47 46/46/46 44/44/44
f 50/50/50 49/49/49 48/48/48
f 51/51/51 50/50/50 48/48/48
f 54/54/54 53/53/53 52/52/52
f 55/55/55 54/54/54 52/52/52
f 58/58/58 57/57/57 56/56/56
f 57/57/57 59/59/59 56/56/56
f 60/60/60 57/57/57 58/58/58
f 56/56/56 59/59/59 61/61/61
f 62/62/62 60/60/60 58/58/58
f 59/59/59 63/63/63 61/61/61
f 64/64/64 60/60/60 62/62/62
f 61/61/61 63/63/63 65/65/65
f 66/66/66 64/64/64 62/62/62
f 63/63/63 67/67/67 65/65/65
f 68/68/68 64/64/64 66/66/66
f 65/65/65 67/67/67 69/69/69
f 70/70/70 68/68/68 66/66/66
f 67/67/67 71/71/71 69/69/69
f 72/72/72 68/68/68 70/70/70
f 69/69/69 71/71/71 73/73/73
f 74/74/74 72/72/72 70/70/70
f 71/71/71 75/75/75 73/73/73
f 76/76/76 72/72/72 74/74/74
f 73/73/73 75/75/75 77/77/77
f 77/77/77 76/76/76 74/74/74
f 75/75/75 76/76/76 77/77/77
