g polySurface110
v -0.02390678 2.23253E-05 -0.01205358
v 0.0006638539 -8.294797E-06 -0.02342088
v 0.02481856 -4.125378E-05 -0.01649734
v 0.01730836 -3.45423E-05 0.003719428
v -0.02320254 1.647689E-05 0.019032
v -0.01247686 2.674841E-06 0.01686974
v -0.0006263882 -1.309655E-05 0.01774815
v 0.02136019 -4.2577E-05 0.02074038
v 0.01065866 -2.895377E-05 0.02382401
v -0.02443952 -0.02512204 -0.01235426
v -0.02441403 2.304532E-05 -0.01236988
v -0.0236884 1.702049E-05 0.01964007
v -0.02371299 -0.02510216 0.01965571
v -0.02371299 -0.02510216 0.01965571
v -0.0236884 1.702049E-05 0.01964007
v -0.01244522 2.546095E-06 0.01737347
v -0.01246393 -0.02510937 0.01738922
v -0.0007695821 -1.298449E-05 0.01823891
v -0.0007818124 -0.02511482 0.01825478
v 0.01060085 -2.896092E-05 0.02436085
v 0.0105949 -0.0251168 0.02437683
v 0.0105949 -0.0251168 0.02437683
v 0.01060085 -2.896092E-05 0.02436085
v 0.02195616 -4.343293E-05 0.02108877
v 0.02195656 -0.0251247 0.02110485
v 0.02195656 -0.0251247 0.02110485
v 0.02195616 -4.343293E-05 0.02108877
v 0.01782963 -3.523848E-05 0.00375128
v 0.01782685 -0.02513355 0.003767302
v 0.01782685 -0.02513355 0.003767302
v 0.01782963 -3.523848E-05 0.00375128
v 0.02547564 -4.207156E-05 -0.0168293
v 0.02547679 -0.02515048 -0.01681322
v 0.02547679 -0.02515048 -0.01681322
v 0.02547564 -4.207156E-05 -0.0168293
v 0.0006233728 -8.156515E-06 -0.02395275
v 0.0006105641 -0.02514223 -0.02393692
v 0.0006105641 -0.02514223 -0.02393692
v 0.0006233728 -8.156515E-06 -0.02395275
v -0.02441403 2.304532E-05 -0.01236988
v -0.02443952 -0.02512204 -0.01235426
v 0.02547564 -4.207156E-05 -0.0168293
v 0.0006638539 -8.294797E-06 -0.02342088
v 0.0006233728 -8.156515E-06 -0.02395275
v 0.02481856 -4.125378E-05 -0.01649734
v -0.02390678 2.23253E-05 -0.01205358
v 0.01782963 -3.523848E-05 0.00375128
v -0.02441403 2.304532E-05 -0.01236988
v 0.01730836 -3.45423E-05 0.003719428
v -0.02320254 1.647689E-05 0.019032
v 0.02195616 -4.343293E-05 0.02108877
v -0.0236884 1.702049E-05 0.01964007
v 0.02136019 -4.2577E-05 0.02074038
v -0.01247686 2.674841E-06 0.01686974
v 0.01060085 -2.896092E-05 0.02436085
v -0.01244522 2.546095E-06 0.01737347
v 0.01065866 -2.895377E-05 0.02382401
v -0.0006263882 -1.309655E-05 0.01774815
v -0.0007695821 -1.298449E-05 0.01823891
vt 0.8504823 0.1232982
vt 0.9214381 0.1602446
vt 0.9936103 0.14297
vt 0.9738389 0.08225237
vt 0.8562939 0.03026742
vt 0.8883497 0.03841677
vt 0.9220159 0.03762548
vt 0.9874689 0.03272438
vt 0.9552958 0.02160072
vt 0.2310165 0.9745167
vt 0.2280658 0.9692487
vt 0.2204402 0.9661393
vt 0.2158946 0.9708944
vt 0.2158946 0.9708944
vt 0.2204402 0.9661393
vt 0.2207634 0.9635064
vt 0.2138925 0.9652014
vt 0.2211166 0.9602737
vt 0.2138799 0.9596183
vt 0.221303 0.9568757
vt 0.2155866 0.9540379
vt 0.2155866 0.9540379
vt 0.221303 0.9568757
vt 0.2230516 0.9545905
vt 0.2193464 0.9499763
vt 0.2193464 0.9499763
vt 0.2230516 0.9545905
vt 0.2273464 0.9559144
vt 0.2275132 0.948476
vt 0.2275132 0.948476
vt 0.2273464 0.9559144
vt 0.2337207 0.9568143
vt 0.2364712 0.951928
vt 0.2364712 0.951928
vt 0.2337207 0.9568143
vt 0.233114 0.9631451
vt 0.2398327 0.9643963
vt 0.2398327 0.9643963
vt 0.233114 0.9631451
vt 0.2280658 0.9692487
vt 0.2310165 0.9745167
vt 0.2337207 0.9568143
vt 0.2329611 0.9631006
vt 0.233114 0.9631451
vt 0.2335567 0.9569206
vt 0.228074 0.9690745
vt 0.2273464 0.9559144
vt 0.2280658 0.9692487
vt 0.2272774 0.9560773
vt 0.2205717 0.9660513
vt 0.2230516 0.9545905
vt 0.2204402 0.9661393
vt 0.2231147 0.9547324
vt 0.2209354 0.9635124
vt 0.221303 0.9568757
vt 0.2207634 0.9635064
vt 0.2214226 0.9569469
vt 0.2213023 0.9602731
vt 0.2211166 0.9602737
vn 0.0005134176 0.9999996 -0.0006328899
vn 0.0005134176 0.9999996 -0.0006328899
vn 0.0005134176 0.9999996 -0.0006328899
vn 0.0005134176 0.9999996 -0.0006328899
vn 0.0005134176 0.9999996 -0.0006328899
vn 0.0005134176 0.9999996 -0.0006328899
vn 0.0005134176 0.9999996 -0.0006328899
vn 0.0005134176 0.9999996 -0.0006328899
vn 0.0005134176 0.9999996 -0.0006328899
vn -0.9997423 0.0005275996 0.02269075
vn 0.0005134176 0.9999996 -0.0006328899
vn 0.0005134176 0.9999996 -0.0006328899
vn -0.9997423 0.0005275977 0.02269075
vn 0.1975135 0.0005190366 0.9803001
vn 0.0005134176 0.9999996 -0.0006328899
vn 0.0005134176 0.9999996 -0.0006328899
vn 0.06097971 0.0006004118 0.9981388
vn 0.0005134176 0.9999996 -0.0006328899
vn -0.2900103 0.0007545867 0.9570232
vn 0.0005134176 0.9999996 -0.0006328899
vn -0.4738677 0.0008006173 0.8805957
vn 0.2767374 0.000466108 0.9609455
vn 0.0005134176 0.9999996 -0.0006328899
vn 0.0005134176 0.9999996 -0.0006328899
vn 0.2767374 0.000466108 0.9609455
vn 0.9727842 -0.000646021 -0.2317118
vn 0.0005134176 0.9999996 -0.0006328899
vn 0.0005134176 0.9999996 -0.0006328899
vn 0.9727842 -0.000646021 -0.2317118
vn 0.9373397 -0.0002607155 0.3484168
vn 0.0005134176 0.9999996 -0.0006328899
vn 0.0005134176 0.9999996 -0.0006328899
vn 0.9373397 -0.0002607191 0.3484167
vn 0.2754022 -0.0007497946 -0.9613288
vn 0.0005134176 0.9999996 -0.0006328899
vn 0.0005134176 0.9999996 -0.0006328899
vn 0.2754022 -0.0007497946 -0.9613288
vn -0.4196886 -0.000359002 -0.9076681
vn 0.0005134176 0.9999996 -0.0006328899
vn 0.0005134176 0.9999996 -0.0006328899
vn -0.4196886 -0.000359002 -0.9076681
vn 0.0005148641 0.9999996 -0.0006357395
vn 0.0005134176 0.9999996 -0.0006328899
vn 0.0005112943 0.9999996 -0.0006406136
vn 0.0005134176 0.9999996 -0.0006328899
vn 0.0005134176 0.9999996 -0.0006328899
vn 0.0005143997 0.9999996 -0.0006320975
vn 0.0004982402 0.9999998 -0.0006367076
vn 0.0005134176 0.9999996 -0.0006328899
vn 0.0005134176 0.9999996 -0.0006328899
vn 0.0005134091 0.9999996 -0.000634246
vn 0.0004965786 0.9999998 -0.0006297366
vn 0.0005134176 0.9999996 -0.0006328899
vn 0.0005134176 0.9999996 -0.0006328899
vn 0.0005182534 0.9999996 -0.0006446227
vn 0.0005150478 0.9999996 -0.0006400712
vn 0.0005134176 0.9999996 -0.0006328899
vn 0.0005134176 0.9999996 -0.0006328899
vn 0.0005194888 0.9999996 -0.0006542899
g polySurface110_0
f 3/3/3 2/2/2 1/1/1
f 1/1/1 4/4/4 3/3/3
f 1/1/1 5/5/5 4/4/4
f 5/5/5 6/6/6 4/4/4
f 4/4/4 6/6/6 7/7/7
f 7/7/7 8/8/8 4/4/4
f 7/7/7 9/9/9 8/8/8
g polySurface110_1
f 12/12/12 11/11/11 10/10/10
f 13/13/13 12/12/12 10/10/10
f 16/16/16 15/15/15 14/14/14
f 17/17/17 16/16/16 14/14/14
f 18/18/18 16/16/16 17/17/17
f 19/19/19 18/18/18 17/17/17
f 20/20/20 18/18/18 19/19/19
f 21/21/21 20/20/20 19/19/19
f 24/24/24 23/23/23 22/22/22
f 25/25/25 24/24/24 22/22/22
f 28/28/28 27/27/27 26/26/26
f 29/29/29 28/28/28 26/26/26
f 32/32/32 31/31/31 30/30/30
f 33/33/33 32/32/32 30/30/30
f 36/36/36 35/35/35 34/34/34
f 37/37/37 36/36/36 34/34/34
f 40/40/40 39/39/39 38/38/38
f 41/41/41 40/40/40 38/38/38
f 44/44/44 43/43/43 42/42/42
f 43/43/43 45/45/45 42/42/42
f 46/46/46 43/43/43 44/44/44
f 42/42/42 45/45/45 47/47/47
f 48/48/48 46/46/46 44/44/44
f 45/45/45 49/49/49 47/47/47
f 50/50/50 46/46/46 48/48/48
f 47/47/47 49/49/49 51/51/51
f 52/52/52 50/50/50 48/48/48
f 49/49/49 53/53/53 51/51/51
f 54/54/54 50/50/50 52/52/52
f 51/51/51 53/53/53 55/55/55
f 56/56/56 54/54/54 52/52/52
f 53/53/53 57/57/57 55/55/55
f 58/58/58 54/54/54 56/56/56
f 55/55/55 57/57/57 59/59/59
f 59/59/59 58/58/58 56/56/56
f 57/57/57 58/58/58 59/59/59
