g polySurface106
v 0.01530136 -0.0001255904 -0.02595181
v 0.023175 -0.000135387 -0.02967097
v 0.0217819 -0.0001386987 0.002919688
v -0.001859833 -0.0001033436 -0.02353232
v -0.02301735 -7.564887E-05 -0.02204413
v -0.02414225 -7.653817E-05 -0.007042261
v -0.02025791 -8.480652E-05 0.01276676
v 0.02371976 -0.0001438652 0.01936893
v -0.003272577 -0.0001087151 0.0223373
v 0.01801502 -0.0001376544 0.02767807
v -0.01341649 -9.654863E-05 0.03002933
v -0.01370578 -0.02524789 0.0308401
v -0.01363862 -9.637697E-05 0.03082519
v -0.003162113 -0.0001089583 0.02288057
v -0.003223473 -0.0252583 0.02289558
v -0.003223473 -0.0252583 0.02289558
v -0.003162113 -0.0001089583 0.02288057
v 0.01823022 -0.0001380358 0.02824756
v 0.0181814 -0.02526589 0.0282628
v 0.0181814 -0.02526589 0.0282628
v 0.01823022 -0.0001380358 0.02824756
v 0.02423809 -0.0001445637 0.01949706
v 0.02419183 -0.02527452 0.01951233
v 0.02419183 -0.02527452 0.01951233
v 0.02423809 -0.0001445637 0.01949706
v 0.022283 -0.0001393615 0.002901015
v 0.02223494 -0.02528401 0.002916235
v 0.02223494 -0.02528401 0.002916235
v 0.022283 -0.0001393615 0.002901015
v 0.02370973 -0.0001359616 -0.03047638
v 0.02366266 -0.02530588 -0.03046113
v 0.02366266 -0.02530588 -0.03046113
v 0.02370973 -0.0001359616 -0.03047638
v 0.01515676 -0.0001253138 -0.02643631
v 0.01510463 -0.02529893 -0.02642115
v 0.01510463 -0.02529893 -0.02642115
v 0.01515676 -0.0001253138 -0.02643631
v -0.001912189 -0.0001031957 -0.02402985
v -0.001972757 -0.02528863 -0.02401482
v -0.001972757 -0.02528863 -0.02401482
v -0.001912189 -0.0001031957 -0.02402985
v -0.02348302 -7.496461E-05 -0.02251256
v -0.02355616 -0.0252766 -0.02249775
v -0.02355616 -0.0252766 -0.02249775
v -0.02348302 -7.496461E-05 -0.02251256
v -0.02464494 -7.587059E-05 -0.007012258
v -0.02471864 -0.02526617 -0.006997476
v -0.02471864 -0.02526617 -0.006997476
v -0.02464494 -7.587059E-05 -0.007012258
v -0.02073945 -8.418425E-05 0.01290823
v -0.0208101 -0.02525557 0.01292308
v -0.0208101 -0.02525557 0.01292308
v -0.02073945 -8.418425E-05 0.01290823
v -0.01363862 -9.637697E-05 0.03082519
v -0.01370578 -0.02524789 0.0308401
v -0.02464494 -7.587059E-05 -0.007012258
v -0.02025791 -8.480652E-05 0.01276676
v -0.02073945 -8.418425E-05 0.01290823
v -0.02414225 -7.653817E-05 -0.007042261
v -0.01341649 -9.654863E-05 0.03002933
v -0.02348302 -7.496461E-05 -0.02251256
v -0.01363862 -9.637697E-05 0.03082519
v -0.02301735 -7.564887E-05 -0.02204413
v -0.003272577 -0.0001087151 0.0223373
v -0.001912189 -0.0001031957 -0.02402985
v -0.003162113 -0.0001089583 0.02288057
v -0.001859833 -0.0001033436 -0.02353232
v 0.01801502 -0.0001376544 0.02767807
v 0.01515676 -0.0001253138 -0.02643631
v 0.01823022 -0.0001380358 0.02824756
v 0.01530136 -0.0001255904 -0.02595181
v 0.02371976 -0.0001438652 0.01936893
v 0.02370973 -0.0001359616 -0.03047638
v 0.02423809 -0.0001445637 0.01949706
v 0.023175 -0.000135387 -0.02967097
v 0.0217819 -0.0001386987 0.002919688
v 0.022283 -0.0001393615 0.002901015
vt 0.8638917 0.8246913
vt 0.8994845 0.8443139
vt 0.8993648 0.7013835
vt 0.7915801 0.8102777
vt 0.6994525 0.7999644
vt 0.6974416 0.7334031
vt 0.7179452 0.6492528
vt 0.9105949 0.6313252
vt 0.795075 0.6104565
vt 0.8870643 0.592665
vt 0.7518777 0.5746417
vt 0.7939483 0.6834368
vt 0.7939483 0.6834368
vt 0.802291 0.6903537
vt 0.802291 0.6903537
vt 0.802291 0.6903537
vt 0.802291 0.6903537
vt 0.820057 0.6869176
vt 0.820057 0.6869176
vt 0.820057 0.6869176
vt 0.820057 0.6869176
vt 0.8246015 0.6943841
vt 0.8246015 0.6943841
vt 0.8246015 0.6943841
vt 0.8246015 0.6943841
vt 0.8224326 0.7079145
vt 0.8224326 0.7079145
vt 0.8224326 0.7079145
vt 0.8224326 0.7079145
vt 0.8224558 0.7355188
vt 0.8224558 0.7355188
vt 0.8224558 0.7355188
vt 0.8224558 0.7355188
vt 0.8155817 0.7317291
vt 0.8155817 0.7317291
vt 0.8155817 0.7317291
vt 0.8155817 0.7317291
vt 0.8016161 0.7289454
vt 0.8016161 0.7289454
vt 0.8016161 0.7289454
vt 0.8016161 0.7289454
vt 0.7838234 0.7269536
vt 0.7838234 0.7269536
vt 0.7838234 0.7269536
vt 0.7838234 0.7269536
vt 0.783435 0.7140985
vt 0.783435 0.7140985
vt 0.783435 0.7140985
vt 0.783435 0.7140985
vt 0.7873949 0.6978465
vt 0.7873949 0.6978465
vt 0.7873949 0.6978465
vt 0.7873949 0.6978465
vt 0.7939483 0.6834368
vt 0.7939483 0.6834368
vt 0.783435 0.7140985
vt 0.7873949 0.6978465
vt 0.7873949 0.6978465
vt 0.783435 0.7140985
vt 0.7939483 0.6834368
vt 0.7838234 0.7269536
vt 0.7939483 0.6834368
vt 0.7838234 0.7269536
vt 0.802291 0.6903537
vt 0.8016161 0.7289454
vt 0.802291 0.6903537
vt 0.8016161 0.7289454
vt 0.820057 0.6869176
vt 0.8155817 0.7317291
vt 0.820057 0.6869176
vt 0.8155817 0.7317291
vt 0.8246015 0.6943841
vt 0.8224558 0.7355188
vt 0.8246015 0.6943841
vt 0.8224558 0.7355188
vt 0.8224326 0.7079145
vt 0.8224326 0.7079145
vn 0.001319213 0.9999992 0.0001580036
vn 0.001319213 0.9999992 0.0001580036
vn 0.001319213 0.9999992 0.0001580036
vn 0.001319213 0.9999992 0.0001580036
vn 0.001319213 0.9999992 0.0001580035
vn 0.001319213 0.9999992 0.0001580035
vn 0.001319213 0.9999992 0.0001580035
vn 0.001319213 0.9999992 0.0001580036
vn 0.001319213 0.9999992 0.0001580036
vn 0.001319213 0.9999992 0.0001580035
vn 0.001319213 0.9999992 0.0001580036
vn 0.6041287 -0.00106955 0.7968861
vn 0.6041287 -0.00106955 0.7968861
vn 0.6041287 -0.001069551 0.7968861
vn 0.6041287 -0.001069551 0.7968861
vn -0.2432792 0.001116763 0.9699556
vn -0.2432792 0.001116763 0.9699556
vn -0.2432792 0.001116763 0.9699556
vn -0.2432792 0.001116763 0.9699556
vn 0.8243402 -0.001215862 0.5660935
vn 0.8243402 -0.001215862 0.5660935
vn 0.8243402 -0.001215862 0.5660934
vn 0.8243403 -0.001215862 0.5660934
vn 0.9931244 -0.001934056 -0.1170476
vn 0.9931244 -0.001934056 -0.1170476
vn 0.9931244 -0.001934056 -0.1170476
vn 0.9931244 -0.001934056 -0.1170476
vn 0.9990853 -0.001862988 0.04272155
vn 0.9990853 -0.001862988 0.04272155
vn 0.9990853 -0.001862988 0.04272155
vn 0.9990853 -0.001862988 0.04272155
vn -0.4270003 0.0002949114 -0.9042514
vn -0.4270003 0.0002949114 -0.9042515
vn -0.4270003 0.0002949114 -0.9042514
vn -0.4270003 0.0002949114 -0.9042514
vn -0.1395654 -0.0002813457 -0.9902129
vn -0.1395654 -0.0002813457 -0.9902129
vn -0.1395654 -0.0002813457 -0.9902129
vn -0.1395654 -0.0002813457 -0.9902129
vn -0.07014189 -0.0004044531 -0.997537
vn -0.0701419 -0.0004044531 -0.997537
vn -0.0701419 -0.0004044531 -0.997537
vn -0.0701419 -0.0004044531 -0.997537
vn -0.9971967 0.002861796 -0.07476994
vn -0.9971967 0.002861796 -0.07476994
vn -0.9971967 0.002861796 -0.07476994
vn -0.9971967 0.002861796 -0.07476994
vn -0.9813001 0.002926338 0.1924624
vn -0.9813001 0.002926338 0.1924624
vn -0.9813001 0.002926338 0.1924624
vn -0.9813001 0.002926339 0.1924624
vn -0.9296176 0.002764221 0.3685153
vn -0.9296176 0.002764221 0.3685153
vn -0.9296176 0.002764221 0.3685153
vn -0.9296176 0.002764221 0.3685153
vn 0.001324395 0.9999992 0.0001583809
vn 0.001337549 0.9999992 0.0001555007
vn 0.001337549 0.9999992 0.0001555007
vn 0.001324395 0.9999992 0.0001583809
vn 0.00132441 0.9999992 0.0001672315
vn 0.00131967 0.9999992 0.0001587504
vn 0.00132441 0.9999992 0.0001672315
vn 0.00131967 0.9999992 0.0001587504
vn 0.00132441 0.9999992 0.0001672315
vn 0.001319687 0.9999992 0.0001626093
vn 0.00132441 0.9999992 0.0001672315
vn 0.001319687 0.9999992 0.0001626093
vn 0.001315066 0.9999992 0.0001796392
vn 0.001324677 0.9999992 0.0001699988
vn 0.001315066 0.9999992 0.0001796392
vn 0.001324677 0.9999992 0.0001699988
vn 0.001320392 0.9999992 0.0001615134
vn 0.001320443 0.9999992 0.0001581144
vn 0.001320392 0.9999992 0.0001615134
vn 0.001320443 0.9999992 0.0001581144
vn 0.001318405 0.9999992 0.0001587723
vn 0.001318405 0.9999992 0.0001587723
g polySurface106_0
f 3/3/3 2/2/2 1/1/1
f 1/1/1 4/4/4 3/3/3
f 4/4/4 5/5/5 3/3/3
f 5/5/5 6/6/6 3/3/3
f 6/6/6 7/7/7 3/3/3
f 7/7/7 8/8/8 3/3/3
f 7/7/7 9/9/9 8/8/8
f 8/8/8 9/9/9 10/10/10
f 7/7/7 11/11/11 9/9/9
g polySurface106_1
f 14/14/14 13/13/13 12/12/12
f 15/15/15 14/14/14 12/12/12
f 18/18/18 17/17/17 16/16/16
f 19/19/19 18/18/18 16/16/16
f 22/22/22 21/21/21 20/20/20
f 23/23/23 22/22/22 20/20/20
f 26/26/26 25/25/25 24/24/24
f 27/27/27 26/26/26 24/24/24
f 30/30/30 29/29/29 28/28/28
f 31/31/31 30/30/30 28/28/28
f 34/34/34 33/33/33 32/32/32
f 35/35/35 34/34/34 32/32/32
f 38/38/38 37/37/37 36/36/36
f 39/39/39 38/38/38 36/36/36
f 42/42/42 41/41/41 40/40/40
f 43/43/43 42/42/42 40/40/40
f 46/46/46 45/45/45 44/44/44
f 47/47/47 46/46/46 44/44/44
f 50/50/50 49/49/49 48/48/48
f 51/51/51 50/50/50 48/48/48
f 54/54/54 53/53/53 52/52/52
f 55/55/55 54/54/54 52/52/52
f 58/58/58 57/57/57 56/56/56
f 57/57/57 59/59/59 56/56/56
f 60/60/60 57/57/57 58/58/58
f 56/56/56 59/59/59 61/61/61
f 62/62/62 60/60/60 58/58/58
f 59/59/59 63/63/63 61/61/61
f 64/64/64 60/60/60 62/62/62
f 61/61/61 63/63/63 65/65/65
f 66/66/66 64/64/64 62/62/62
f 63/63/63 67/67/67 65/65/65
f 68/68/68 64/64/64 66/66/66
f 65/65/65 67/67/67 69/69/69
f 70/70/70 68/68/68 66/66/66
f 67/67/67 71/71/71 69/69/69
f 72/72/72 68/68/68 70/70/70
f 69/69/69 71/71/71 73/73/73
f 74/74/74 72/72/72 70/70/70
f 71/71/71 75/75/75 73/73/73
f 76/76/76 72/72/72 74/74/74
f 73/73/73 75/75/75 77/77/77
f 77/77/77 76/76/76 74/74/74
f 75/75/75 76/76/76 77/77/77
