g bone2
v -0.0005549807 -0.01281186 0.02071992
v 0.0009089023 -0.02302946 0.02691265
v 0.00529944 -0.008713403 0.02915605
v -0.0128229 -0.008713418 0.02915605
v -0.00843236 -0.02302947 0.02691265
v -0.006968459 -0.01281187 0.02071993
v 0.005299452 -0.008713422 -0.02915606
v 0.0009088832 -0.02302947 -0.02691267
v -0.0005549901 -0.01281187 -0.02071993
v -0.006968462 -0.01281188 -0.02071993
v -0.008432358 -0.02302946 -0.02691267
v -0.0128229 -0.008713403 -0.02915606
v 0.0009089023 -0.02302946 0.02691265
v 0.0009088999 -0.01746689 0.03734875
v 0.00529944 -0.008713403 0.02915605
v -0.0128229 -0.008713418 0.02915605
v -0.008432356 -0.01746689 0.03734875
v -0.00843236 -0.02302947 0.02691265
v 0.005299452 -0.008713422 -0.02915606
v 0.0009089047 -0.0174669 -0.03734877
v 0.0009088832 -0.02302947 -0.02691267
v -0.008432358 -0.02302946 -0.02691267
v -0.008432369 -0.01746688 -0.03734877
v -0.0128229 -0.008713403 -0.02915606
v -0.0128229 -0.008713403 -0.02915606
v -0.008432362 0.001435522 -0.03647446
v -0.008432365 0.007052321 -0.02492516
v 0.0009088879 0.007052321 -0.02492516
v 0.0009088832 0.001435522 -0.03647446
v 0.005299452 -0.008713422 -0.02915606
v 0.00529944 -0.008713403 0.02915605
v 0.000908907 0.001435503 0.03647447
v 0.0009089118 0.007052301 0.02492513
v -0.008432349 0.007052301 0.02492513
v -0.008432354 0.001435503 0.03647447
v -0.0128229 -0.008713418 0.02915605
v -0.008432356 -0.01746689 0.03734875
v -0.0128229 -0.008713418 0.02915605
v 0.00529944 -0.008713403 0.02915605
v 0.0009088999 -0.01746689 0.03734875
v -0.006968462 -0.002456742 0.02071992
v -0.006968463 -0.002456742 -0.02071993
v -0.0005549854 -0.002456728 -0.02071993
v -0.0005549901 -0.002456733 0.02071992
v -0.0128229 -0.008713403 -0.02915606
v -0.008432369 -0.01746688 -0.03734877
v 0.0009089047 -0.0174669 -0.03734877
v 0.005299452 -0.008713422 -0.02915606
v -0.006968462 -0.01281188 -0.02071993
v -0.006968459 -0.01281187 0.02071993
v -0.0005549807 -0.01281186 0.02071992
v -0.0005549901 -0.01281187 -0.02071993
v -0.006968459 -0.01281187 0.02071993
v -0.00843236 -0.02302947 0.02691265
v 0.0009089023 -0.02302946 0.02691265
v -0.0005549807 -0.01281186 0.02071992
v -0.0005549901 -0.002456733 0.02071992
v 0.0009089118 0.007052301 0.02492513
v -0.008432349 0.007052301 0.02492513
v -0.006968462 -0.002456742 0.02071992
v -0.006968463 -0.002456742 -0.02071993
v -0.008432365 0.007052321 -0.02492516
v 0.0009088879 0.007052321 -0.02492516
v -0.0005549854 -0.002456728 -0.02071993
v -0.0005549901 -0.01281187 -0.02071993
v 0.0009088832 -0.02302947 -0.02691267
v -0.008432358 -0.02302946 -0.02691267
v -0.006968462 -0.01281188 -0.02071993
v -0.00843236 -0.02302947 0.02691265
v -0.008432356 -0.01746689 0.03734875
v 0.0009088999 -0.01746689 0.03734875
v 0.0009089023 -0.02302946 0.02691265
v 0.0009089118 0.007052301 0.02492513
v 0.000908907 0.001435503 0.03647447
v -0.008432354 0.001435503 0.03647447
v -0.008432349 0.007052301 0.02492513
v -0.008432365 0.007052321 -0.02492516
v -0.008432362 0.001435522 -0.03647446
v 0.0009088832 0.001435522 -0.03647446
v 0.0009088879 0.007052321 -0.02492516
v 0.0009088832 -0.02302947 -0.02691267
v 0.0009089047 -0.0174669 -0.03734877
v -0.008432369 -0.01746688 -0.03734877
v -0.008432358 -0.02302946 -0.02691267
v -0.006968462 -0.01281188 -0.02071993
v -0.006968463 -0.002456742 -0.02071993
v -0.006968462 -0.002456742 0.02071992
v -0.006968459 -0.01281187 0.02071993
v -0.0128229 -0.008713403 -0.02915606
v -0.008432365 0.007052321 -0.02492516
v -0.006968463 -0.002456742 -0.02071993
v -0.006968462 -0.01281188 -0.02071993
v -0.008432362 0.001435522 -0.03647446
v -0.0128229 -0.008713403 -0.02915606
v 0.005299452 -0.008713422 -0.02915606
v 0.0009088832 0.001435522 -0.03647446
v -0.0005549854 -0.002456728 -0.02071993
v 0.0009088879 0.007052321 -0.02492516
v 0.005299452 -0.008713422 -0.02915606
v -0.0005549901 -0.01281187 -0.02071993
v -0.0005549807 -0.01281186 0.02071992
v -0.0005549901 -0.002456733 0.02071992
v -0.0005549854 -0.002456728 -0.02071993
v -0.0005549901 -0.01281187 -0.02071993
v 0.00529944 -0.008713403 0.02915605
v 0.0009089118 0.007052301 0.02492513
v -0.0005549901 -0.002456733 0.02071992
v -0.0005549807 -0.01281186 0.02071992
v -0.0128229 -0.008713418 0.02915605
v -0.008432354 0.001435503 0.03647447
v 0.000908907 0.001435503 0.03647447
v 0.00529944 -0.008713403 0.02915605
v -0.006968462 -0.002456742 0.02071992
v -0.008432349 0.007052301 0.02492513
v -0.0128229 -0.008713418 0.02915605
v -0.006968459 -0.01281187 0.02071993
vt 0.03331453 0.0549769
vt 0.03656 0.06912491
vt 0.03732467 0.05502506
vt 0.03611362 0.04013744
vt 0.03593588 0.06145097
vt 0.03288591 0.04970818
vt 0.01125807 0.05272169
vt 0.01249939 0.06699876
vt 0.01479024 0.05333997
vt 0.01436168 0.04807127
vt 0.01187509 0.05932483
vt 0.01004696 0.03783403
vt 0.03656 0.06912491
vt 0.04101861 0.06262266
vt 0.03732467 0.05502506
vt 0.03611362 0.04013744
vt 0.04039448 0.05494877
vt 0.03593588 0.06145097
vt 0.01125807 0.05272169
vt 0.007627606 0.05967209
vt 0.01249939 0.06699876
vt 0.01187509 0.05932483
vt 0.007003546 0.05199819
vt 0.01004696 0.03783403
vt 0.01004696 0.03783403
vt 0.006692052 0.02853651
vt 0.01164621 0.02201075
vt 0.01227027 0.02968471
vt 0.007316351 0.03621028
vt 0.01125807 0.05272169
vt 0.03732467 0.05502506
vt 0.03992575 0.03909187
vt 0.03455418 0.03165386
vt 0.03393006 0.02397995
vt 0.0393014 0.03141796
vt 0.03611362 0.04013744
vt 0.04039448 0.05494877
vt 0.03611362 0.04013744
vt 0.03732467 0.05502506
vt 0.04101861 0.06262266
vt 0.06376925 0.07908482
vt 0.08330233 0.05630805
vt 0.08331533 0.008082062
vt 0.06378225 0.07867587
vt 0.01004696 0.03783403
vt 0.007003546 0.05199819
vt 0.007627606 0.05967209
vt 0.01125807 0.05272169
vt 0.01436168 0.04807127
vt 0.03288591 0.04970818
vt 0.03331453 0.0549769
vt 0.01479024 0.05333997
vt 0.03288591 0.04970818
vt 0.03593588 0.06145097
vt 0.03656 0.06912491
vt 0.03331453 0.0549769
vt 0.06378225 0.07867587
vt 0.06117059 0.05569692
vt 0.06115166 0.07885769
vt 0.06376925 0.07908482
vt 0.08330233 0.05630805
vt 0.08464909 0.008112248
vt 0.08466802 0.007276854
vt 0.08331533 0.008082062
vt 0.01479024 0.05333997
vt 0.01249939 0.06699876
vt 0.01187509 0.05932483
vt 0.01436168 0.04807127
vt 0.03593588 0.06145097
vt 0.04039448 0.05494877
vt 0.04101861 0.06262266
vt 0.03656 0.06912491
vt 0.06117059 0.05569692
vt 0.05610028 0.0787188
vt 0.05608135 0.07931444
vt 0.06115166 0.07885769
vt 0.08464909 0.008112248
vt 0.09046654 0.008135438
vt 0.09048547 0.007300043
vt 0.08466802 0.007276854
vt 0.01249939 0.06699876
vt 0.007627606 0.05967209
vt 0.007003546 0.05199819
vt 0.01187509 0.05932483
vt 0.01436168 0.04807127
vt 0.01397705 0.03519958
vt 0.03250116 0.03683645
vt 0.03288591 0.04970818
vt 0.01004696 0.03783403
vt 0.01164621 0.02201075
vt 0.01397705 0.03519958
vt 0.01436168 0.04807127
vt 0.006692052 0.02853651
vt 0.01004696 0.03783403
vt 0.01125807 0.05272169
vt 0.007316351 0.03621028
vt 0.01440543 0.04046825
vt 0.01227027 0.02968471
vt 0.01125807 0.05272169
vt 0.01479024 0.05333997
vt 0.03331453 0.0549769
vt 0.0329299 0.04210512
vt 0.01440543 0.04046825
vt 0.01479024 0.05333997
vt 0.03732467 0.05502506
vt 0.03455418 0.03165386
vt 0.0329299 0.04210512
vt 0.03331453 0.0549769
vt 0.03611362 0.04013744
vt 0.0393014 0.03141796
vt 0.03992575 0.03909187
vt 0.03732467 0.05502506
vt 0.03250116 0.03683645
vt 0.03393006 0.02397995
vt 0.03611362 0.04013744
vt 0.03288591 0.04970818
vn 0.5399009 -0.3695711 -0.7562568
vn 0.5399009 -0.3695711 -0.7562568
vn 0.5399009 -0.3695711 -0.7562568
vn -0.6216767 -0.3541675 -0.6986297
vn -0.6216768 -0.3541675 -0.6986296
vn -0.6216769 -0.3541675 -0.6986296
vn 0.5399005 -0.3695718 0.7562566
vn 0.5399007 -0.3695719 0.7562565
vn 0.5399005 -0.3695719 0.7562566
vn -0.6216754 -0.3541688 0.6986302
vn -0.6216754 -0.3541688 0.6986302
vn -0.6216754 -0.3541688 0.6986302
vn 0.7849662 -0.3235341 0.5283501
vn 0.7849662 -0.3235341 0.5283501
vn 0.7849662 -0.3235341 0.5283499
vn -0.8686441 -0.325 0.3739417
vn -0.8686441 -0.325 0.3739417
vn -0.8686441 -0.325 0.3739417
vn 0.7849665 -0.3235331 -0.5283502
vn 0.7849665 -0.3235331 -0.5283502
vn 0.7849665 -0.3235331 -0.5283502
vn -0.8686439 -0.3249999 -0.3739422
vn -0.8686439 -0.325 -0.3739422
vn -0.8686439 -0.325 -0.3739422
vn -0.8733056 0.3374893 -0.3513378
vn -0.8733056 0.3374893 -0.3513378
vn -0.8733056 0.3374893 -0.3513378
vn 0.7896083 0.3543345 -0.5009649
vn 0.7896083 0.3543345 -0.5009649
vn 0.7896084 0.3543345 -0.5009649
vn 0.7896084 0.3543354 0.5009643
vn 0.7896083 0.3543353 0.5009643
vn 0.7896083 0.3543353 0.5009643
vn -0.8733056 0.3374896 0.3513375
vn -0.8733056 0.3374895 0.3513376
vn -0.8733056 0.3374895 0.3513375
vn 0 0.6833331 0.7301067
vn 0 0.6833331 0.7301067
vn 0 0.6833331 0.7301067
vn 0 0.6833331 0.7301067
vn 0 1 0
vn 0 1 0
vn 0 1 0
vn 0 1 0
vn 0 0.6833334 -0.7301065
vn 0 0.6833335 -0.7301065
vn 0 0.6833334 -0.7301065
vn 0 0.6833335 -0.7301065
vn 0 -1 0
vn 0 -1 0
vn 0 -1 0
vn 0 -1 0
vn 0 -0.518316 -0.8551892
vn 0 -0.5183161 -0.8551892
vn 0 -0.5183161 -0.8551892
vn 0 -0.5183161 -0.8551892
vn 0 0.4044483 -0.9145609
vn 0 0.4044483 -0.9145609
vn 0 0.4044483 -0.9145609
vn 0 0.4044483 -0.9145609
vn 0 0.4044499 0.9145601
vn 0 0.4044499 0.9145603
vn 0 0.4044499 0.9145601
vn 0 0.4044498 0.9145603
vn 0 -0.5183172 0.8551884
vn 0 -0.5183171 0.8551885
vn 0 -0.5183171 0.8551885
vn 0 -0.5183172 0.8551884
vn 0 -0.8824704 0.470368
vn 0 -0.8824704 0.470368
vn 0 -0.8824704 0.470368
vn 0 -0.8824704 0.470368
vn 0 0.89929 0.4373527
vn 0 0.89929 0.4373527
vn 0 0.89929 0.4373527
vn 0 0.89929 0.4373527
vn 0 0.8992894 -0.4373539
vn 0 0.8992894 -0.4373539
vn 0 0.8992894 -0.4373539
vn 0 0.8992894 -0.4373539
vn 0 -0.8824701 -0.4703685
vn 0 -0.8824701 -0.4703685
vn 0 -0.8824701 -0.4703685
vn 0 -0.8824701 -0.4703685
vn -0.8817735 0.4716733 0
vn -0.8817735 0.4716733 0
vn -0.8817735 0.4716733 0
vn -0.8817735 0.4716733 0
vn -0.651666 0.2641538 0.7110232
vn -0.651666 0.2641538 0.7110233
vn -0.651666 0.2641539 0.7110232
vn -0.651666 0.2641538 0.7110233
vn 0 -0.5848933 -0.8111102
vn 0 -0.5848933 -0.8111102
vn 0 -0.5848933 -0.8111102
vn 0 -0.5848933 -0.8111102
vn 0.5675737 0.2737232 0.7764894
vn 0.5675737 0.2737231 0.7764894
vn 0.5675737 0.2737232 0.7764894
vn 0.5675737 0.2737231 0.7764894
vn 0.8817725 0.4716749 0
vn 0.8817725 0.4716749 0
vn 0.8817725 0.4716749 0
vn 0.8817725 0.4716749 0
vn 0.567575 0.273722 -0.7764888
vn 0.567575 0.273722 -0.7764888
vn 0.567575 0.273722 -0.7764888
vn 0.567575 0.273722 -0.7764888
vn 0 -0.5848942 0.8111096
vn 0 -0.5848942 0.8111096
vn 0 -0.5848942 0.8111096
vn 0 -0.5848942 0.8111096
vn -0.6516686 0.2641523 -0.7110214
vn -0.6516686 0.2641523 -0.7110215
vn -0.6516687 0.2641524 -0.7110214
vn -0.6516687 0.2641523 -0.7110214
g bone2_0
f 3/3/3 2/2/2 1/1/1
f 6/6/6 5/5/5 4/4/4
f 9/9/9 8/8/8 7/7/7
f 12/12/12 11/11/11 10/10/10
f 15/15/15 14/14/14 13/13/13
f 18/18/18 17/17/17 16/16/16
f 21/21/21 20/20/20 19/19/19
f 24/24/24 23/23/23 22/22/22
f 27/27/27 26/26/26 25/25/25
f 30/30/30 29/29/29 28/28/28
f 33/33/33 32/32/32 31/31/31
f 36/36/36 35/35/35 34/34/34
f 39/39/39 38/38/38 37/37/37
f 40/40/40 39/39/39 37/37/37
f 43/43/43 42/42/42 41/41/41
f 44/44/44 43/43/43 41/41/41
f 47/47/47 46/46/46 45/45/45
f 48/48/48 47/47/47 45/45/45
f 51/51/51 50/50/50 49/49/49
f 52/52/52 51/51/51 49/49/49
f 55/55/55 54/54/54 53/53/53
f 56/56/56 55/55/55 53/53/53
f 59/59/59 58/58/58 57/57/57
f 60/60/60 59/59/59 57/57/57
f 63/63/63 62/62/62 61/61/61
f 64/64/64 63/63/63 61/61/61
f 67/67/67 66/66/66 65/65/65
f 68/68/68 67/67/67 65/65/65
f 71/71/71 70/70/70 69/69/69
f 72/72/72 71/71/71 69/69/69
f 75/75/75 74/74/74 73/73/73
f 76/76/76 75/75/75 73/73/73
f 79/79/79 78/78/78 77/77/77
f 80/80/80 79/79/79 77/77/77
f 83/83/83 82/82/82 81/81/81
f 84/84/84 83/83/83 81/81/81
f 87/87/87 86/86/86 85/85/85
f 88/88/88 87/87/87 85/85/85
f 91/91/91 90/90/90 89/89/89
f 92/92/92 91/91/91 89/89/89
f 95/95/95 94/94/94 93/93/93
f 96/96/96 95/95/95 93/93/93
f 99/99/99 98/98/98 97/97/97
f 100/100/100 99/99/99 97/97/97
f 103/103/103 102/102/102 101/101/101
f 104/104/104 103/103/103 101/101/101
f 107/107/107 106/106/106 105/105/105
f 108/108/108 107/107/107 105/105/105
f 111/111/111 110/110/110 109/109/109
f 112/112/112 111/111/111 109/109/109
f 115/115/115 114/114/114 113/113/113
f 116/116/116 115/115/115 113/113/113
