g cloudMesh4
v -112.2557 -56.9622 82.43056
v 14.02273 -48.3087 13.56602
v -9.742908 -28.70423 -23.07652
v -17.42189 -57.398 -82.43056
v 17.90831 -47.56739 -30.21069
v 112.2557 -56.21167 75.04324
v -10.44855 8.968028 9.956427
v 87.67203 57.398 -35.24129
v 14.02273 -48.3087 13.56602
v 17.90831 -47.56739 -30.21069
v 112.2557 -56.21167 75.04324
v -10.44855 8.968028 9.956427
v 87.67203 57.398 -35.24129
v 14.02273 -48.3087 13.56602
v -112.2557 -56.9622 82.43056
v -9.742908 -28.70423 -23.07652
v -9.742908 -28.70423 -23.07652
v -17.42189 -57.398 -82.43056
v -17.42189 -57.398 -82.43056
v 17.90831 -47.56739 -30.21069
v -112.2557 -56.9622 82.43056
v -17.42189 -57.398 -82.43056
v -17.42189 -57.398 -82.43056
v 14.02273 -48.3087 13.56602
v 112.2557 -56.21167 75.04324
v 14.02273 -48.3087 13.56602
v 14.02273 -48.3087 13.56602
v -9.742908 -28.70423 -23.07652
v 17.90831 -47.56739 -30.21069
v -9.742908 -28.70423 -23.07652
v 14.02273 -48.3087 13.56602
v 14.02273 -48.3087 13.56602
v -9.742908 -28.70423 -23.07652
v -9.742908 -28.70423 -23.07652
v 87.67203 57.398 -35.24129
v -10.44855 8.968028 9.956427
vt 0.3035714 0.3928571
vt 0.59375 0.0625
vt 0.5208334 0.3958333
vt 0.5 0.75
vt 0.625 0.5
vt 0.625 0.75
vt 0.5628256 0.2513021
vt 0.625 0.25
vt 0.5625 1
vt 0.875 0.25
vt 0.875 0
vt 0 0
vt 0 0
vt 0 0
vt 0.3035714 0.3928571
vt 0.5208334 0.3958333
vt 0.5208334 0.3958333
vt 0.5 0.75
vt 0.5 0.75
vt 0.625 0.5
vt 0.3035714 0.3928571
vt 0.5 0.75
vt 0.5 0.75
vt 0.5625 1
vt 0.625 0.75
vt 0.59375 0.0625
vt 0.59375 0.0625
vt 0.5208334 0.3958333
vt 0.625 0.5
vt 0.5208334 0.3958333
vt 0.59375 0.0625
vt 0.59375 0.0625
vt 0.5208334 0.3958333
vt 0.5208334 0.3958333
vt 0.625 0.25
vt 0.5628256 0.2513021
vn 0.1498924 0.9089286 0.389077
vn 0.1498924 0.9089286 0.389077
vn 0.1498924 0.9089286 0.389077
vn -0.5358156 0.7852505 -0.3102953
vn 0.5520959 0.6677915 -0.4992439
vn 0.5520959 0.6677915 -0.4992439
vn -0.861044 -0.3442927 0.3742539
vn 0.4667451 -0.6175164 -0.6331054
vn 0.1012366 -0.9929991 0.06085963
vn 0.06601607 0.9975592 0.02275201
vn 0.06601607 0.9975592 0.02275201
vn 0.3276815 0.1982165 0.9237614
vn 0.3276815 0.1982165 0.9237614
vn 0.3276815 0.1982165 0.9237614
vn -0.5358156 0.7852505 -0.3102953
vn -0.5358156 0.7852505 -0.3102953
vn 0.5520959 0.6677915 -0.4992439
vn 0.5520959 0.6677915 -0.4992439
vn 0.5520959 0.6677915 -0.4992439
vn 0.5520959 0.6677915 -0.4992439
vn 0.1012366 -0.9929991 0.06085963
vn 0.1012366 -0.9929991 0.06085963
vn -0.171166 -0.9740185 0.1482907
vn -0.171166 -0.9740185 0.1482907
vn -0.171166 -0.9740185 0.1482907
vn 0.06601607 0.9975592 0.02275201
vn 0.5737057 0.8164983 0.06474762
vn 0.5737057 0.8164983 0.06474762
vn 0.5737057 0.8164983 0.06474762
vn -0.861044 -0.3442927 0.3742539
vn -0.861044 -0.3442927 0.3742539
vn 0.4667451 -0.6175164 -0.6331054
vn 0.4667451 -0.6175164 -0.6331054
vn -0.5572397 0.5415195 -0.6294764
vn -0.5572397 0.5415195 -0.6294764
vn -0.5572397 0.5415195 -0.6294764
g cloudMesh4_0
f 2/2/2 3/3/3 1/1/1
f 16/16/16 4/4/4 15/15/15
f 5/5/5 18/18/18 17/17/17
f 20/20/20 6/6/6 19/19/19
f 22/22/22 9/9/9 21/21/21
f 25/25/25 24/24/24 23/23/23
f 11/11/11 10/10/10 26/26/26
f 29/29/29 28/28/28 27/27/27
f 31/31/31 7/7/7 30/30/30
f 33/33/33 8/8/8 32/32/32
f 36/36/36 35/35/35 34/34/34
f 14/14/14 13/13/13 12/12/12
