g EGACrystal
v -0.3293522 0.1459552 -0.02443857
v -0.2355164 0.02945676 0.1489093
v -0.4268294 0.2788706 0.003100044
v -0.5464346 0.2798859 -0.1273251
v -0.8866309 0.4471627 -0.194862
v -0.4613034 0.2447895 0.1303518
v -0.4180069 0.08418813 0.1896472
v -0.5047076 0.05795905 0.05601213
v -0.3643253 0.03423801 -0.02117302
v -0.3293522 0.1459552 -0.02443857
v -0.5464346 0.2798859 -0.1273251
v 0.3112732 0.001296699 0.01932271
v 0.08174255 -0.01665848 0.05275907
v 0.4056599 0.1081691 0.1115223
v 0.5382929 0.1634958 0.003452613
v 1.086049 0.5230497 -0.05460577
v 0.3016363 0.1924327 0.1464845
v 0.1428641 0.1711853 0.06565479
v 0.2504024 0.193704 -0.05614845
v 0.2485599 0.03055146 -0.07747559
v 0.3112732 0.001296699 0.01932271
v 0.5382929 0.1634958 0.003452613
v -0.2064842 0.01239714 0.3595479
v -0.04512349 -0.02303436 0.1957429
v -0.367787 0.04601935 0.3185327
v -0.4303694 0.1547575 0.4473391
v -0.7342693 0.3968345 0.4311465
v -0.3405265 0.09347984 0.191458
v -0.1695723 0.1224128 0.1452947
v -0.1933989 0.2123571 0.2803868
v -0.1183734 0.09223381 0.3641636
v -0.2064842 0.01239714 0.3595479
v -0.4303694 0.1547575 0.4473391
v -0.1511287 0.1785783 -0.2003212
v -0.08699331 0.01338747 -0.0723772
v -0.23425 0.3042491 -0.1816825
v -0.3233436 0.3747526 -0.3008026
v -0.7717347 0.6237326 -0.503769
v -0.2730719 0.253651 -0.1020376
v -0.2419405 0.09893462 -0.07341548
v -0.303442 0.139251 -0.191882
v -0.1805836 0.100103 -0.2215052
v -0.1511287 0.1785783 -0.2003212
v -0.3233436 0.3747526 -0.3008026
v 0.3461116 0.2339006 -0.141932
v 0.07912903 -0.01606515 -0.07022231
v 0.3523943 0.4797372 -0.222846
v 0.5628173 0.5916893 -0.3711108
v 0.7764162 1.083095 -0.7501521
v 0.1944695 0.4434379 -0.2861967
v 0.09020486 0.1906178 -0.2898872
v 0.2918836 0.2418808 -0.4049095
v 0.3448294 0.1135516 -0.2270726
v 0.3461116 0.2339006 -0.141932
v 0.5628173 0.5916893 -0.3711108
v 0.01797803 0.2141616 0.5840428
v -0.001610776 -0.0200341 0.2228903
v 0.07188033 0.5010436 0.650195
v 0.2052593 0.6021517 0.928231
v 0.5433694 1.161845 1.313209
v 0.1638833 0.5026856 0.4713272
v 0.2164092 0.2404948 0.3025684
v 0.3219649 0.2705279 0.5545962
v 0.1339362 0.09026769 0.5680867
v 0.01797803 0.2141616 0.5840428
v 0.2052593 0.6021517 0.928231
v -0.1808279 0.08699992 0.5450187
v -0.01900472 -0.02896789 0.1936029
v -0.4095424 0.2727427 0.5542282
v -0.3749322 0.4397989 0.8156471
v -0.622466 1.019242 1.069308
v -0.3709677 0.3700748 0.3380431
v -0.1052529 0.3612482 0.1896642
v -0.0254597 0.4109924 0.4410892
v 0.0174878 0.1419555 0.5270127
v -0.1808279 0.08699992 0.5450187
v -0.3749322 0.4397989 0.8156471
v -0.2218853 0.1511866 -0.3606729
v 0.005321922 0.01264325 -0.05684561
v -0.09961949 0.2617277 -0.6050643
v -0.2938727 0.4842557 -0.7060215
v -0.2641166 1.010165 -1.134862
v 0.1113974 0.3167284 -0.5043453
v 0.1383931 0.2979979 -0.1945883
v -0.07974073 0.475388 -0.2398423
v -0.2528501 0.254923 -0.1847373
v -0.2218853 0.1511866 -0.3606729
v -0.2938727 0.4842557 -0.7060215
v 0.3100201 0.2895576 0.02622986
v 0.02272643 -0.0202404 0.06067093
v 0.5369613 0.3219064 0.2340121
v 0.5977117 0.6433024 0.2529256
v 0.930097 1.083598 0.7044737
v 0.4189777 0.1998424 0.4203952
v 0.1037176 0.1222489 0.3819849
v 0.1167986 0.4182716 0.3428083
v 0.1080273 0.3653263 0.04782065
v 0.3100201 0.2895576 0.02622986
v 0.5977117 0.6433024 0.2529256
v 0.1589375 0.2022543 -0.1467778
v 0.01245865 -0.0232116 0.02740185
v 0.3547991 0.3075322 -0.1381823
v 0.3917636 0.531958 -0.2186994
v 0.7233056 0.9883379 -0.227374
v 0.3517005 0.2679094 0.005992009
v 0.1629315 0.1720641 0.1082056
v 0.1541609 0.3579347 0.02368378
v 0.05198718 0.2371173 -0.08842859
v 0.1589375 0.2022543 -0.1467778
v 0.3917636 0.531958 -0.2186994
v -0.2653847 0.376148 -0.1333416
v -0.006144112 -0.004832774 0.04615199
v -0.3499168 0.6898115 -0.0216484
v -0.6606371 0.870258 -0.1197501
v -0.990137 1.274094 0.03632414
v -0.276135 0.5993188 0.1870023
v -0.2511521 0.2452801 0.2405806
v -0.5210356 0.3479173 0.1134389
v -0.364989 0.2107142 -0.1020611
v -0.2653847 0.376148 -0.1333416
v -0.6606371 0.870258 -0.1197501
v 0.004062699 0.471322 -0.2420634
v 0.004062692 -0.0372735 0.04108372
v 0.2690337 0.800235 -0.1045336
v 0.004062699 1.170039 -0.2152428
v 0.004062692 2.114831 0.0410836
v 0.2221865 0.6935176 0.2240853
v 0.004062669 0.3461711 0.3546096
v -0.2606958 0.6207705 0.2031171
v -0.2660592 0.3961941 -0.1419179
v 0.004062699 0.471322 -0.2420634
v 0.004062699 1.170039 -0.2152428
vt 0.576319 0.01338938
vt 0.1006127 0.03386375
vt 0.6575426 0.2461656
vt 0.8659322 0.34271
vt 0.9791408 0.9968666
vt 0.5224209 0.325221
vt 0.3695238 0.3209425
vt 0.3431772 0.4524899
vt 0.1575042 0.4723741
vt 0.01964721 0.5747491
vt 0.415564 0.8039247
vt 0.576319 0.01338938
vt 0.1006127 0.03386375
vt 0.6575426 0.2461656
vt 0.8659322 0.34271
vt 0.9791408 0.9968666
vt 0.5224209 0.325221
vt 0.3695238 0.3209425
vt 0.3431772 0.4524899
vt 0.1575042 0.4723741
vt 0.01964721 0.5747491
vt 0.415564 0.8039247
vt 0.576319 0.01338938
vt 0.1006127 0.03386375
vt 0.6575426 0.2461656
vt 0.8659322 0.34271
vt 0.9791408 0.9968666
vt 0.5224209 0.325221
vt 0.3695238 0.3209425
vt 0.3431772 0.4524899
vt 0.1575042 0.4723741
vt 0.01964721 0.5747491
vt 0.415564 0.8039247
vt 0.576319 0.01338938
vt 0.1006127 0.03386375
vt 0.6575426 0.2461656
vt 0.8659322 0.34271
vt 0.9791408 0.9968666
vt 0.5224209 0.325221
vt 0.3695238 0.3209425
vt 0.3431772 0.4524899
vt 0.1575042 0.4723741
vt 0.01964721 0.5747491
vt 0.415564 0.8039247
vt 0.576319 0.01338938
vt 0.1006127 0.03386375
vt 0.6575426 0.2461656
vt 0.8659322 0.34271
vt 0.9791408 0.9968666
vt 0.5224209 0.325221
vt 0.3695238 0.3209425
vt 0.3431772 0.4524899
vt 0.1575042 0.4723741
vt 0.01964721 0.5747491
vt 0.415564 0.8039247
vt 0.576319 0.01338938
vt 0.1006127 0.03386375
vt 0.6575426 0.2461656
vt 0.8659322 0.34271
vt 0.9791408 0.9968666
vt 0.5224209 0.325221
vt 0.3695238 0.3209425
vt 0.3431772 0.4524899
vt 0.1575042 0.4723741
vt 0.01964721 0.5747491
vt 0.415564 0.8039247
vt 0.576319 0.01338938
vt 0.1006127 0.03386375
vt 0.6575426 0.2461656
vt 0.8659322 0.34271
vt 0.9791408 0.9968666
vt 0.5224209 0.325221
vt 0.3695238 0.3209425
vt 0.3431772 0.4524899
vt 0.1575042 0.4723741
vt 0.01964721 0.5747491
vt 0.415564 0.8039247
vt 0.576319 0.01338938
vt 0.1006127 0.03386375
vt 0.6575426 0.2461656
vt 0.8659322 0.34271
vt 0.9791408 0.9968666
vt 0.5224209 0.325221
vt 0.3695238 0.3209425
vt 0.3431772 0.4524899
vt 0.1575042 0.4723741
vt 0.01964721 0.5747491
vt 0.415564 0.8039247
vt 0.576319 0.01338938
vt 0.1006127 0.03386375
vt 0.6575426 0.2461656
vt 0.8659322 0.34271
vt 0.9791408 0.9968666
vt 0.5224209 0.325221
vt 0.3695238 0.3209425
vt 0.3431772 0.4524899
vt 0.1575042 0.4723741
vt 0.01964721 0.5747491
vt 0.415564 0.8039247
vt 0.576319 0.01338938
vt 0.1006127 0.03386375
vt 0.6575426 0.2461656
vt 0.8659322 0.34271
vt 0.9791408 0.9968666
vt 0.5224209 0.325221
vt 0.3695238 0.3209425
vt 0.3431772 0.4524899
vt 0.1575042 0.4723741
vt 0.01964721 0.5747491
vt 0.415564 0.8039247
vt 0.576319 0.01338938
vt 0.1006127 0.03386375
vt 0.6575426 0.2461656
vt 0.8659322 0.34271
vt 0.9791408 0.9968666
vt 0.5224209 0.325221
vt 0.3695238 0.3209425
vt 0.3431772 0.4524899
vt 0.1575042 0.4723741
vt 0.01964721 0.5747491
vt 0.415564 0.8039247
vt 0.576319 0.01338938
vt 0.1006127 0.03386375
vt 0.6575426 0.2461656
vt 0.8659322 0.34271
vt 0.9791408 0.9968666
vt 0.5224209 0.325221
vt 0.3695238 0.3209425
vt 0.3431772 0.4524899
vt 0.1575042 0.4723741
vt 0.01964721 0.5747491
vt 0.415564 0.8039247
vn 0.7710796 0.2290196 -0.5941265
vn 0.8077576 -0.4174142 0.4162849
vn 0.5682055 0.8204463 -0.06332724
vn 0.3463902 0.2369797 -0.9076643
vn -0.7822389 0.4844931 -0.391623
vn 0.03375422 0.6355621 0.7713115
vn -0.1923943 -0.3169135 0.9287359
vn -0.5797478 -0.8095593 0.09222982
vn 0.2182109 -0.7682549 -0.6018043
vn 0.7710796 0.2290196 -0.5941265
vn 0.3463902 0.2369797 -0.9076643
vn 0.3373291 -0.9388024 0.06970595
vn -0.804748 -0.5769258 0.1397757
vn 0.3656531 -0.5315261 0.7640535
vn 0.5469694 -0.8340352 -0.07217848
vn 0.8888189 0.4468053 -0.101813
vn -0.1710915 0.3582667 0.9178086
vn -0.7986029 0.5621076 0.2151012
vn -0.4204693 0.563576 -0.7110469
vn -0.131629 -0.490839 -0.8612496
vn 0.3373291 -0.9388024 0.06970595
vn 0.5469694 -0.8340352 -0.07217848
vn 0.06656225 -0.8013716 0.5944518
vn 0.7494041 -0.5549344 -0.3611667
vn -0.4998742 -0.86583 0.02154656
vn -0.1719742 -0.2832768 0.9434931
vn -0.8208467 0.5234363 0.2285284
vn -0.4720447 -0.3529882 -0.80782
vn 0.2972549 0.303023 -0.9054372
vn 0.5087169 0.8609338 -0.000122075
vn 0.7291961 0.1288522 0.6720641
vn 0.06656225 -0.8013716 0.5944518
vn -0.1719742 -0.2832768 0.9434931
vn 0.8800769 0.2873976 -0.377978
vn 0.631695 -0.6609023 0.4051784
vn 0.6054153 0.7497725 0.2670456
vn 0.6142554 0.6060764 -0.5053332
vn -0.7107358 0.552218 -0.4357865
vn -0.04501544 0.44225 0.8957614
vn -0.4430112 -0.4787793 0.7579654
vn -0.5922585 -0.7816005 -0.1957816
vn 0.2401236 -0.610655 -0.7546132
vn 0.8800769 0.2873976 -0.377978
vn 0.6142554 0.6060764 -0.5053332
vn 0.516384 -0.03732492 0.8555433
vn -0.4877582 -0.7068558 0.5122957
vn -0.01779268 0.5389078 0.8421769
vn 0.8348757 0.03009166 0.5496153
vn 0.4657889 0.7463854 -0.4753416
vn -0.7919469 0.5860938 0.1712136
vn -0.8813368 -0.1660556 -0.442347
vn 0.01144466 -0.5031073 -0.8641482
vn 0.6265054 -0.7777907 -0.05032674
vn 0.516384 -0.03732492 0.8555433
vn 0.8348757 0.03009166 0.5496153
vn -0.8800178 -0.2329827 0.4138693
vn -0.3742595 -0.6588835 -0.6525354
vn -0.9027503 0.4301035 -0.007263508
vn -0.6112394 -0.1905316 0.7681693
vn 0.3341829 0.6971759 0.6342457
vn -0.1865934 0.6990082 -0.6903408
vn 0.526979 0.05392784 -0.8481656
vn 0.9201438 -0.3914655 0.009491368
vn 0.105473 -0.8694195 0.4826853
vn -0.8800178 -0.2329827 0.4138693
vn -0.6112394 -0.1905316 0.7681693
vn -0.2044496 -0.8554289 0.4758588
vn 0.3226251 -0.7380611 -0.5926036
vn -0.8381971 -0.5420433 0.06012191
vn -0.1553439 -0.4926447 0.8562532
vn -0.3980068 0.7099482 0.5810027
vn -0.7515172 0.06525112 -0.6564788
vn 0.255784 0.3956243 -0.8820748
vn 0.862168 0.5063444 -0.01678557
vn 0.8161604 -0.3470711 0.4619782
vn -0.2044496 -0.8554289 0.4758588
vn -0.1553439 -0.4926447 0.8562532
vn -0.6220816 -0.753896 -0.2113179
vn 0.2024325 -0.7233916 0.6600952
vn 0.05038769 -0.7312471 -0.680249
vn -0.8677241 -0.3186212 -0.381491
vn -0.1667883 0.6816195 -0.712444
vn 0.8838981 -0.2359442 -0.4038
vn 0.8499851 0.185342 0.4931263
vn -0.01852502 0.7377353 0.6748357
vn -0.7830501 0.007690724 0.621911
vn -0.6220816 -0.753896 -0.2113179
vn -0.8677241 -0.3186212 -0.381491
vn 0.3637575 -0.09778329 -0.9263471
vn -0.5077589 -0.7509106 -0.4222727
vn 0.8099453 -0.471672 -0.3485887
vn 0.4483576 0.4067599 -0.7959408
vn 0.566812 0.7036624 0.4284662
vn 0.4302608 -0.7129609 0.5536808
vn -0.5314289 -0.5065559 0.6789583
vn -0.8063452 0.4555891 0.377155
vn -0.600643 0.4497269 -0.6610399
vn 0.3637575 -0.09778329 -0.9263471
vn 0.4483576 0.4067599 -0.7959408
vn -0.07422155 -0.4010161 -0.9130593
vn -0.5149211 -0.8387306 0.1771644
vn 0.6087715 -0.562504 -0.5594521
vn -0.1157589 0.0365924 -0.9926031
vn 0.5620087 0.8057035 -0.1870514
vn 0.7725707 -0.4511393 0.446775
vn 0.006256328 -0.1783206 0.9839526
vn -0.5748866 0.584378 0.5727198
vn -0.9060889 0.2194646 -0.3617153
vn -0.07422155 -0.4010161 -0.9130593
vn -0.1157589 0.0365924 -0.9926031
vn 0.4444195 0.1179869 -0.8880149
vn 0.6637049 -0.7479079 -0.01138373
vn 0.7140535 0.5894443 -0.3777339
vn -0.1034909 0.2301155 -0.9676449
vn -0.6182258 0.7856231 0.02435426
vn 0.6113909 0.4709111 0.6359589
vn 0.05230985 -0.3651924 0.9294612
vn -0.7772684 -0.5187384 0.3560395
vn -0.4114588 -0.6511866 -0.6376972
vn 0.4444195 0.1179869 -0.8880149
vn -0.1034909 0.2301155 -0.9676449
vn 0.1982501 -0.2414037 -0.9499586
vn 0.08450732 -0.9963257 -0.0139167
vn 0.9054043 -0.008911519 -0.4244569
vn -0.06402823 0.2170185 -0.9740654
vn -0.008423139 0.9996375 0.02557461
vn 0.8115178 -0.02148584 0.5839327
vn 0.05627741 -0.3869835 0.9203677
vn -0.8552966 0.008972603 0.518061
vn -0.8159322 -0.3025373 -0.4926722
vn 0.1982501 -0.2414037 -0.9499586
vn -0.06402823 0.2170185 -0.9740654
g EGACrystal_0
f 3/3/3 2/2/2 1/1/1
f 1/1/1 4/4/4 3/3/3
f 5/5/5 3/3/3 4/4/4
f 3/3/3 6/6/6 2/2/2
f 5/5/5 6/6/6 3/3/3
f 6/6/6 7/7/7 2/2/2
f 5/5/5 7/7/7 6/6/6
f 7/7/7 8/8/8 2/2/2
f 5/5/5 8/8/8 7/7/7
f 8/8/8 9/9/9 2/2/2
f 5/5/5 9/9/9 8/8/8
f 9/9/9 10/10/10 2/2/2
f 5/5/5 11/11/11 9/9/9
f 11/11/11 10/10/10 9/9/9
f 14/14/14 13/13/13 12/12/12
f 12/12/12 15/15/15 14/14/14
f 16/16/16 14/14/14 15/15/15
f 14/14/14 17/17/17 13/13/13
f 16/16/16 17/17/17 14/14/14
f 17/17/17 18/18/18 13/13/13
f 16/16/16 18/18/18 17/17/17
f 18/18/18 19/19/19 13/13/13
f 16/16/16 19/19/19 18/18/18
f 19/19/19 20/20/20 13/13/13
f 16/16/16 20/20/20 19/19/19
f 20/20/20 21/21/21 13/13/13
f 16/16/16 22/22/22 20/20/20
f 22/22/22 21/21/21 20/20/20
f 25/25/25 24/24/24 23/23/23
f 23/23/23 26/26/26 25/25/25
f 27/27/27 25/25/25 26/26/26
f 25/25/25 28/28/28 24/24/24
f 27/27/27 28/28/28 25/25/25
f 28/28/28 29/29/29 24/24/24
f 27/27/27 29/29/29 28/28/28
f 29/29/29 30/30/30 24/24/24
f 27/27/27 30/30/30 29/29/29
f 30/30/30 31/31/31 24/24/24
f 27/27/27 31/31/31 30/30/30
f 31/31/31 32/32/32 24/24/24
f 27/27/27 33/33/33 31/31/31
f 33/33/33 32/32/32 31/31/31
f 36/36/36 35/35/35 34/34/34
f 34/34/34 37/37/37 36/36/36
f 38/38/38 36/36/36 37/37/37
f 36/36/36 39/39/39 35/35/35
f 38/38/38 39/39/39 36/36/36
f 39/39/39 40/40/40 35/35/35
f 38/38/38 40/40/40 39/39/39
f 40/40/40 41/41/41 35/35/35
f 38/38/38 41/41/41 40/40/40
f 41/41/41 42/42/42 35/35/35
f 38/38/38 42/42/42 41/41/41
f 42/42/42 43/43/43 35/35/35
f 38/38/38 44/44/44 42/42/42
f 44/44/44 43/43/43 42/42/42
f 47/47/47 46/46/46 45/45/45
f 45/45/45 48/48/48 47/47/47
f 49/49/49 47/47/47 48/48/48
f 47/47/47 50/50/50 46/46/46
f 49/49/49 50/50/50 47/47/47
f 50/50/50 51/51/51 46/46/46
f 49/49/49 51/51/51 50/50/50
f 51/51/51 52/52/52 46/46/46
f 49/49/49 52/52/52 51/51/51
f 52/52/52 53/53/53 46/46/46
f 49/49/49 53/53/53 52/52/52
f 53/53/53 54/54/54 46/46/46
f 49/49/49 55/55/55 53/53/53
f 55/55/55 54/54/54 53/53/53
f 58/58/58 57/57/57 56/56/56
f 56/56/56 59/59/59 58/58/58
f 60/60/60 58/58/58 59/59/59
f 58/58/58 61/61/61 57/57/57
f 60/60/60 61/61/61 58/58/58
f 61/61/61 62/62/62 57/57/57
f 60/60/60 62/62/62 61/61/61
f 62/62/62 63/63/63 57/57/57
f 60/60/60 63/63/63 62/62/62
f 63/63/63 64/64/64 57/57/57
f 60/60/60 64/64/64 63/63/63
f 64/64/64 65/65/65 57/57/57
f 60/60/60 66/66/66 64/64/64
f 66/66/66 65/65/65 64/64/64
f 69/69/69 68/68/68 67/67/67
f 67/67/67 70/70/70 69/69/69
f 71/71/71 69/69/69 70/70/70
f 69/69/69 72/72/72 68/68/68
f 71/71/71 72/72/72 69/69/69
f 72/72/72 73/73/73 68/68/68
f 71/71/71 73/73/73 72/72/72
f 73/73/73 74/74/74 68/68/68
f 71/71/71 74/74/74 73/73/73
f 74/74/74 75/75/75 68/68/68
f 71/71/71 75/75/75 74/74/74
f 75/75/75 76/76/76 68/68/68
f 71/71/71 77/77/77 75/75/75
f 77/77/77 76/76/76 75/75/75
f 80/80/80 79/79/79 78/78/78
f 78/78/78 81/81/81 80/80/80
f 82/82/82 80/80/80 81/81/81
f 80/80/80 83/83/83 79/79/79
f 82/82/82 83/83/83 80/80/80
f 83/83/83 84/84/84 79/79/79
f 82/82/82 84/84/84 83/83/83
f 84/84/84 85/85/85 79/79/79
f 82/82/82 85/85/85 84/84/84
f 85/85/85 86/86/86 79/79/79
f 82/82/82 86/86/86 85/85/85
f 86/86/86 87/87/87 79/79/79
f 82/82/82 88/88/88 86/86/86
f 88/88/88 87/87/87 86/86/86
f 91/91/91 90/90/90 89/89/89
f 89/89/89 92/92/92 91/91/91
f 93/93/93 91/91/91 92/92/92
f 91/91/91 94/94/94 90/90/90
f 93/93/93 94/94/94 91/91/91
f 94/94/94 95/95/95 90/90/90
f 93/93/93 95/95/95 94/94/94
f 95/95/95 96/96/96 90/90/90
f 93/93/93 96/96/96 95/95/95
f 96/96/96 97/97/97 90/90/90
f 93/93/93 97/97/97 96/96/96
f 97/97/97 98/98/98 90/90/90
f 93/93/93 99/99/99 97/97/97
f 99/99/99 98/98/98 97/97/97
f 102/102/102 101/101/101 100/100/100
f 100/100/100 103/103/103 102/102/102
f 104/104/104 102/102/102 103/103/103
f 102/102/102 105/105/105 101/101/101
f 104/104/104 105/105/105 102/102/102
f 105/105/105 106/106/106 101/101/101
f 104/104/104 106/106/106 105/105/105
f 106/106/106 107/107/107 101/101/101
f 104/104/104 107/107/107 106/106/106
f 107/107/107 108/108/108 101/101/101
f 104/104/104 108/108/108 107/107/107
f 108/108/108 109/109/109 101/101/101
f 104/104/104 110/110/110 108/108/108
f 110/110/110 109/109/109 108/108/108
f 113/113/113 112/112/112 111/111/111
f 111/111/111 114/114/114 113/113/113
f 115/115/115 113/113/113 114/114/114
f 113/113/113 116/116/116 112/112/112
f 115/115/115 116/116/116 113/113/113
f 116/116/116 117/117/117 112/112/112
f 115/115/115 117/117/117 116/116/116
f 117/117/117 118/118/118 112/112/112
f 115/115/115 118/118/118 117/117/117
f 118/118/118 119/119/119 112/112/112
f 115/115/115 119/119/119 118/118/118
f 119/119/119 120/120/120 112/112/112
f 115/115/115 121/121/121 119/119/119
f 121/121/121 120/120/120 119/119/119
f 124/124/124 123/123/123 122/122/122
f 122/122/122 125/125/125 124/124/124
f 126/126/126 124/124/124 125/125/125
f 124/124/124 127/127/127 123/123/123
f 126/126/126 127/127/127 124/124/124
f 127/127/127 128/128/128 123/123/123
f 126/126/126 128/128/128 127/127/127
f 128/128/128 129/129/129 123/123/123
f 126/126/126 129/129/129 128/128/128
f 129/129/129 130/130/130 123/123/123
f 126/126/126 130/130/130 129/129/129
f 130/130/130 131/131/131 123/123/123
f 126/126/126 132/132/132 130/130/130
f 132/132/132 131/131/131 130/130/130
