g Fireball
v 0 0 0.3970718
v 0.09926806 -0.07212226 0.3776378
v 1.184809E-07 -0.1227019 0.3776378
v 0.1371852 -0.1888187 0.3212379
v 2.253641E-07 -0.233393 0.3212379
v 0.1888192 -0.2598867 0.233393
v 3.10187E-07 -0.3212379 0.233393
v 3.646467E-07 -0.3776378 0.1227019
v 0.3212379 5.157015E-07 0.233393
v 0.1166969 -0.3591547 -0.122702
v 3.834122E-07 -0.3970718 -1.735656E-08
v 3.646467E-07 -0.3776377 -0.122702
v 0.07212263 -0.2219698 -0.3212379
v 3.10187E-07 -0.3212379 -0.2333929
v 2.25364E-07 -0.2333929 -0.3212379
v 0.2219703 -0.3055151 -0.122702
v 0.1166965 -0.03791679 -0.3776378
v 1.184808E-07 -0.1227019 -0.3776378
v 0 0 -0.3970718
v 0.3055157 -0.2219695 0.1227019
v 0.359155 -0.116696 -0.122702
v 0.3776378 6.062435E-07 0.1227019
v 0.2333929 3.74679E-07 -0.3212379
v 0.3591546 0.1166971 -0.122702
v 0.305515 0.2219705 0.1227019
v 0.1888186 0.1371853 -0.3212379
v 0.1888186 0.1371853 0.3212379
v 0.305515 0.2219705 -0.122702
v 0.2219693 0.3055158 0.1227019
v 0.03791671 0.1166965 -0.3776378
v 0 0 -0.3970718
v 0.09926732 0.3055156 -0.2333929
v -0.0721224 0.2219699 -0.3212379
v -5.363472E-09 0.1227019 0.3776378
v 0 0 0.3970718
v -0.09926785 -0.0721224 -0.3776378
v 0 0 -0.3970718
v -1.404175E-08 0.3212379 0.233393
v 0.1227011 0.377638 -1.735656E-08
v -1.020193E-08 0.233393 0.3212379
v -0.09926797 0.3055153 -0.2333929
v -0.122702 0.3776377 -1.735656E-08
v -0.2219699 0.07212234 -0.3212379
v -0.1888189 0.2598869 0.233393
v -0.3055154 0.2219699 -0.122702
v -0.3055154 0.0992679 0.233393
v -0.1227019 -3.998137E-08 0.3776378
v 0 0 0.3970718
v -0.3776377 -1.2305E-07 -0.122702
v -0.1371848 -0.188819 -0.3212379
v -0.1888187 -0.259887 -0.2333929
v 1.184808E-07 -0.1227019 -0.3776378
v 0 0 -0.3970718
v 2.25364E-07 -0.2333929 -0.3212379
v 3.10187E-07 -0.3212379 -0.2333929
v 3.646467E-07 -0.3776377 -0.122702
v -0.2219699 0.07212235 0.3212379
v -0.1371848 -0.188819 0.3212379
v 0 0 0.3970718
v 1.184809E-07 -0.1227019 0.3776378
v 2.253641E-07 -0.233393 0.3212379
v 3.10187E-07 -0.3212379 0.233393
v -0.3591548 -0.1166967 0.1227019
v -0.2219697 -0.3055155 0.1227019
v 3.646467E-07 -0.3776378 0.1227019
v -0.3591548 -0.1166966 -0.122702
v -0.3212377 -0.2333932 -1.735656E-08
v -0.1166962 -0.359155 0.1227019
v 3.834122E-07 -0.3970718 -1.735656E-08
vt 0.2501869 0.7916597
vt 0.2447359 0.7324447
vt 0.1854943 0.7591091
vt 0.1833463 0.6821032
vt 0.1227481 0.7185689
vt 0.1542142 0.6233168
vt 0.06735383 0.6591494
vt 0.02891996 0.5821959
vt 0.2868437 0.6155079
vt 0.08456102 0.4221443
vt 0.01547243 0.4946782
vt 0.03014857 0.4073567
vt 0.152934 0.295576
vt 0.06966885 0.3309585
vt 0.1258944 0.2723378
vt 0.1363496 0.4305615
vt 0.2786339 0.2582671
vt 0.189204 0.2327025
vt 0.2543475 0.2011026
vt 0.1853361 0.5566907
vt 0.234464 0.4366436
vt 0.279033 0.5557771
vt 0.3019368 0.3166018
vt 0.3251871 0.4382747
vt 0.367668 0.5561533
vt 0.3789231 0.3208732
vt 0.3766385 0.6738734
vt 0.3687902 0.4388026
vt 0.4108681 0.5565959
vt 0.4530242 0.2567918
vt 0.4055066 0.2055734
vt 0.4555846 0.3785539
vt 0.5354909 0.3180779
vt 0.4941951 0.7468894
vt 0.4019867 0.7893917
vt 0.745322 0.262773
vt 0.5884229 0.2065025
vt 0.4948505 0.6182865
vt 0.4532107 0.4979474
vt 0.4945336 0.6806229
vt 0.5365826 0.3789545
vt 0.5376614 0.4983617
vt 0.6524385 0.3200122
vt 0.5767622 0.6164089
vt 0.6229181 0.4399849
vt 0.6605345 0.6168544
vt 0.6739197 0.7442333
vt 0.5859602 0.7903064
vt 0.7110766 0.4397909
vt 0.8068707 0.3128417
vt 0.8362098 0.3714885
vt 0.8044297 0.2358517
vt 0.7396157 0.2035862
vt 0.8673295 0.2761332
vt 0.9229519 0.3353266
vt 0.9616889 0.412126
vt 0.6511723 0.6773039
vt 0.80565 0.6853032
vt 0.737671 0.7941473
vt 0.8027046 0.7622755
vt 0.8658736 0.7223903
vt 0.92189 0.6635464
vt 0.7570475 0.5583423
vt 0.8548568 0.564171
vt 0.9611284 0.5869848
vt 0.7572483 0.4393615
vt 0.8099639 0.4990308
vt 0.9066639 0.5724024
vt 0.9754724 0.4995973
vn 0.02181288 0.01179047 0.9996926
vn 0.3385758 -0.1326822 0.9315374
vn -0.06184845 -0.2949111 0.953521
vn 0.4083699 -0.4507032 0.7937889
vn 6.035688E-07 -0.6074181 0.7943823
vn 0.5203544 -0.6808195 0.5154766
vn -0.01726629 -0.8168421 0.5766028
vn 0.09880316 -0.9474472 0.3042721
vn 0.7899782 -0.04908857 0.6111667
vn 0.338381 -0.9031284 -0.2643055
vn 9.770918E-07 -1 0
vn -0.108588 -0.943948 -0.3117223
vn 0.304954 -0.5284767 -0.7922849
vn 0.1244553 -0.8334921 -0.5383324
vn -0.03102277 -0.5834689 -0.8115428
vn 0.6022965 -0.74502 -0.2866777
vn 0.3391791 -0.1357827 -0.9308709
vn 0.05854548 -0.3445821 -0.9369287
vn -0.09114251 0.08032768 -0.9925929
vn 0.7613792 -0.5677442 0.3129984
vn 0.892848 -0.3089735 -0.3276549
vn 0.9656781 -0.02133603 0.258864
vn 0.6481656 -0.07418309 -0.7578773
vn 0.9243155 0.2423202 -0.294825
vn 0.7992017 0.5223826 0.2973095
vn 0.4905155 0.3882986 -0.7801401
vn 0.4907092 0.3560522 0.7952556
vn 0.7161819 0.6345313 -0.2906092
vn 0.5280439 0.7967407 0.2938944
vn 0.06231121 0.3435653 -0.9370594
vn -0.09114251 0.08032768 -0.9925929
vn 0.2723833 0.7969729 -0.5391117
vn -0.1991954 0.5226135 -0.828973
vn -0.04758771 0.3318476 0.9421319
vn 0.02181288 0.01179047 0.9996926
vn -0.3298276 -0.1206168 -0.9363042
vn -0.09114251 0.08032768 -0.9925929
vn 0.02960767 0.8442853 0.5350754
vn 0.3731945 0.9249834 -0.07163487
vn -0.01079842 0.5830841 0.81234
vn -0.2804953 0.8007919 -0.529202
vn -0.3346667 0.9423149 0.006386313
vn -0.586972 0.1600519 -0.7936291
vn -0.5313883 0.6275476 0.5690435
vn -0.7931952 0.5601611 -0.2388742
vn -0.8193678 0.2744792 0.5032867
vn -0.3463988 -0.01266873 0.9380019
vn 0.02181288 0.01179047 0.9996926
vn -0.9539043 0.05168059 -0.2956274
vn -0.4426078 -0.4379835 -0.7824761
vn -0.5425714 -0.6597489 -0.5199499
vn 0.05854548 -0.3445821 -0.9369287
vn -0.09114251 0.08032768 -0.9925929
vn -0.03102277 -0.5834689 -0.8115428
vn 0.1244553 -0.8334921 -0.5383324
vn -0.108588 -0.943948 -0.3117223
vn -0.5668858 0.2162209 0.7949145
vn -0.4382558 -0.4593306 0.7726235
vn 0.02181288 0.01179047 0.9996926
vn -0.06184845 -0.2949111 0.953521
vn 6.035688E-07 -0.6074181 0.7943823
vn -0.01726629 -0.8168421 0.5766028
vn -0.9090919 -0.2247243 0.3507861
vn -0.5567201 -0.7804774 0.2844605
vn 0.09880316 -0.9474472 0.3042721
vn -0.8605116 -0.2792459 -0.4260767
vn -0.7626675 -0.645417 -0.04213253
vn -0.2924624 -0.7061015 0.6448924
vn 9.770918E-07 -1 0
g Fireball_0
f 3/3/3 2/2/2 1/1/1
f 2/2/2 3/3/3 4/4/4
f 5/5/5 4/4/4 3/3/3
f 4/4/4 5/5/5 6/6/6
f 7/7/7 6/6/6 5/5/5
f 8/8/8 6/6/6 7/7/7
f 4/4/4 9/9/9 2/2/2
f 6/6/6 9/9/9 4/4/4
f 6/6/6 8/8/8 10/10/10
f 11/11/11 10/10/10 8/8/8
f 12/12/12 10/10/10 11/11/11
f 10/10/10 12/12/12 13/13/13
f 14/14/14 13/13/13 12/12/12
f 15/15/15 13/13/13 14/14/14
f 10/10/10 16/16/16 6/6/6
f 16/16/16 10/10/10 13/13/13
f 13/13/13 15/15/15 17/17/17
f 18/18/18 17/17/17 15/15/15
f 17/17/17 18/18/18 19/19/19
f 16/16/16 20/20/20 6/6/6
f 13/13/13 21/21/21 16/16/16
f 16/16/16 21/21/21 20/20/20
f 20/20/20 22/22/22 6/6/6
f 9/9/9 6/6/6 22/22/22
f 22/22/22 20/20/20 21/21/21
f 21/21/21 13/13/13 23/23/23
f 23/23/23 13/13/13 17/17/17
f 21/21/21 24/24/24 22/22/22
f 24/24/24 21/21/21 23/23/23
f 22/22/22 25/25/25 9/9/9
f 25/25/25 22/22/22 24/24/24
f 26/26/26 23/23/23 17/17/17
f 23/23/23 26/26/26 24/24/24
f 27/27/27 9/9/9 25/25/25
f 9/9/9 27/27/27 2/2/2
f 24/24/24 28/28/28 25/25/25
f 28/28/28 24/24/24 26/26/26
f 28/28/28 29/29/29 25/25/25
f 25/25/25 29/29/29 27/27/27
f 17/17/17 30/30/30 26/26/26
f 30/30/30 17/17/17 31/31/31
f 26/26/26 32/32/32 28/28/28
f 28/28/28 32/32/32 29/29/29
f 33/33/33 26/26/26 30/30/30
f 32/32/32 26/26/26 33/33/33
f 34/34/34 2/2/2 27/27/27
f 2/2/2 34/34/34 35/35/35
f 30/30/30 36/36/36 33/33/33
f 36/36/36 30/30/30 37/37/37
f 29/29/29 38/38/38 27/27/27
f 39/39/39 29/29/29 32/32/32
f 38/38/38 29/29/29 39/39/39
f 27/27/27 40/40/40 34/34/34
f 40/40/40 27/27/27 38/38/38
f 41/41/41 32/32/32 33/33/33
f 32/32/32 41/41/41 39/39/39
f 39/39/39 42/42/42 38/38/38
f 42/42/42 39/39/39 41/41/41
f 33/33/33 43/43/43 41/41/41
f 43/43/43 33/33/33 36/36/36
f 44/44/44 38/38/38 42/42/42
f 38/38/38 44/44/44 40/40/40
f 41/41/41 45/45/45 42/42/42
f 42/42/42 45/45/45 44/44/44
f 45/45/45 41/41/41 43/43/43
f 46/46/46 44/44/44 45/45/45
f 44/44/44 46/46/46 40/40/40
f 47/47/47 34/34/34 40/40/40
f 34/34/34 47/47/47 48/48/48
f 43/43/43 49/49/49 45/45/45
f 45/45/45 49/49/49 46/46/46
f 50/50/50 43/43/43 36/36/36
f 43/43/43 50/50/50 49/49/49
f 51/51/51 49/49/49 50/50/50
f 36/36/36 52/52/52 50/50/50
f 52/52/52 36/36/36 53/53/53
f 54/54/54 50/50/50 52/52/52
f 50/50/50 54/54/54 51/51/51
f 55/55/55 51/51/51 54/54/54
f 56/56/56 51/51/51 55/55/55
f 57/57/57 40/40/40 46/46/46
f 40/40/40 57/57/57 47/47/47
f 57/57/57 58/58/58 47/47/47
f 47/47/47 58/58/58 59/59/59
f 58/58/58 60/60/60 59/59/59
f 60/60/60 58/58/58 61/61/61
f 61/61/61 58/58/58 62/62/62
f 46/46/46 63/63/63 57/57/57
f 58/58/58 57/57/57 63/63/63
f 63/63/63 46/46/46 49/49/49
f 64/64/64 62/62/62 58/58/58
f 63/63/63 64/64/64 58/58/58
f 62/62/62 64/64/64 65/65/65
f 49/49/49 66/66/66 63/63/63
f 49/49/49 51/51/51 66/66/66
f 66/66/66 67/67/67 63/63/63
f 64/64/64 63/63/63 67/67/67
f 66/66/66 51/51/51 67/67/67
f 68/68/68 65/65/65 64/64/64
f 67/67/67 68/68/68 64/64/64
f 68/68/68 67/67/67 51/51/51
f 65/65/65 68/68/68 69/69/69
f 51/51/51 56/56/56 68/68/68
f 69/69/69 68/68/68 56/56/56
