g Flower
v 0.03334172 0.2994569 0.2543971
v 0.02957121 0.6110097 0.4555979
v 0.3534171 0.6574252 0.2769492
v 0.01461661 0.1010718 0.01493005
v 0.1825105 1.100314 0.5347282
v 0.03027525 0.1056436 -0.008809278
v 0.4915771 1.14971 0.3318451
v 0.3192212 1.410549 0.3965724
v 0.4119679 1.574603 0.2110957
v 0.4465345 0.6564642 0.04331828
v 0.19343 0.3002207 -0.200818
v 0.302463 0.6051458 -0.3016823
v 0.5846944 1.148749 0.09821407
v 0.4445274 1.574267 0.1294042
v 0.4915997 1.097431 -0.2499105
v 0.5046761 1.408635 -0.06873289
v 0.2454803 0.2957778 -0.1645459
v 0.4136026 0.5956119 -0.276707
v 0.06547537 0.6479936 -0.3815843
v 0.005386761 0.1020716 -0.02166851
v 0.3909198 1.073477 -0.3645889
v -0.02942634 0.1066114 -0.01814816
v 0.04279256 1.125858 -0.4694663
v 0.2303805 1.37391 -0.3548821
v -0.01884097 1.532366 -0.2924208
v -0.2378487 0.6470395 -0.306023
v -0.3122336 0.2965365 -0.02839834
v -0.4963698 0.5927492 -0.05002317
v -0.2605315 1.124904 -0.393905
v -0.1249015 1.532032 -0.266
v -0.5190527 1.070614 -0.1379052
v -0.3737274 1.37201 -0.2043925
v 0.3533875 0.2254773 -0.005049462
v 0.6603891 0.5488442 -0.03835157
v 0.4381224 0.4825417 -0.4276449
v 0.01759843 0.03376825 -0.007866439
v 0.8120186 1.163608 -0.3078279
v -0.01201793 0.03568108 -0.03273238
v 0.578351 1.051081 -0.6768592
v 0.6928312 1.52233 -0.5342687
v 0.4780086 1.737996 -0.7270964
v 0.1390397 0.4821398 -0.5958569
v -0.1939819 0.225797 -0.3173417
v -0.3098088 0.5475401 -0.5840164
v 0.2792682 1.050679 -0.8450711
v 0.3734312 1.737855 -0.7859136
v -0.1581793 1.162304 -0.853493
v 0.09717053 1.52153 -0.8692842
v -0.2070176 0.2069261 -0.2152632
v -0.421298 0.4923118 -0.4357576
v -0.6038508 0.3952024 -0.09851325
v -0.01341659 0.03577947 -0.007617663
v -0.7822058 1.063833 -0.4063684
v -0.01822772 0.03727426 0.02165743
v -0.9718924 0.9780195 -0.06854318
v -0.9274161 1.383643 -0.1842017
v -0.9876551 1.581031 0.03481672
v -0.5791133 0.3948472 0.1943177
v -0.1707491 0.207176 0.2606756
v -0.3485238 0.4912669 0.5107003
v -0.9471548 0.9776643 0.2242878
v -0.9800053 1.580922 0.1253722
v -0.7094319 1.062788 0.5400897
v -0.8838435 1.383017 0.3315913
v -0.1708411 0.2254774 0.3064762
v -0.2733764 0.5604882 0.5817966
v 0.1506413 0.4825419 0.5929437
v -0.001957871 0.03376825 0.01911113
v -0.1227037 1.151915 0.8382834
v 0.03411181 0.03568107 0.006208176
v 0.2954832 1.051081 0.8395053
v 0.1160853 1.522331 0.8658921
v 0.3884365 1.737996 0.7785991
v 0.4435898 0.4821398 0.420743
v 0.3691183 0.225797 -0.006436045
v 0.6408479 0.5592335 0.0443981
v 0.5884317 1.050679 0.6673043
v 0.4908691 1.737855 0.7183874
v 0.7915206 1.15066 0.3008851
v 0.6995291 1.52153 0.5229329
v 0.1213582 0.186085 0.3875791
v 0.4903917 0.4721529 0.6528438
v 0.6888231 0.2968563 0.2199268
v 0.005536612 0.0109123 0.01451787
v 0.9162341 0.9850857 0.6513568
v 0.01278562 0.0109123 -0.03384912
v 1.10221 0.82942 0.2143367
v 1.161514 1.341711 0.4304877
v 1.277794 1.549711 0.07182907
v 0.6872715 0.2968563 -0.224473
v 0.1397476 0.05938613 -0.4888865
v 0.4858205 0.4721529 -0.6562524
v 1.100686 0.82942 -0.2220287
v 1.277261 1.549711 -0.08075059
v 0.9116629 0.9850858 -0.6577395
v 1.15848 1.341711 -0.4385884
v -0.4398331 0.1384132 -0.1562647
v -0.8067917 0.4873495 0.02457338
v -0.5499651 0.3183602 0.4565378
v -0.01592812 0.01110687 -0.001995638
v -1.024968 1.013405 0.399481
v 0.02102719 0.01133458 0.0300382
v -0.7582015 0.8636584 0.7947232
v -0.9638432 1.37756 0.7153654
v -0.7197918 1.589109 1.000157
v -0.1739148 0.3183116 0.6933495
v 0.3220175 0.1819315 0.2990929
v 0.300963 0.4872061 0.7505055
v -0.3889498 0.8636104 1.027254
v -0.5906791 1.589093 1.081464
v 0.08278641 1.013262 1.097072
v -0.2284325 1.377464 1.178479
v 0.3536672 0.07964505 -0.3694673
v 0.3459524 0.4898408 -0.729286
v -0.1318201 0.3219168 -0.7008126
v 0.009363055 0.01114331 -0.01315514
v 0.1499337 1.018034 -1.085703
v -0.03657004 0.01140895 0.003637544
v -0.3254581 0.8692875 -1.044687
v -0.1550649 1.383408 -1.183708
v -0.5219372 1.595529 -1.107353
v -0.5212532 0.3218601 -0.4867204
v -0.4641976 0.1395563 0.2182386
v -0.8012248 0.4896737 -0.06056436
v -0.7078505 0.8692317 -0.834465
v -0.6556447 1.595509 -1.033846
v -0.9972437 1.017867 -0.4550381
v -0.9166471 1.383297 -0.765026
v -0.2215215 0.2846231 -0.09895844
v -0.4275263 0.5416045 -0.161796
v -0.393106 0.6104854 0.08075771
v -0.02102251 0.1006875 0.001912117
v -0.5605136 1.063532 -0.1506073
v -0.007355676 0.1047562 0.03214946
v -0.4867383 1.073217 0.1427658
v -0.4486432 1.32994 -0.05676747
v -0.3216839 1.485924 0.1508188
v -0.2310401 0.6096302 0.3283842
v 0.06161402 0.285303 0.2946347
v 0.1275344 0.5386755 0.5144656
v -0.3246723 1.072362 0.3903923
v -0.2650158 1.485625 0.237404
v 0.02064049 1.066946 0.5852563
v -0.1258688 1.328236 0.4364117
vt 1 0
vt 1 0.3333333
vt 0.6666666 0.3333333
vt 0.6666667 0
vt 1 0.6666667
vt 0.3333333 0
vt 0.6666666 0.6666667
vt 1 1
vt 0.6666666 1
vt 0.3333333 0.3333333
vt 0 0
vt 0 0.3333333
vt 0.3333333 0.6666667
vt 0.3333333 1
vt 0 0.6666666
vt 0 1
vt 1 0
vt 1 0.3333333
vt 0.6666666 0.3333333
vt 0.6666667 0
vt 1 0.6666667
vt 0.3333333 0
vt 0.6666666 0.6666667
vt 1 1
vt 0.6666666 1
vt 0.3333333 0.3333333
vt 0 0
vt 0 0.3333333
vt 0.3333333 0.6666667
vt 0.3333333 1
vt 0 0.6666666
vt 0 1
vt 1 0
vt 1 0.3333333
vt 0.6666666 0.3333333
vt 0.6666667 0
vt 1 0.6666667
vt 0.3333333 0
vt 0.6666666 0.6666667
vt 1 1
vt 0.6666666 1
vt 0.3333333 0.3333333
vt 0 0
vt 0 0.3333333
vt 0.3333333 0.6666667
vt 0.3333333 1
vt 0 0.6666666
vt 0 1
vt 1 0
vt 1 0.3333333
vt 0.6666666 0.3333333
vt 0.6666667 0
vt 1 0.6666667
vt 0.3333333 0
vt 0.6666666 0.6666667
vt 1 1
vt 0.6666666 1
vt 0.3333333 0.3333333
vt 0 0
vt 0 0.3333333
vt 0.3333333 0.6666667
vt 0.3333333 1
vt 0 0.6666666
vt 0 1
vt 1 0
vt 1 0.3333333
vt 0.6666666 0.3333333
vt 0.6666667 0
vt 1 0.6666667
vt 0.3333333 0
vt 0.6666666 0.6666667
vt 1 1
vt 0.6666666 1
vt 0.3333333 0.3333333
vt 0 0
vt 0 0.3333333
vt 0.3333333 0.6666667
vt 0.3333333 1
vt 0 0.6666666
vt 0 1
vt 1 0
vt 1 0.3333333
vt 0.6666666 0.3333333
vt 0.6666667 0
vt 1 0.6666667
vt 0.3333333 0
vt 0.6666666 0.6666667
vt 1 1
vt 0.6666666 1
vt 0.3333333 0.3333333
vt 0 0
vt 0 0.3333333
vt 0.3333333 0.6666667
vt 0.3333333 1
vt 0 0.6666666
vt 0 1
vt 1 0
vt 1 0.3333333
vt 0.6666666 0.3333333
vt 0.6666667 0
vt 1 0.6666667
vt 0.3333333 0
vt 0.6666666 0.6666667
vt 1 1
vt 0.6666666 1
vt 0.3333333 0.3333333
vt 0 0
vt 0 0.3333333
vt 0.3333333 0.6666667
vt 0.3333333 1
vt 0 0.6666666
vt 0 1
vt 1 0
vt 1 0.3333333
vt 0.6666666 0.3333333
vt 0.6666667 0
vt 1 0.6666667
vt 0.3333333 0
vt 0.6666666 0.6666667
vt 1 1
vt 0.6666666 1
vt 0.3333333 0.3333333
vt 0 0
vt 0 0.3333333
vt 0.3333333 0.6666667
vt 0.3333333 1
vt 0 0.6666666
vt 0 1
vt 1 0
vt 1 0.3333333
vt 0.6666666 0.3333333
vt 0.6666667 0
vt 1 0.6666667
vt 0.3333333 0
vt 0.6666666 0.6666667
vt 1 1
vt 0.6666666 1
vt 0.3333333 0.3333333
vt 0 0
vt 0 0.3333333
vt 0.3333333 0.6666667
vt 0.3333333 1
vt 0 0.6666666
vt 0 1
vn 0.6081012 -0.5780126 0.5441639
vn 0.5035359 -0.3774017 0.777187
vn 0.7052462 -0.4186861 0.5721274
vn 0.7188696 -0.6005302 0.3501287
vn 0.5369736 -0.1369549 0.8324078
vn 0.7619244 -0.6008888 0.2416688
vn 0.7867808 -0.01287172 0.6170983
vn 0.6458997 0.247591 0.722158
vn 0.8484592 0.2856006 0.4455887
vn 0.9073313 -0.4177154 0.04757971
vn 0.8296599 -0.5561493 -0.04860444
vn 0.890653 -0.3508527 -0.2892052
vn 0.9967981 -0.01958204 0.07752435
vn 0.9229659 0.285074 0.2585863
vn 0.9485325 -0.1505358 -0.2786128
vn 0.9666944 0.2392426 -0.09091205
vn 0.02402288 -0.5155276 -0.8565362
vn 0.2325561 -0.3040914 -0.9238214
vn -0.00322766 -0.3328848 -0.942962
vn -0.1572025 -0.5299647 -0.8333215
vn 0.2830087 -0.03795088 -0.9583663
vn -0.2366768 -0.5279777 -0.8156124
vn 0.001270359 0.08361915 -0.996497
vn 0.1490333 0.3195619 -0.9357719
vn -0.14748 0.3760545 -0.9147855
vn -0.4343553 -0.3309513 -0.837739
vn -0.4234917 -0.505543 -0.7517187
vn -0.6400212 -0.2959293 -0.709083
vn -0.4686815 0.0826006 -0.879497
vn -0.3009745 0.3756411 -0.8765318
vn -0.6988086 -0.04005785 -0.7141863
vn -0.5721141 0.3177985 -0.7561016
vn 0.5380897 -0.763706 -0.3566689
vn 0.7759327 -0.522052 -0.3541047
vn 0.5891038 -0.6028165 -0.5381162
vn 0.3554939 -0.7925134 -0.4955265
vn 0.85154 -0.2405997 -0.4658234
vn 0.2583944 -0.7910779 -0.5544621
vn 0.678457 -0.232157 -0.6969931
vn 0.7545303 0.01522207 -0.6560887
vn 0.557083 0.02066054 -0.8301998
vn 0.1617764 -0.6006045 -0.7830088
vn 0.03257212 -0.7545016 -0.6554894
vn -0.09740843 -0.5142571 -0.8520864
vn 0.2442053 -0.232389 -0.9414665
vn 0.4201529 0.02052772 -0.9072211
vn -0.04290007 -0.2412674 -0.96951
vn 0.1690658 0.01470659 -0.9854951
vn -0.4814658 -0.815262 -0.3217742
vn -0.6364443 -0.5778537 -0.5109048
vn -0.6997539 -0.676769 -0.2287538
vn -0.516799 -0.855041 -0.04270479
vn -0.8018393 -0.2882128 -0.5234377
vn -0.5100023 -0.8541288 0.1017922
vn -0.9337989 -0.2848268 -0.2165484
vn -0.9337788 0.0003514945 -0.3578505
vn -0.9995315 -0.0225877 -0.02065361
vn -0.6593544 -0.6784186 0.324037
vn -0.4362206 -0.8123302 0.3870804
vn -0.5629486 -0.5813541 0.5874659
vn -0.8900578 -0.2843982 0.3562509
vn -0.9819733 -0.02270447 0.1876514
vn -0.7250121 -0.2910576 0.6242138
vn -0.8666762 0.003308179 0.4988602
vn 0.02824655 -0.7595233 0.6498665
vn -0.1157552 -0.5075909 0.8537869
vn 0.1554078 -0.6000367 0.784732
vn 0.2489785 -0.7924733 0.5567726
vn -0.06118752 -0.2420298 0.9683376
vn 0.3495077 -0.7910464 0.5020855
vn 0.2474174 -0.2322334 0.9406658
vn 0.1750759 0.01152419 0.9844875
vn 0.4368138 0.02062915 0.8993154
vn 0.6060739 -0.5977535 0.5247524
vn 0.5594773 -0.7501093 0.3525921
vn 0.8053268 -0.499139 0.3198577
vn 0.7007512 -0.2324746 0.6744652
vn 0.5732481 0.0204958 0.8191254
vn 0.875055 -0.2426994 0.418779
vn 0.7748116 0.01099531 0.6320966
vn 0.2854386 -0.8768908 0.3867651
vn 0.5269526 -0.6840262 0.5044095
vn 0.57836 -0.7737993 0.25833
vn 0.354281 -0.9273067 0.120778
vn 0.75459 -0.4361648 0.4902592
vn 0.3898363 -0.9208577 0.006977446
vn 0.868175 -0.4387555 0.2318745
vn 0.9260252 -0.2326234 0.29726
vn 0.9724489 -0.2249601 0.06112263
vn 0.6253752 -0.7471901 -0.224973
vn 0.4676551 -0.8623891 -0.1938654
vn 0.6142519 -0.597262 -0.5157256
vn 0.8665221 -0.43878 -0.237932
vn 0.9719983 -0.2249601 -0.06791237
vn 0.751147 -0.4362347 -0.4954569
vn 0.9239269 -0.2326234 -0.3037195
vn -0.4745049 -0.8639888 0.1684295
vn -0.744289 -0.6328593 0.2133609
vn -0.5410321 -0.7430322 0.3939385
vn -0.2735943 -0.9145868 0.2977869
vn -0.8267409 -0.4154735 0.3793167
vn -0.113906 -0.9148829 0.3873174
vn -0.6692967 -0.4126663 0.6178579
vn -0.7508441 -0.2034215 0.6283731
vn -0.5762006 -0.1943035 0.7938759
vn -0.1077294 -0.7529546 0.6491947
vn 0.1490211 -0.8614703 0.4854499
vn 0.1356719 -0.6642666 0.7350802
vn -0.2706189 -0.4116105 0.8702541
vn -0.467012 -0.1943176 0.8626358
vn 0.008562931 -0.4126117 0.9108667
vn -0.2422974 -0.2034876 0.9486226
vn -0.06023123 -0.8457619 -0.5301499
vn 0.1428235 -0.5761922 -0.8047385
vn -0.1159646 -0.7249936 -0.678923
vn -0.1992208 -0.9068682 -0.3713503
vn 0.06149161 -0.4086434 -0.9106203
vn -0.2659177 -0.9123077 -0.3114202
vn -0.2195033 -0.4071047 -0.8866138
vn -0.1860746 -0.198534 -0.9622684
vn -0.4154723 -0.1891748 -0.8897166
vn -0.5184033 -0.740872 -0.427044
vn -0.4901153 -0.8526919 -0.1808406
vn -0.7295569 -0.6370928 -0.2487156
vn -0.6331265 -0.4088384 -0.6572685
vn -0.5285476 -0.1891914 -0.8275531
vn -0.8047673 -0.4129322 -0.426423
vn -0.7127207 -0.1986111 -0.6727427
vn -0.7368512 -0.5797701 0.3477314
vn -0.8731903 -0.4161462 0.2536947
vn -0.8406385 -0.3893731 0.3764512
vn -0.6993625 -0.5738869 0.4260821
vn -0.9725673 -0.00486018 0.2325707
vn -0.6647711 -0.5760299 0.4756773
vn -0.9167418 0.04568285 0.3968594
vn -0.9055493 0.335842 0.2592113
vn -0.8325173 0.3241835 0.4492437
vn -0.6456136 -0.3829024 0.6607336
vn -0.5488251 -0.5598279 0.6207929
vn -0.4848995 -0.3588688 0.7975498
vn -0.6945288 0.03384237 0.7186685
vn -0.7439382 0.3237934 0.5845629
vn -0.4912439 -0.06239215 0.8687846
vn -0.5574605 0.2934477 0.776612
g Flower_0
f 3/3/3 2/2/2 1/1/1
f 1/1/1 4/4/4 3/3/3
f 5/5/5 2/2/2 3/3/3
f 3/3/3 4/4/4 6/6/6
f 7/7/7 5/5/5 3/3/3
f 5/5/5 7/7/7 8/8/8
f 7/7/7 9/9/9 8/8/8
f 10/10/10 3/3/3 6/6/6
f 7/7/7 3/3/3 10/10/10
f 10/10/10 6/6/6 11/11/11
f 10/10/10 11/11/11 12/12/12
f 9/9/9 7/7/7 13/13/13
f 13/13/13 7/7/7 10/10/10
f 13/13/13 10/10/10 12/12/12
f 14/14/14 9/9/9 13/13/13
f 15/15/15 13/13/13 12/12/12
f 14/14/14 13/13/13 16/16/16
f 16/16/16 13/13/13 15/15/15
f 19/19/19 18/18/18 17/17/17
f 17/17/17 20/20/20 19/19/19
f 21/21/21 18/18/18 19/19/19
f 19/19/19 20/20/20 22/22/22
f 23/23/23 21/21/21 19/19/19
f 21/21/21 23/23/23 24/24/24
f 23/23/23 25/25/25 24/24/24
f 26/26/26 19/19/19 22/22/22
f 23/23/23 19/19/19 26/26/26
f 26/26/26 22/22/22 27/27/27
f 26/26/26 27/27/27 28/28/28
f 25/25/25 23/23/23 29/29/29
f 29/29/29 23/23/23 26/26/26
f 29/29/29 26/26/26 28/28/28
f 30/30/30 25/25/25 29/29/29
f 31/31/31 29/29/29 28/28/28
f 30/30/30 29/29/29 32/32/32
f 32/32/32 29/29/29 31/31/31
f 35/35/35 34/34/34 33/33/33
f 33/33/33 36/36/36 35/35/35
f 37/37/37 34/34/34 35/35/35
f 35/35/35 36/36/36 38/38/38
f 39/39/39 37/37/37 35/35/35
f 37/37/37 39/39/39 40/40/40
f 39/39/39 41/41/41 40/40/40
f 42/42/42 35/35/35 38/38/38
f 39/39/39 35/35/35 42/42/42
f 42/42/42 38/38/38 43/43/43
f 42/42/42 43/43/43 44/44/44
f 41/41/41 39/39/39 45/45/45
f 45/45/45 39/39/39 42/42/42
f 45/45/45 42/42/42 44/44/44
f 46/46/46 41/41/41 45/45/45
f 47/47/47 45/45/45 44/44/44
f 46/46/46 45/45/45 48/48/48
f 48/48/48 45/45/45 47/47/47
f 51/51/51 50/50/50 49/49/49
f 49/49/49 52/52/52 51/51/51
f 53/53/53 50/50/50 51/51/51
f 51/51/51 52/52/52 54/54/54
f 55/55/55 53/53/53 51/51/51
f 53/53/53 55/55/55 56/56/56
f 55/55/55 57/57/57 56/56/56
f 58/58/58 51/51/51 54/54/54
f 55/55/55 51/51/51 58/58/58
f 58/58/58 54/54/54 59/59/59
f 58/58/58 59/59/59 60/60/60
f 57/57/57 55/55/55 61/61/61
f 61/61/61 55/55/55 58/58/58
f 61/61/61 58/58/58 60/60/60
f 62/62/62 57/57/57 61/61/61
f 63/63/63 61/61/61 60/60/60
f 62/62/62 61/61/61 64/64/64
f 64/64/64 61/61/61 63/63/63
f 67/67/67 66/66/66 65/65/65
f 65/65/65 68/68/68 67/67/67
f 69/69/69 66/66/66 67/67/67
f 67/67/67 68/68/68 70/70/70
f 71/71/71 69/69/69 67/67/67
f 69/69/69 71/71/71 72/72/72
f 71/71/71 73/73/73 72/72/72
f 74/74/74 67/67/67 70/70/70
f 71/71/71 67/67/67 74/74/74
f 74/74/74 70/70/70 75/75/75
f 74/74/74 75/75/75 76/76/76
f 73/73/73 71/71/71 77/77/77
f 77/77/77 71/71/71 74/74/74
f 77/77/77 74/74/74 76/76/76
f 78/78/78 73/73/73 77/77/77
f 79/79/79 77/77/77 76/76/76
f 78/78/78 77/77/77 80/80/80
f 80/80/80 77/77/77 79/79/79
f 83/83/83 82/82/82 81/81/81
f 81/81/81 84/84/84 83/83/83
f 85/85/85 82/82/82 83/83/83
f 83/83/83 84/84/84 86/86/86
f 87/87/87 85/85/85 83/83/83
f 85/85/85 87/87/87 88/88/88
f 87/87/87 89/89/89 88/88/88
f 90/90/90 83/83/83 86/86/86
f 87/87/87 83/83/83 90/90/90
f 90/90/90 86/86/86 91/91/91
f 90/90/90 91/91/91 92/92/92
f 89/89/89 87/87/87 93/93/93
f 93/93/93 87/87/87 90/90/90
f 93/93/93 90/90/90 92/92/92
f 94/94/94 89/89/89 93/93/93
f 95/95/95 93/93/93 92/92/92
f 94/94/94 93/93/93 96/96/96
f 96/96/96 93/93/93 95/95/95
f 99/99/99 98/98/98 97/97/97
f 97/97/97 100/100/100 99/99/99
f 101/101/101 98/98/98 99/99/99
f 99/99/99 100/100/100 102/102/102
f 103/103/103 101/101/101 99/99/99
f 101/101/101 103/103/103 104/104/104
f 103/103/103 105/105/105 104/104/104
f 106/106/106 99/99/99 102/102/102
f 103/103/103 99/99/99 106/106/106
f 106/106/106 102/102/102 107/107/107
f 106/106/106 107/107/107 108/108/108
f 105/105/105 103/103/103 109/109/109
f 109/109/109 103/103/103 106/106/106
f 109/109/109 106/106/106 108/108/108
f 110/110/110 105/105/105 109/109/109
f 111/111/111 109/109/109 108/108/108
f 110/110/110 109/109/109 112/112/112
f 112/112/112 109/109/109 111/111/111
f 115/115/115 114/114/114 113/113/113
f 113/113/113 116/116/116 115/115/115
f 117/117/117 114/114/114 115/115/115
f 115/115/115 116/116/116 118/118/118
f 119/119/119 117/117/117 115/115/115
f 117/117/117 119/119/119 120/120/120
f 119/119/119 121/121/121 120/120/120
f 122/122/122 115/115/115 118/118/118
f 119/119/119 115/115/115 122/122/122
f 122/122/122 118/118/118 123/123/123
f 122/122/122 123/123/123 124/124/124
f 121/121/121 119/119/119 125/125/125
f 125/125/125 119/119/119 122/122/122
f 125/125/125 122/122/122 124/124/124
f 126/126/126 121/121/121 125/125/125
f 127/127/127 125/125/125 124/124/124
f 126/126/126 125/125/125 128/128/128
f 128/128/128 125/125/125 127/127/127
f 131/131/131 130/130/130 129/129/129
f 129/129/129 132/132/132 131/131/131
f 133/133/133 130/130/130 131/131/131
f 131/131/131 132/132/132 134/134/134
f 135/135/135 133/133/133 131/131/131
f 133/133/133 135/135/135 136/136/136
f 135/135/135 137/137/137 136/136/136
f 138/138/138 131/131/131 134/134/134
f 135/135/135 131/131/131 138/138/138
f 138/138/138 134/134/134 139/139/139
f 138/138/138 139/139/139 140/140/140
f 137/137/137 135/135/135 141/141/141
f 141/141/141 135/135/135 138/138/138
f 141/141/141 138/138/138 140/140/140
f 142/142/142 137/137/137 141/141/141
f 143/143/143 141/141/141 140/140/140
f 142/142/142 141/141/141 144/144/144
f 144/144/144 141/141/141 143/143/143
