g HalfCylinder2
v 0.1999999 -6.278329E-08 -1
v -0.2000001 0.1950901 -0.9807853
v -0.2 -1.756353E-07 -1
v 0.1999999 0.1950902 -0.9807853
v -0.2000001 0.3826832 -0.9238796
v 0.1999998 0.3826833 -0.9238796
v -0.2000002 0.5555701 -0.8314697
v 0.1999998 0.5555702 -0.8314697
v -0.2000002 0.7071066 -0.7071068
v 0.1999998 0.7071068 -0.7071068
v -0.2000003 0.8314696 -0.5555702
v 0.1999997 0.8314697 -0.5555702
v -0.2000003 0.9238796 -0.3826833
v 0.1999997 0.9238797 -0.3826833
v -0.2000003 0.9807853 -0.1950901
v 0.1999997 0.9807854 -0.1950901
vt 0.999946 5.39124E-05
vt 0.8571045 0.9999658
vt 0.9999461 0.9999657
vt 0.8571044 5.397201E-05
vt 0.7142628 0.9999658
vt 0.7142627 5.406141E-05
vt 0.5714211 0.9999658
vt 0.5714211 5.406141E-05
vt 0.4285793 0.9999658
vt 0.4285794 5.406141E-05
vt 0.2857376 0.9999658
vt 0.2857376 5.406141E-05
vt 0.1428958 0.9999658
vt 0.1428958 5.403161E-05
vt 5.400181E-05 0.9999658
vt 5.412102E-05 5.406141E-05
vn 0 0.09801701 -0.9951847
vn 0 0.1950903 -0.9807853
vn 0 0.09801701 -0.9951847
vn 0 0.1950903 -0.9807853
vn 0 0.3826833 -0.9238795
vn 0 0.3826834 -0.9238795
vn 0 0.5555701 -0.8314697
vn 0 0.5555701 -0.8314697
vn 0 0.7071066 -0.7071069
vn 0 0.7071066 -0.7071069
vn 0 0.8314695 -0.5555704
vn 0 0.8314695 -0.5555704
vn 0 0.9238796 -0.3826833
vn 0 0.9238796 -0.3826832
vn 0 0.9569405 -0.2902842
vn 0 0.9569405 -0.2902842
g HalfCylinder2_0
f 3/3/3 2/2/2 1/1/1
f 2/2/2 4/4/4 1/1/1
f 2/2/2 5/5/5 4/4/4
f 5/5/5 6/6/6 4/4/4
f 5/5/5 7/7/7 6/6/6
f 7/7/7 8/8/8 6/6/6
f 7/7/7 9/9/9 8/8/8
f 9/9/9 10/10/10 8/8/8
f 9/9/9 11/11/11 10/10/10
f 11/11/11 12/12/12 10/10/10
f 11/11/11 13/13/13 12/12/12
f 13/13/13 14/14/14 12/12/12
f 13/13/13 15/15/15 14/14/14
f 15/15/15 16/16/16 14/14/14
