g Infatry2_common_sword_L
v 0.004847461 0.006876355 0.01707784
v 0.005005716 0.007313436 0.01707784
v 0.005005716 0.006346086 0.01824155
v 0.004847461 0.005815817 0.01707784
v 0.005005716 0.006346086 0.01824155
v 0.005005716 0.005378736 0.01707784
v 0.005005716 0.007313436 0.01707784
v 0.00516397 0.006876355 0.01707784
v 0.005005716 0.006346086 0.01824155
v 0.005005716 0.005378736 0.01707784
v 0.005005716 0.006346086 0.01824155
v 0.00516397 0.005815817 0.01707784
v 0.004722232 0.007196259 0.004047517
v 0.004847461 0.006876355 0.01707784
v 0.004847461 0.006346086 0.01707784
v 0.004722232 0.006346086 0.004047517
v 0.004722232 0.005495913 0.004047517
v 0.004847461 0.005815817 0.01707784
v 0.005005716 0.007609814 0.004047517
v 0.005005716 0.007313436 0.01707784
v 0.004847461 0.006876355 0.01707784
v 0.004722232 0.007196259 0.004047517
v 0.004847461 0.006346086 0.01707784
v 0.004847461 0.006876355 0.01707784
v 0.005005716 0.006346086 0.01824155
v 0.004847461 0.005815817 0.01707784
v 0.005005716 0.005082359 0.004047517
v 0.004722232 0.005495913 0.004047517
v 0.004847461 0.005815817 0.01707784
v 0.005005716 0.005378736 0.01707784
v 0.0052892 0.005495913 0.004047517
v 0.005005716 0.005082359 0.004047517
v 0.005005716 0.005378736 0.01707784
v 0.00516397 0.005815817 0.01707784
v 0.00516397 0.006346086 0.01707784
v 0.0052892 0.005495913 0.004047517
v 0.00516397 0.005815817 0.01707784
v 0.0052892 0.006346086 0.004047517
v 0.0052892 0.007196259 0.004047517
v 0.00516397 0.006876355 0.01707784
v 0.00516397 0.006876355 0.01707784
v 0.00516397 0.006346086 0.01707784
v 0.005005716 0.006346086 0.01824155
v 0.00516397 0.005815817 0.01707784
v 0.0052892 0.007196259 0.004047517
v 0.00516397 0.006876355 0.01707784
v 0.005005716 0.007313436 0.01707784
v 0.005005716 0.007609814 0.004047517
v 0.004676773 0.006017143 -0.003361546
v 0.004676773 0.006675029 -0.003361546
v 0.004342528 0.007009273 -0.002745418
v 0.004342528 0.005682899 -0.002745417
v 0.004676773 0.006017143 -0.003361546
v 0.005334659 0.006017143 -0.003361546
v 0.005334659 0.006675029 -0.003361546
v 0.004676773 0.006675029 -0.003361546
v 0.004676773 0.006675029 -0.003361546
v 0.005334659 0.006675029 -0.003361546
v 0.005668903 0.007009273 -0.002745418
v 0.004342528 0.007009273 -0.002745418
v 0.004342528 0.007009273 -0.002745418
v 0.004342528 0.007009273 0.002952162
v 0.004342528 0.005682899 0.002952162
v 0.004342528 0.005682899 -0.002745417
v 0.005668903 0.007009273 -0.002745418
v 0.005668903 0.007009273 0.002952162
v 0.004342528 0.007009273 0.002952162
v 0.004342528 0.007009273 -0.002745418
v 0.005334659 0.006675029 -0.003361546
v 0.005334659 0.006017143 -0.003361546
v 0.005668903 0.005682899 -0.002745418
v 0.005668903 0.007009273 -0.002745418
v 0.005668903 0.005682899 -0.002745418
v 0.005668903 0.005682899 0.002952162
v 0.005668903 0.007009273 0.002952162
v 0.005668903 0.007009273 -0.002745418
v 0.005261644 0.006017142 0.003568292
v 0.005261644 0.006675029 0.003568292
v 0.005668903 0.007009273 0.002952162
v 0.005668903 0.005682899 0.002952162
v 0.005261644 0.006675029 0.003568292
v 0.004749788 0.006675029 0.003568292
v 0.004342528 0.007009273 0.002952162
v 0.005668903 0.007009273 0.002952162
v 0.005261644 0.006017142 0.003568292
v 0.004749788 0.006017142 0.003568292
v 0.004749788 0.006675029 0.003568292
v 0.005261644 0.006675029 0.003568292
v 0.004749788 0.006675029 0.003568292
v 0.004749788 0.006017142 0.003568292
v 0.004342528 0.005682899 0.002952162
v 0.004342528 0.007009273 0.002952162
v 0.004749788 0.006017142 0.003568292
v 0.005261644 0.006017142 0.003568292
v 0.005668903 0.005682899 0.002952162
v 0.004342528 0.005682899 0.002952162
v 0.004342528 0.005682899 -0.002745417
v 0.004342528 0.005682899 0.002952162
v 0.005668903 0.005682899 0.002952162
v 0.005668903 0.005682899 -0.002745418
v 0.005334659 0.006017143 -0.003361546
v 0.004676773 0.006017143 -0.003361546
v 0.004342528 0.005682899 -0.002745417
v 0.005668903 0.005682899 -0.002745418
v 0.004739715 0.00798018 0.003736283
v 0.005271717 0.00798018 0.003736283
v 0.005271717 0.008184895 0.004052805
v 0.004739715 0.008184895 0.004052805
v 0.005271717 0.008697158 0.004836808
v 0.004739715 0.008697158 0.004836808
v 0.005271717 0.007702131 0.003640105
v 0.005271717 0.008184895 0.004052805
v 0.005271717 0.00798018 0.003736283
v 0.005271717 0.0076827 0.004052805
v 0.005271717 0.006346086 0.003564587
v 0.005271717 0.008123238 0.004836808
v 0.005271717 0.008697158 0.004836808
v 0.005271717 0.006346086 0.004052805
v 0.005271717 0.005009473 0.004052805
v 0.005271717 0.004990042 0.003640105
v 0.005271717 0.004507278 0.004052805
v 0.005271717 0.004711993 0.003736283
v 0.005271717 0.004568935 0.004836807
v 0.005271717 0.003995015 0.004836807
v 0.004739715 0.007702131 0.003640105
v 0.005271717 0.007702131 0.003640105
v 0.005271717 0.00798018 0.003736283
v 0.004739715 0.00798018 0.003736283
v 0.004739715 0.006346086 0.003564587
v 0.005271717 0.006346086 0.003564587
v 0.005271717 0.007702131 0.003640105
v 0.004739715 0.007702131 0.003640105
v 0.004739715 0.0076827 0.004052805
v 0.005271717 0.0076827 0.004052805
v 0.005271717 0.006346086 0.004052805
v 0.004739715 0.006346086 0.004052805
v 0.004739715 0.005009473 0.004052805
v 0.005271717 0.005009473 0.004052805
v 0.005271717 0.0076827 0.004052805
v 0.004739715 0.0076827 0.004052805
v 0.004739715 0.008123238 0.004836808
v 0.005271717 0.008123238 0.004836808
v 0.004739715 0.008697158 0.004836808
v 0.005271717 0.008697158 0.004836808
v 0.005271717 0.008123238 0.004836808
v 0.004739715 0.008123238 0.004836808
v 0.004739715 0.0076827 0.004052805
v 0.004739715 0.008697158 0.004836808
v 0.004739715 0.008123238 0.004836808
v 0.004739715 0.008184895 0.004052805
v 0.004739715 0.007702131 0.003640105
v 0.004739715 0.00798018 0.003736283
v 0.004739715 0.006346086 0.004052805
v 0.004739715 0.006346086 0.003564587
v 0.004739715 0.004990042 0.003640105
v 0.004739715 0.005009473 0.004052805
v 0.004739715 0.004507278 0.004052805
v 0.004739715 0.004711993 0.003736283
v 0.004739715 0.003995015 0.004836807
v 0.004739715 0.004568935 0.004836807
v 0.005271717 0.005009473 0.004052805
v 0.005271717 0.004568935 0.004836807
v 0.004739715 0.004568935 0.004836807
v 0.004739715 0.005009473 0.004052805
v 0.004739715 0.003995015 0.004836807
v 0.004739715 0.004568935 0.004836807
v 0.005271717 0.004568935 0.004836807
v 0.005271717 0.003995015 0.004836807
v 0.004739715 0.004507278 0.004052805
v 0.004739715 0.003995015 0.004836807
v 0.005271717 0.003995015 0.004836807
v 0.005271717 0.004507278 0.004052805
v 0.004739715 0.004711993 0.003736283
v 0.005271717 0.004711993 0.003736283
v 0.004739715 0.004990042 0.003640105
v 0.004739715 0.004711993 0.003736283
v 0.005271717 0.004711993 0.003736283
v 0.005271717 0.004990042 0.003640105
v 0.004739715 0.006346086 0.003564587
v 0.004739715 0.004990042 0.003640105
v 0.005271717 0.004990042 0.003640105
v 0.005271717 0.006346086 0.003564587
vt 0.1554102 0.781679
vt 0.1604998 0.781679
vt 0.1492355 0.7952297
vt 0.1430609 0.781679
vt 0.1492355 0.7952297
vt 0.1379713 0.781679
vt 0.1604998 0.781679
vt 0.1554102 0.781679
vt 0.1492355 0.7952297
vt 0.1379713 0.781679
vt 0.1492355 0.7952297
vt 0.1430609 0.781679
vt 0.1591352 0.6066437
vt 0.1554102 0.781679
vt 0.1492355 0.781679
vt 0.1492355 0.6066437
vt 0.1393358 0.6066437
vt 0.1430609 0.781679
vt 0.1639509 0.6066437
vt 0.1604998 0.781679
vt 0.1554102 0.781679
vt 0.1591352 0.6066437
vt 0.1492355 0.781679
vt 0.1554102 0.781679
vt 0.1492355 0.7952297
vt 0.1430609 0.781679
vt 0.1345202 0.6066437
vt 0.1393358 0.6066437
vt 0.1430609 0.781679
vt 0.1379713 0.781679
vt 0.1393358 0.6066437
vt 0.1345202 0.6066437
vt 0.1379713 0.781679
vt 0.1430609 0.781679
vt 0.1492355 0.781679
vt 0.1393358 0.6066437
vt 0.1430609 0.781679
vt 0.1492355 0.6066437
vt 0.1591352 0.6066437
vt 0.1554102 0.781679
vt 0.1554102 0.781679
vt 0.1492355 0.781679
vt 0.1492355 0.7952297
vt 0.1430609 0.781679
vt 0.1591352 0.6066437
vt 0.1554102 0.781679
vt 0.1604998 0.781679
vt 0.1639509 0.6066437
vt 0.04882422 0.8374252
vt 0.05770573 0.8374252
vt 0.0622181 0.8483592
vt 0.04431182 0.8483592
vt 0.04882422 0.8374252
vt 0.04882422 0.8374252
vt 0.05770573 0.8374252
vt 0.05770573 0.8374252
vt 0.05770573 0.8374252
vt 0.05770573 0.8374252
vt 0.0622181 0.8483592
vt 0.0622181 0.8483592
vt 0.0622181 0.8483592
vt 0.0622181 0.9494694
vt 0.04431182 0.9494694
vt 0.04431182 0.8483592
vt 0.0622181 0.8483592
vt 0.0622181 0.9494694
vt 0.0622181 0.9494694
vt 0.0622181 0.8483592
vt 0.05770573 0.8374252
vt 0.04882422 0.8374252
vt 0.04431182 0.8483592
vt 0.0622181 0.8483592
vt 0.04431182 0.8483592
vt 0.04431182 0.9494694
vt 0.0622181 0.9494694
vt 0.0622181 0.8483592
vt 0.04882422 0.9604033
vt 0.05770573 0.9604033
vt 0.0622181 0.9494694
vt 0.04431182 0.9494694
vt 0.05770573 0.9604033
vt 0.05770573 0.9604033
vt 0.0622181 0.9494694
vt 0.0622181 0.9494694
vt 0.04882422 0.9604033
vt 0.04882422 0.9604033
vt 0.05770573 0.9604033
vt 0.05770573 0.9604033
vt 0.05770573 0.9604033
vt 0.04882422 0.9604033
vt 0.04431182 0.9494694
vt 0.0622181 0.9494694
vt 0.04882422 0.9604033
vt 0.04882422 0.9604033
vt 0.04431182 0.9494694
vt 0.04431182 0.9494694
vt 0.04431182 0.8483592
vt 0.04431182 0.9494694
vt 0.04431182 0.9494694
vt 0.04431182 0.8483592
vt 0.04882422 0.8374252
vt 0.04882422 0.8374252
vt 0.04431182 0.8483592
vt 0.04431182 0.8483592
vt 0.07532549 0.4852922
vt 0.07532549 0.4852922
vt 0.07808918 0.4895652
vt 0.07808918 0.4895652
vt 0.08500487 0.5001495
vt 0.08500487 0.5001495
vt 0.07157183 0.4839937
vt 0.07808918 0.4895652
vt 0.07532549 0.4852922
vt 0.07130951 0.4895652
vt 0.05326504 0.4829743
vt 0.07725686 0.5001495
vt 0.08500487 0.5001495
vt 0.05326504 0.4895652
vt 0.0352205 0.4895652
vt 0.03495818 0.4839937
vt 0.02844077 0.4895652
vt 0.03120446 0.4852922
vt 0.02927315 0.5001495
vt 0.02152514 0.5001495
vt 0.07157183 0.4839937
vt 0.07157183 0.4839937
vt 0.07532549 0.4852922
vt 0.07532549 0.4852922
vt 0.05326504 0.4829743
vt 0.05326504 0.4829743
vt 0.07157183 0.4839937
vt 0.07157183 0.4839937
vt 0.07130951 0.4895652
vt 0.07130951 0.4895652
vt 0.05326504 0.4895652
vt 0.05326504 0.4895652
vt 0.0352205 0.4895652
vt 0.0352205 0.4895652
vt 0.07130951 0.4895652
vt 0.07130951 0.4895652
vt 0.07725686 0.5001495
vt 0.07725686 0.5001495
vt 0.08500487 0.5001495
vt 0.08500487 0.5001495
vt 0.07725686 0.5001495
vt 0.07725686 0.5001495
vt 0.07130951 0.4895652
vt 0.08500487 0.5001495
vt 0.07725686 0.5001495
vt 0.07808918 0.4895652
vt 0.07157183 0.4839937
vt 0.07532549 0.4852922
vt 0.05326504 0.4895652
vt 0.05326504 0.4829743
vt 0.03495818 0.4839937
vt 0.0352205 0.4895652
vt 0.02844077 0.4895652
vt 0.03120446 0.4852922
vt 0.02152514 0.5001495
vt 0.02927315 0.5001495
vt 0.0352205 0.4895652
vt 0.02927315 0.5001495
vt 0.02927315 0.5001495
vt 0.0352205 0.4895652
vt 0.02152514 0.5001495
vt 0.02927315 0.5001495
vt 0.02927315 0.5001495
vt 0.02152514 0.5001495
vt 0.02844077 0.4895652
vt 0.02152514 0.5001495
vt 0.02152514 0.5001495
vt 0.02844077 0.4895652
vt 0.03120446 0.4852922
vt 0.03120446 0.4852922
vt 0.03495818 0.4839937
vt 0.03120446 0.4852922
vt 0.03120446 0.4852922
vt 0.03495818 0.4839937
vt 0.05326504 0.4829743
vt 0.03495818 0.4839937
vt 0.03495818 0.4839937
vt 0.05326504 0.4829743
vn -0.9047338 0.327578 0.2723037
vn -0.9047338 0.327578 0.2723037
vn -0.9047338 0.327578 0.2723037
vn -0.9047341 -0.3275772 0.2723038
vn -0.9047341 -0.3275772 0.2723038
vn -0.9047341 -0.3275772 0.2723038
vn 0.9047345 0.3275761 0.2723039
vn 0.9047345 0.3275761 0.2723039
vn 0.9047345 0.3275761 0.2723039
vn 0.9047344 -0.3275761 0.2723039
vn 0.9047344 -0.3275761 0.2723039
vn 0.9047344 -0.3275761 0.2723039
vn -0.9999539 0 0.009610198
vn -0.9999539 0 0.009610198
vn -0.9999539 0 0.009610198
vn -0.9999539 0 0.009610198
vn -0.9999539 0 0.009610183
vn -0.9999539 0 0.009610183
vn -0.887368 0.4608126 0.01516138
vn -0.887368 0.4608126 0.01516138
vn -0.887368 0.4608126 0.01516138
vn -0.887368 0.4608126 0.01516138
vn -0.9908794 -1.460436E-06 0.1347516
vn -0.9908794 -1.460436E-06 0.1347516
vn -0.9908794 -1.460436E-06 0.1347516
vn -0.9908794 0 0.1347512
vn -0.8873675 -0.4608136 0.01516141
vn -0.8873675 -0.4608136 0.01516141
vn -0.8873675 -0.4608136 0.01516141
vn -0.8873675 -0.4608136 0.01516141
vn 0.8873675 -0.4608136 0.01516141
vn 0.8873675 -0.4608136 0.01516141
vn 0.8873675 -0.4608136 0.01516141
vn 0.8873675 -0.4608136 0.01516141
vn 0.9999539 0 0.009610179
vn 0.9999539 0 0.009610179
vn 0.9999539 0 0.009610179
vn 0.9999539 0 0.009610179
vn 0.9999539 0 0.009610194
vn 0.9999539 0 0.009610194
vn 0.9908794 0 0.1347516
vn 0.9908794 0 0.1347516
vn 0.9908794 0 0.1347516
vn 0.9908794 1.460432E-06 0.1347512
vn 0.887368 0.4608125 0.01516138
vn 0.887368 0.4608125 0.01516138
vn 0.887368 0.4608125 0.01516138
vn 0.887368 0.4608125 0.01516138
vn -0.8789877 0 -0.4768445
vn -0.8789877 0 -0.4768445
vn -0.8789877 0 -0.4768445
vn -0.8789877 0 -0.4768445
vn 0 -2.470883E-07 -1
vn 0 -2.470883E-07 -1
vn 0 -2.470883E-07 -1
vn 0 -2.470883E-07 -1
vn 0 0.8789884 -0.4768433
vn 0 0.8789884 -0.4768433
vn 0 0.8789884 -0.4768433
vn 0 0.8789884 -0.4768433
vn -1 0 0
vn -1 0 0
vn -1 0 0
vn -1 0 0
vn 0 1 0
vn 0 1 0
vn 0 1 0
vn 0 1 0
vn 0.8789876 0 -0.4768447
vn 0.8789876 0 -0.4768447
vn 0.8789876 0 -0.4768447
vn 0.8789876 0 -0.4768447
vn 1 0 0
vn 1 0 0
vn 1 0 0
vn 1 0 0
vn 0.8342267 -6.206024E-07 0.5514215
vn 0.8342267 -6.206024E-07 0.5514215
vn 0.8342267 -6.206024E-07 0.5514215
vn 0.8342267 -6.206024E-07 0.5514215
vn 0 0.878989 0.4768421
vn 0 0.878989 0.4768421
vn 0 0.878989 0.4768421
vn 0 0.878989 0.4768421
vn 0 4.339191E-07 1
vn 0 4.339191E-07 1
vn 0 4.339191E-07 1
vn 0 4.339191E-07 1
vn -0.8342269 0 0.5514213
vn -0.8342269 0 0.5514213
vn -0.8342269 0 0.5514213
vn -0.8342269 0 0.5514213
vn 0 -0.8789884 0.4768429
vn 0 -0.8789884 0.4768429
vn 0 -0.8789884 0.4768429
vn 0 -0.8789884 0.4768429
vn 0 -1 0
vn 0 -1 0
vn 0 -1 0
vn 0 -1 0
vn 0 -0.8789884 -0.4768432
vn 0 -0.8789884 -0.4768432
vn 0 -0.8789884 -0.4768432
vn 0 -0.8789884 -0.4768432
vn 0 0.8396826 -0.5430775
vn 0 0.8396826 -0.5430775
vn 0 0.8396826 -0.5430775
vn 0 0.8396826 -0.5430775
vn 0 0.8371427 -0.5469844
vn 0 0.8371427 -0.5469844
vn 1 -1.104423E-07 0
vn 1 -1.104423E-07 0
vn 1 -1.104423E-07 0
vn 1 -1.104423E-07 0
vn 1 0 0
vn 1 0 0
vn 1 0 0
vn 1 0 0
vn 1 0 0
vn 1 0 0
vn 1 0 0
vn 1 0 0
vn 1 0 0
vn 1 0 0
vn 0 0.3268999 -0.9450589
vn 0 0.3268999 -0.9450589
vn 0 0.3268999 -0.9450589
vn 0 0.3268999 -0.9450589
vn 0 0.05560327 -0.9984529
vn 0 0.05560327 -0.9984529
vn 0 0.05560327 -0.9984529
vn 0 0.05560327 -0.9984529
vn 0 2.681986E-07 1
vn 0 2.681986E-07 1
vn 0 2.681986E-07 1
vn 0 2.681986E-07 1
vn 0 0 1
vn 0 0 1
vn 0 -0.8717958 0.4898695
vn 0 -0.8717958 0.4898695
vn 0 -0.8717958 0.4898695
vn 0 -0.8717958 0.4898695
vn 0 0 1
vn 0 0 1
vn 0 0 1
vn 0 0 1
vn -1 0 0
vn -1 0 0
vn -1 0 0
vn -1 0 0
vn -1 1.104423E-07 0
vn -1 1.104423E-07 0
vn -1 0 0
vn -1 0 0
vn -1 0 0
vn -1 0 0
vn -1 0 0
vn -1 0 0
vn -1 0 0
vn -1 0 0
vn 0 0.8717957 0.4898697
vn 0 0.8717957 0.4898697
vn 0 0.8717957 0.4898697
vn 0 0.8717957 0.4898697
vn 0 0 1
vn 0 0 1
vn 0 0 1
vn 0 0 1
vn 0 -0.8371427 -0.5469844
vn 0 -0.8371427 -0.5469844
vn 0 -0.8371427 -0.5469844
vn 0 -0.8371427 -0.5469844
vn 0 -0.8396824 -0.5430778
vn 0 -0.8396824 -0.5430778
vn 0 -0.3268991 -0.9450593
vn 0 -0.3268991 -0.9450593
vn 0 -0.3268991 -0.9450593
vn 0 -0.3268991 -0.9450593
vn 0 -0.05560349 -0.9984529
vn 0 -0.05560349 -0.9984529
vn 0 -0.05560349 -0.9984529
vn 0 -0.05560349 -0.9984529
g Infatry2_common_sword_L_0
f 3/3/3 2/2/2 1/1/1
f 6/6/6 5/5/5 4/4/4
f 9/9/9 8/8/8 7/7/7
f 12/12/12 11/11/11 10/10/10
f 15/15/15 14/14/14 13/13/13
f 16/16/16 15/15/15 13/13/13
f 15/15/15 16/16/16 17/17/17
f 18/18/18 15/15/15 17/17/17
f 21/21/21 20/20/20 19/19/19
f 22/22/22 21/21/21 19/19/19
f 25/25/25 24/24/24 23/23/23
f 26/26/26 25/25/25 23/23/23
f 29/29/29 28/28/28 27/27/27
f 30/30/30 29/29/29 27/27/27
f 33/33/33 32/32/32 31/31/31
f 34/34/34 33/33/33 31/31/31
f 37/37/37 36/36/36 35/35/35
f 36/36/36 38/38/38 35/35/35
f 38/38/38 39/39/39 35/35/35
f 39/39/39 40/40/40 35/35/35
f 43/43/43 42/42/42 41/41/41
f 42/42/42 43/43/43 44/44/44
f 47/47/47 46/46/46 45/45/45
f 48/48/48 47/47/47 45/45/45
f 51/51/51 50/50/50 49/49/49
f 52/52/52 51/51/51 49/49/49
f 55/55/55 54/54/54 53/53/53
f 56/56/56 55/55/55 53/53/53
f 59/59/59 58/58/58 57/57/57
f 60/60/60 59/59/59 57/57/57
f 63/63/63 62/62/62 61/61/61
f 64/64/64 63/63/63 61/61/61
f 67/67/67 66/66/66 65/65/65
f 68/68/68 67/67/67 65/65/65
f 71/71/71 70/70/70 69/69/69
f 72/72/72 71/71/71 69/69/69
f 75/75/75 74/74/74 73/73/73
f 76/76/76 75/75/75 73/73/73
f 79/79/79 78/78/78 77/77/77
f 80/80/80 79/79/79 77/77/77
f 83/83/83 82/82/82 81/81/81
f 84/84/84 83/83/83 81/81/81
f 87/87/87 86/86/86 85/85/85
f 88/88/88 87/87/87 85/85/85
f 91/91/91 90/90/90 89/89/89
f 92/92/92 91/91/91 89/89/89
f 95/95/95 94/94/94 93/93/93
f 96/96/96 95/95/95 93/93/93
f 99/99/99 98/98/98 97/97/97
f 100/100/100 99/99/99 97/97/97
f 103/103/103 102/102/102 101/101/101
f 104/104/104 103/103/103 101/101/101
f 107/107/107 106/106/106 105/105/105
f 108/108/108 107/107/107 105/105/105
f 109/109/109 107/107/107 108/108/108
f 110/110/110 109/109/109 108/108/108
f 113/113/113 112/112/112 111/111/111
f 112/112/112 114/114/114 111/111/111
f 111/111/111 114/114/114 115/115/115
f 116/116/116 114/114/114 112/112/112
f 117/117/117 116/116/116 112/112/112
f 114/114/114 118/118/118 115/115/115
f 118/118/118 119/119/119 115/115/115
f 119/119/119 120/120/120 115/115/115
f 119/119/119 121/121/121 120/120/120
f 121/121/121 122/122/122 120/120/120
f 119/119/119 123/123/123 121/121/121
f 123/123/123 124/124/124 121/121/121
f 127/127/127 126/126/126 125/125/125
f 128/128/128 127/127/127 125/125/125
f 131/131/131 130/130/130 129/129/129
f 132/132/132 131/131/131 129/129/129
f 135/135/135 134/134/134 133/133/133
f 136/136/136 135/135/135 133/133/133
f 135/135/135 136/136/136 137/137/137
f 138/138/138 135/135/135 137/137/137
f 141/141/141 140/140/140 139/139/139
f 142/142/142 141/141/141 139/139/139
f 145/145/145 144/144/144 143/143/143
f 146/146/146 145/145/145 143/143/143
f 149/149/149 148/148/148 147/147/147
f 148/148/148 150/150/150 147/147/147
f 147/147/147 150/150/150 151/151/151
f 150/150/150 152/152/152 151/151/151
f 153/153/153 147/147/147 151/151/151
f 154/154/154 153/153/153 151/151/151
f 153/153/153 154/154/154 155/155/155
f 156/156/156 153/153/153 155/155/155
f 157/157/157 156/156/156 155/155/155
f 158/158/158 157/157/157 155/155/155
f 157/157/157 159/159/159 156/156/156
f 159/159/159 160/160/160 156/156/156
f 163/163/163 162/162/162 161/161/161
f 164/164/164 163/163/163 161/161/161
f 167/167/167 166/166/166 165/165/165
f 168/168/168 167/167/167 165/165/165
f 171/171/171 170/170/170 169/169/169
f 172/172/172 171/171/171 169/169/169
f 172/172/172 169/169/169 173/173/173
f 174/174/174 172/172/172 173/173/173
f 177/177/177 176/176/176 175/175/175
f 178/178/178 177/177/177 175/175/175
f 181/181/181 180/180/180 179/179/179
f 182/182/182 181/181/181 179/179/179
