g Infatry2_common_sword_R
v -0.004845662 0.006878489 0.01708003
v -0.005003916 0.00634822 0.01824374
v -0.005003916 0.00731557 0.01708003
v -0.005003916 0.00731557 0.01708003
v -0.005003916 0.00634822 0.01824374
v -0.005162171 0.006878489 0.01708003
v -0.004845662 0.005817951 0.01708003
v -0.005003916 0.00538087 0.01708003
v -0.005003916 0.00634822 0.01824374
v -0.005003916 0.00538087 0.01708003
v -0.005162171 0.005817951 0.01708003
v -0.005003916 0.00634822 0.01824374
v -0.004340728 0.007011408 -0.002743227
v -0.004340728 0.005685031 -0.002743227
v -0.004340728 0.005685031 0.002954353
v -0.004340728 0.007011408 0.002954353
v -0.004340728 0.005685031 -0.002743227
v -0.005667104 0.005685031 -0.002743227
v -0.005667104 0.005685031 0.002954353
v -0.004340728 0.005685031 0.002954353
v -0.005667104 0.005685031 -0.002743227
v -0.005667103 0.007011408 -0.002743227
v -0.005667103 0.007011408 0.002954353
v -0.005667104 0.005685031 0.002954353
v -0.005667103 0.007011408 -0.002743227
v -0.004340728 0.007011408 -0.002743227
v -0.004340728 0.007011408 0.002954353
v -0.005667103 0.007011408 0.002954353
v -0.004674973 0.006019277 -0.003359356
v -0.004674973 0.006677162 -0.003359356
v -0.005332858 0.006677162 -0.003359356
v -0.005332858 0.006019277 -0.003359356
v -0.005259844 0.006019277 0.003570482
v -0.005259844 0.006677162 0.003570482
v -0.004747988 0.006677162 0.003570482
v -0.004747988 0.006019277 0.003570482
v -0.004674973 0.006019277 -0.003359356
v -0.004340728 0.005685031 -0.002743227
v -0.004340728 0.007011408 -0.002743227
v -0.004674973 0.006677162 -0.003359356
v -0.004747988 0.006677162 0.003570482
v -0.004340728 0.007011408 0.002954353
v -0.004340728 0.005685031 0.002954353
v -0.004747988 0.006019277 0.003570482
v -0.005332858 0.006019277 -0.003359356
v -0.005667104 0.005685031 -0.002743227
v -0.004340728 0.005685031 -0.002743227
v -0.004674973 0.006019277 -0.003359356
v -0.004747988 0.006019277 0.003570482
v -0.004340728 0.005685031 0.002954353
v -0.005667104 0.005685031 0.002954353
v -0.005259844 0.006019277 0.003570482
v -0.005332858 0.006677162 -0.003359356
v -0.005667103 0.007011408 -0.002743227
v -0.005667104 0.005685031 -0.002743227
v -0.005332858 0.006019277 -0.003359356
v -0.005259844 0.006019277 0.003570482
v -0.005667104 0.005685031 0.002954353
v -0.005667103 0.007011408 0.002954353
v -0.005259844 0.006677162 0.003570482
v -0.004674973 0.006677162 -0.003359356
v -0.004340728 0.007011408 -0.002743227
v -0.005667103 0.007011408 -0.002743227
v -0.005332858 0.006677162 -0.003359356
v -0.005259844 0.006677162 0.003570482
v -0.005667103 0.007011408 0.002954353
v -0.004340728 0.007011408 0.002954353
v -0.004747988 0.006677162 0.003570482
v -0.005269917 0.007704266 0.003642295
v -0.005269917 0.007982314 0.003738473
v -0.005269917 0.00818703 0.004054995
v -0.005269917 0.007684835 0.004054995
v -0.005269917 0.00634822 0.003566777
v -0.005269917 0.008125371 0.004838998
v -0.005269917 0.00869929 0.004838998
v -0.005269917 0.00634822 0.004054995
v -0.005269917 0.005011605 0.004054996
v -0.005269917 0.004992174 0.003642295
v -0.005269917 0.004509411 0.004054995
v -0.005269917 0.004714127 0.003738474
v -0.005269917 0.004571068 0.004838998
v -0.005269917 0.003997149 0.004838998
v -0.004737915 0.007704266 0.003642295
v -0.004737915 0.007982314 0.003738473
v -0.005269917 0.007982314 0.003738473
v -0.005269917 0.007704266 0.003642295
v -0.004737915 0.007684835 0.004054995
v -0.005269917 0.00634822 0.004054995
v -0.005269917 0.007684835 0.004054995
v -0.004737915 0.00634822 0.004054995
v -0.004737915 0.005011605 0.004054995
v -0.005269917 0.005011605 0.004054996
v -0.004737915 0.007704266 0.003642295
v -0.004737915 0.00818703 0.004054996
v -0.004737915 0.007982314 0.003738473
v -0.004737915 0.007684835 0.004054995
v -0.004737915 0.00869929 0.004838998
v -0.004737915 0.008125371 0.004838998
v -0.004737915 0.00634822 0.004054995
v -0.004737915 0.00634822 0.003566777
v -0.004737915 0.004992174 0.003642295
v -0.004737915 0.005011605 0.004054995
v -0.004737915 0.004509411 0.004054995
v -0.004737915 0.004714127 0.003738473
v -0.004737915 0.003997149 0.004838998
v -0.004737915 0.004571068 0.004838998
v -0.004737915 0.00818703 0.004054996
v -0.004737915 0.00869929 0.004838998
v -0.005269917 0.00869929 0.004838998
v -0.005269917 0.00818703 0.004054995
v -0.004737915 0.007982314 0.003738473
v -0.005269917 0.007982314 0.003738473
v -0.004737915 0.00634822 0.003566777
v -0.004737915 0.007704266 0.003642295
v -0.005269917 0.007704266 0.003642295
v -0.005269917 0.00634822 0.003566777
v -0.004737915 0.00869929 0.004838998
v -0.004737915 0.008125371 0.004838998
v -0.005269917 0.008125371 0.004838998
v -0.005269917 0.00869929 0.004838998
v -0.005269917 0.007684835 0.004054995
v -0.005269917 0.008125371 0.004838998
v -0.004737915 0.008125371 0.004838998
v -0.004737915 0.007684835 0.004054995
v -0.004737915 0.004992174 0.003642295
v -0.005269917 0.004992174 0.003642295
v -0.005269917 0.004714127 0.003738474
v -0.004737915 0.004714127 0.003738473
v -0.004737915 0.004509411 0.004054995
v -0.005269917 0.003997149 0.004838998
v -0.004737915 0.003997149 0.004838998
v -0.005269917 0.004509411 0.004054995
v -0.004737915 0.004714127 0.003738473
v -0.005269917 0.004714127 0.003738474
v -0.004737915 0.00634822 0.003566777
v -0.005269917 0.00634822 0.003566777
v -0.005269917 0.004992174 0.003642295
v -0.004737915 0.004992174 0.003642295
v -0.004737915 0.003997149 0.004838998
v -0.005269917 0.003997149 0.004838998
v -0.005269917 0.004571068 0.004838998
v -0.004737915 0.004571068 0.004838998
v -0.005269917 0.005011605 0.004054996
v -0.004737915 0.005011605 0.004054995
v -0.004737915 0.004571068 0.004838998
v -0.005269917 0.004571068 0.004838998
v -0.0052874 0.007198393 0.004049707
v -0.005003916 0.007611948 0.004049707
v -0.005003916 0.00731557 0.01708003
v -0.005162171 0.006878489 0.01708003
v -0.005003916 0.007611948 0.004049707
v -0.004720432 0.007198393 0.004049707
v -0.004845662 0.006878489 0.01708003
v -0.005003916 0.00731557 0.01708003
v -0.004720432 0.007198393 0.004049707
v -0.004845662 0.00634822 0.01708003
v -0.004845662 0.006878489 0.01708003
v -0.004720432 0.00634822 0.004049707
v -0.004720432 0.005498047 0.004049707
v -0.004845662 0.005817951 0.01708003
v -0.004845662 0.00634822 0.01708003
v -0.005003916 0.00634822 0.01824374
v -0.004845662 0.006878489 0.01708003
v -0.004845662 0.005817951 0.01708003
v -0.005162171 0.006878489 0.01708003
v -0.005003916 0.00634822 0.01824374
v -0.005162171 0.00634822 0.01708003
v -0.005162171 0.005817951 0.01708003
v -0.005162171 0.00634822 0.01708003
v -0.0052874 0.007198393 0.004049707
v -0.005162171 0.006878489 0.01708003
v -0.0052874 0.00634822 0.004049707
v -0.0052874 0.005498047 0.004049707
v -0.005162171 0.005817951 0.01708003
v -0.0052874 0.005498047 0.004049707
v -0.005162171 0.005817951 0.01708003
v -0.005003916 0.00538087 0.01708003
v -0.005003916 0.005084492 0.004049707
v -0.005003916 0.005084492 0.004049707
v -0.005003916 0.00538087 0.01708003
v -0.004845662 0.005817951 0.01708003
v -0.004720432 0.005498047 0.004049707
vt 0.1554102 0.781679
vt 0.1492355 0.7952297
vt 0.1604998 0.781679
vt 0.1604998 0.781679
vt 0.1492355 0.7952297
vt 0.1554102 0.781679
vt 0.1430609 0.781679
vt 0.1379713 0.781679
vt 0.1492355 0.7952297
vt 0.1379713 0.781679
vt 0.1430609 0.781679
vt 0.1492355 0.7952297
vt 0.0622181 0.8483592
vt 0.04431182 0.8483592
vt 0.04431182 0.9494694
vt 0.0622181 0.9494694
vt 0.04431182 0.8483592
vt 0.04431182 0.8483592
vt 0.04431182 0.9494694
vt 0.04431182 0.9494694
vt 0.04431182 0.8483592
vt 0.0622181 0.8483592
vt 0.0622181 0.9494694
vt 0.04431182 0.9494694
vt 0.0622181 0.8483592
vt 0.0622181 0.8483592
vt 0.0622181 0.9494694
vt 0.0622181 0.9494694
vt 0.04882422 0.8374252
vt 0.05770573 0.8374252
vt 0.05770573 0.8374252
vt 0.04882422 0.8374252
vt 0.04882422 0.9604033
vt 0.05770573 0.9604033
vt 0.05770573 0.9604033
vt 0.04882422 0.9604033
vt 0.04882422 0.8374252
vt 0.04431182 0.8483592
vt 0.0622181 0.8483592
vt 0.05770573 0.8374252
vt 0.05770573 0.9604033
vt 0.0622181 0.9494694
vt 0.04431182 0.9494694
vt 0.04882422 0.9604033
vt 0.04882422 0.8374252
vt 0.04431182 0.8483592
vt 0.04431182 0.8483592
vt 0.04882422 0.8374252
vt 0.04882422 0.9604033
vt 0.04431182 0.9494694
vt 0.04431182 0.9494694
vt 0.04882422 0.9604033
vt 0.05770573 0.8374252
vt 0.0622181 0.8483592
vt 0.04431182 0.8483592
vt 0.04882422 0.8374252
vt 0.04882422 0.9604033
vt 0.04431182 0.9494694
vt 0.0622181 0.9494694
vt 0.05770573 0.9604033
vt 0.05770573 0.8374252
vt 0.0622181 0.8483592
vt 0.0622181 0.8483592
vt 0.05770573 0.8374252
vt 0.05770573 0.9604033
vt 0.0622181 0.9494694
vt 0.0622181 0.9494694
vt 0.05770573 0.9604033
vt 0.07157183 0.4839937
vt 0.07532549 0.4852922
vt 0.07808918 0.4895652
vt 0.07130951 0.4895652
vt 0.05326504 0.4829743
vt 0.07725686 0.5001495
vt 0.08500487 0.5001495
vt 0.05326504 0.4895652
vt 0.0352205 0.4895652
vt 0.03495818 0.4839937
vt 0.02844077 0.4895652
vt 0.03120446 0.4852922
vt 0.02927315 0.5001495
vt 0.02152514 0.5001495
vt 0.07157183 0.4839937
vt 0.07532549 0.4852922
vt 0.07532549 0.4852922
vt 0.07157183 0.4839937
vt 0.07130951 0.4895652
vt 0.05326504 0.4895652
vt 0.07130951 0.4895652
vt 0.05326504 0.4895652
vt 0.0352205 0.4895652
vt 0.0352205 0.4895652
vt 0.07157183 0.4839937
vt 0.07808918 0.4895652
vt 0.07532549 0.4852922
vt 0.07130951 0.4895652
vt 0.08500487 0.5001495
vt 0.07725686 0.5001495
vt 0.05326504 0.4895652
vt 0.05326504 0.4829743
vt 0.03495818 0.4839937
vt 0.0352205 0.4895652
vt 0.02844077 0.4895652
vt 0.03120446 0.4852922
vt 0.02152514 0.5001495
vt 0.02927315 0.5001495
vt 0.07808918 0.4895652
vt 0.08500487 0.5001495
vt 0.08500487 0.5001495
vt 0.07808918 0.4895652
vt 0.07532549 0.4852922
vt 0.07532549 0.4852922
vt 0.05326504 0.4829743
vt 0.07157183 0.4839937
vt 0.07157183 0.4839937
vt 0.05326504 0.4829743
vt 0.08500487 0.5001495
vt 0.07725686 0.5001495
vt 0.07725686 0.5001495
vt 0.08500487 0.5001495
vt 0.07130951 0.4895652
vt 0.07725686 0.5001495
vt 0.07725686 0.5001495
vt 0.07130951 0.4895652
vt 0.03495818 0.4839937
vt 0.03495818 0.4839937
vt 0.03120446 0.4852922
vt 0.03120446 0.4852922
vt 0.02844077 0.4895652
vt 0.02152514 0.5001495
vt 0.02152514 0.5001495
vt 0.02844077 0.4895652
vt 0.03120446 0.4852922
vt 0.03120446 0.4852922
vt 0.05326504 0.4829743
vt 0.05326504 0.4829743
vt 0.03495818 0.4839937
vt 0.03495818 0.4839937
vt 0.02152514 0.5001495
vt 0.02152514 0.5001495
vt 0.02927315 0.5001495
vt 0.02927315 0.5001495
vt 0.0352205 0.4895652
vt 0.0352205 0.4895652
vt 0.02927315 0.5001495
vt 0.02927315 0.5001495
vt 0.1591352 0.6066437
vt 0.1639509 0.6066437
vt 0.1604998 0.781679
vt 0.1554102 0.781679
vt 0.1639509 0.6066437
vt 0.1591352 0.6066437
vt 0.1554102 0.781679
vt 0.1604998 0.781679
vt 0.1591352 0.6066437
vt 0.1492355 0.781679
vt 0.1554102 0.781679
vt 0.1492355 0.6066437
vt 0.1393358 0.6066437
vt 0.1430609 0.781679
vt 0.1492355 0.781679
vt 0.1492355 0.7952297
vt 0.1554102 0.781679
vt 0.1430609 0.781679
vt 0.1554102 0.781679
vt 0.1492355 0.7952297
vt 0.1492355 0.781679
vt 0.1430609 0.781679
vt 0.1492355 0.781679
vt 0.1591352 0.6066437
vt 0.1554102 0.781679
vt 0.1492355 0.6066437
vt 0.1393358 0.6066437
vt 0.1430609 0.781679
vt 0.1393358 0.6066437
vt 0.1430609 0.781679
vt 0.1379713 0.781679
vt 0.1345202 0.6066437
vt 0.1345202 0.6066437
vt 0.1379713 0.781679
vt 0.1430609 0.781679
vt 0.1393358 0.6066437
vn 0.9047338 0.327578 0.2723037
vn 0.9047338 0.327578 0.2723037
vn 0.9047338 0.327578 0.2723037
vn -0.9047344 0.3275761 0.2723039
vn -0.9047344 0.3275761 0.2723039
vn -0.9047344 0.3275761 0.2723039
vn 0.9047341 -0.3275772 0.2723038
vn 0.9047341 -0.3275772 0.2723038
vn 0.9047341 -0.3275772 0.2723038
vn -0.9047344 -0.3275761 0.2723039
vn -0.9047344 -0.3275761 0.2723039
vn -0.9047344 -0.3275761 0.2723039
vn 1 0 0
vn 1 0 0
vn 1 0 0
vn 1 0 0
vn 0 -1 0
vn 0 -1 0
vn 0 -1 0
vn 0 -1 0
vn -1 0 0
vn -1 0 0
vn -1 0 0
vn -1 0 0
vn 0 1 0
vn 0 1 0
vn 0 1 0
vn 0 1 0
vn 0 0 -1
vn 0 0 -1
vn 0 0 -1
vn 0 0 -1
vn 0 0 1
vn 0 0 1
vn 0 0 1
vn 0 0 1
vn 0.8789881 0 -0.4768436
vn 0.8789881 0 -0.4768436
vn 0.8789881 0 -0.4768436
vn 0.8789881 0 -0.4768436
vn 0.834227 0 0.5514212
vn 0.834227 0 0.5514212
vn 0.834227 0 0.5514212
vn 0.834227 0 0.5514212
vn 0 -0.8789874 -0.476845
vn 0 -0.8789874 -0.476845
vn 0 -0.8789874 -0.476845
vn 0 -0.8789874 -0.476845
vn 0 -0.8789874 0.476845
vn 0 -0.8789874 0.476845
vn 0 -0.8789874 0.476845
vn 0 -0.8789874 0.476845
vn -0.878988 0 -0.4768438
vn -0.878988 0 -0.4768438
vn -0.878988 0 -0.4768438
vn -0.878988 0 -0.4768438
vn -0.8342268 0 0.5514214
vn -0.8342268 0 0.5514214
vn -0.8342268 0 0.5514214
vn -0.8342268 0 0.5514214
vn 0 0.8789874 -0.476845
vn 0 0.8789874 -0.476845
vn 0 0.8789874 -0.476845
vn 0 0.8789874 -0.476845
vn 0 0.8789874 0.476845
vn 0 0.8789874 0.476845
vn 0 0.8789874 0.476845
vn 0 0.8789874 0.476845
vn -1 0 0
vn -1 0 0
vn -1 0 0
vn -1 0 0
vn -1 0 0
vn -1 0 0
vn -1 0 0
vn -1 0 0
vn -1 0 0
vn -1 0 0
vn -1 0 0
vn -1 0 0
vn -1 0 0
vn -1 0 0
vn 0 0.3269001 -0.9450589
vn 0 0.3269001 -0.9450589
vn 0 0.3269001 -0.9450589
vn 0 0.3269001 -0.9450589
vn 0 0 1
vn 0 0 1
vn 0 0 1
vn 0 0 1
vn 0 2.681984E-07 1
vn 0 2.681984E-07 1
vn 1 0 0
vn 1 0 0
vn 1 0 0
vn 1 0 0
vn 1 0 0
vn 1 0 0
vn 1 0 0
vn 1 0 0
vn 1 0 0
vn 1 0 0
vn 1 0 0
vn 1 0 0
vn 1 0 0
vn 1 0 0
vn 0 0.8371432 -0.5469837
vn 0 0.8371432 -0.5469837
vn 0 0.8371432 -0.5469837
vn 0 0.8371432 -0.5469837
vn 0 0.8396824 -0.5430778
vn 0 0.8396824 -0.5430778
vn 0 0.05560344 -0.9984529
vn 0 0.05560344 -0.9984529
vn 0 0.05560344 -0.9984529
vn 0 0.05560344 -0.9984529
vn 0 0 1
vn 0 0 1
vn 0 0 1
vn 0 0 1
vn 0 -0.871796 0.4898689
vn 0 -0.871796 0.4898689
vn 0 -0.871796 0.4898689
vn 0 -0.871796 0.4898689
vn 0 -0.3269001 -0.9450589
vn 0 -0.3269001 -0.9450589
vn 0 -0.3269001 -0.9450589
vn 0 -0.3269001 -0.9450589
vn 0 -0.8371431 -0.5469838
vn 0 -0.8371431 -0.5469838
vn 0 -0.8371431 -0.5469838
vn 0 -0.8371431 -0.5469838
vn 0 -0.8396822 -0.5430781
vn 0 -0.8396822 -0.5430781
vn 0 -0.05560368 -0.9984529
vn 0 -0.05560368 -0.9984529
vn 0 -0.05560368 -0.9984529
vn 0 -0.05560368 -0.9984529
vn 0 0 1
vn 0 0 1
vn 0 0 1
vn 0 0 1
vn 0 0.871796 0.4898691
vn 0 0.871796 0.4898691
vn 0 0.871796 0.4898691
vn 0 0.871796 0.4898691
vn -0.8873675 0.4608135 0.01516139
vn -0.8873675 0.4608135 0.01516139
vn -0.8873675 0.4608135 0.01516139
vn -0.8873675 0.4608135 0.01516139
vn 0.8873675 0.4608136 0.01516139
vn 0.8873675 0.4608136 0.01516139
vn 0.8873675 0.4608136 0.01516139
vn 0.8873675 0.4608136 0.01516139
vn 0.9999539 0 0.009610198
vn 0.9999539 0 0.009610198
vn 0.9999539 0 0.009610198
vn 0.9999539 0 0.009610198
vn 0.9999539 0 0.009610183
vn 0.9999539 0 0.009610183
vn 0.9908794 -1.460436E-06 0.1347516
vn 0.9908794 -1.460436E-06 0.1347516
vn 0.9908794 -1.460436E-06 0.1347516
vn 0.9908794 0 0.1347512
vn -0.9908794 0 0.1347516
vn -0.9908794 0 0.1347516
vn -0.9908794 0 0.1347516
vn -0.9908794 1.460432E-06 0.1347512
vn -0.9999539 0 0.009610196
vn -0.9999539 0 0.009610196
vn -0.9999539 0 0.009610196
vn -0.9999539 0 0.009610196
vn -0.9999539 0 0.009610179
vn -0.9999539 0 0.009610179
vn -0.8873675 -0.4608136 0.01516139
vn -0.8873675 -0.4608136 0.01516139
vn -0.8873675 -0.4608136 0.01516139
vn -0.8873675 -0.4608136 0.01516139
vn 0.8873675 -0.4608136 0.01516139
vn 0.8873675 -0.4608136 0.01516139
vn 0.8873675 -0.4608136 0.01516139
vn 0.8873675 -0.4608136 0.01516139
g Infatry2_common_sword_R_0
f 3/3/3 2/2/2 1/1/1
f 6/6/6 5/5/5 4/4/4
f 9/9/9 8/8/8 7/7/7
f 12/12/12 11/11/11 10/10/10
f 15/15/15 14/14/14 13/13/13
f 16/16/16 15/15/15 13/13/13
f 19/19/19 18/18/18 17/17/17
f 20/20/20 19/19/19 17/17/17
f 23/23/23 22/22/22 21/21/21
f 24/24/24 23/23/23 21/21/21
f 27/27/27 26/26/26 25/25/25
f 28/28/28 27/27/27 25/25/25
f 31/31/31 30/30/30 29/29/29
f 32/32/32 31/31/31 29/29/29
f 35/35/35 34/34/34 33/33/33
f 36/36/36 35/35/35 33/33/33
f 39/39/39 38/38/38 37/37/37
f 40/40/40 39/39/39 37/37/37
f 43/43/43 42/42/42 41/41/41
f 44/44/44 43/43/43 41/41/41
f 47/47/47 46/46/46 45/45/45
f 48/48/48 47/47/47 45/45/45
f 51/51/51 50/50/50 49/49/49
f 52/52/52 51/51/51 49/49/49
f 55/55/55 54/54/54 53/53/53
f 56/56/56 55/55/55 53/53/53
f 59/59/59 58/58/58 57/57/57
f 60/60/60 59/59/59 57/57/57
f 63/63/63 62/62/62 61/61/61
f 64/64/64 63/63/63 61/61/61
f 67/67/67 66/66/66 65/65/65
f 68/68/68 67/67/67 65/65/65
f 71/71/71 70/70/70 69/69/69
f 72/72/72 71/71/71 69/69/69
f 72/72/72 69/69/69 73/73/73
f 72/72/72 74/74/74 71/71/71
f 74/74/74 75/75/75 71/71/71
f 76/76/76 72/72/72 73/73/73
f 77/77/77 76/76/76 73/73/73
f 78/78/78 77/77/77 73/73/73
f 79/79/79 77/77/77 78/78/78
f 80/80/80 79/79/79 78/78/78
f 81/81/81 77/77/77 79/79/79
f 82/82/82 81/81/81 79/79/79
f 85/85/85 84/84/84 83/83/83
f 86/86/86 85/85/85 83/83/83
f 89/89/89 88/88/88 87/87/87
f 88/88/88 90/90/90 87/87/87
f 90/90/90 88/88/88 91/91/91
f 88/88/88 92/92/92 91/91/91
f 95/95/95 94/94/94 93/93/93
f 94/94/94 96/96/96 93/93/93
f 94/94/94 97/97/97 96/96/96
f 97/97/97 98/98/98 96/96/96
f 96/96/96 99/99/99 93/93/93
f 99/99/99 100/100/100 93/93/93
f 100/100/100 99/99/99 101/101/101
f 99/99/99 102/102/102 101/101/101
f 102/102/102 103/103/103 101/101/101
f 103/103/103 104/104/104 101/101/101
f 105/105/105 103/103/103 102/102/102
f 106/106/106 105/105/105 102/102/102
f 109/109/109 108/108/108 107/107/107
f 110/110/110 109/109/109 107/107/107
f 110/110/110 107/107/107 111/111/111
f 112/112/112 110/110/110 111/111/111
f 115/115/115 114/114/114 113/113/113
f 116/116/116 115/115/115 113/113/113
f 119/119/119 118/118/118 117/117/117
f 120/120/120 119/119/119 117/117/117
f 123/123/123 122/122/122 121/121/121
f 124/124/124 123/123/123 121/121/121
f 127/127/127 126/126/126 125/125/125
f 128/128/128 127/127/127 125/125/125
f 131/131/131 130/130/130 129/129/129
f 130/130/130 132/132/132 129/129/129
f 129/129/129 132/132/132 133/133/133
f 132/132/132 134/134/134 133/133/133
f 137/137/137 136/136/136 135/135/135
f 138/138/138 137/137/137 135/135/135
f 141/141/141 140/140/140 139/139/139
f 142/142/142 141/141/141 139/139/139
f 145/145/145 144/144/144 143/143/143
f 146/146/146 145/145/145 143/143/143
f 149/149/149 148/148/148 147/147/147
f 150/150/150 149/149/149 147/147/147
f 153/153/153 152/152/152 151/151/151
f 154/154/154 153/153/153 151/151/151
f 157/157/157 156/156/156 155/155/155
f 156/156/156 158/158/158 155/155/155
f 158/158/158 156/156/156 159/159/159
f 156/156/156 160/160/160 159/159/159
f 163/163/163 162/162/162 161/161/161
f 162/162/162 164/164/164 161/161/161
f 167/167/167 166/166/166 165/165/165
f 166/166/166 167/167/167 168/168/168
f 171/171/171 170/170/170 169/169/169
f 170/170/170 172/172/172 169/169/169
f 172/172/172 173/173/173 169/169/169
f 173/173/173 174/174/174 169/169/169
f 177/177/177 176/176/176 175/175/175
f 178/178/178 177/177/177 175/175/175
f 181/181/181 180/180/180 179/179/179
f 182/182/182 181/181/181 179/179/179
