g obstacles_rock3
v 0.6911169 3.180853 -1.148517
v 0.8292472 -0.0636549 -1.874425
v 1.018764 -0.067312 -1.833903
v 0.5937626 3.136617 -1.190213
v 0.5327265 3.200683 -1.075575
v 0.6357433 3.235241 -1.065216
v -0.05015579 2.88916 -1.199846
v -0.01385379 2.874021 -1.292958
v -1.100677 -0.03045082 -1.830165
v -1.285138 -0.02348018 -1.744011
v -0.1193821 2.738086 -1.285602
v -0.1357695 2.819024 -1.2069
v -0.1193821 2.738086 -1.285602
v -1.351125 -0.01700997 -1.551536
v -1.285138 -0.02348018 -1.744011
v -0.1736246 2.690819 -1.172546
v -0.1703758 2.806264 -1.100965
v -0.1357695 2.819024 -1.2069
v -0.6961348 2.716073 -0.5857575
v -0.7016443 2.607961 -0.6583173
v -1.298099 0 -0.8033636
v 0.07798553 2.153677 0.3207622
v 0.0714196 2.04103 0.2637534
v 0.3183067 1.870963 0.8144181
v -1.456532 0.07065415 0.8910501
v 0.3013127 1.754745 0.8385403
v -0.9479174 0.0476675 1.65904
v 0.3013127 1.754745 0.8385403
v -0.8071779 0.04099154 1.790611
v -0.9479174 0.0476675 1.65904
v 0.3803864 1.789465 0.9630516
v 0.3183067 1.870963 0.8144181
v 0.3825743 1.865269 0.9196603
v 0.3803864 1.789465 0.9630516
v -0.6227161 0.03177905 1.843852
v -0.8071779 0.04099154 1.790611
v 0.4808469 1.837096 0.9879596
v 0.4756204 1.928943 0.9330659
v 0.3825743 1.865269 0.9196603
v 0.7934766 2.099568 1.006441
v 0.7982982 1.987859 1.054308
v 0.7700096 -0.003027916 1.874425
v 0.9581285 -0.01366162 1.837909
v 0.9158803 2.078337 1.08583
v 0.8872105 2.137128 1.035581
v 0.5547979 3.234431 -0.934612
v -0.6006873 2.808358 -0.5381426
v -0.07633519 2.902676 -1.055989
v 0.8671412 3.317324 -0.4488709
v 0.9244985 2.824984 0.4596386
v 0.1783358 2.25907 0.3303161
v 0.8257857 2.18773 0.9167523
v 0.4163773 1.97018 0.8298626
v 0.6861687 3.267022 -0.9691305
v 0.5327265 3.200683 -1.075575
v 0.6357433 3.235241 -1.065216
v 0.5547979 3.234431 -0.934612
v 1.002341 3.352048 -0.4972376
v 0.8671412 3.317324 -0.4488709
v 1.049797 2.841284 0.4893318
v 0.9244985 2.824984 0.4596386
v -0.07633519 2.902676 -1.055989
v 0.9500149 2.204877 0.930371
v -0.05015579 2.88916 -1.199846
v 0.8257857 2.18773 0.9167523
v -0.1703758 2.806264 -1.100965
v -0.1357695 2.819024 -1.2069
v -0.6006873 2.808358 -0.5381426
v -0.6961348 2.716073 -0.5857575
v 0.1783358 2.25907 0.3303161
v 0.07798553 2.153677 0.3207622
v 0.4163773 1.97018 0.8298626
v 0.3183067 1.870963 0.8144181
v 0.4756204 1.928943 0.9330659
v 0.3825743 1.865269 0.9196603
v 0.7934766 2.099568 1.006441
v 0.8872105 2.137128 1.035581
v 1.002341 3.352048 -0.4972376
v 0.6861687 3.267022 -0.9691305
v 0.7903264 3.21128 -1.025697
v 1.111498 3.306395 -0.4895687
v 1.13914 -0.06109428 -1.640416
v 1.049797 2.841284 0.4893318
v 1.153276 -0.07747579 -0.8191996
v 1.16939 2.811419 0.5840921
v 0.9500149 2.204877 0.930371
v 1.483898 -0.04549289 0.8901358
v 1.0131 2.142622 1.028467
v 1.135644 -0.03049779 1.623439
v 0.6911169 3.180853 -1.148517
v 1.018764 -0.067312 -1.833903
v 1.13914 -0.06109428 -1.640416
v 0.7903264 3.21128 -1.025697
v 0.6357433 3.235241 -1.065216
v 0.6861687 3.267022 -0.9691305
v 0.9581285 -0.01366162 1.837909
v 1.0131 2.142622 1.028467
v 1.135644 -0.03049779 1.623439
v 0.9158803 2.078337 1.08583
v 0.8872105 2.137128 1.035581
v 0.9500149 2.204877 0.930371
vt 0.09180541 0.7981945
vt 0.003910216 0.7944429
vt 0.003919115 0.7975496
vt 0.09177313 0.7942644
vt 0.09211843 0.7959607
vt 0.09248763 0.797606
vt 0.09204597 0.7801923
vt 0.09171029 0.7787564
vt 0.003859187 0.7766275
vt 0.003847932 0.7726957
vt 0.09171246 0.7781163
vt 0.0923983 0.7746069
vt 0.09171246 0.7781163
vt 0.003859503 0.7768736
vt 0.003847932 0.7726957
vt 0.09171534 0.7786614
vt 0.09208117 0.7794396
vt 0.0923983 0.7746069
vt 0.09248935 0.7907734
vt 0.0918163 0.7906499
vt 0.003891731 0.7884997
vt 0.09237627 0.8124288
vt 0.09170695 0.812325
vt 0.09206649 0.8311722
vt 0.004034473 0.8105567
vt 0.091714 0.8306805
vt 0.003993208 0.8294269
vt 0.09416761 0.6300437
vt 0.008176873 0.6233796
vt 0.008568898 0.630466
vt 0.09383325 0.6233874
vt 0.09771432 0.6326444
vt 0.09683061 0.6261212
vt 0.09174032 0.8344742
vt 0.003975468 0.8370461
vt 0.003983753 0.8337389
vt 0.09170651 0.8384112
vt 0.09207342 0.8368014
vt 0.09243127 0.8351712
vt 0.09206165 0.8454686
vt 0.0917164 0.8466384
vt 0.003948314 0.8478695
vt 0.003940007 0.8511785
vt 0.09173908 0.8484191
vt 0.09237012 0.8500358
vt 0.03187952 0.3921633
vt 0.008271072 0.4138979
vt 0.006284956 0.3924003
vt 0.04665804 0.4102324
vt 0.04743338 0.4541028
vt 0.005934808 0.4580501
vt 0.03693256 0.4752744
vt 0.02023432 0.4752744
vt 0.009143054 0.189803
vt 0.007760854 0.1916268
vt 0.007981229 0.1905402
vt 0.009348982 0.191062
vt 0.01656897 0.1859508
vt 0.01698826 0.1872344
vt 0.03634507 0.1868076
vt 0.03537154 0.1880216
vt 0.009295636 0.1984158
vt 0.04484797 0.1903362
vt 0.007626531 0.1984621
vt 0.0441296 0.1915225
vt 0.009734063 0.1997905
vt 0.008202686 0.1995749
vt 0.01833952 0.1983411
vt 0.01865673 0.1997103
vt 0.03673537 0.200026
vt 0.03780485 0.2014511
vt 0.04401853 0.1963165
vt 0.04490773 0.1976985
vt 0.04628958 0.1958639
vt 0.04637621 0.1970124
vt 0.04642377 0.1921231
vt 0.04644175 0.1910669
vt 0.08903971 0.7920395
vt 0.08906331 0.8298597
vt 0.08551703 0.8297562
vt 0.08549339 0.7919359
vt 0.005794385 0.8274281
vt 0.08943205 0.6914843
vt 0.005770778 0.7896079
vt 0.08588577 0.6913807
vt 0.08904816 0.649186
vt 0.006163059 0.6890528
vt 0.08550183 0.6490824
vt 0.005779212 0.6467544
vt 0.09476328 0.6313219
vt 0.007610619 0.633178
vt 0.007677436 0.6185942
vt 0.09442478 0.6218523
vt 0.09780812 0.6285682
vt 0.09828365 0.6219985
vt 0.008087057 0.6200559
vt 0.09437586 0.6335342
vt 0.007622071 0.6317264
vt 0.09450594 0.6244892
vt 0.09760197 0.6269248
vt 0.09823492 0.6336144
vn 0.6328053 0.2339441 -0.7381243
vn 0.03364981 0.1993254 -0.9793554
vn 0.5765662 0.2206748 -0.7866855
vn 0.03744716 0.2179238 -0.975247
vn -0.3770578 0.8790225 -0.2917991
vn -0.06335441 0.9189083 -0.3893504
vn -0.4300162 0.8492051 -0.3064908
vn -0.007597551 0.2090773 -0.9778696
vn -0.04919493 0.2132281 -0.9757631
vn -0.7293411 0.4002638 -0.5548427
vn -0.6147978 0.373772 -0.6944913
vn -0.7786688 0.5222721 -0.3477164
vn -0.6147978 0.373772 -0.6944913
vn -0.8845798 0.3481197 -0.3103728
vn -0.7293411 0.4002638 -0.5548427
vn -0.8781631 0.3552496 -0.3203548
vn -0.6326232 0.5977363 -0.4924422
vn -0.7786688 0.5222721 -0.3477164
vn -0.9073136 0.2723226 0.3203474
vn -0.9207389 0.389189 0.02778159
vn -0.9110893 0.4083097 0.05656369
vn -0.7538288 0.1489546 0.6399646
vn -0.8080699 0.4713271 0.3533749
vn -0.7981598 0.2964497 0.5244602
vn -0.7738034 0.518643 0.3636448
vn -0.6104686 0.6334643 0.4754482
vn -0.6020619 0.6424634 0.4740909
vn -0.6104686 0.6334643 0.4754482
vn -0.5091928 0.6309257 0.5853679
vn -0.6020619 0.6424634 0.4740909
vn -0.4487613 0.6069386 0.6559259
vn -0.7981598 0.2964497 0.5244602
vn -0.6587959 0.4641919 0.5920422
vn -0.4487613 0.6069386 0.6559259
vn -0.1277722 0.4554778 0.8810303
vn -0.5091928 0.6309257 0.5853679
vn -0.09678079 0.4308733 0.8972077
vn -0.4674729 0.5792647 0.6677735
vn -0.6587959 0.4641919 0.5920422
vn -0.4495329 0.6043808 0.6577567
vn -0.08906469 0.4072932 0.9089443
vn -0.07959818 0.4123291 0.907551
vn 0.3324439 0.327088 0.8845872
vn 0.4654622 0.3090197 0.8293683
vn -0.2480841 0.7046662 0.6647554
vn -0.3624641 0.929301 -0.07084709
vn -0.4665214 0.7637879 0.4460783
vn -0.3927835 0.9136636 -0.1045936
vn -0.3780018 0.8049452 0.4573598
vn -0.388203 0.6934805 0.6069458
vn -0.4429455 0.6500199 0.6174734
vn -0.4722789 0.595462 0.649906
vn -0.52613 0.579601 0.622294
vn -0.005814991 0.9821457 -0.1880316
vn -0.3770578 0.8790225 -0.2917991
vn -0.06335441 0.9189083 -0.3893504
vn -0.3624641 0.929301 -0.07084709
vn 0.03190884 0.9829022 0.1813424
vn -0.3780018 0.8049452 0.4573598
vn -0.1080566 0.8128418 0.5723739
vn -0.388203 0.6934805 0.6069458
vn -0.3927835 0.9136636 -0.1045936
vn -0.3409 0.5925975 0.7298051
vn -0.4300162 0.8492051 -0.3064908
vn -0.4722789 0.595462 0.649906
vn -0.6326232 0.5977363 -0.4924422
vn -0.7786688 0.5222721 -0.3477164
vn -0.4665214 0.7637879 0.4460783
vn -0.9073136 0.2723226 0.3203474
vn -0.4429455 0.6500199 0.6174734
vn -0.7538288 0.1489546 0.6399646
vn -0.52613 0.579601 0.622294
vn -0.7981598 0.2964497 0.5244602
vn -0.4674729 0.5792647 0.6677735
vn -0.6587959 0.4641919 0.5920422
vn -0.4495329 0.6043808 0.6577567
vn -0.2480841 0.7046662 0.6647554
vn 0.03190884 0.9829022 0.1813424
vn -0.005814991 0.9821457 -0.1880316
vn 0.9427227 0.1310384 -0.3067617
vn 0.9816804 0.1015907 -0.1611924
vn 0.936285 0.1191318 -0.3304209
vn -0.1080566 0.8128418 0.5723739
vn 0.9826038 0.06992897 -0.1720453
vn 0.9942287 0.08700784 -0.06276023
vn -0.3409 0.5925975 0.7298051
vn 0.9954529 0.08837629 0.0355413
vn 0.8476002 0.1798815 0.4992161
vn 0.8282546 0.1832895 0.5295272
vn 0.6328053 0.2339441 -0.7381243
vn 0.5765662 0.2206748 -0.7866855
vn 0.936285 0.1191318 -0.3304209
vn 0.9427227 0.1310384 -0.3067617
vn -0.06335441 0.9189083 -0.3893504
vn -0.005814991 0.9821457 -0.1880316
vn 0.3324439 0.327088 0.8845872
vn 0.8476002 0.1798815 0.4992161
vn 0.8282546 0.1832895 0.5295272
vn 0.4654622 0.3090197 0.8293683
vn -0.2480841 0.7046662 0.6647554
vn -0.3409 0.5925975 0.7298051
g obstacles_rock3_0
f 3/3/3 2/2/2 1/1/1
f 2/2/2 4/4/4 1/1/1
f 1/1/1 4/4/4 5/5/5
f 6/6/6 1/1/1 5/5/5
f 7/7/7 5/5/5 4/4/4
f 4/4/4 2/2/2 8/8/8
f 8/8/8 7/7/7 4/4/4
f 2/2/2 9/9/9 8/8/8
f 9/9/9 10/10/10 8/8/8
f 10/10/10 11/11/11 8/8/8
f 7/7/7 8/8/8 11/11/11
f 12/12/12 7/7/7 11/11/11
f 15/15/15 14/14/14 13/13/13
f 14/14/14 16/16/16 13/13/13
f 13/13/13 16/16/16 17/17/17
f 18/18/18 13/13/13 17/17/17
f 17/17/17 16/16/16 19/19/19
f 20/20/20 16/16/16 14/14/14
f 16/16/16 20/20/20 19/19/19
f 21/21/21 20/20/20 14/14/14
f 22/22/22 19/19/19 20/20/20
f 20/20/20 21/21/21 23/23/23
f 23/23/23 22/22/22 20/20/20
f 24/24/24 22/22/22 23/23/23
f 21/21/21 25/25/25 23/23/23
f 26/26/26 24/24/24 23/23/23
f 26/26/26 23/23/23 25/25/25
f 27/27/27 26/26/26 25/25/25
f 30/30/30 29/29/29 28/28/28
f 29/29/29 31/31/31 28/28/28
f 32/32/32 28/28/28 31/31/31
f 33/33/33 32/32/32 31/31/31
f 36/36/36 35/35/35 34/34/34
f 35/35/35 37/37/37 34/34/34
f 34/34/34 37/37/37 38/38/38
f 39/39/39 34/34/34 38/38/38
f 40/40/40 38/38/38 37/37/37
f 41/41/41 37/37/37 35/35/35
f 41/41/41 40/40/40 37/37/37
f 42/42/42 41/41/41 35/35/35
f 42/42/42 43/43/43 41/41/41
f 43/43/43 44/44/44 41/41/41
f 40/40/40 41/41/41 44/44/44
f 45/45/45 40/40/40 44/44/44
f 48/48/48 47/47/47 46/46/46
f 47/47/47 49/49/49 46/46/46
f 50/50/50 49/49/49 47/47/47
f 51/51/51 50/50/50 47/47/47
f 50/50/50 51/51/51 52/52/52
f 51/51/51 53/53/53 52/52/52
f 56/56/56 55/55/55 54/54/54
f 55/55/55 57/57/57 54/54/54
f 58/58/58 54/54/54 57/57/57
f 59/59/59 58/58/58 57/57/57
f 60/60/60 58/58/58 59/59/59
f 61/61/61 60/60/60 59/59/59
f 62/62/62 57/57/57 55/55/55
f 63/63/63 60/60/60 61/61/61
f 64/64/64 62/62/62 55/55/55
f 65/65/65 63/63/63 61/61/61
f 66/66/66 62/62/62 64/64/64
f 67/67/67 66/66/66 64/64/64
f 62/62/62 66/66/66 68/68/68
f 66/66/66 69/69/69 68/68/68
f 70/70/70 68/68/68 69/69/69
f 71/71/71 70/70/70 69/69/69
f 72/72/72 70/70/70 71/71/71
f 73/73/73 72/72/72 71/71/71
f 74/74/74 72/72/72 73/73/73
f 65/65/65 72/72/72 74/74/74
f 75/75/75 74/74/74 73/73/73
f 76/76/76 65/65/65 74/74/74
f 63/63/63 65/65/65 76/76/76
f 77/77/77 63/63/63 76/76/76
f 80/80/80 79/79/79 78/78/78
f 81/81/81 80/80/80 78/78/78
f 82/82/82 80/80/80 81/81/81
f 81/81/81 78/78/78 83/83/83
f 84/84/84 82/82/82 81/81/81
f 85/85/85 81/81/81 83/83/83
f 84/84/84 81/81/81 85/85/85
f 85/85/85 83/83/83 86/86/86
f 87/87/87 84/84/84 85/85/85
f 88/88/88 85/85/85 86/86/86
f 87/87/87 85/85/85 88/88/88
f 89/89/89 87/87/87 88/88/88
f 92/92/92 91/91/91 90/90/90
f 93/93/93 92/92/92 90/90/90
f 93/93/93 90/90/90 94/94/94
f 95/95/95 93/93/93 94/94/94
f 98/98/98 97/97/97 96/96/96
f 97/97/97 99/99/99 96/96/96
f 99/99/99 97/97/97 100/100/100
f 97/97/97 101/101/101 100/100/100
