g obstacles_rock14
v 0.4659353 1.079593 0.7465213
v 1.209747 -0.184381 0.9664639
v 1.101745 -0.184381 0.9895566
v 0.391635 1.087184 0.7613757
v 0.4021414 1.130386 0.6886118
v 0.4627549 1.117466 0.6939324
v 0.01947261 1.465951 0.6952437
v 0.009218168 1.421628 0.7643369
v -0.6272529 -0.1843808 1.042973
v -0.7323738 -0.1843808 0.9938763
v -0.06562786 1.471773 0.7357591
v -0.04275738 1.502738 0.6899517
v -0.06562786 1.471773 0.7357591
v -0.7323738 -0.1843808 0.9938763
v -0.7699783 -0.1843808 0.8841885
v -0.09495334 1.473668 0.666643
v -0.05328469 1.509606 0.6269396
v -0.04275738 1.502738 0.6899517
v -0.04206469 1.461261 0.3362883
v -0.08278863 1.413758 0.3762959
v -0.7397599 -0.1843805 0.4578202
v -0.1259686 1.029646 -0.2538125
v -0.1670704 0.9793646 -0.2226212
v 0.08916517 0.8220778 -0.4772145
v -0.5752261 -0.1843803 -0.5121319
v 0.04954327 0.8241644 -0.4555423
v -0.2853773 -0.1843803 -0.9497935
v 0.04954327 0.8241644 -0.4555423
v -0.2853773 -0.1843803 -0.9497935
v -0.2051727 -0.1843803 -1.024773
v 0.1092752 0.7141926 -0.5536854
v 0.08916517 0.8220778 -0.4772145
v 0.1282623 0.7367907 -0.5291693
v 0.1092752 0.7141926 -0.5536854
v -0.2051727 -0.1843803 -1.024773
v -0.1000517 -0.1843805 -1.055114
v 0.1839218 0.6225629 -0.558304
v 0.1927908 0.6715758 -0.5266287
v 0.1282623 0.7367907 -0.5291693
v 0.4022043 0.5379288 -0.5333835
v 0.3874052 0.4885366 -0.5644667
v 0.5777414 -0.1843805 -1.133794
v 0.6849464 -0.1843808 -1.112984
v 0.4631062 0.4883289 -0.5649263
v 0.4609602 0.5280929 -0.5395729
v 0.4356547 1.132932 0.6121152
v 0.02414326 1.477173 0.6119211
v 0.03509046 1.472363 0.3199456
v 0.6553122 1.058088 0.374019
v 0.6247167 0.6413596 -0.2098438
v -0.04618951 1.052289 -0.2483289
v 0.434983 0.5769207 -0.4797098
v 0.1666037 0.7619238 -0.4752733
v 0.5051897 1.113442 0.6456082
v 0.4627549 1.117466 0.6939324
v 0.4021414 1.130386 0.6886118
v 0.4356547 1.132932 0.6121152
v 0.7260228 1.039316 0.4156745
v 0.6553122 1.058088 0.374019
v 0.6925725 0.6120794 -0.2129366
v 0.6247167 0.6413596 -0.2098438
v 0.02414326 1.477173 0.6119211
v 0.5010754 0.549243 -0.4739229
v 0.01947261 1.465951 0.6952437
v 0.434983 0.5769207 -0.4797098
v -0.05328469 1.509606 0.6269396
v -0.04275738 1.502738 0.6899517
v 0.03509046 1.472363 0.3199456
v -0.04206469 1.461261 0.3362883
v -0.04618951 1.052289 -0.2483289
v -0.1259686 1.029646 -0.2538125
v 0.1666037 0.7619238 -0.4752733
v 0.08916517 0.8220778 -0.4772145
v 0.1927908 0.6715758 -0.5266287
v 0.1282623 0.7367907 -0.5291693
v 0.4022043 0.5379288 -0.5333835
v 0.4609602 0.5280929 -0.5395729
v 0.7260228 1.039316 0.4156745
v 0.4953656 1.059558 0.6885026
v 0.5051897 1.113442 0.6456082
v 0.7161987 0.9854348 0.4585779
v 1.201258 -0.184381 0.8131955
v 0.6925725 0.6120794 -0.2129366
v 1.52367 -0.184381 0.4236196
v 0.6827483 0.5581985 -0.1700336
v 0.5010754 0.549243 -0.4739229
v 1.146902 -0.184381 -0.3206865
v 0.4929357 0.4953623 -0.4299762
v 0.7073764 -0.1843808 -0.9892938
v 0.4659353 1.079593 0.7465213
v 1.201258 -0.184381 0.8131955
v 1.209747 -0.184381 0.9664639
v 0.4953656 1.059558 0.6885026
v 0.4627549 1.117466 0.6939324
v 0.5051897 1.113442 0.6456082
v 0.6849464 -0.1843808 -1.112984
v 0.7073764 -0.1843808 -0.9892938
v 0.4929357 0.4953623 -0.4299762
v 0.4631062 0.4883289 -0.5649263
v 0.4609602 0.5280929 -0.5395729
v 0.5010754 0.549243 -0.4739229
vt 0.09180541 0.7981945
vt 0.003919115 0.7975496
vt 0.003910216 0.7944429
vt 0.09177313 0.7942644
vt 0.09211843 0.7959607
vt 0.09248763 0.797606
vt 0.09204597 0.7801923
vt 0.09171029 0.7787564
vt 0.003859187 0.7766275
vt 0.003847932 0.7726957
vt 0.09171246 0.7781163
vt 0.0923983 0.7746069
vt 0.09171246 0.7781163
vt 0.003847932 0.7726957
vt 0.003859503 0.7768736
vt 0.09171534 0.7786614
vt 0.09208117 0.7794396
vt 0.0923983 0.7746069
vt 0.09248935 0.7907734
vt 0.0918163 0.7906499
vt 0.003891731 0.7884997
vt 0.09237627 0.8124288
vt 0.09170695 0.812325
vt 0.09206649 0.8311722
vt 0.004034473 0.8105567
vt 0.091714 0.8306805
vt 0.003993208 0.8294269
vt 0.09416761 0.6300437
vt 0.008568898 0.630466
vt 0.008176873 0.6233796
vt 0.09383325 0.6233874
vt 0.09771432 0.6326444
vt 0.09683061 0.6261212
vt 0.09174032 0.8344742
vt 0.003983753 0.8337389
vt 0.003975468 0.8370461
vt 0.09170651 0.8384112
vt 0.09207342 0.8368014
vt 0.09243127 0.8351712
vt 0.09206165 0.8454686
vt 0.0917164 0.8466384
vt 0.003948314 0.8478695
vt 0.003940007 0.8511785
vt 0.09173908 0.8484191
vt 0.09237012 0.8500358
vt 0.03187952 0.3921633
vt 0.006284956 0.3924003
vt 0.008271072 0.4138979
vt 0.04665804 0.4102324
vt 0.04743338 0.4541028
vt 0.005934808 0.4580501
vt 0.03693256 0.4752744
vt 0.02023432 0.4752744
vt 0.009143054 0.189803
vt 0.007981229 0.1905402
vt 0.007760854 0.1916268
vt 0.009348982 0.191062
vt 0.01656897 0.1859508
vt 0.01698826 0.1872344
vt 0.03634507 0.1868076
vt 0.03537154 0.1880216
vt 0.009295636 0.1984158
vt 0.04484797 0.1903362
vt 0.007626531 0.1984621
vt 0.0441296 0.1915225
vt 0.009734063 0.1997905
vt 0.008202686 0.1995749
vt 0.01833952 0.1983411
vt 0.01865673 0.1997103
vt 0.03673537 0.200026
vt 0.03780485 0.2014511
vt 0.04401853 0.1963165
vt 0.04490773 0.1976985
vt 0.04628958 0.1958639
vt 0.04637621 0.1970124
vt 0.04642377 0.1921231
vt 0.04644175 0.1910669
vt 0.08903971 0.7920395
vt 0.08551703 0.8297562
vt 0.08906331 0.8298597
vt 0.08549339 0.7919359
vt 0.005794385 0.8274281
vt 0.08943205 0.6914843
vt 0.005770778 0.7896079
vt 0.08588577 0.6913807
vt 0.08904816 0.649186
vt 0.006163059 0.6890528
vt 0.08550183 0.6490824
vt 0.005779212 0.6467544
vt 0.09476328 0.6313219
vt 0.007677436 0.6185942
vt 0.007610619 0.633178
vt 0.09442478 0.6218523
vt 0.09780812 0.6285682
vt 0.09828365 0.6219985
vt 0.008087057 0.6200559
vt 0.007622071 0.6317264
vt 0.09437586 0.6335342
vt 0.09450594 0.6244892
vt 0.09760197 0.6269248
vt 0.09823492 0.6336144
vn 0.580589 0.4647381 0.668532
vn 0.7362066 0.5038742 0.451786
vn 0.07371376 0.1890228 0.9792021
vn 0.06517786 0.1855522 0.9804704
vn 0.5848971 0.7293457 0.3548948
vn 0.396749 0.8339308 0.3836011
vn 0.5907041 0.7291711 0.3455116
vn 0.02005056 0.2108607 0.9773105
vn -0.002321995 0.1917834 0.9814345
vn -0.6623942 0.3704521 0.6511523
vn -0.6475227 0.3861433 0.6569685
vn 0.1131277 0.937948 0.3278042
vn -0.6475227 0.3861433 0.6569685
vn -0.6623942 0.3704521 0.6511523
vn -0.9241506 0.3819264 0.008814462
vn -0.9214886 0.3883866 0.003813104
vn -0.3570279 0.9291964 -0.09552504
vn 0.1131277 0.937948 0.3278042
vn -0.4725641 0.7983122 -0.3733372
vn -0.9176757 0.3776564 -0.1234788
vn -0.9216344 0.3676029 -0.1243316
vn -0.5218163 0.6703374 -0.5275941
vn -0.8896505 0.3897312 -0.2379739
vn 0.09340072 0.6977179 -0.7102576
vn -0.8611047 0.4042468 -0.3083557
vn -0.6477828 0.4431563 -0.6196691
vn -0.6232361 0.46327 -0.6300458
vn -0.6477828 0.4431563 -0.6196691
vn -0.6232361 0.46327 -0.6300458
vn -0.2364771 0.5207321 -0.8203149
vn -0.3167261 0.5267133 -0.7888331
vn 0.09340072 0.6977179 -0.7102576
vn 0.3393067 0.5612608 -0.7548889
vn -0.3167261 0.5267133 -0.7888331
vn -0.2364771 0.5207321 -0.8203149
vn 0.02536201 0.5581011 -0.8293853
vn 0.03858504 0.5515643 -0.8332395
vn 0.3703681 0.5376745 -0.7574521
vn 0.3393067 0.5612608 -0.7548889
vn 0.2993059 0.5602542 -0.7723543
vn 0.02328676 0.5898223 -0.8071973
vn 0.02595182 0.5986724 -0.8005735
vn 0.5060976 0.6406997 -0.5773811
vn 0.6334831 0.597283 -0.4918864
vn 0.6130921 0.4356588 -0.6590292
vn 0.5670238 0.8131208 0.1315995
vn 0.5486413 0.8266424 0.12512
vn 0.4721201 0.7847021 -0.4016781
vn 0.4938824 0.7394801 -0.4574379
vn 0.4671646 0.7054046 -0.5330679
vn 0.4150191 0.7191136 -0.5573462
vn 0.457778 0.722719 -0.5177998
vn 0.4675481 0.7174701 -0.5163674
vn 0.550332 0.7856701 0.2825905
vn 0.396749 0.8339308 0.3836011
vn 0.5848971 0.7293457 0.3548948
vn 0.5670238 0.8131208 0.1315995
vn 0.8657966 0.486164 -0.1184942
vn 0.4938824 0.7394801 -0.4574379
vn 0.8812774 0.2666363 -0.3901992
vn 0.4671646 0.7054046 -0.5330679
vn 0.5486413 0.8266424 0.12512
vn 0.7125856 0.3966458 -0.5787001
vn 0.5907041 0.7291711 0.3455116
vn 0.457778 0.722719 -0.5177998
vn -0.3570279 0.9291964 -0.09552504
vn 0.1131277 0.937948 0.3278042
vn 0.4721201 0.7847021 -0.4016781
vn -0.4725641 0.7983122 -0.3733372
vn 0.4150191 0.7191136 -0.5573462
vn -0.5218163 0.6703374 -0.5275941
vn 0.4675481 0.7174701 -0.5163674
vn 0.09340072 0.6977179 -0.7102576
vn 0.3703681 0.5376745 -0.7574521
vn 0.3393067 0.5612608 -0.7548889
vn 0.2993059 0.5602542 -0.7723543
vn 0.6130921 0.4356588 -0.6590292
vn 0.8657966 0.486164 -0.1184942
vn 0.7790903 0.4850668 0.3971506
vn 0.550332 0.7856701 0.2825905
vn 0.8309008 0.5315255 0.1645737
vn 0.7493619 0.4785472 0.4576563
vn 0.8812774 0.2666363 -0.3901992
vn 0.8197054 0.5699883 -0.05653746
vn 0.7476624 0.5206093 -0.4122703
vn 0.7125856 0.3966458 -0.5787001
vn 0.7231938 0.5454601 -0.4236319
vn 0.7060457 0.5251671 -0.4750779
vn 0.7353631 0.5365918 -0.4138964
vn 0.580589 0.4647381 0.668532
vn 0.7493619 0.4785472 0.4576563
vn 0.7362066 0.5038742 0.451786
vn 0.7790903 0.4850668 0.3971506
vn 0.396749 0.8339308 0.3836011
vn 0.550332 0.7856701 0.2825905
vn 0.5060976 0.6406997 -0.5773811
vn 0.7353631 0.5365918 -0.4138964
vn 0.7060457 0.5251671 -0.4750779
vn 0.6334831 0.597283 -0.4918864
vn 0.6130921 0.4356588 -0.6590292
vn 0.7125856 0.3966458 -0.5787001
g obstacles_rock14_0
f 3/3/3 2/2/2 1/1/1
f 4/4/4 3/3/3 1/1/1
f 4/4/4 1/1/1 5/5/5
f 1/1/1 6/6/6 5/5/5
f 5/5/5 7/7/7 4/4/4
f 3/3/3 4/4/4 8/8/8
f 7/7/7 8/8/8 4/4/4
f 9/9/9 3/3/3 8/8/8
f 10/10/10 9/9/9 8/8/8
f 11/11/11 10/10/10 8/8/8
f 8/8/8 7/7/7 11/11/11
f 7/7/7 12/12/12 11/11/11
f 15/15/15 14/14/14 13/13/13
f 16/16/16 15/15/15 13/13/13
f 16/16/16 13/13/13 17/17/17
f 13/13/13 18/18/18 17/17/17
f 16/16/16 17/17/17 19/19/19
f 16/16/16 20/20/20 15/15/15
f 20/20/20 16/16/16 19/19/19
f 20/20/20 21/21/21 15/15/15
f 19/19/19 22/22/22 20/20/20
f 21/21/21 20/20/20 23/23/23
f 22/22/22 23/23/23 20/20/20
f 22/22/22 24/24/24 23/23/23
f 25/25/25 21/21/21 23/23/23
f 24/24/24 26/26/26 23/23/23
f 23/23/23 26/26/26 25/25/25
f 26/26/26 27/27/27 25/25/25
f 30/30/30 29/29/29 28/28/28
f 31/31/31 30/30/30 28/28/28
f 28/28/28 32/32/32 31/31/31
f 32/32/32 33/33/33 31/31/31
f 36/36/36 35/35/35 34/34/34
f 37/37/37 36/36/36 34/34/34
f 37/37/37 34/34/34 38/38/38
f 34/34/34 39/39/39 38/38/38
f 38/38/38 40/40/40 37/37/37
f 37/37/37 41/41/41 36/36/36
f 40/40/40 41/41/41 37/37/37
f 41/41/41 42/42/42 36/36/36
f 43/43/43 42/42/42 41/41/41
f 44/44/44 43/43/43 41/41/41
f 41/41/41 40/40/40 44/44/44
f 40/40/40 45/45/45 44/44/44
f 48/48/48 47/47/47 46/46/46
f 49/49/49 48/48/48 46/46/46
f 49/49/49 50/50/50 48/48/48
f 50/50/50 51/51/51 48/48/48
f 51/51/51 50/50/50 52/52/52
f 53/53/53 51/51/51 52/52/52
f 56/56/56 55/55/55 54/54/54
f 57/57/57 56/56/56 54/54/54
f 54/54/54 58/58/58 57/57/57
f 58/58/58 59/59/59 57/57/57
f 58/58/58 60/60/60 59/59/59
f 60/60/60 61/61/61 59/59/59
f 57/57/57 62/62/62 56/56/56
f 60/60/60 63/63/63 61/61/61
f 62/62/62 64/64/64 56/56/56
f 63/63/63 65/65/65 61/61/61
f 62/62/62 66/66/66 64/64/64
f 66/66/66 67/67/67 64/64/64
f 66/66/66 62/62/62 68/68/68
f 69/69/69 66/66/66 68/68/68
f 68/68/68 70/70/70 69/69/69
f 70/70/70 71/71/71 69/69/69
f 70/70/70 72/72/72 71/71/71
f 72/72/72 73/73/73 71/71/71
f 72/72/72 74/74/74 73/73/73
f 72/72/72 65/65/65 74/74/74
f 74/74/74 75/75/75 73/73/73
f 65/65/65 76/76/76 74/74/74
f 65/65/65 63/63/63 76/76/76
f 63/63/63 77/77/77 76/76/76
f 80/80/80 79/79/79 78/78/78
f 79/79/79 81/81/81 78/78/78
f 79/79/79 82/82/82 81/81/81
f 78/78/78 81/81/81 83/83/83
f 82/82/82 84/84/84 81/81/81
f 81/81/81 85/85/85 83/83/83
f 81/81/81 84/84/84 85/85/85
f 83/83/83 85/85/85 86/86/86
f 84/84/84 87/87/87 85/85/85
f 85/85/85 88/88/88 86/86/86
f 85/85/85 87/87/87 88/88/88
f 87/87/87 89/89/89 88/88/88
f 92/92/92 91/91/91 90/90/90
f 91/91/91 93/93/93 90/90/90
f 90/90/90 93/93/93 94/94/94
f 93/93/93 95/95/95 94/94/94
f 98/98/98 97/97/97 96/96/96
f 99/99/99 98/98/98 96/96/96
f 98/98/98 99/99/99 100/100/100
f 101/101/101 98/98/98 100/100/100
