g obstacles_rock3
v 0.6911169 3.180853 1.148517
v 1.018764 -0.067312 1.833903
v 0.8292472 -0.0636549 1.874425
v 0.5937626 3.136617 1.190213
v 0.5327265 3.200683 1.075575
v 0.6357433 3.235241 1.065216
v -0.05015579 2.88916 1.199846
v -0.01385379 2.874021 1.292958
v -1.100677 -0.03045082 1.830165
v -1.285138 -0.02348018 1.744011
v -0.1193821 2.738086 1.285602
v -0.1357695 2.819024 1.2069
v -0.1193821 2.738086 1.285602
v -1.285138 -0.02348018 1.744011
v -1.351125 -0.01700997 1.551536
v -0.1736246 2.690819 1.172546
v -0.1703758 2.806264 1.100965
v -0.1357695 2.819024 1.2069
v -0.1922185 2.716073 0.5857574
v -0.1977279 2.607961 0.6583173
v -1.298099 0 0.8033635
v -0.2029845 2.153677 -0.3207622
v -0.2095504 2.04103 -0.2637535
v 0.3183067 1.870963 -0.814418
v -1.456532 0.07065415 -0.89105
v 0.3013127 1.754745 -0.8385403
v -0.9479174 0.0476675 -1.65904
v 0.3013127 1.754745 -0.8385403
v -0.9479174 0.0476675 -1.65904
v -0.8071779 0.04099154 -1.790611
v 0.3803864 1.789465 -0.9630516
v 0.3183067 1.870963 -0.814418
v 0.3825743 1.865269 -0.9196604
v 0.3803864 1.789465 -0.9630516
v -0.8071779 0.04099154 -1.790611
v -0.6227161 0.03177905 -1.843852
v 0.4808469 1.837096 -0.9879596
v 0.4756204 1.928943 -0.933066
v 0.3825743 1.865269 -0.9196604
v 0.7934766 2.099568 -1.006441
v 0.7982982 1.987859 -1.054308
v 0.7700096 -0.003027916 -1.874425
v 0.9581285 -0.01366162 -1.837909
v 0.9158803 2.078337 -1.08583
v 0.8872105 2.137128 -1.035581
v 0.5547979 3.234431 0.9346121
v -0.07633519 2.902676 1.055989
v -0.09677088 2.808358 0.5381426
v 0.8671412 3.317324 0.448871
v 0.9244985 2.824984 -0.4596386
v -0.1026343 2.25907 -0.330316
v 0.8257857 2.18773 -0.9167525
v 0.4163773 1.97018 -0.8298625
v 0.6861687 3.267022 0.9691305
v 0.6357433 3.235241 1.065216
v 0.5327265 3.200683 1.075575
v 0.5547979 3.234431 0.9346121
v 1.002341 3.352048 0.4972376
v 0.8671412 3.317324 0.448871
v 1.049797 2.841284 -0.4893319
v 0.9244985 2.824984 -0.4596386
v -0.07633519 2.902676 1.055989
v 0.9500149 2.204877 -0.9303711
v -0.05015579 2.88916 1.199846
v 0.8257857 2.18773 -0.9167525
v -0.1703758 2.806264 1.100965
v -0.1357695 2.819024 1.2069
v -0.09677088 2.808358 0.5381426
v -0.1922185 2.716073 0.5857574
v -0.1026343 2.25907 -0.330316
v -0.2029845 2.153677 -0.3207622
v 0.4163773 1.97018 -0.8298625
v 0.3183067 1.870963 -0.814418
v 0.4756204 1.928943 -0.933066
v 0.3825743 1.865269 -0.9196604
v 0.7934766 2.099568 -1.006441
v 0.8872105 2.137128 -1.035581
v 1.002341 3.352048 0.4972376
v 0.7903264 3.21128 1.025697
v 0.6861687 3.267022 0.9691305
v 1.111498 3.306395 0.4895687
v 1.13914 -0.06109428 1.640416
v 1.049797 2.841284 -0.4893319
v 1.657192 -0.07747579 0.8191996
v 1.16939 2.811419 -0.5840921
v 0.9500149 2.204877 -0.9303711
v 1.483898 -0.04549289 -0.8901358
v 1.0131 2.142622 -1.028467
v 1.135644 -0.03049779 -1.623439
v 0.6911169 3.180853 1.148517
v 1.13914 -0.06109428 1.640416
v 1.018764 -0.067312 1.833903
v 0.7903264 3.21128 1.025697
v 0.6357433 3.235241 1.065216
v 0.6861687 3.267022 0.9691305
v 0.9581285 -0.01366162 -1.837909
v 1.135644 -0.03049779 -1.623439
v 1.0131 2.142622 -1.028467
v 0.9158803 2.078337 -1.08583
v 0.8872105 2.137128 -1.035581
v 0.9500149 2.204877 -0.9303711
vt 0.09180541 0.7981945
vt 0.003919115 0.7975496
vt 0.003910216 0.7944429
vt 0.09177313 0.7942644
vt 0.09211843 0.7959607
vt 0.09248763 0.797606
vt 0.09204597 0.7801923
vt 0.09171029 0.7787564
vt 0.003859187 0.7766275
vt 0.003847932 0.7726957
vt 0.09171246 0.7781163
vt 0.0923983 0.7746069
vt 0.09171246 0.7781163
vt 0.003847932 0.7726957
vt 0.003859503 0.7768736
vt 0.09171534 0.7786614
vt 0.09208117 0.7794396
vt 0.0923983 0.7746069
vt 0.09248935 0.7907734
vt 0.0918163 0.7906499
vt 0.003891731 0.7884997
vt 0.09237627 0.8124288
vt 0.09170695 0.812325
vt 0.09206649 0.8311722
vt 0.004034473 0.8105567
vt 0.091714 0.8306805
vt 0.003993208 0.8294269
vt 0.09416761 0.6300437
vt 0.008568898 0.630466
vt 0.008176873 0.6233796
vt 0.09383325 0.6233874
vt 0.09771432 0.6326444
vt 0.09683061 0.6261212
vt 0.09174032 0.8344742
vt 0.003983753 0.8337389
vt 0.003975468 0.8370461
vt 0.09170651 0.8384112
vt 0.09207342 0.8368014
vt 0.09243127 0.8351712
vt 0.09206165 0.8454686
vt 0.0917164 0.8466384
vt 0.003948314 0.8478695
vt 0.003940007 0.8511785
vt 0.09173908 0.8484191
vt 0.09237012 0.8500358
vt 0.03187952 0.3921633
vt 0.006284956 0.3924003
vt 0.008271072 0.4138979
vt 0.04665804 0.4102324
vt 0.04743338 0.4541028
vt 0.005934808 0.4580501
vt 0.03693256 0.4752744
vt 0.02023432 0.4752744
vt 0.009143054 0.189803
vt 0.007981229 0.1905402
vt 0.007760854 0.1916268
vt 0.009348982 0.191062
vt 0.01656897 0.1859508
vt 0.01698826 0.1872344
vt 0.03634507 0.1868076
vt 0.03537154 0.1880216
vt 0.009295636 0.1984158
vt 0.04484797 0.1903362
vt 0.007626531 0.1984621
vt 0.0441296 0.1915225
vt 0.009734063 0.1997905
vt 0.008202686 0.1995749
vt 0.01833952 0.1983411
vt 0.01865673 0.1997103
vt 0.03673537 0.200026
vt 0.03780485 0.2014511
vt 0.04401853 0.1963165
vt 0.04490773 0.1976985
vt 0.04628958 0.1958639
vt 0.04637621 0.1970124
vt 0.04642377 0.1921231
vt 0.04644175 0.1910669
vt 0.08903971 0.7920395
vt 0.08551703 0.8297562
vt 0.08906331 0.8298597
vt 0.08549339 0.7919359
vt 0.005794385 0.8274281
vt 0.08943205 0.6914843
vt 0.005770778 0.7896079
vt 0.08588577 0.6913807
vt 0.08904816 0.649186
vt 0.006163059 0.6890528
vt 0.08550183 0.6490824
vt 0.005779212 0.6467544
vt 0.09476328 0.6313219
vt 0.007677436 0.6185942
vt 0.007610619 0.633178
vt 0.09442478 0.6218523
vt 0.09780812 0.6285682
vt 0.09828365 0.6219985
vt 0.008087057 0.6200559
vt 0.007622071 0.6317264
vt 0.09437586 0.6335342
vt 0.09450594 0.6244892
vt 0.09760197 0.6269248
vt 0.09823492 0.6336144
vn 0.6328051 0.233944 0.7381247
vn 0.5765659 0.2206747 0.7866857
vn 0.03364993 0.1993254 0.9793554
vn 0.03744727 0.2179239 0.975247
vn -0.3770577 0.8790227 0.291799
vn -0.06335427 0.9189085 0.3893501
vn -0.4300162 0.8492051 0.306491
vn -0.007597391 0.2090773 0.9778696
vn -0.04919494 0.2132281 0.9757631
vn -0.7293416 0.4002636 0.5548424
vn -0.6147984 0.3737719 0.6944908
vn -0.7786686 0.5222719 0.3477173
vn -0.6147984 0.3737719 0.6944908
vn -0.7293416 0.4002636 0.5548424
vn -0.9159632 0.3996797 0.03560296
vn -0.9184772 0.3930202 0.04398539
vn -0.9175375 0.3972977 0.0167161
vn -0.7786686 0.5222719 0.3477173
vn -0.9032226 0.3970809 -0.1628365
vn -0.9110187 0.4110353 -0.03309104
vn -0.9008337 0.4328442 -0.03383335
vn -0.8533338 0.2748286 -0.4430469
vn -0.8412076 0.5067654 -0.1885697
vn -0.6432584 0.2262954 -0.7314431
vn -0.7935997 0.5472715 -0.2658823
vn -0.5787541 0.5976424 -0.5548579
vn -0.5697823 0.6111581 -0.549394
vn -0.5787541 0.5976424 -0.5548579
vn -0.5697823 0.6111581 -0.549394
vn -0.5091926 0.6309257 -0.585368
vn -0.4487609 0.6069388 -0.6559262
vn -0.6432584 0.2262954 -0.7314431
vn -0.658796 0.4641921 -0.5920419
vn -0.4487609 0.6069388 -0.6559262
vn -0.5091926 0.6309257 -0.585368
vn -0.127772 0.4554777 -0.8810303
vn -0.09678078 0.4308732 -0.8972077
vn -0.4674731 0.5792648 -0.6677733
vn -0.658796 0.4641921 -0.5920419
vn -0.4495331 0.604381 -0.6577565
vn -0.08906488 0.4072931 -0.9089443
vn -0.07959834 0.412329 -0.907551
vn 0.3324436 0.327088 -0.8845872
vn 0.4654621 0.3090197 -0.8293684
vn -0.248084 0.7046663 -0.6647554
vn -0.4550892 0.8843594 -0.1039335
vn -0.5125172 0.8542672 -0.08691192
vn -0.4983521 0.7811549 -0.3760881
vn -0.4241712 0.8169488 -0.3907343
vn -0.4165832 0.7284436 -0.5439011
vn -0.4881063 0.6846889 -0.5412517
vn -0.3946489 0.5733452 -0.7180024
vn -0.4294153 0.5505565 -0.7158841
vn -0.005815009 0.9821457 0.1880318
vn -0.06335427 0.9189085 0.3893501
vn -0.3770577 0.8790227 0.291799
vn -0.4550892 0.8843594 -0.1039335
vn 0.03190885 0.9829022 -0.1813426
vn -0.4241712 0.8169488 -0.3907343
vn -0.1080565 0.8128419 -0.5723738
vn -0.4165832 0.7284436 -0.5439011
vn -0.5125172 0.8542672 -0.08691192
vn -0.3408997 0.5925977 -0.7298052
vn -0.4300162 0.8492051 0.306491
vn -0.3946489 0.5733452 -0.7180024
vn -0.9175375 0.3972977 0.0167161
vn -0.7786686 0.5222719 0.3477173
vn -0.4983521 0.7811549 -0.3760881
vn -0.9032226 0.3970809 -0.1628365
vn -0.4881063 0.6846889 -0.5412517
vn -0.8533338 0.2748286 -0.4430469
vn -0.4294153 0.5505565 -0.7158841
vn -0.6432584 0.2262954 -0.7314431
vn -0.4674731 0.5792648 -0.6677733
vn -0.658796 0.4641921 -0.5920419
vn -0.4495331 0.604381 -0.6577565
vn -0.248084 0.7046663 -0.6647554
vn 0.03190885 0.9829022 -0.1813426
vn 0.8211309 0.2048742 0.5327011
vn -0.005815009 0.9821457 0.1880318
vn 0.9645546 0.194121 0.1787499
vn 0.8234237 0.1884313 0.5352262
vn -0.1080565 0.8128419 -0.5723738
vn 0.9702922 0.1634051 0.1784143
vn 0.980526 0.1588304 -0.1155054
vn -0.3408997 0.5925977 -0.7298052
vn 0.9739321 0.1446372 -0.1747461
vn 0.8476002 0.1798815 -0.4992161
vn 0.8282546 0.1832895 -0.5295272
vn 0.6328051 0.233944 0.7381247
vn 0.8234237 0.1884313 0.5352262
vn 0.5765659 0.2206747 0.7866857
vn 0.8211309 0.2048742 0.5327011
vn -0.06335427 0.9189085 0.3893501
vn -0.005815009 0.9821457 0.1880318
vn 0.3324436 0.327088 -0.8845872
vn 0.8282546 0.1832895 -0.5295272
vn 0.8476002 0.1798815 -0.4992161
vn 0.4654621 0.3090197 -0.8293684
vn -0.248084 0.7046663 -0.6647554
vn -0.3408997 0.5925977 -0.7298052
g obstacles_rock3_0
f 3/3/3 2/2/2 1/1/1
f 4/4/4 3/3/3 1/1/1
f 4/4/4 1/1/1 5/5/5
f 1/1/1 6/6/6 5/5/5
f 5/5/5 7/7/7 4/4/4
f 3/3/3 4/4/4 8/8/8
f 7/7/7 8/8/8 4/4/4
f 9/9/9 3/3/3 8/8/8
f 10/10/10 9/9/9 8/8/8
f 11/11/11 10/10/10 8/8/8
f 8/8/8 7/7/7 11/11/11
f 7/7/7 12/12/12 11/11/11
f 15/15/15 14/14/14 13/13/13
f 16/16/16 15/15/15 13/13/13
f 16/16/16 13/13/13 17/17/17
f 13/13/13 18/18/18 17/17/17
f 16/16/16 17/17/17 19/19/19
f 16/16/16 20/20/20 15/15/15
f 20/20/20 16/16/16 19/19/19
f 20/20/20 21/21/21 15/15/15
f 19/19/19 22/22/22 20/20/20
f 21/21/21 20/20/20 23/23/23
f 22/22/22 23/23/23 20/20/20
f 22/22/22 24/24/24 23/23/23
f 25/25/25 21/21/21 23/23/23
f 24/24/24 26/26/26 23/23/23
f 23/23/23 26/26/26 25/25/25
f 26/26/26 27/27/27 25/25/25
f 30/30/30 29/29/29 28/28/28
f 31/31/31 30/30/30 28/28/28
f 28/28/28 32/32/32 31/31/31
f 32/32/32 33/33/33 31/31/31
f 36/36/36 35/35/35 34/34/34
f 37/37/37 36/36/36 34/34/34
f 37/37/37 34/34/34 38/38/38
f 34/34/34 39/39/39 38/38/38
f 38/38/38 40/40/40 37/37/37
f 37/37/37 41/41/41 36/36/36
f 40/40/40 41/41/41 37/37/37
f 41/41/41 42/42/42 36/36/36
f 43/43/43 42/42/42 41/41/41
f 44/44/44 43/43/43 41/41/41
f 41/41/41 40/40/40 44/44/44
f 40/40/40 45/45/45 44/44/44
f 48/48/48 47/47/47 46/46/46
f 49/49/49 48/48/48 46/46/46
f 49/49/49 50/50/50 48/48/48
f 50/50/50 51/51/51 48/48/48
f 51/51/51 50/50/50 52/52/52
f 53/53/53 51/51/51 52/52/52
f 56/56/56 55/55/55 54/54/54
f 57/57/57 56/56/56 54/54/54
f 54/54/54 58/58/58 57/57/57
f 58/58/58 59/59/59 57/57/57
f 58/58/58 60/60/60 59/59/59
f 60/60/60 61/61/61 59/59/59
f 57/57/57 62/62/62 56/56/56
f 60/60/60 63/63/63 61/61/61
f 62/62/62 64/64/64 56/56/56
f 63/63/63 65/65/65 61/61/61
f 62/62/62 66/66/66 64/64/64
f 66/66/66 67/67/67 64/64/64
f 66/66/66 62/62/62 68/68/68
f 69/69/69 66/66/66 68/68/68
f 68/68/68 70/70/70 69/69/69
f 70/70/70 71/71/71 69/69/69
f 70/70/70 72/72/72 71/71/71
f 72/72/72 73/73/73 71/71/71
f 72/72/72 74/74/74 73/73/73
f 72/72/72 65/65/65 74/74/74
f 74/74/74 75/75/75 73/73/73
f 65/65/65 76/76/76 74/74/74
f 65/65/65 63/63/63 76/76/76
f 63/63/63 77/77/77 76/76/76
f 80/80/80 79/79/79 78/78/78
f 79/79/79 81/81/81 78/78/78
f 79/79/79 82/82/82 81/81/81
f 78/78/78 81/81/81 83/83/83
f 82/82/82 84/84/84 81/81/81
f 81/81/81 85/85/85 83/83/83
f 81/81/81 84/84/84 85/85/85
f 83/83/83 85/85/85 86/86/86
f 84/84/84 87/87/87 85/85/85
f 85/85/85 88/88/88 86/86/86
f 85/85/85 87/87/87 88/88/88
f 87/87/87 89/89/89 88/88/88
f 92/92/92 91/91/91 90/90/90
f 91/91/91 93/93/93 90/90/90
f 90/90/90 93/93/93 94/94/94
f 93/93/93 95/95/95 94/94/94
f 98/98/98 97/97/97 96/96/96
f 99/99/99 98/98/98 96/96/96
f 98/98/98 99/99/99 100/100/100
f 101/101/101 98/98/98 100/100/100
