g obstacles_rock13
v 0.6379023 1.900654 0.7015977
v 0.7309764 -0.04829717 0.9822118
v 0.5949955 -0.04567313 1.003915
v 0.5443537 1.910212 0.7155581
v 0.5575818 1.964605 0.6471727
v 0.6338979 1.948338 0.6521735
v 0.02451723 1.629842 0.6534059
v 0.01160621 1.571589 0.7183411
v -0.7897495 -0.02184892 0.9802101
v -0.9221032 -0.01684737 0.934067
v -0.08262945 1.567225 0.6914833
v -0.05383415 1.617665 0.648432
v -0.08262945 1.567225 0.6914833
v -0.9221032 -0.01684737 0.934067
v -0.9694495 -0.01220489 0.8309805
v -0.119552 1.549642 0.6265261
v -0.06708873 1.614859 0.5892117
v -0.05383415 1.617665 0.648432
v -0.05296195 1.531365 0.3160515
v -0.1042359 1.471556 0.3536515
v -0.9314027 -3.330669E-16 0.43027
v -0.1586021 1.198219 -0.238539
v -0.2103518 1.160744 -0.2092245
v 0.1122644 0.9016676 -0.4484973
v -1.04508 0.05069518 -0.4772334
v 0.06237798 0.8342843 -0.4281287
v -0.4798281 0.0342021 -0.6305492
v 0.06237798 0.8342843 -0.4281287
v -0.4798281 0.0342021 -0.6305492
v -0.3788457 0.02941203 -0.7010162
v 0.1375842 0.8188071 -0.5203662
v 0.1122644 0.9016676 -0.4484973
v 0.1614899 0.867857 -0.4973252
v 0.1375842 0.8188071 -0.5203662
v -0.3788457 0.02941203 -0.7010162
v -0.246492 0.02280188 -0.7295315
v 0.2315687 0.809567 -0.5247066
v 0.2427354 0.8729401 -0.4949377
v 0.1614899 0.867857 -0.4973252
v 0.5063998 1.011259 -0.5012858
v 0.4877667 0.9422436 -0.5304983
v 0.5524918 -0.00217247 -1.003915
v 0.6874694 -0.009802341 -0.9843576
v 0.5855303 0.9737828 -0.5306211
v 0.5837066 1.016127 -0.5071032
v 0.5997771 1.967811 0.57528
v 0.03039782 1.637632 0.5750973
v 0.04418104 1.550901 0.3006921
v 0.67182 1.822351 0.3515117
v 0.6332985 1.297664 -0.1972158
v -0.05815542 1.199019 -0.2333851
v 0.54767 1.101736 -0.4508421
v 0.2097641 0.92677 -0.4466722
v 0.687326 1.943272 0.6067574
v 0.6338979 1.948338 0.6521735
v 0.5575818 1.964605 0.6471727
v 0.5997771 1.967811 0.57528
v 0.7608491 1.798715 0.39066
v 0.67182 1.822351 0.3515117
v 0.7187331 1.260799 -0.2001228
v 0.6332985 1.297664 -0.1972158
v 0.03039782 1.637632 0.5750973
v 0.6493312 1.092851 -0.5220342
v 0.02451723 1.629842 0.6534059
v 0.54767 1.101736 -0.4508421
v -0.06708873 1.614859 0.5892117
v -0.05383415 1.617665 0.648432
v 0.04418104 1.550901 0.3006921
v -0.05296195 1.531365 0.3160515
v -0.05815542 1.199019 -0.2333851
v -0.1586021 1.198219 -0.238539
v 0.2097641 0.92677 -0.4466722
v 0.1122644 0.9016676 -0.4484973
v 0.2427354 0.8729401 -0.4949377
v 0.1614899 0.867857 -0.4973252
v 0.5063998 1.011259 -0.5012858
v 0.5837066 1.016127 -0.5071032
v 0.7608491 1.798715 0.39066
v 0.6749568 1.875429 0.6470702
v 0.687326 1.943272 0.6067574
v 0.8417556 1.730876 0.4309816
v 0.7202877 -0.04383588 0.838167
v 0.7187331 1.260799 -0.2001228
v 1.126224 -0.05558991 0.4720347
v 0.7996395 1.192959 -0.1598012
v 0.6493312 1.092851 -0.5220342
v 1.064716 -0.03264165 -0.4767439
v 0.6445318 0.99476 -0.4817128
v 0.8477091 -0.02188253 -0.8694904
v 0.6379023 1.900654 0.7015977
v 0.7202877 -0.04383588 0.838167
v 0.7309764 -0.04829717 0.9822118
v 0.6749568 1.875429 0.6470702
v 0.6338979 1.948338 0.6521735
v 0.687326 1.943272 0.6067574
v 0.6874694 -0.009802341 -0.9843576
v 0.8477091 -0.02188253 -0.8694904
v 0.6445318 0.99476 -0.4817128
v 0.5855303 0.9737828 -0.5306211
v 0.5837066 1.016127 -0.5071032
v 0.6493312 1.092851 -0.5220342
vt 0.09180541 0.7981945
vt 0.003919115 0.7975496
vt 0.003910216 0.7944429
vt 0.09177313 0.7942644
vt 0.09211843 0.7959607
vt 0.09248763 0.797606
vt 0.09204597 0.7801923
vt 0.09171029 0.7787564
vt 0.003859187 0.7766275
vt 0.003847932 0.7726957
vt 0.09171246 0.7781163
vt 0.0923983 0.7746069
vt 0.09171246 0.7781163
vt 0.003847932 0.7726957
vt 0.003859503 0.7768736
vt 0.09171534 0.7786614
vt 0.09208117 0.7794396
vt 0.0923983 0.7746069
vt 0.09248935 0.7907734
vt 0.0918163 0.7906499
vt 0.003891731 0.7884997
vt 0.09237627 0.8124288
vt 0.09170695 0.812325
vt 0.09206649 0.8311722
vt 0.004034473 0.8105567
vt 0.091714 0.8306805
vt 0.003993208 0.8294269
vt 0.09416761 0.6300437
vt 0.008568898 0.630466
vt 0.008176873 0.6233796
vt 0.09383325 0.6233874
vt 0.09771432 0.6326444
vt 0.09683061 0.6261212
vt 0.09174032 0.8344742
vt 0.003983753 0.8337389
vt 0.003975468 0.8370461
vt 0.09170651 0.8384112
vt 0.09207342 0.8368014
vt 0.09243127 0.8351712
vt 0.09206165 0.8454686
vt 0.0917164 0.8466384
vt 0.003948314 0.8478695
vt 0.003940007 0.8511785
vt 0.09173908 0.8484191
vt 0.09237012 0.8500358
vt 0.03187952 0.3921633
vt 0.006284956 0.3924003
vt 0.008271072 0.4138979
vt 0.04665804 0.4102324
vt 0.04743338 0.4541028
vt 0.005934808 0.4580501
vt 0.03693256 0.4752744
vt 0.02023432 0.4752744
vt 0.009143054 0.189803
vt 0.007981229 0.1905402
vt 0.007760854 0.1916268
vt 0.009348982 0.191062
vt 0.01656897 0.1859508
vt 0.01698826 0.1872344
vt 0.03634507 0.1868076
vt 0.03537154 0.1880216
vt 0.009295636 0.1984158
vt 0.04484797 0.1903362
vt 0.007626531 0.1984621
vt 0.0441296 0.1915225
vt 0.009734063 0.1997905
vt 0.008202686 0.1995749
vt 0.01833952 0.1983411
vt 0.01865673 0.1997103
vt 0.03673537 0.200026
vt 0.03780485 0.2014511
vt 0.04401853 0.1963165
vt 0.04490773 0.1976985
vt 0.04628958 0.1958639
vt 0.04637621 0.1970124
vt 0.04642377 0.1921231
vt 0.04644175 0.1910669
vt 0.08903971 0.7920395
vt 0.08551703 0.8297562
vt 0.08906331 0.8298597
vt 0.08549339 0.7919359
vt 0.005794385 0.8274281
vt 0.08943205 0.6914843
vt 0.005770778 0.7896079
vt 0.08588577 0.6913807
vt 0.08904816 0.649186
vt 0.006163059 0.6890528
vt 0.08550183 0.6490824
vt 0.005779212 0.6467544
vt 0.09476328 0.6313219
vt 0.007677436 0.6185942
vt 0.007610619 0.633178
vt 0.09442478 0.6218523
vt 0.09780812 0.6285682
vt 0.09828365 0.6219985
vt 0.008087057 0.6200559
vt 0.007622071 0.6317264
vt 0.09437586 0.6335342
vt 0.09450594 0.6244892
vt 0.09760197 0.6269248
vt 0.09823492 0.6336144
vn 0.5985388 0.1503455 0.7868593
vn 0.6503242 0.130786 0.7483138
vn -0.01248923 0.1595071 0.9871178
vn -0.02564387 0.191062 0.981243
vn -0.4600835 0.8728667 0.1625636
vn 0.3588204 0.8043272 0.4736092
vn -0.4753586 0.8300977 0.2914998
vn -0.0550325 0.1761656 0.982821
vn -0.08052062 0.18452 0.9795248
vn -0.607093 0.4259699 0.6708112
vn -0.5005772 0.3957097 0.7699587
vn -0.3881089 0.851314 0.3530381
vn -0.5005772 0.3957097 0.7699587
vn -0.607093 0.4259699 0.6708112
vn -0.874697 0.484665 -0.00222832
vn -0.8720921 0.4892569 0.009123569
vn -0.5584103 0.803077 -0.207955
vn -0.3881089 0.851314 0.3530381
vn -0.4328461 0.8182701 -0.3782568
vn -0.8552188 0.5162017 -0.04622116
vn -0.8560331 0.5163938 -0.02334022
vn -0.4482589 0.6428575 -0.6211266
vn -0.7937136 0.5687863 -0.2156405
vn -0.2918795 0.4129848 -0.8626992
vn -0.7717727 0.5744047 -0.2728112
vn -0.2966017 0.4026399 -0.8659727
vn -0.2720542 0.4071745 -0.8718918
vn -0.2966017 0.4026399 -0.8659727
vn -0.2720542 0.4071745 -0.8718918
vn -0.4161233 0.4652025 -0.781299
vn -0.3286557 0.4217654 -0.845044
vn -0.2918795 0.4129848 -0.8626992
vn -0.255976 0.5444198 -0.7988012
vn -0.3286557 0.4217654 -0.845044
vn -0.4161233 0.4652025 -0.781299
vn -0.2352495 0.3830006 -0.8932907
vn -0.2591762 0.3999222 -0.8791416
vn -0.2439286 0.5136585 -0.8225896
vn -0.255976 0.5444198 -0.7988012
vn -0.2814897 0.5086223 -0.8136749
vn -0.1962275 0.4193363 -0.8863699
vn -0.2051964 0.4167433 -0.8855617
vn 0.3148335 0.4292453 -0.846539
vn 0.3556511 0.4206219 -0.8346193
vn -0.1366145 0.3016635 -0.9435759
vn -0.3253228 0.8588148 -0.3957298
vn -0.397181 0.8432499 -0.3621834
vn -0.2194131 0.7983918 -0.560739
vn -0.1523077 0.8032308 -0.5758668
vn -0.1073381 0.7608593 -0.6399778
vn -0.1555818 0.750684 -0.6420808
vn -0.1479398 0.6840016 -0.7143219
vn -0.1563885 0.6485917 -0.7448969
vn 0.6457083 0.7552254 -0.112674
vn 0.3588204 0.8043272 0.4736092
vn -0.4600835 0.8728667 0.1625636
vn -0.3253228 0.8588148 -0.3957298
vn 0.6014009 0.6362007 -0.4832864
vn -0.1523077 0.8032308 -0.5758668
vn 0.5712348 0.5863131 -0.5743934
vn -0.1073381 0.7608593 -0.6399778
vn -0.397181 0.8432499 -0.3621834
vn 0.5698075 0.5355824 -0.6232743
vn -0.4753586 0.8300977 0.2914998
vn -0.1479398 0.6840016 -0.7143219
vn -0.5584103 0.803077 -0.207955
vn -0.3881089 0.851314 0.3530381
vn -0.2194131 0.7983918 -0.560739
vn -0.4328461 0.8182701 -0.3782568
vn -0.1555818 0.750684 -0.6420808
vn -0.4482589 0.6428575 -0.6211266
vn -0.1563885 0.6485917 -0.7448969
vn -0.2918795 0.4129848 -0.8626992
vn -0.2439286 0.5136585 -0.8225896
vn -0.255976 0.5444198 -0.7988012
vn -0.2814897 0.5086223 -0.8136749
vn -0.1366145 0.3016635 -0.9435759
vn 0.6014009 0.6362007 -0.4832864
vn 0.8405262 0.1091982 0.5306519
vn 0.6457083 0.7552254 -0.112674
vn 0.9147791 0.1828744 0.3601889
vn 0.8097943 0.09791286 0.5784861
vn 0.5712348 0.5863131 -0.5743934
vn 0.963834 0.1732949 0.202467
vn 0.9548394 0.2221281 -0.1973343
vn 0.5698075 0.5355824 -0.6232743
vn 0.9366205 0.2387889 -0.2563631
vn 0.7727535 0.3308672 -0.5416446
vn 0.7401829 0.3486128 -0.5749769
vn 0.5985388 0.1503455 0.7868593
vn 0.8097943 0.09791286 0.5784861
vn 0.6503242 0.130786 0.7483138
vn 0.8405262 0.1091982 0.5306519
vn 0.3588204 0.8043272 0.4736092
vn 0.6457083 0.7552254 -0.112674
vn 0.3148335 0.4292453 -0.846539
vn 0.7401829 0.3486128 -0.5749769
vn 0.7727535 0.3308672 -0.5416446
vn 0.3556511 0.4206219 -0.8346193
vn -0.1366145 0.3016635 -0.9435759
vn 0.5698075 0.5355824 -0.6232743
g obstacles_rock13_0
f 3/3/3 2/2/2 1/1/1
f 4/4/4 3/3/3 1/1/1
f 4/4/4 1/1/1 5/5/5
f 1/1/1 6/6/6 5/5/5
f 5/5/5 7/7/7 4/4/4
f 3/3/3 4/4/4 8/8/8
f 7/7/7 8/8/8 4/4/4
f 9/9/9 3/3/3 8/8/8
f 10/10/10 9/9/9 8/8/8
f 11/11/11 10/10/10 8/8/8
f 8/8/8 7/7/7 11/11/11
f 7/7/7 12/12/12 11/11/11
f 15/15/15 14/14/14 13/13/13
f 16/16/16 15/15/15 13/13/13
f 16/16/16 13/13/13 17/17/17
f 13/13/13 18/18/18 17/17/17
f 16/16/16 17/17/17 19/19/19
f 16/16/16 20/20/20 15/15/15
f 20/20/20 16/16/16 19/19/19
f 20/20/20 21/21/21 15/15/15
f 19/19/19 22/22/22 20/20/20
f 21/21/21 20/20/20 23/23/23
f 22/22/22 23/23/23 20/20/20
f 22/22/22 24/24/24 23/23/23
f 25/25/25 21/21/21 23/23/23
f 24/24/24 26/26/26 23/23/23
f 23/23/23 26/26/26 25/25/25
f 26/26/26 27/27/27 25/25/25
f 30/30/30 29/29/29 28/28/28
f 31/31/31 30/30/30 28/28/28
f 28/28/28 32/32/32 31/31/31
f 32/32/32 33/33/33 31/31/31
f 36/36/36 35/35/35 34/34/34
f 37/37/37 36/36/36 34/34/34
f 37/37/37 34/34/34 38/38/38
f 34/34/34 39/39/39 38/38/38
f 38/38/38 40/40/40 37/37/37
f 37/37/37 41/41/41 36/36/36
f 40/40/40 41/41/41 37/37/37
f 41/41/41 42/42/42 36/36/36
f 43/43/43 42/42/42 41/41/41
f 44/44/44 43/43/43 41/41/41
f 41/41/41 40/40/40 44/44/44
f 40/40/40 45/45/45 44/44/44
f 48/48/48 47/47/47 46/46/46
f 49/49/49 48/48/48 46/46/46
f 49/49/49 50/50/50 48/48/48
f 50/50/50 51/51/51 48/48/48
f 51/51/51 50/50/50 52/52/52
f 53/53/53 51/51/51 52/52/52
f 56/56/56 55/55/55 54/54/54
f 57/57/57 56/56/56 54/54/54
f 54/54/54 58/58/58 57/57/57
f 58/58/58 59/59/59 57/57/57
f 58/58/58 60/60/60 59/59/59
f 60/60/60 61/61/61 59/59/59
f 57/57/57 62/62/62 56/56/56
f 60/60/60 63/63/63 61/61/61
f 62/62/62 64/64/64 56/56/56
f 63/63/63 65/65/65 61/61/61
f 62/62/62 66/66/66 64/64/64
f 66/66/66 67/67/67 64/64/64
f 66/66/66 62/62/62 68/68/68
f 69/69/69 66/66/66 68/68/68
f 68/68/68 70/70/70 69/69/69
f 70/70/70 71/71/71 69/69/69
f 70/70/70 72/72/72 71/71/71
f 72/72/72 73/73/73 71/71/71
f 72/72/72 74/74/74 73/73/73
f 72/72/72 65/65/65 74/74/74
f 74/74/74 75/75/75 73/73/73
f 65/65/65 76/76/76 74/74/74
f 65/65/65 63/63/63 76/76/76
f 63/63/63 77/77/77 76/76/76
f 80/80/80 79/79/79 78/78/78
f 79/79/79 81/81/81 78/78/78
f 79/79/79 82/82/82 81/81/81
f 78/78/78 81/81/81 83/83/83
f 82/82/82 84/84/84 81/81/81
f 81/81/81 85/85/85 83/83/83
f 81/81/81 84/84/84 85/85/85
f 83/83/83 85/85/85 86/86/86
f 84/84/84 87/87/87 85/85/85
f 85/85/85 88/88/88 86/86/86
f 85/85/85 87/87/87 88/88/88
f 87/87/87 89/89/89 88/88/88
f 92/92/92 91/91/91 90/90/90
f 91/91/91 93/93/93 90/90/90
f 90/90/90 93/93/93 94/94/94
f 93/93/93 95/95/95 94/94/94
f 98/98/98 97/97/97 96/96/96
f 99/99/99 98/98/98 96/96/96
f 98/98/98 99/99/99 100/100/100
f 101/101/101 98/98/98 100/100/100
