g obstacles_rock16
v -0.4486472 0.8854251 -0.8210409
v -0.5519639 -0.02312255 -1.145017
v -0.4359066 -0.02186632 -1.162887
v -0.3688687 0.8900011 -0.8322383
v -0.3844956 0.9160426 -0.7556501
v -0.4485058 0.9082544 -0.7650259
v 0.02209064 0.9279711 -0.7391545
v 0.0372245 0.9000814 -0.8118618
v 0.7299348 -0.01046038 -1.068472
v 0.8384944 -0.008065701 -1.009893
v 0.1149112 0.8979924 -0.776925
v 0.08781824 0.9221408 -0.7297097
v 0.1149112 0.8979924 -0.776925
v 0.8384944 -0.008065701 -1.009893
v 0.8716631 -0.005843163 -0.8911538
v 0.1417874 0.8895743 -0.7017588
v 0.09511694 0.9207976 -0.6621788
v 0.08781824 0.9221408 -0.7297097
v 0.06533167 0.8808239 -0.3543616
v 0.1110182 0.85219 -0.3943224
v 0.8133652 7.632783E-17 -0.4404496
v 0.1180974 0.6206536 0.2771535
v 0.1636427 0.5903449 0.2465734
v -0.1239932 0.5791423 0.501049
v 0.8498118 0.02427077 0.590038
v -0.08060423 0.5468822 0.4804816
v 0.5152383 0.01637435 1.036762
v -0.08060423 0.5468822 0.4804816
v 0.5152383 0.01637435 1.036762
v 0.4254948 0.01408124 1.111414
v -0.150042 0.5394723 0.580981
v -0.1239932 0.5791423 0.501049
v -0.1686877 0.5629554 0.5537907
v -0.150042 0.5394723 0.580981
v 0.4254948 0.01408124 1.111414
v 0.3120495 0.01091647 1.137155
v -0.2295586 0.5350485 0.5812921
v -0.2370245 0.5653889 0.5471253
v -0.1686877 0.5629554 0.5537907
v -0.4597191 0.5589187 0.5414156
v -0.4459223 0.529146 0.5753185
v -0.5314687 -0.00104022 1.106834
v -0.6439801 -0.004693031 1.078152
v -0.5255417 0.5290205 0.5708441
v -0.5224651 0.5529897 0.5443723
v -0.4247727 0.9175768 -0.6765154
v 0.01200852 0.9316998 -0.651
v -0.01756874 0.890177 -0.3417599
v -0.6725687 0.8724623 -0.437301
v -0.6760029 0.6212649 0.184314
v 0.0337542 0.6343024 0.2664263
v -0.4912104 0.5824225 0.4824285
v -0.2060699 0.5911603 0.4942252
v -0.49652 0.9058287 -0.7163429
v -0.4485058 0.9082544 -0.7650259
v -0.3844956 0.9160426 -0.7556501
v -0.4247727 0.9175768 -0.6765154
v -0.7450618 0.8611465 -0.4858643
v -0.6725687 0.8724623 -0.437301
v -0.7482175 0.6036155 0.1834235
v -0.6760029 0.6212649 0.184314
v 0.01200852 0.9316998 -0.651
v -0.5610074 0.5657387 0.4722216
v 0.02209064 0.9279711 -0.7391545
v -0.4912104 0.5824225 0.4824285
v 0.09511694 0.9207976 -0.6621788
v 0.08781824 0.9221408 -0.7297097
v -0.01756874 0.890177 -0.3417599
v 0.06533167 0.8808239 -0.3543616
v 0.0337542 0.6343024 0.2664263
v 0.1180974 0.6206536 0.2771535
v -0.2060699 0.5911603 0.4942252
v -0.1239932 0.5791423 0.501049
v -0.2370245 0.5653889 0.5471253
v -0.1686877 0.5629554 0.5537907
v -0.4597191 0.5589187 0.5414156
v -0.5224651 0.5529897 0.5443723
v -0.7450618 0.8611465 -0.4858643
v -0.4834541 0.8733482 -0.7612677
v -0.49652 0.9058287 -0.7163429
v -0.7319952 0.8286681 -0.5307993
v -0.5523795 -0.0209868 -0.9818109
v -0.7482175 0.6036155 0.1834235
v -0.9185592 -0.02661395 -0.5881302
v -0.7351512 0.571137 0.1384887
v -0.5610074 0.5657387 0.4722216
v -0.9287947 -0.01562738 0.4864251
v -0.5479409 0.5332603 0.4272866
v -0.6577543 -0.01047635 0.9471874
v -0.4486472 0.8854251 -0.8210409
v -0.5523795 -0.0209868 -0.9818109
v -0.5519639 -0.02312255 -1.145017
v -0.4834541 0.8733482 -0.7612677
v -0.4485058 0.9082544 -0.7650259
v -0.49652 0.9058287 -0.7163429
v -0.6439801 -0.004693031 1.078152
v -0.6577543 -0.01047635 0.9471874
v -0.5479409 0.5332603 0.4272866
v -0.5255417 0.5290205 0.5708441
v -0.5224651 0.5529897 0.5443723
v -0.5610074 0.5657387 0.4722216
vt 0.09180541 0.7981945
vt 0.003919115 0.7975496
vt 0.003910216 0.7944429
vt 0.09177313 0.7942644
vt 0.09211843 0.7959607
vt 0.09248763 0.797606
vt 0.09204597 0.7801923
vt 0.09171029 0.7787564
vt 0.003859187 0.7766275
vt 0.003847932 0.7726957
vt 0.09171246 0.7781163
vt 0.0923983 0.7746069
vt 0.09171246 0.7781163
vt 0.003847932 0.7726957
vt 0.003859503 0.7768736
vt 0.09171534 0.7786614
vt 0.09208117 0.7794396
vt 0.0923983 0.7746069
vt 0.09248935 0.7907734
vt 0.0918163 0.7906499
vt 0.003891731 0.7884997
vt 0.09237627 0.8124288
vt 0.09170695 0.812325
vt 0.09206649 0.8311722
vt 0.004034473 0.8105567
vt 0.091714 0.8306805
vt 0.003993208 0.8294269
vt 0.09416761 0.6300437
vt 0.008568898 0.630466
vt 0.008176873 0.6233796
vt 0.09383325 0.6233874
vt 0.09771432 0.6326444
vt 0.09683061 0.6261212
vt 0.09174032 0.8344742
vt 0.003983753 0.8337389
vt 0.003975468 0.8370461
vt 0.09170651 0.8384112
vt 0.09207342 0.8368014
vt 0.09243127 0.8351712
vt 0.09206165 0.8454686
vt 0.0917164 0.8466384
vt 0.003948314 0.8478695
vt 0.003940007 0.8511785
vt 0.09173908 0.8484191
vt 0.09237012 0.8500358
vt 0.03187952 0.3921633
vt 0.006284956 0.3924003
vt 0.008271072 0.4138979
vt 0.04665804 0.4102324
vt 0.04743338 0.4541028
vt 0.005934808 0.4580501
vt 0.03693256 0.4752744
vt 0.02023432 0.4752744
vt 0.009143054 0.189803
vt 0.007981229 0.1905402
vt 0.007760854 0.1916268
vt 0.009348982 0.191062
vt 0.01656897 0.1859508
vt 0.01698826 0.1872344
vt 0.03634507 0.1868076
vt 0.03537154 0.1880216
vt 0.009295636 0.1984158
vt 0.04484797 0.1903362
vt 0.007626531 0.1984621
vt 0.0441296 0.1915225
vt 0.009734063 0.1997905
vt 0.008202686 0.1995749
vt 0.01833952 0.1983411
vt 0.01865673 0.1997103
vt 0.03673537 0.200026
vt 0.03780485 0.2014511
vt 0.04401853 0.1963165
vt 0.04490773 0.1976985
vt 0.04628958 0.1958639
vt 0.04637621 0.1970124
vt 0.04642377 0.1921231
vt 0.04644175 0.1910669
vt 0.08903971 0.7920395
vt 0.08551703 0.8297562
vt 0.08906331 0.8298597
vt 0.08549339 0.7919359
vt 0.005794385 0.8274281
vt 0.08943205 0.6914843
vt 0.005770778 0.7896079
vt 0.08588577 0.6913807
vt 0.08904816 0.649186
vt 0.006163059 0.6890528
vt 0.08550183 0.6490824
vt 0.005779212 0.6467544
vt 0.09476328 0.6313219
vt 0.007677436 0.6185942
vt 0.007610619 0.633178
vt 0.09442478 0.6218523
vt 0.09780812 0.6285682
vt 0.09828365 0.6219985
vt 0.008087057 0.6200559
vt 0.007622071 0.6317264
vt 0.09437586 0.6335342
vt 0.09450594 0.6244892
vt 0.09760197 0.6269248
vt 0.09823492 0.6336144
vn -0.6951593 0.3201022 -0.6436521
vn -0.6565794 0.3056171 -0.6895662
vn 0.03892421 0.3293557 -0.9434033
vn 0.04119468 0.3596818 -0.9321652
vn -0.03048291 0.985292 -0.1681388
vn -0.2462128 0.9336718 -0.2600694
vn 0.0008531159 0.9812587 -0.192693
vn 0.08518916 0.3615795 -0.9284412
vn 0.1395156 0.3729545 -0.9173005
vn 0.6309013 0.6241413 -0.4608809
vn 0.5651278 0.6128843 -0.5522709
vn 0.2725599 0.9508296 -0.1470854
vn 0.5651278 0.6128843 -0.5522709
vn 0.6309013 0.6241413 -0.4608809
vn 0.7739397 0.6322104 0.03643285
vn 0.7708097 0.6352926 0.0474963
vn 0.3839775 0.9146237 0.1265895
vn 0.2725599 0.9508296 -0.1470854
vn 0.366722 0.8881323 0.2770126
vn 0.7309717 0.676397 0.09037359
vn 0.7334437 0.6746898 0.08278864
vn 0.4109649 0.811214 0.4159805
vn 0.6351002 0.752896 0.1726129
vn 0.2463236 0.876394 0.4138336
vn 0.6075402 0.7680169 0.202596
vn 0.4161915 0.8055811 0.4216915
vn 0.4043588 0.8191079 0.4068859
vn 0.4161915 0.8055811 0.4216915
vn 0.4043588 0.8191079 0.4068859
vn 0.2876078 0.8232157 0.489487
vn 0.2385314 0.8105778 0.5348518
vn 0.2463236 0.876394 0.4138336
vn 0.1888834 0.82697 0.5295692
vn 0.2385314 0.8105778 0.5348518
vn 0.2876078 0.8232157 0.489487
vn -0.00743845 0.7221718 0.6916738
vn -0.0282942 0.7139701 0.6996042
vn -0.03196055 0.8625405 0.5049776
vn 0.1888834 0.82697 0.5295692
vn -0.05448709 0.8702942 0.4895092
vn -0.04946045 0.7105953 0.7018604
vn -0.05170471 0.7096112 0.7026938
vn -0.5161006 0.6503655 0.5573731
vn -0.7167087 0.5554047 0.4217277
vn -0.5673143 0.6336764 0.525936
vn -0.05343569 0.9930056 0.1052834
vn -0.01436587 0.9944624 0.104106
vn -0.04368227 0.9445207 0.3255343
vn -0.09785192 0.9407103 0.324791
vn -0.09425209 0.9323331 0.3491012
vn -0.03320511 0.9366744 0.3486238
vn -0.05271621 0.9828319 0.1768118
vn -0.02580579 0.9838051 0.1773741
vn -0.3677072 0.9015307 -0.2281094
vn -0.2462128 0.9336718 -0.2600694
vn -0.03048291 0.985292 -0.1681388
vn -0.05343569 0.9930056 0.1052834
vn -0.8003895 0.5980621 0.04121216
vn -0.09785192 0.9407103 0.324791
vn -0.7721253 0.5120836 0.3762882
vn -0.09425209 0.9323331 0.3491012
vn -0.01436587 0.9944624 0.104106
vn -0.6086168 0.6586261 0.4424896
vn 0.0008531159 0.9812587 -0.192693
vn -0.05271621 0.9828319 0.1768118
vn 0.3839775 0.9146237 0.1265895
vn 0.2725599 0.9508296 -0.1470854
vn -0.04368227 0.9445207 0.3255343
vn 0.366722 0.8881323 0.2770126
vn -0.03320511 0.9366744 0.3486238
vn 0.4109649 0.811214 0.4159805
vn -0.02580579 0.9838051 0.1773741
vn 0.2463236 0.876394 0.4138336
vn -0.03196055 0.8625405 0.5049776
vn 0.1888834 0.82697 0.5295692
vn -0.05448709 0.8702942 0.4895092
vn -0.5673143 0.6336764 0.525936
vn -0.8003895 0.5980621 0.04121216
vn -0.7847034 0.2113236 -0.5827374
vn -0.3677072 0.9015307 -0.2281094
vn -0.9106137 0.2519817 -0.3275483
vn -0.8007745 0.1993632 -0.5648139
vn -0.7721253 0.5120836 0.3762882
vn -0.9314976 0.2595516 -0.2548436
vn -0.9503638 0.2922757 0.106694
vn -0.6086168 0.6586261 0.4424896
vn -0.8874562 0.4006964 0.2277365
vn -0.760446 0.4785601 0.4389784
vn -0.8153225 0.4684276 0.3403303
vn -0.6951593 0.3201022 -0.6436521
vn -0.8007745 0.1993632 -0.5648139
vn -0.6565794 0.3056171 -0.6895662
vn -0.7847034 0.2113236 -0.5827374
vn -0.2462128 0.9336718 -0.2600694
vn -0.3677072 0.9015307 -0.2281094
vn -0.5161006 0.6503655 0.5573731
vn -0.8153225 0.4684276 0.3403303
vn -0.760446 0.4785601 0.4389784
vn -0.7167087 0.5554047 0.4217277
vn -0.5673143 0.6336764 0.525936
vn -0.6086168 0.6586261 0.4424896
g obstacles_rock16_0
f 3/3/3 2/2/2 1/1/1
f 4/4/4 3/3/3 1/1/1
f 4/4/4 1/1/1 5/5/5
f 1/1/1 6/6/6 5/5/5
f 5/5/5 7/7/7 4/4/4
f 3/3/3 4/4/4 8/8/8
f 7/7/7 8/8/8 4/4/4
f 9/9/9 3/3/3 8/8/8
f 10/10/10 9/9/9 8/8/8
f 11/11/11 10/10/10 8/8/8
f 8/8/8 7/7/7 11/11/11
f 7/7/7 12/12/12 11/11/11
f 15/15/15 14/14/14 13/13/13
f 16/16/16 15/15/15 13/13/13
f 16/16/16 13/13/13 17/17/17
f 13/13/13 18/18/18 17/17/17
f 16/16/16 17/17/17 19/19/19
f 16/16/16 20/20/20 15/15/15
f 20/20/20 16/16/16 19/19/19
f 20/20/20 21/21/21 15/15/15
f 19/19/19 22/22/22 20/20/20
f 21/21/21 20/20/20 23/23/23
f 22/22/22 23/23/23 20/20/20
f 22/22/22 24/24/24 23/23/23
f 25/25/25 21/21/21 23/23/23
f 24/24/24 26/26/26 23/23/23
f 23/23/23 26/26/26 25/25/25
f 26/26/26 27/27/27 25/25/25
f 30/30/30 29/29/29 28/28/28
f 31/31/31 30/30/30 28/28/28
f 28/28/28 32/32/32 31/31/31
f 32/32/32 33/33/33 31/31/31
f 36/36/36 35/35/35 34/34/34
f 37/37/37 36/36/36 34/34/34
f 37/37/37 34/34/34 38/38/38
f 34/34/34 39/39/39 38/38/38
f 38/38/38 40/40/40 37/37/37
f 37/37/37 41/41/41 36/36/36
f 40/40/40 41/41/41 37/37/37
f 41/41/41 42/42/42 36/36/36
f 43/43/43 42/42/42 41/41/41
f 44/44/44 43/43/43 41/41/41
f 41/41/41 40/40/40 44/44/44
f 40/40/40 45/45/45 44/44/44
f 48/48/48 47/47/47 46/46/46
f 49/49/49 48/48/48 46/46/46
f 49/49/49 50/50/50 48/48/48
f 50/50/50 51/51/51 48/48/48
f 51/51/51 50/50/50 52/52/52
f 53/53/53 51/51/51 52/52/52
f 56/56/56 55/55/55 54/54/54
f 57/57/57 56/56/56 54/54/54
f 54/54/54 58/58/58 57/57/57
f 58/58/58 59/59/59 57/57/57
f 58/58/58 60/60/60 59/59/59
f 60/60/60 61/61/61 59/59/59
f 57/57/57 62/62/62 56/56/56
f 60/60/60 63/63/63 61/61/61
f 62/62/62 64/64/64 56/56/56
f 63/63/63 65/65/65 61/61/61
f 62/62/62 66/66/66 64/64/64
f 66/66/66 67/67/67 64/64/64
f 66/66/66 62/62/62 68/68/68
f 69/69/69 66/66/66 68/68/68
f 68/68/68 70/70/70 69/69/69
f 70/70/70 71/71/71 69/69/69
f 70/70/70 72/72/72 71/71/71
f 72/72/72 73/73/73 71/71/71
f 72/72/72 74/74/74 73/73/73
f 72/72/72 65/65/65 74/74/74
f 74/74/74 75/75/75 73/73/73
f 65/65/65 76/76/76 74/74/74
f 65/65/65 63/63/63 76/76/76
f 63/63/63 77/77/77 76/76/76
f 80/80/80 79/79/79 78/78/78
f 79/79/79 81/81/81 78/78/78
f 79/79/79 82/82/82 81/81/81
f 78/78/78 81/81/81 83/83/83
f 82/82/82 84/84/84 81/81/81
f 81/81/81 85/85/85 83/83/83
f 81/81/81 84/84/84 85/85/85
f 83/83/83 85/85/85 86/86/86
f 84/84/84 87/87/87 85/85/85
f 85/85/85 88/88/88 86/86/86
f 85/85/85 87/87/87 88/88/88
f 87/87/87 89/89/89 88/88/88
f 92/92/92 91/91/91 90/90/90
f 91/91/91 93/93/93 90/90/90
f 90/90/90 93/93/93 94/94/94
f 93/93/93 95/95/95 94/94/94
f 98/98/98 97/97/97 96/96/96
f 99/99/99 98/98/98 96/96/96
f 98/98/98 99/99/99 100/100/100
f 101/101/101 98/98/98 100/100/100
