g polySurface91
v -0.01123143 1.631887E-05 -0.02032148
v -0.0005424613 2.819614E-06 -0.02413751
v 0.01005219 -1.204578E-05 -0.01860278
v -0.01914814 2.562435E-05 -0.01312494
v 0.01934073 -2.678959E-05 -0.00284841
v -0.01696266 2.02051E-05 0.002864595
v 0.0189712 -2.973883E-05 0.01891276
v -0.01541873 1.489552E-05 0.02358714
v 0.01490647 -2.511827E-05 0.02365843
v 0.01988619 -0.02510468 -0.00296533
v 0.01040972 -1.246302E-05 -0.01897989
v 0.01044823 -0.02510871 -0.01896432
v 0.01984277 -2.742855E-05 -0.002980952
v 0.01005219 -1.204578E-05 -0.01860278
v -0.0005424613 2.819614E-06 -0.02413751
v 0.01934073 -2.678959E-05 -0.00284841
v -0.0005060309 2.84584E-06 -0.02468189
v 0.01044823 -0.02510871 -0.01896432
v -0.000473482 -0.02510529 -0.02466644
v -0.01123143 1.631887E-05 -0.02032148
v -0.0114943 1.673372E-05 -0.02075883
v -0.000473482 -0.02510529 -0.02466644
v -0.01914814 2.562435E-05 -0.01312494
v -0.01146808 -0.02509715 -0.02074348
v -0.01967902 2.63563E-05 -0.013318
v -0.01965803 -0.02508822 -0.01330276
v -0.01696266 2.02051E-05 0.002864595
v -0.01746018 2.084406E-05 0.002917123
v -0.01965803 -0.02508822 -0.01330276
v -0.01541873 1.489552E-05 0.02358714
v -0.01743699 -0.02508041 0.00293242
v -0.01588278 1.542719E-05 0.02408604
v -0.01585847 -0.02506918 0.02410134
v 0.01490647 -2.511827E-05 0.02365843
v 0.01513588 -2.55069E-05 0.02415896
v -0.01585847 -0.02506918 0.02410134
v 0.01517652 -0.02508507 0.02417456
v 0.0189712 -2.973883E-05 0.01891276
v 0.01946857 -3.042309E-05 0.01910139
v 0.01517652 -0.02508507 0.02417456
v 0.01951161 -0.02509048 0.01911702
v 0.01951161 -0.02509048 0.01911702
v 0.01988619 -0.02510468 -0.00296533
vt 0.7766811 0.8612005
vt 0.8226986 0.8801074
vt 0.8696465 0.8573463
vt 0.7430123 0.827531
vt 0.9115815 0.7899661
vt 0.7558461 0.7594037
vt 0.9129136 0.6948504
vt 0.7636184 0.6684878
vt 0.8961523 0.6729724
vt 0.2095301 0.9604806
vt 0.2077191 0.9633904
vt 0.2077191 0.9633904
vt 0.2095301 0.9604806
vt 0.2077191 0.9633904
vt 0.2056916 0.9643734
vt 0.2095301 0.9604806
vt 0.2056916 0.9643734
vt 0.2077191 0.9633904
vt 0.2056916 0.9643734
vt 0.2037044 0.9635569
vt 0.2037044 0.9635569
vt 0.2056916 0.9643734
vt 0.2022502 0.9621028
vt 0.2037044 0.9635569
vt 0.2022502 0.9621028
vt 0.2022502 0.9621028
vt 0.2028046 0.9591608
vt 0.2028046 0.9591608
vt 0.2022502 0.9621028
vt 0.2031403 0.9552344
vt 0.2028046 0.9591608
vt 0.2031403 0.9552344
vt 0.2031403 0.9552344
vt 0.2088637 0.9554281
vt 0.2088637 0.9554281
vt 0.2031403 0.9552344
vt 0.2088637 0.9554281
vt 0.2095876 0.9563729
vt 0.2095876 0.9563729
vt 0.2088637 0.9554281
vt 0.2095876 0.9563729
vt 0.2095876 0.9563729
vt 0.2095301 0.9604806
vn 0.0005450017 0.9999998 -0.0005866776
vn 0.0005450016 0.9999998 -0.0005866776
vn 0.0005450016 0.9999998 -0.0005866776
vn 0.0005450016 0.9999998 -0.0005866776
vn 0.0005450016 0.9999998 -0.0005866776
vn 0.0005450017 0.9999998 -0.0005866776
vn 0.0005450016 0.9999998 -0.0005866776
vn 0.0005450016 0.9999998 -0.0005866776
vn 0.0005450016 0.9999998 -0.0005866776
vn 0.8613029 -0.0007708619 -0.5080912
vn 0.0005450016 0.9999998 -0.0005866776
vn 0.8613029 -0.0007708637 -0.5080912
vn 0.0005450016 0.9999998 -0.0005866776
vn 0.0005450016 0.9999998 -0.0005866776
vn 0.0005450016 0.9999998 -0.0005866776
vn 0.0005450016 0.9999998 -0.0005866776
vn 0.0005450016 0.9999998 -0.0005866776
vn 0.4628104 -0.0007735458 -0.886457
vn 0.4628105 -0.0007735458 -0.8864569
vn 0.0005450017 0.9999998 -0.0005866776
vn 0.0005450017 0.9999998 -0.0005866776
vn -0.3360572 -0.0003671527 -0.9418415
vn 0.0005450016 0.9999998 -0.0005866776
vn -0.5096391 -0.0002241563 -0.8603883
vn 0.0005450016 0.9999998 -0.0005866776
vn -0.6724405 -6.43629E-05 -0.7401512
vn 0.0005450017 0.9999998 -0.0005866776
vn 0.0005450017 0.9999998 -0.0005866776
vn -0.9907714 0.0006233029 0.1355417
vn 0.0005450016 0.9999998 -0.0005866776
vn -0.9948801 0.0006052867 0.1010605
vn 0.0005450016 0.9999998 -0.0005866776
vn -0.9972312 0.0005908802 0.07436077
vn 0.0005450016 0.9999998 -0.0005866776
vn 0.0005450016 0.9999998 -0.0005866776
vn -0.002359226 0.0005874824 0.999997
vn -0.00235923 0.0005874824 0.999997
vn 0.0005450016 0.9999998 -0.0005866776
vn 0.0005450016 0.9999998 -0.0005866776
vn 0.7592525 -3.554922E-05 0.6507961
vn 0.7592525 -3.555294E-05 0.6507961
vn 0.999856 -0.0005395423 0.01696059
vn 0.999856 -0.0005395404 0.01696059
g polySurface91_0
f 3/3/3 2/2/2 1/1/1
f 1/1/1 4/4/4 3/3/3
f 4/4/4 5/5/5 3/3/3
f 4/4/4 6/6/6 5/5/5
f 6/6/6 7/7/7 5/5/5
f 6/6/6 8/8/8 7/7/7
f 8/8/8 9/9/9 7/7/7
g polySurface91_1
f 12/12/12 11/11/11 10/10/10
f 11/11/11 13/13/13 10/10/10
f 11/11/11 14/14/14 13/13/13
f 15/15/15 14/14/14 11/11/11
f 14/14/14 16/16/16 13/13/13
f 17/17/17 15/15/15 11/11/11
f 17/17/17 11/11/11 18/18/18
f 19/19/19 17/17/17 18/18/18
f 20/20/20 15/15/15 17/17/17
f 21/21/21 20/20/20 17/17/17
f 21/21/21 17/17/17 22/22/22
f 23/23/23 20/20/20 21/21/21
f 24/24/24 21/21/21 22/22/22
f 25/25/25 23/23/23 21/21/21
f 25/25/25 21/21/21 24/24/24
f 26/26/26 25/25/25 24/24/24
f 27/27/27 23/23/23 25/25/25
f 28/28/28 27/27/27 25/25/25
f 28/28/28 25/25/25 29/29/29
f 30/30/30 27/27/27 28/28/28
f 31/31/31 28/28/28 29/29/29
f 32/32/32 30/30/30 28/28/28
f 32/32/32 28/28/28 31/31/31
f 33/33/33 32/32/32 31/31/31
f 34/34/34 30/30/30 32/32/32
f 35/35/35 34/34/34 32/32/32
f 35/35/35 32/32/32 36/36/36
f 37/37/37 35/35/35 36/36/36
f 38/38/38 34/34/34 35/35/35
f 39/39/39 38/38/38 35/35/35
f 39/39/39 35/35/35 40/40/40
f 41/41/41 39/39/39 40/40/40
f 16/16/16 38/38/38 39/39/39
f 13/13/13 16/16/16 39/39/39
f 13/13/13 39/39/39 42/42/42
f 43/43/43 13/13/13 42/42/42
