g polySurface104
v -0.01495639 2.513183E-05 0.0197002
v -0.01983869 3.275884E-05 0.0122135
v -0.0004480862 6.454114E-06 0.01676441
v 0.01985816 -2.057778E-05 0.01831552
v -0.02068044 3.524554E-05 0.003501625
v 0.01925693 -1.492488E-05 -0.01234093
v 0.006493704 2.417687E-06 -0.01557083
v -0.01921943 3.639234E-05 -0.01593908
v -0.006222198 1.996529E-05 -0.0205028
v -0.02038312 -0.0252017 0.01239893
v -0.01518985 2.535117E-05 0.02025749
v -0.01524517 -0.02519936 0.02027262
v -0.02032406 3.337157E-05 0.0123839
v -0.02124134 -0.02520687 0.003522014
v -0.02118172 3.591073E-05 0.003506984
v -0.0197518 -0.02522019 -0.01628756
v -0.01969315 3.707421E-05 -0.0163026
v -0.01524517 -0.02519936 0.02027262
v -0.01518985 2.535117E-05 0.02025749
v -0.0004166054 6.339673E-06 0.01726824
v -0.0004645227 -0.02520883 0.01728348
v 0.02036866 -2.133834E-05 0.01885599
v 0.02033214 -0.02521851 0.01887142
v 0.02033214 -0.02521851 0.01887142
v 0.02036866 -2.133834E-05 0.01885599
v 0.01974889 -1.552331E-05 -0.01273212
v 0.01971125 -0.02523816 -0.01271671
v 0.01971125 -0.02523816 -0.01271671
v 0.01974889 -1.552331E-05 -0.01273212
v 0.006644976 2.286557E-06 -0.01604809
v 0.006601221 -0.02523356 -0.01603277
v -0.006213357 2.003682E-05 -0.02103571
v -0.006264913 -0.02523008 -0.02102053
v -0.006264913 -0.02523008 -0.02102053
v -0.006213357 2.003682E-05 -0.02103571
v -0.01969315 3.707421E-05 -0.0163026
v -0.0197518 -0.02522019 -0.01628756
v -0.01969315 3.707421E-05 -0.0163026
v -0.02068044 3.524554E-05 0.003501625
v -0.02118172 3.591073E-05 0.003506984
v -0.01921943 3.639234E-05 -0.01593908
v -0.01983869 3.275884E-05 0.0122135
v -0.006213357 2.003682E-05 -0.02103571
v -0.02032406 3.337157E-05 0.0123839
v -0.006222198 1.996529E-05 -0.0205028
v -0.01495639 2.513183E-05 0.0197002
v 0.006644976 2.286557E-06 -0.01604809
v -0.01518985 2.535117E-05 0.02025749
v 0.006493704 2.417687E-06 -0.01557083
v -0.0004480862 6.454114E-06 0.01676441
v 0.01974889 -1.552331E-05 -0.01273212
v -0.0004166054 6.339673E-06 0.01726824
v 0.01925693 -1.492488E-05 -0.01234093
v 0.01985816 -2.057778E-05 0.01831552
v 0.02036866 -2.133834E-05 0.01885599
vt 0.5665477 0.6479647
vt 0.524377 0.7069511
vt 0.6828286 0.6769715
vt 0.8368971 0.671342
vt 0.5144988 0.7751803
vt 0.8224837 0.9135735
vt 0.7214654 0.9349518
vt 0.5183923 0.9297043
vt 0.6215083 0.9693795
vt 0.1910572 0.9549203
vt 0.1987522 0.9569293
vt 0.1957357 0.9516362
vt 0.1965075 0.9585521
vt 0.1882023 0.9594107
vt 0.1953776 0.9610208
vt 0.1890288 0.970867
vt 0.1939762 0.9669217
vt 0.1957357 0.9516362
vt 0.1987522 0.9569293
vt 0.20304 0.9584123
vt 0.2047238 0.9512726
vt 0.2082958 0.9615635
vt 0.21401 0.9581192
vt 0.21401 0.9581192
vt 0.2082958 0.9615635
vt 0.2051522 0.970015
vt 0.2110377 0.9742437
vt 0.2110377 0.9742437
vt 0.2051522 0.970015
vt 0.2011778 0.9701772
vt 0.2034163 0.9773301
vt 0.1970373 0.9698968
vt 0.1954493 0.9763969
vt 0.1954493 0.9763969
vt 0.1970373 0.9698968
vt 0.1939762 0.9669217
vt 0.1890288 0.970867
vt 0.1939762 0.9669217
vt 0.1955427 0.9610596
vt 0.1953776 0.9610208
vt 0.1941365 0.9668714
vt 0.196622 0.9586666
vt 0.1970373 0.9698968
vt 0.1965075 0.9585521
vt 0.1971201 0.9697559
vt 0.1987702 0.957083
vt 0.2011778 0.9701772
vt 0.1987522 0.9569293
vt 0.2011466 0.9699827
vt 0.2029258 0.9585637
vt 0.2051522 0.970015
vt 0.20304 0.9584123
vt 0.2050308 0.9699161
vt 0.2080915 0.9616031
vt 0.2082958 0.9615635
vn 0.0005134846 0.9999996 -0.0006328874
vn 0.0005134846 0.9999996 -0.0006328874
vn 0.0005134846 0.9999996 -0.0006328874
vn 0.0005134846 0.9999996 -0.0006328874
vn 0.0005134846 0.9999996 -0.0006328874
vn 0.0005134846 0.9999996 -0.0006328874
vn 0.0005134846 0.9999996 -0.0006328874
vn 0.0005134846 0.9999996 -0.0006328874
vn 0.0005134846 0.9999996 -0.0006328874
vn -0.9414956 0.0006967438 0.3370246
vn 0.0005134846 0.9999996 -0.0006328874
vn -0.8374678 0.0007759136 0.5464861
vn 0.0005134846 0.9999996 -0.0006328874
vn -0.9997578 0.0004992352 -0.02200249
vn 0.0005134846 0.9999996 -0.0006328874
vn -0.9971848 0.0004643064 -0.07498125
vn 0.0005134846 0.9999996 -0.0006328874
vn 0.198221 0.0005184836 0.9801573
vn 0.0005134846 0.9999996 -0.0006328874
vn 0.0005134846 0.9999996 -0.0006328874
vn 0.03935448 0.0006121666 0.9992251
vn 0.0005134846 0.9999996 -0.0006328874
vn -0.07613369 0.0006701506 0.9970975
vn 0.9998068 -0.0005254989 -0.01965172
vn 0.0005134846 0.9999996 -0.0006328874
vn 0.0005134846 0.9999996 -0.0006328874
vn 0.9998068 -0.0005255007 -0.01965171
vn 0.2452174 -0.0007394213 -0.9694679
vn 0.0005134846 0.9999996 -0.0006328874
vn 0.0005134846 0.9999996 -0.0006328874
vn 0.3044913 -0.000759149 -0.9525148
vn 0.0005134846 0.9999996 -0.0006328874
vn 0.361456 -0.0007756818 -0.9323888
vn -0.3311327 -0.000427204 -0.9435841
vn 0.0005134846 0.9999996 -0.0006328874
vn 0.0005134846 0.9999996 -0.0006328874
vn -0.3311327 -0.0004272041 -0.9435841
vn 0.0005021001 0.9999996 -0.0006502788
vn 0.0005134846 0.9999996 -0.0006328874
vn 0.0005115371 0.9999996 -0.0006339516
vn 0.0005134846 0.9999996 -0.0006328874
vn 0.0005134846 0.9999996 -0.0006328874
vn 0.0005122565 0.9999996 -0.0006656933
vn 0.0005359224 0.9999996 -0.000641926
vn 0.0005134846 0.9999996 -0.0006328874
vn 0.0005134846 0.9999996 -0.0006328874
vn 0.0005209054 0.9999996 -0.0006542109
vn 0.0005227639 0.9999996 -0.0006457202
vn 0.0005134846 0.9999996 -0.0006328874
vn 0.0005134846 0.9999996 -0.0006328874
vn 0.000539205 0.9999996 -0.0006383893
vn 0.0005114284 0.9999998 -0.0006235224
vn 0.0005134846 0.9999996 -0.0006328874
vn 0.0005134846 0.9999996 -0.0006328874
vn 0.0005342959 0.9999996 -0.0006241736
g polySurface104_0
f 3/3/3 2/2/2 1/1/1
f 2/2/2 3/3/3 4/4/4
f 5/5/5 2/2/2 4/4/4
f 5/5/5 4/4/4 6/6/6
f 5/5/5 6/6/6 7/7/7
f 8/8/8 5/5/5 7/7/7
f 7/7/7 9/9/9 8/8/8
g polySurface104_1
f 12/12/12 11/11/11 10/10/10
f 11/11/11 13/13/13 10/10/10
f 10/10/10 13/13/13 14/14/14
f 13/13/13 15/15/15 14/14/14
f 14/14/14 15/15/15 16/16/16
f 15/15/15 17/17/17 16/16/16
f 20/20/20 19/19/19 18/18/18
f 21/21/21 20/20/20 18/18/18
f 22/22/22 20/20/20 21/21/21
f 23/23/23 22/22/22 21/21/21
f 26/26/26 25/25/25 24/24/24
f 27/27/27 26/26/26 24/24/24
f 30/30/30 29/29/29 28/28/28
f 31/31/31 30/30/30 28/28/28
f 32/32/32 30/30/30 31/31/31
f 33/33/33 32/32/32 31/31/31
f 36/36/36 35/35/35 34/34/34
f 37/37/37 36/36/36 34/34/34
f 40/40/40 39/39/39 38/38/38
f 39/39/39 41/41/41 38/38/38
f 42/42/42 39/39/39 40/40/40
f 38/38/38 41/41/41 43/43/43
f 44/44/44 42/42/42 40/40/40
f 41/41/41 45/45/45 43/43/43
f 46/46/46 42/42/42 44/44/44
f 43/43/43 45/45/45 47/47/47
f 48/48/48 46/46/46 44/44/44
f 45/45/45 49/49/49 47/47/47
f 50/50/50 46/46/46 48/48/48
f 47/47/47 49/49/49 51/51/51
f 52/52/52 50/50/50 48/48/48
f 49/49/49 53/53/53 51/51/51
f 54/54/54 50/50/50 52/52/52
f 51/51/51 53/53/53 55/55/55
f 55/55/55 54/54/54 52/52/52
f 53/53/53 54/54/54 55/55/55
