g polySurface98
v -0.02163665 1.727812E-05 -0.02036978
v -0.005193588 -4.031732E-06 -0.02277447
v 0.005280741 -1.846798E-05 -0.01890154
v -0.01851644 1.087897E-05 -0.005926266
v 0.02292618 -4.206665E-05 -0.01681963
v 0.01388319 -3.391273E-05 0.00701641
v -0.01369239 1.053736E-06 0.01595131
v 0.01039035 -3.181703E-05 0.02286476
v -0.005148009 -0.02516229 -0.02327171
v -0.0222379 1.814119E-05 -0.0207871
v -0.02225487 -0.02515193 -0.02077133
v -0.005139894 -4.017427E-06 -0.02328764
v 0.005396414 -0.02516523 -0.0193751
v 0.005398391 -1.854904E-05 -0.01939114
v 0.02362816 -0.02517322 -0.017225
v 0.02362052 -4.29178E-05 -0.01724119
v -0.005193588 -4.031732E-06 -0.02277447
v 0.005280741 -1.846798E-05 -0.01890154
v -0.02163665 1.727812E-05 -0.02036978
v -0.01851644 1.087897E-05 -0.005926266
v 0.02292618 -4.206665E-05 -0.01681963
v -0.01900443 1.150839E-05 -0.005819569
v -0.02225487 -0.02515193 -0.02077133
v -0.01369239 1.053736E-06 0.01595131
v -0.01901963 -0.02514409 -0.005803776
v -0.01411623 1.554415E-06 0.01634981
v -0.01412831 -0.02513257 0.01636566
v 0.01039035 -3.181703E-05 0.02286476
v 0.01076432 -3.240593E-05 0.02349216
v -0.01412831 -0.02513257 0.01636566
v 0.01076578 -0.02514083 0.02350824
v 0.01388319 -3.391273E-05 0.00701641
v 0.01436252 -3.457077E-05 0.007159671
v 0.01076578 -0.02514083 0.02350824
v 0.01436596 -0.02515301 0.007175788
v 0.02362816 -0.02517322 -0.017225
vt 0.5619299 0.4593337
vt 0.6114498 0.4679946
vt 0.6502735 0.4712014
vt 0.5725836 0.4169652
vt 0.6904884 0.4546924
vt 0.6671369 0.3845826
vt 0.5886208 0.3548882
vt 0.6587605 0.33807
vt 0.2208419 0.9289008
vt 0.2175755 0.9283295
vt 0.2175755 0.9283295
vt 0.2208419 0.9289008
vt 0.2234027 0.9291123
vt 0.2234027 0.9291123
vt 0.2260552 0.9280233
vt 0.2260552 0.9280233
vt 0.2208419 0.9289008
vt 0.2234027 0.9291123
vt 0.2175755 0.9283295
vt 0.2182783 0.9255349
vt 0.2260552 0.9280233
vt 0.2182783 0.9255349
vt 0.2175755 0.9283295
vt 0.2193361 0.9214403
vt 0.2182783 0.9255349
vt 0.2193361 0.9214403
vt 0.2193361 0.9214403
vt 0.2239625 0.9203309
vt 0.2239625 0.9203309
vt 0.2193361 0.9214403
vt 0.2239625 0.9203309
vt 0.224515 0.923399
vt 0.224515 0.923399
vt 0.2239625 0.9203309
vt 0.224515 0.923399
vt 0.2260552 0.9280233
vn 0.0005133896 0.9999996 -0.0006328908
vn 0.0005133896 0.9999996 -0.0006328908
vn 0.0005133896 0.9999996 -0.0006328908
vn 0.0005133896 0.9999996 -0.0006328908
vn 0.0005133896 0.9999996 -0.0006328908
vn 0.0005133896 0.9999996 -0.0006328908
vn 0.0005133896 0.9999996 -0.0006328908
vn 0.0005133896 0.9999996 -0.0006328908
vn 0.05042962 -0.000657976 -0.9987274
vn 0.0005133896 0.9999996 -0.0006328908
vn -0.1446268 -0.0005519887 -0.9894861
vn 0.0005133896 0.9999996 -0.0006328908
vn 0.2056381 -0.0007249313 -0.9786279
vn 0.0005133896 0.9999996 -0.0006328908
vn 0.1171191 -0.000688654 -0.9931176
vn 0.0005133896 0.9999996 -0.0006328908
vn 0.0005133896 0.9999996 -0.0006328908
vn 0.0005133896 0.9999996 -0.0006328908
vn 0.0005133896 0.9999996 -0.0006328908
vn 0.0005133896 0.9999996 -0.0006328908
vn 0.0005133896 0.9999996 -0.0006328908
vn 0.0005133896 0.9999996 -0.0006328908
vn -0.9774272 0.000635546 0.2112712
vn 0.0005133896 0.9999996 -0.0006328908
vn -0.9768842 0.0006368541 0.213768
vn 0.0005133896 0.9999996 -0.0006328908
vn -0.9765143 0.0006377358 0.2154513
vn 0.0005133896 0.9999996 -0.0006328908
vn 0.0005133896 0.9999996 -0.0006328908
vn -0.2757911 0.0007499315 0.9612173
vn -0.2757911 0.000749931 0.9612173
vn 0.0005133896 0.9999996 -0.0006328908
vn 0.0005133896 0.9999996 -0.0006328908
vn 0.976556 -0.0003650236 0.2152631
vn 0.9535876 -0.0002989006 0.3011157
vn 0.9349118 -0.0002552975 0.35488
g polySurface98_0
f 3/3/3 2/2/2 1/1/1
f 1/1/1 4/4/4 3/3/3
f 4/4/4 5/5/5 3/3/3
f 4/4/4 6/6/6 5/5/5
f 4/4/4 7/7/7 6/6/6
f 7/7/7 8/8/8 6/6/6
g polySurface98_1
f 11/11/11 10/10/10 9/9/9
f 10/10/10 12/12/12 9/9/9
f 9/9/9 12/12/12 13/13/13
f 12/12/12 14/14/14 13/13/13
f 13/13/13 14/14/14 15/15/15
f 14/14/14 16/16/16 15/15/15
f 12/12/12 17/17/17 14/14/14
f 17/17/17 18/18/18 14/14/14
f 14/14/14 18/18/18 16/16/16
f 19/19/19 17/17/17 12/12/12
f 10/10/10 19/19/19 12/12/12
f 20/20/20 19/19/19 10/10/10
f 18/18/18 21/21/21 16/16/16
f 22/22/22 20/20/20 10/10/10
f 22/22/22 10/10/10 23/23/23
f 24/24/24 20/20/20 22/22/22
f 25/25/25 22/22/22 23/23/23
f 26/26/26 24/24/24 22/22/22
f 26/26/26 22/22/22 25/25/25
f 27/27/27 26/26/26 25/25/25
f 28/28/28 24/24/24 26/26/26
f 29/29/29 28/28/28 26/26/26
f 29/29/29 26/26/26 30/30/30
f 31/31/31 29/29/29 30/30/30
f 32/32/32 28/28/28 29/29/29
f 21/21/21 32/32/32 33/33/33
f 33/33/33 32/32/32 29/29/29
f 33/33/33 29/29/29 34/34/34
f 16/16/16 21/21/21 33/33/33
f 35/35/35 33/33/33 34/34/34
f 16/16/16 33/33/33 35/35/35
f 36/36/36 16/16/16 35/35/35
