g raogo6
v 0.3750513 -0.1078393 -3.130202
v 0.2202204 -0.4228392 -3.111735
v 0.3270453 -0.4356287 -3.098713
v 0.2656477 -0.09137344 -3.143166
v 0.3817175 0.0718739 -3.064726
v 0.1497019 -0.4043953 -3.017329
v 0.1333216 -0.5540519 -2.978124
v 0.1880072 -0.583112 -3.002815
v 0.1000727 -0.4999528 -2.521406
v 0.1476897 -0.5446339 -2.515257
v 0.01571066 -0.3808689 -1.042933
v -0.02016847 -0.3420253 -1.04651
v -0.2247621 -0.3069954 1.056488
v 0.09428579 -0.3487494 -2.533206
v 0.1954554 -0.07822084 -3.057429
v 0.2837999 0.09704328 -3.081913
v 0.2497156 0.1881502 -2.63494
v 0.3626726 0.1669338 -2.628287
v 0.2366465 0.3312552 -1.210841
v 0.2288798 0.09477687 -3.059634
v 0.1189383 0.3291609 -1.221811
v -0.03200739 0.3727567 0.9350269
v 0.1929682 0.1636388 -2.63699
v -0.1431829 0.3596485 0.9144566
v -0.1557447 0.5450413 2.560641
v 0.1444281 0.005435228 -2.607669
v 0.01729567 0.200062 -1.174895
v 0.07089216 0.3021796 -1.217677
v -0.03894823 -0.1983156 -1.07089
v -0.2896139 -0.1937745 1.017864
v -0.1793424 0.3313119 0.9072592
v -0.2573835 -0.2949548 1.053172
v -0.3906996 -0.1262801 2.560797
v -0.3543016 -0.1490898 2.575663
v -0.2281553 0.2091668 0.9202111
v -0.4047033 0.003800631 2.522853
v -0.3596632 0.3690984 2.492363
v -0.3201219 0.5247824 2.528848
v -0.4176428 -0.06511116 3.021729
v -0.3966352 -0.07136297 3.071289
v -0.3912947 0.06942582 3.143166
v -0.4219915 0.07012057 3.040693
v -0.330372 0.4443429 3.091585
v -0.3693888 0.4325688 2.996387
v -0.3336088 0.5738056 2.953242
v -0.2975542 0.5851624 2.993664
v -0.2727739 0.5517585 2.540916
v -0.1991369 0.5863583 3.00939
v -0.1486456 0.5705893 3.000361
v -0.1991369 0.5863583 3.00939
v -0.330372 0.4443429 3.091585
v -0.2975542 0.5851624 2.993664
v -0.2229425 0.4373128 3.105339
v -0.2769129 0.05725598 3.142514
v -0.3912947 0.06942582 3.143166
v -0.3966352 -0.07136297 3.071289
v -0.1635477 0.4236953 3.041323
v -0.1486456 0.5705893 3.000361
v -0.3017675 -0.06730509 3.072353
v -0.3543016 -0.1490898 2.575663
v -0.2529833 -0.1709189 2.595568
v -0.2247621 -0.3069954 1.056488
v -0.2250711 0.05379653 3.069822
v -0.3017675 -0.06730509 3.072353
v -0.209057 -0.1460631 2.596257
v -0.1065771 0.5246732 2.572698
v -0.1557447 0.5450413 2.560641
v -0.1163484 -0.3159938 1.063417
v -0.2605993 -0.05521727 3.042629
v -0.09969347 0.366225 2.559114
v 0.03201277 0.220082 0.9570181
v 0.002277206 0.3473051 0.9431431
v -0.03200739 0.3727567 0.9350269
v 0.2366465 0.3312552 -1.210841
v -0.1578504 -0.01959538 2.576096
v 0.2746657 0.2929485 -1.202856
v 0.3626726 0.1669338 -2.628287
v -0.03320901 -0.1944098 1.038239
v -0.08615129 -0.2879255 1.060917
v 0.2147692 -0.2424231 -1.070256
v 0.2847727 0.1555603 -1.160822
v 0.4084585 0.1209319 -2.62698
v 0.1169623 -0.3656995 -1.046413
v 0.01571066 -0.3808689 -1.042933
v 0.1616648 -0.3452106 -1.051047
v 0.3602961 -0.398514 -2.532629
v 0.2563036 -0.550535 -2.512736
v 0.1476897 -0.5446339 -2.515257
v 0.1880072 -0.583112 -3.002815
v 0.3084505 -0.5293493 -2.517414
v 0.2914312 -0.5863583 -2.990954
v 0.2202204 -0.4228392 -3.111735
v 0.3270453 -0.4356287 -3.098713
v 0.3835962 -0.4371841 -3.000428
v 0.3750513 -0.1078393 -3.130202
v 0.3428534 -0.571686 -2.956541
v 0.414192 -0.0357163 -2.605575
v 0.4218157 -0.1154809 -3.036303
v 0.4219912 0.0427978 -3.037047
v 0.3817175 0.0718739 -3.064726
vt 0.3804904 0.1841598
vt 0.3806824 0.18244
vt 0.3806495 0.1825485
vt 0.3805245 0.1840705
vt 0.3806892 0.1850501
vt 0.3810428 0.1824575
vt 0.3811926 0.1817403
vt 0.3810734 0.181678
vt 0.3827091 0.1821318
vt 0.3826939 0.1819973
vt 0.38754 0.183157
vt 0.3875622 0.183284
vt 0.3943584 0.1839628
vt 0.3826691 0.1828324
vt 0.3808573 0.1840622
vt 0.3807014 0.1850209
vt 0.382193 0.1855771
vt 0.3821296 0.1856409
vt 0.3868153 0.1867661
vt 0.3808148 0.1849381
vt 0.3868858 0.1865879
vt 0.3938382 0.1873586
vt 0.3822308 0.1853769
vt 0.3938952 0.1871384
vt 0.398973 0.1885598
vt 0.3823716 0.1845613
vt 0.3871267 0.1858479
vt 0.3869421 0.1863936
vt 0.3875045 0.1839218
vt 0.3943226 0.1843801
vt 0.3939099 0.1869529
vt 0.3943856 0.18397
vt 0.3991591 0.1851267
vt 0.3991551 0.1850782
vt 0.393992 0.1863157
vt 0.3990824 0.1856947
vt 0.3989917 0.1874447
vt 0.3990775 0.188238
vt 0.4005871 0.18554
vt 0.4007072 0.1855585
vt 0.40094 0.1862406
vt 0.400673 0.186165
vt 0.4007738 0.1880415
vt 0.4005361 0.1879024
vt 0.400385 0.1885937
vt 0.4004624 0.1887075
vt 0.3990595 0.1884308
vt 0.4003842 0.1888463
vt 0.4002901 0.1888354
vt 0.4003842 0.1888463
vt 0.4007738 0.1880415
vt 0.4004624 0.1887075
vt 0.4006759 0.1881552
vt 0.400789 0.1863407
vt 0.40094 0.1862406
vt 0.4007072 0.1855585
vt 0.4004065 0.1881484
vt 0.4002901 0.1888354
vt 0.4005899 0.185709
vt 0.3991551 0.1850782
vt 0.3990864 0.1851273
vt 0.3943584 0.1839628
vt 0.4005059 0.1863696
vt 0.4005899 0.185709
vt 0.3990383 0.1853031
vt 0.3989456 0.1885332
vt 0.398973 0.1885598
vt 0.3942593 0.1840808
vt 0.4004511 0.1858105
vt 0.3988717 0.1878018
vt 0.3938217 0.1867393
vt 0.3938234 0.1872886
vt 0.3938382 0.1873586
vt 0.3868153 0.1867661
vt 0.3989346 0.1859479
vt 0.3868063 0.1866405
vt 0.3821296 0.1856409
vt 0.3941029 0.1847525
vt 0.3942213 0.184253
vt 0.3872749 0.1840877
vt 0.3869298 0.1860213
vt 0.3821012 0.1854883
vt 0.3874369 0.1833773
vt 0.38754 0.183157
vt 0.387382 0.1835372
vt 0.3824679 0.1830005
vt 0.3826184 0.1821375
vt 0.3826939 0.1819973
vt 0.3810734 0.181678
vt 0.3825624 0.1823145
vt 0.3810373 0.181828
vt 0.3806824 0.18244
vt 0.3806495 0.1825485
vt 0.3809307 0.1826669
vt 0.3804904 0.1841598
vt 0.3811114 0.1819903
vt 0.382174 0.1847618
vt 0.3807657 0.1842293
vt 0.3807531 0.1849809
vt 0.3806892 0.1850501
vn 0.5474502 -0.03528735 -0.8360939
vn -0.4178246 -0.1497665 -0.8960986
vn 0.5138225 -0.3212234 -0.7954885
vn -0.3538106 0.0865031 -0.9313083
vn 0.4453626 0.7898203 -0.421706
vn -0.9720877 0.09185658 -0.2158885
vn -0.9703909 -0.1917144 -0.1469254
vn -0.208228 -0.9557419 -0.2078426
vn -0.9746218 -0.2173063 -0.05376177
vn -0.3107437 -0.947879 0.07045437
vn -0.2262542 -0.9730995 0.04343266
vn -0.9504523 -0.2991747 -0.08446952
vn -0.1625813 -0.9856786 0.0447774
vn -0.9935771 0.05065367 -0.101187
vn -0.9655617 0.1297396 -0.2255178
vn 0.124644 0.8668736 -0.4826946
vn 0.02111927 0.9914386 -0.1288542
vn 0.3817829 0.9190914 -0.09753391
vn 0.285468 0.9580672 -0.02480762
vn -0.8727053 0.4190079 -0.2506348
vn -0.2109256 0.9749341 -0.07080968
vn 0.09360261 0.9946141 -0.04451199
vn -0.8923232 0.4314067 -0.1328444
vn -0.1883452 0.9787417 -0.08118432
vn 0.1980966 0.9758642 -0.09190632
vn -0.9793782 0.1646594 -0.1170719
vn -0.9787136 0.170895 -0.1136421
vn -0.8197336 0.5612558 -0.1141441
vn -0.9930729 0.04310136 -0.109309
vn -0.9937045 0.03922207 -0.1049424
vn -0.8711814 0.4769093 -0.1166219
vn -0.8588852 -0.5095391 -0.05182689
vn -0.9481055 -0.3161886 -0.03347778
vn -0.3263105 -0.9408565 0.09116183
vn -0.9772653 0.1821238 -0.1085518
vn -0.9974365 0.02652346 -0.06646021
vn -0.9822014 0.1661875 -0.08753392
vn -0.8864251 0.4482227 -0.1155287
vn -0.9702929 -0.2414901 0.01463406
vn -0.1747468 -0.9122092 0.3705914
vn -0.5231091 0.04775031 0.8509271
vn -0.9966228 0.08075894 0.0148646
vn -0.5662503 0.2974206 0.7687013
vn -0.984764 0.1719141 0.02617997
vn -0.8971115 0.4416776 -0.01057958
vn -0.2448417 0.9588663 0.1436247
vn -0.09960359 0.9884554 -0.1141711
vn 0.07956182 0.9770651 0.1975191
vn 0.9521469 0.2537965 0.1703039
vn 0.07956182 0.9770651 0.1975191
vn -0.5662503 0.2974206 0.7687013
vn -0.2448417 0.9588663 0.1436247
vn 0.3048091 0.1899566 0.933278
vn 0.3362746 -0.1336251 0.9322359
vn -0.5231091 0.04775031 0.8509271
vn -0.1747468 -0.9122092 0.3705914
vn 0.9718013 -0.09058337 0.2177085
vn 0.9521469 0.2537965 0.1703039
vn 0.05415195 -0.9235964 0.3795224
vn -0.3263105 -0.9408565 0.09116183
vn 0.07298951 -0.9889549 0.1289991
vn -0.1625813 -0.9856786 0.0447774
vn 0.9546802 -0.1950125 0.2248459
vn 0.05415193 -0.9235964 0.3795224
vn 0.7910231 -0.595891 0.1385512
vn 0.9540792 0.2943269 0.05571882
vn 0.1980966 0.9758642 -0.09190632
vn 0.1186098 -0.990716 0.06643544
vn 0.8213961 -0.5148472 0.2454406
vn 0.9903404 -0.09386657 0.1020542
vn 0.9906182 -0.08379392 0.1079544
vn 0.9184455 0.3891141 0.07105045
vn 0.09360261 0.9946141 -0.04451199
vn 0.285468 0.9580672 -0.02480762
vn 0.9746487 -0.1921992 0.1145401
vn 0.9512615 0.2965735 0.08453286
vn 0.3817829 0.9190914 -0.09753391
vn 0.9728548 -0.2034013 0.1103697
vn 0.8307153 -0.5452316 0.1124039
vn 0.9694954 -0.2134829 0.1204315
vn 0.9908507 -0.07495365 0.1122354
vn 0.9582603 0.2833076 0.03839186
vn 0.2799724 -0.9546844 0.1009611
vn -0.2262542 -0.9730995 0.04343266
vn 0.7887836 -0.6018035 0.1251123
vn 0.9744045 -0.2020136 0.0986232
vn 0.09500556 -0.9889414 0.1138806
vn -0.3107437 -0.947879 0.07045437
vn -0.208228 -0.9557419 -0.2078426
vn 0.8255444 -0.547838 0.1354618
vn 0.2432767 -0.9513488 -0.1890824
vn -0.4178246 -0.1497665 -0.8960986
vn 0.5138225 -0.3212234 -0.7954885
vn 0.9756426 -0.2137351 -0.04938585
vn 0.5474502 -0.03528735 -0.8360939
vn 0.8513644 -0.5235687 0.03247306
vn 0.9935011 -0.07712897 0.08370555
vn 0.9935009 -0.1025431 -0.04940508
vn 0.9787908 0.1851548 -0.08767097
vn 0.4453626 0.7898203 -0.421706
g raogo6_0
f 3/3/3 2/2/2 1/1/1
f 4/4/4 1/1/1 2/2/2
f 1/1/1 4/4/4 5/5/5
f 2/2/2 6/6/6 4/4/4
f 6/6/6 2/2/2 7/7/7
f 8/8/8 7/7/7 2/2/2
f 7/7/7 8/8/8 9/9/9
f 7/7/7 9/9/9 6/6/6
f 10/10/10 9/9/9 8/8/8
f 10/10/10 11/11/11 9/9/9
f 12/12/12 9/9/9 11/11/11
f 11/11/11 13/13/13 12/12/12
f 14/14/14 6/6/6 9/9/9
f 9/9/9 12/12/12 14/14/14
f 15/15/15 4/4/4 6/6/6
f 6/6/6 14/14/14 15/15/15
f 16/16/16 5/5/5 4/4/4
f 4/4/4 15/15/15 16/16/16
f 16/16/16 17/17/17 5/5/5
f 18/18/18 5/5/5 17/17/17
f 18/18/18 17/17/17 19/19/19
f 20/20/20 16/16/16 15/15/15
f 16/16/16 20/20/20 17/17/17
f 21/21/21 19/19/19 17/17/17
f 19/19/19 21/21/21 22/22/22
f 23/23/23 17/17/17 20/20/20
f 20/20/20 15/15/15 23/23/23
f 17/17/17 23/23/23 21/21/21
f 24/24/24 22/22/22 21/21/21
f 22/22/22 24/24/24 25/25/25
f 26/26/26 15/15/15 14/14/14
f 26/26/26 23/23/23 15/15/15
f 26/26/26 14/14/14 27/27/27
f 26/26/26 27/27/27 23/23/23
f 28/28/28 21/21/21 23/23/23
f 21/21/21 28/28/28 24/24/24
f 28/28/28 23/23/23 27/27/27
f 29/29/29 27/27/27 14/14/14
f 29/29/29 14/14/14 12/12/12
f 29/29/29 12/12/12 30/30/30
f 29/29/29 30/30/30 27/27/27
f 28/28/28 27/27/27 31/31/31
f 31/31/31 24/24/24 28/28/28
f 32/32/32 30/30/30 12/12/12
f 32/32/32 12/12/12 13/13/13
f 32/32/32 13/13/13 33/33/33
f 34/34/34 33/33/33 13/13/13
f 35/35/35 31/31/31 27/27/27
f 35/35/35 27/27/27 30/30/30
f 30/30/30 32/32/32 36/36/36
f 33/33/33 36/36/36 32/32/32
f 35/35/35 30/30/30 37/37/37
f 35/35/35 37/37/37 31/31/31
f 36/36/36 37/37/37 30/30/30
f 31/31/31 38/38/38 24/24/24
f 38/38/38 31/31/31 37/37/37
f 33/33/33 34/34/34 39/39/39
f 40/40/40 39/39/39 34/34/34
f 40/40/40 41/41/41 39/39/39
f 39/39/39 42/42/42 33/33/33
f 42/42/42 39/39/39 41/41/41
f 36/36/36 33/33/33 42/42/42
f 41/41/41 43/43/43 42/42/42
f 37/37/37 36/36/36 44/44/44
f 42/42/42 44/44/44 36/36/36
f 44/44/44 42/42/42 43/43/43
f 37/37/37 44/44/44 38/38/38
f 44/44/44 43/43/43 45/45/45
f 45/45/45 38/38/38 44/44/44
f 46/46/46 45/45/45 43/43/43
f 45/45/45 46/46/46 38/38/38
f 47/47/47 24/24/24 38/38/38
f 47/47/47 38/38/38 46/46/46
f 47/47/47 25/25/25 24/24/24
f 47/47/47 46/46/46 25/25/25
f 48/48/48 25/25/25 46/46/46
f 48/48/48 49/49/49 25/25/25
f 52/52/52 51/51/51 50/50/50
f 53/53/53 50/50/50 51/51/51
f 53/53/53 51/51/51 54/54/54
f 55/55/55 54/54/54 51/51/51
f 55/55/55 56/56/56 54/54/54
f 53/53/53 57/57/57 50/50/50
f 53/53/53 54/54/54 57/57/57
f 58/58/58 50/50/50 57/57/57
f 59/59/59 54/54/54 56/56/56
f 56/56/56 60/60/60 59/59/59
f 61/61/61 59/59/59 60/60/60
f 60/60/60 62/62/62 61/61/61
f 63/63/63 57/57/57 54/54/54
f 54/54/54 64/64/64 63/63/63
f 61/61/61 65/65/65 64/64/64
f 58/58/58 57/57/57 66/66/66
f 66/66/66 67/67/67 58/58/58
f 68/68/68 61/61/61 62/62/62
f 61/61/61 68/68/68 65/65/65
f 69/69/69 63/63/63 64/64/64
f 69/69/69 64/64/64 65/65/65
f 69/69/69 65/65/65 63/63/63
f 57/57/57 63/63/63 70/70/70
f 70/70/70 66/66/66 57/57/57
f 70/70/70 71/71/71 66/66/66
f 66/66/66 72/72/72 67/67/67
f 72/72/72 66/66/66 71/71/71
f 73/73/73 67/67/67 72/72/72
f 73/73/73 72/72/72 74/74/74
f 75/75/75 70/70/70 63/63/63
f 75/75/75 63/63/63 65/65/65
f 70/70/70 75/75/75 71/71/71
f 76/76/76 74/74/74 72/72/72
f 72/72/72 71/71/71 76/76/76
f 74/74/74 76/76/76 77/77/77
f 75/75/75 65/65/65 78/78/78
f 78/78/78 71/71/71 75/75/75
f 79/79/79 78/78/78 65/65/65
f 79/79/79 65/65/65 68/68/68
f 78/78/78 80/80/80 71/71/71
f 78/78/78 79/79/79 80/80/80
f 81/81/81 76/76/76 71/71/71
f 81/81/81 71/71/71 80/80/80
f 82/82/82 77/77/77 76/76/76
f 76/76/76 81/81/81 82/82/82
f 68/68/68 83/83/83 79/79/79
f 68/68/68 62/62/62 83/83/83
f 84/84/84 83/83/83 62/62/62
f 85/85/85 80/80/80 79/79/79
f 85/85/85 79/79/79 83/83/83
f 80/80/80 86/86/86 81/81/81
f 80/80/80 85/85/85 86/86/86
f 83/83/83 84/84/84 87/87/87
f 88/88/88 87/87/87 84/84/84
f 88/88/88 89/89/89 87/87/87
f 85/85/85 83/83/83 90/90/90
f 87/87/87 90/90/90 83/83/83
f 90/90/90 86/86/86 85/85/85
f 91/91/91 87/87/87 89/89/89
f 87/87/87 91/91/91 90/90/90
f 89/89/89 92/92/92 91/91/91
f 93/93/93 91/91/91 92/92/92
f 93/93/93 94/94/94 91/91/91
f 86/86/86 90/90/90 94/94/94
f 93/93/93 95/95/95 94/94/94
f 96/96/96 90/90/90 91/91/91
f 96/96/96 91/91/91 94/94/94
f 96/96/96 94/94/94 90/90/90
f 97/97/97 81/81/81 86/86/86
f 97/97/97 82/82/82 81/81/81
f 94/94/94 98/98/98 86/86/86
f 97/97/97 86/86/86 98/98/98
f 98/98/98 94/94/94 95/95/95
f 97/97/97 98/98/98 82/82/82
f 98/98/98 95/95/95 99/99/99
f 99/99/99 82/82/82 98/98/98
f 100/100/100 99/99/99 95/95/95
f 82/82/82 99/99/99 77/77/77
f 100/100/100 77/77/77 99/99/99
