g raogo5
v 0.3563805 2.367095 0.499009
v 0.1376115 2.164742 0.5245942
v 0.174368 2.407968 0.5028867
v 0.1376115 2.164742 0.5245942
v 0.3563805 2.367095 0.499009
v 0.3544961 2.135262 0.5945655
v 0.1411362 0.7972822 0.5348033
v -0.09652322 0.8373363 0.4908899
v -0.05571168 0.8294642 0.5088023
v -0.2871284 -0.9157943 0.4096721
v -0.2327708 -0.9249215 0.4692029
v -0.5085658 -2.160139 0.4007453
v -0.4422302 -2.16979 0.4570316
v -0.4887618 -2.42042 0.4515923
v -0.5619602 -2.407385 0.4029115
v -0.5574664 -2.403439 0.2426494
v 0.08921248 2.173631 0.5010451
v -0.1811961 0.8441978 0.3843502
v -0.3381042 -0.9126915 0.2512535
v -0.5367526 -2.153628 0.2372664
v -0.4641876 -2.150962 -0.4094354
v -0.4768047 -2.396278 -0.4045535
v -0.4200801 -2.372853 -0.5507237
v 0.1478692 2.370897 0.4990515
v 0.174368 2.407968 0.5028867
v 0.028534 2.184467 0.3752803
v 0.1260453 2.424131 0.3728455
v 0.1785527 2.466709 0.3802284
v 0.4147511 2.413743 0.4034442
v 0.2042027 2.409791 -0.2530967
v 0.2619801 2.454217 -0.2569734
v 0.4823933 2.42549 -0.2362605
v 0.1000672 2.184172 -0.2613703
v 0.4688187 2.370517 -0.3981982
v 0.540535 2.357738 -0.3738247
v -0.1186561 0.8277886 -0.2384912
v -0.2801322 -0.9303554 -0.3780257
v -0.05043404 0.8179288 -0.3575855
v 0.1605397 2.176441 -0.4059464
v 0.2380524 2.37361 -0.3896395
v 0.2811986 2.396331 -0.3937818
v 0.2285023 2.17308 -0.4439203
v 0.4619694 2.144843 -0.4201838
v 0.00131614 0.8149505 -0.3943206
v 0.2090531 0.7933238 -0.4044615
v 0.07428939 -0.9798023 -0.5094162
v -0.2027225 -0.9463938 -0.4554249
v -0.1401939 -0.9537315 -0.4963266
v -0.3223609 -2.166858 -0.5945655
v -0.08105844 -2.199145 -0.5593754
v -0.3944549 -2.157675 -0.5584513
v -0.3590049 -2.394355 -0.5516092
v 0.174368 2.407968 0.5028867
v 0.4147511 2.413743 0.4034442
v 0.3563805 2.367095 0.499009
v 0.4582863 2.376354 0.3965105
v 0.4823933 2.42549 -0.2362605
v 0.397934 2.344338 0.4798521
v 0.3544961 2.135262 0.5945655
v 0.4090253 2.128566 0.5571374
v 0.1411362 0.7972822 0.5348033
v 0.5385876 2.379565 -0.2290341
v 0.5619584 2.125721 -0.2202946
v 0.540535 2.357738 -0.3738247
v 0.4888821 2.121505 0.421821
v 0.180359 0.7925584 0.4977587
v 0.2551365 0.780268 0.3938812
v 0.5338002 2.134726 -0.3856722
v 0.4688187 2.370517 -0.3981982
v 0.4619694 2.144843 -0.4201838
v 0.2090531 0.7933238 -0.4044615
v 0.2553578 0.7869 -0.3632661
v 0.07428939 -0.9798023 -0.5094162
v 0.3279629 0.7743986 -0.2243053
v 0.1273862 -0.9868435 -0.4545146
v -0.08105844 -2.199145 -0.5593754
v 0.1713773 -0.9892944 -0.3082186
v -0.000846793 -0.9574908 0.4088739
v -0.02082436 -2.208615 -0.4926697
v 0.08915908 -0.9735821 0.3020838
v -0.1575584 -2.399789 -0.5101248
v -0.3223609 -2.166858 -0.5945655
v -0.3590049 -2.394355 -0.5516092
v -0.05739396 -2.218226 0.2975858
v -0.1408805 -2.210254 0.4452814
v 0.004997323 -2.2142 -0.3438655
v -0.1044006 -2.466709 0.2951936
v -0.07787698 -2.429459 -0.338761
v -0.110548 -2.409785 -0.4597698
v -0.1341933 -2.449922 -0.3643667
v -0.21035 -2.457143 0.2830089
v -0.3892974 -2.416162 -0.3943664
v -0.4200801 -2.372853 -0.5507237
v -0.4768047 -2.396278 -0.4045535
v -0.5574664 -2.403439 0.2426494
v -0.4659614 -2.422898 0.2531995
v -0.5619602 -2.407385 0.4029115
v -0.4887618 -2.42042 0.4515923
v -0.2447223 -2.435178 0.440039
v -0.4422302 -2.16979 0.4570316
v -0.1853751 -2.432987 0.413927
v -0.2012023 -2.202505 0.4642814
v -0.2327708 -0.9249215 0.4692029
v -0.05729096 -0.9506038 0.4425124
v -0.05571168 0.8294642 0.5088023
v 0.1376115 2.164742 0.5245942
vt 0.383396 0.188703
vt 0.3836585 0.187456
vt 0.3835519 0.1886565
vt 0.3836585 0.187456
vt 0.383396 0.188703
vt 0.3837113 0.1876366
vt 0.3837255 0.1810766
vt 0.3837729 0.1808759
vt 0.3837979 0.1809102
vt 0.3837115 0.1725534
vt 0.3838567 0.172638
vt 0.3838884 0.1666511
vt 0.3840124 0.1667674
vt 0.3840376 0.1655873
vt 0.3839429 0.1654735
vt 0.3834381 0.1654117
vt 0.3836209 0.1874235
vt 0.3834982 0.1807313
vt 0.3832502 0.1723992
vt 0.3833978 0.1665369
vt 0.3813032 0.1663402
vt 0.381341 0.1652465
vt 0.3808371 0.1653804
vt 0.3835618 0.1884426
vt 0.3835519 0.1886565
vt 0.3832609 0.1873466
vt 0.3831679 0.1886242
vt 0.383149 0.1889006
vt 0.3830409 0.1889691
vt 0.3810644 0.1884432
vt 0.3810069 0.188733
vt 0.3809172 0.1888967
vt 0.3811266 0.1872154
vt 0.3804022 0.1885608
vt 0.3804322 0.1886041
vt 0.3814387 0.1804921
vt 0.3812037 0.1721149
vt 0.3810029 0.1805036
vt 0.3806084 0.1872103
vt 0.3805937 0.1882675
vt 0.3805478 0.1884336
vt 0.3804355 0.1872747
vt 0.3803507 0.1874701
vt 0.3808467 0.1805558
vt 0.3806681 0.1807762
vt 0.3805391 0.1724636
vt 0.3809021 0.1721442
vt 0.3807279 0.1722036
vt 0.3806178 0.1664473
vt 0.3805654 0.1667928
vt 0.3807817 0.1663664
vt 0.3807932 0.1654071
vt 0.3835519 0.1886565
vt 0.3830409 0.1889691
vt 0.383396 0.188703
vt 0.382986 0.1888468
vt 0.3809172 0.1888967
vt 0.3833024 0.1886436
vt 0.3837113 0.1876366
vt 0.3835482 0.1876656
vt 0.3837255 0.1810766
vt 0.3809032 0.188755
vt 0.3809303 0.1875865
vt 0.3804322 0.1886041
vt 0.3830525 0.1876929
vt 0.3835771 0.1811
vt 0.3831896 0.1811158
vt 0.3804133 0.1875324
vt 0.3804022 0.1885608
vt 0.3803507 0.1874701
vt 0.3806681 0.1807762
vt 0.3807687 0.1808356
vt 0.3805391 0.1724636
vt 0.3811642 0.1809476
vt 0.3806772 0.172553
vt 0.3805654 0.1667928
vt 0.3811091 0.1726903
vt 0.3834877 0.1728729
vt 0.3807343 0.1669028
vt 0.3830855 0.1729082
vt 0.380785 0.1658016
vt 0.3806178 0.1664473
vt 0.3807932 0.1654071
vt 0.3832227 0.1672087
vt 0.3837428 0.1671623
vt 0.3811826 0.1670069
vt 0.3832585 0.1660499
vt 0.3812684 0.1659211
vt 0.3809113 0.1658772
vt 0.3812288 0.1657095
vt 0.3833005 0.1658799
vt 0.3813122 0.1653388
vt 0.3808371 0.1653804
vt 0.381341 0.1652465
vt 0.3834381 0.1654117
vt 0.3834014 0.1655132
vt 0.3839429 0.1654735
vt 0.3840376 0.1655873
vt 0.3838122 0.1659922
vt 0.3840124 0.1667674
vt 0.383686 0.1661021
vt 0.3838481 0.1670911
vt 0.3838567 0.172638
vt 0.3836365 0.1728205
vt 0.3837979 0.1809102
vt 0.3836585 0.187456
vn 0.01362071 0.5199302 0.8541002
vn -0.3127049 0.06130257 0.94787
vn -0.005511898 0.5082597 0.8611862
vn -0.3127049 0.06130257 0.94787
vn 0.01362071 0.5199302 0.8541002
vn -0.1158517 0.03692358 0.99258
vn -0.04350625 -0.02979405 0.9986089
vn -0.6989076 0.06410383 0.7123335
vn -0.2632638 0.01205535 0.9646485
vn -0.8934619 0.100548 0.4377396
vn -0.2655692 0.01718664 0.9639386
vn -0.8788937 0.154413 0.4513342
vn -0.1897821 0.02079356 0.9816061
vn -0.1604643 -0.5293952 0.8330618
vn -0.951045 -0.05926023 0.3033174
vn -0.9692996 -0.226054 -0.09673642
vn -0.7916148 0.1370039 0.5954628
vn -0.9928823 0.1182273 -0.01439092
vn -0.9925408 0.1202531 -0.02004894
vn -0.9879446 0.1456653 -0.0524126
vn -0.9740293 0.1484769 -0.1709433
vn -0.9449958 -0.2767447 -0.1743423
vn -0.8242741 -0.1340738 -0.5500876
vn -0.8073278 0.2939264 0.5116924
vn -0.005511889 0.5082598 0.8611862
vn -0.9821429 0.1874276 -0.01631647
vn -0.8817886 0.4694737 -0.04520397
vn 0.02283677 0.9977888 0.06241893
vn 0.2992893 0.9487174 0.1017906
vn -0.8614369 0.4789269 -0.168984
vn 0.03518951 0.9962119 -0.07952182
vn 0.2485374 0.9682303 -0.0275557
vn -0.9672816 0.1919203 -0.1659303
vn 0.1570164 0.5935551 -0.7893277
vn 0.9192428 0.2278929 -0.3210256
vn -0.9763544 0.1247532 -0.1765475
vn -0.9762453 0.1225487 -0.1786813
vn -0.8106872 0.1133622 -0.5743999
vn -0.8066337 0.1455042 -0.5728619
vn -0.7449735 0.4534601 -0.4892734
vn -0.02338219 0.5556569 -0.8310829
vn -0.04690769 0.002513163 -0.998896
vn 0.1015439 -0.009335866 -0.9947872
vn -0.1772591 0.04675989 -0.9830528
vn 0.1224988 0.01094898 -0.9924083
vn 0.2028871 0.02764886 -0.9788117
vn -0.7037867 0.1336639 -0.6977236
vn -0.1807025 0.08529289 -0.9798325
vn -0.001425171 0.01478507 -0.9998897
vn 0.2901969 -0.04888548 -0.9557175
vn -0.7771109 0.1590884 -0.608925
vn 0.06719502 -0.5711699 -0.8180769
vn -0.005511889 0.5082598 0.8611862
vn 0.2992893 0.9487174 0.1017906
vn 0.01362071 0.5199302 0.8541002
vn 0.9500644 0.245083 0.1931632
vn 0.2485374 0.9682303 -0.0275557
vn 0.6579695 0.3091803 0.6866468
vn -0.1158517 0.03692358 0.99258
vn 0.7998725 -0.1142534 0.5891945
vn -0.04350625 -0.02979405 0.9986089
vn 0.9606986 0.2603475 0.0963185
vn 0.9886741 -0.1362514 0.06292038
vn 0.9192428 0.2278929 -0.3210256
vn 0.973242 -0.1228775 0.1941679
vn 0.7634093 -0.1285721 0.6329892
vn 0.9661401 -0.1329094 0.2211525
vn 0.9161767 -0.1695983 -0.3631209
vn 0.1570164 0.5935551 -0.7893277
vn 0.1015439 -0.009335866 -0.9947872
vn 0.1224988 0.01094898 -0.9924083
vn 0.8785552 -0.1042744 -0.4661199
vn 0.2028871 0.02764886 -0.9788117
vn 0.9919736 -0.124693 0.02097836
vn 0.8970598 -0.07026889 -0.4362866
vn 0.2901969 -0.04888548 -0.9557175
vn 0.9924167 -0.1129549 0.04847822
vn 0.6625664 -0.08201205 0.7444997
vn 0.9165251 -0.1495183 -0.3709797
vn 0.9657497 -0.1060037 0.2368346
vn 0.1891811 -0.587148 -0.7870627
vn -0.001425171 0.01478507 -0.9998897
vn 0.06719502 -0.5711699 -0.8180769
vn 0.9733022 -0.1405958 0.1814265
vn 0.658355 -0.07284408 0.7491745
vn 0.9877481 -0.1495276 0.04466751
vn 0.8302196 -0.5367264 0.1505336
vn 0.8605374 -0.5090441 -0.01869914
vn 0.7565818 -0.4972809 -0.4246125
vn -0.01646377 -0.9979426 -0.06196272
vn -0.0472448 -0.9987906 0.01361878
vn -0.1522577 -0.9868614 -0.05405714
vn -0.8242741 -0.1340738 -0.5500876
vn -0.9449958 -0.2767447 -0.1743423
vn -0.9692996 -0.226054 -0.09673641
vn -0.1485629 -0.9886207 -0.02362688
vn -0.951045 -0.05926023 0.3033174
vn -0.1604643 -0.5293952 0.8330618
vn 0.05021584 -0.5840889 0.8101349
vn -0.1897821 0.02079356 0.9816061
vn 0.6189417 -0.3141828 0.7198613
vn 0.03551011 -0.02223621 0.999122
vn -0.2655692 0.01718664 0.9639386
vn 0.2447936 -0.05041096 0.9682639
vn -0.2632638 0.01205535 0.9646485
vn -0.3127049 0.06130257 0.94787
g raogo5_0
f 3/3/3 2/2/2 1/1/1
f 6/6/6 5/5/5 4/4/4
f 6/6/6 4/4/4 7/7/7
f 9/9/9 4/4/4 8/8/8
f 8/8/8 10/10/10 9/9/9
f 11/11/11 9/9/9 10/10/10
f 10/10/10 12/12/12 11/11/11
f 13/13/13 11/11/11 12/12/12
f 13/13/13 12/12/12 14/14/14
f 15/15/15 14/14/14 12/12/12
f 15/15/15 12/12/12 16/16/16
f 17/17/17 8/8/8 4/4/4
f 8/8/8 18/18/18 10/10/10
f 8/8/8 17/17/17 18/18/18
f 10/10/10 19/19/19 12/12/12
f 19/19/19 10/10/10 18/18/18
f 20/20/20 16/16/16 12/12/12
f 20/20/20 12/12/12 19/19/19
f 20/20/20 21/21/21 16/16/16
f 20/20/20 19/19/19 21/21/21
f 22/22/22 16/16/16 21/21/21
f 22/22/22 21/21/21 23/23/23
f 17/17/17 4/4/4 24/24/24
f 25/25/25 24/24/24 4/4/4
f 17/17/17 24/24/24 26/26/26
f 26/26/26 18/18/18 17/17/17
f 24/24/24 25/25/25 27/27/27
f 27/27/27 26/26/26 24/24/24
f 28/28/28 27/27/27 25/25/25
f 28/28/28 25/25/25 29/29/29
f 27/27/27 30/30/30 26/26/26
f 27/27/27 28/28/28 30/30/30
f 28/28/28 29/29/29 31/31/31
f 31/31/31 30/30/30 28/28/28
f 32/32/32 31/31/31 29/29/29
f 26/26/26 33/33/33 18/18/18
f 33/33/33 26/26/26 30/30/30
f 32/32/32 34/34/34 31/31/31
f 34/34/34 32/32/32 35/35/35
f 36/36/36 18/18/18 33/33/33
f 18/18/18 36/36/36 19/19/19
f 37/37/37 19/19/19 36/36/36
f 37/37/37 21/21/21 19/19/19
f 36/36/36 33/33/33 38/38/38
f 36/36/36 38/38/38 37/37/37
f 33/33/33 30/30/30 39/39/39
f 39/39/39 38/38/38 33/33/33
f 30/30/30 31/31/31 40/40/40
f 40/40/40 39/39/39 30/30/30
f 41/41/41 31/31/31 34/34/34
f 41/41/41 40/40/40 31/31/31
f 39/39/39 40/40/40 42/42/42
f 41/41/41 42/42/42 40/40/40
f 41/41/41 34/34/34 42/42/42
f 39/39/39 42/42/42 38/38/38
f 43/43/43 42/42/42 34/34/34
f 42/42/42 43/43/43 44/44/44
f 44/44/44 38/38/38 42/42/42
f 45/45/45 44/44/44 43/43/43
f 45/45/45 46/46/46 44/44/44
f 47/47/47 37/37/37 38/38/38
f 38/38/38 44/44/44 47/47/47
f 37/37/37 47/47/47 21/21/21
f 48/48/48 44/44/44 46/46/46
f 48/48/48 47/47/47 44/44/44
f 48/48/48 46/46/46 49/49/49
f 48/48/48 49/49/49 47/47/47
f 50/50/50 49/49/49 46/46/46
f 51/51/51 21/21/21 47/47/47
f 51/51/51 47/47/47 49/49/49
f 51/51/51 23/23/23 21/21/21
f 51/51/51 49/49/49 23/23/23
f 52/52/52 23/23/23 49/49/49
f 55/55/55 54/54/54 53/53/53
f 54/54/54 55/55/55 56/56/56
f 54/54/54 56/56/56 57/57/57
f 58/58/58 56/56/56 55/55/55
f 55/55/55 59/59/59 58/58/58
f 60/60/60 58/58/58 59/59/59
f 58/58/58 60/60/60 56/56/56
f 59/59/59 61/61/61 60/60/60
f 62/62/62 57/57/57 56/56/56
f 62/62/62 56/56/56 63/63/63
f 62/62/62 64/64/64 57/57/57
f 62/62/62 63/63/63 64/64/64
f 65/65/65 56/56/56 60/60/60
f 65/65/65 63/63/63 56/56/56
f 60/60/60 66/66/66 65/65/65
f 66/66/66 60/60/60 61/61/61
f 67/67/67 65/65/65 66/66/66
f 65/65/65 67/67/67 63/63/63
f 68/68/68 64/64/64 63/63/63
f 64/64/64 68/68/68 69/69/69
f 70/70/70 69/69/69 68/68/68
f 70/70/70 68/68/68 71/71/71
f 72/72/72 71/71/71 68/68/68
f 68/68/68 63/63/63 72/72/72
f 71/71/71 72/72/72 73/73/73
f 74/74/74 72/72/72 63/63/63
f 74/74/74 63/63/63 67/67/67
f 75/75/75 73/73/73 72/72/72
f 72/72/72 74/74/74 75/75/75
f 73/73/73 75/75/75 76/76/76
f 77/77/77 75/75/75 74/74/74
f 74/74/74 67/67/67 77/77/77
f 66/66/66 78/78/78 67/67/67
f 66/66/66 61/61/61 78/78/78
f 79/79/79 76/76/76 75/75/75
f 75/75/75 77/77/77 79/79/79
f 80/80/80 77/77/77 67/67/67
f 80/80/80 67/67/67 78/78/78
f 76/76/76 79/79/79 81/81/81
f 76/76/76 81/81/81 82/82/82
f 83/83/83 82/82/82 81/81/81
f 80/80/80 84/84/84 77/77/77
f 78/78/78 85/85/85 80/80/80
f 84/84/84 80/80/80 85/85/85
f 86/86/86 77/77/77 84/84/84
f 86/86/86 79/79/79 77/77/77
f 84/84/84 87/87/87 86/86/86
f 84/84/84 85/85/85 87/87/87
f 86/86/86 88/88/88 79/79/79
f 88/88/88 86/86/86 87/87/87
f 89/89/89 81/81/81 79/79/79
f 89/89/89 79/79/79 88/88/88
f 81/81/81 89/89/89 90/90/90
f 81/81/81 90/90/90 83/83/83
f 88/88/88 90/90/90 89/89/89
f 87/87/87 91/91/91 88/88/88
f 90/90/90 88/88/88 91/91/91
f 92/92/92 83/83/83 90/90/90
f 83/83/83 92/92/92 93/93/93
f 94/94/94 93/93/93 92/92/92
f 94/94/94 92/92/92 95/95/95
f 92/92/92 90/90/90 96/96/96
f 96/96/96 95/95/95 92/92/92
f 91/91/91 96/96/96 90/90/90
f 95/95/95 96/96/96 97/97/97
f 98/98/98 97/97/97 96/96/96
f 96/96/96 91/91/91 98/98/98
f 99/99/99 98/98/98 91/91/91
f 91/91/91 87/87/87 99/99/99
f 98/98/98 99/99/99 100/100/100
f 101/101/101 99/99/99 87/87/87
f 101/101/101 87/87/87 85/85/85
f 102/102/102 100/100/100 99/99/99
f 99/99/99 101/101/101 102/102/102
f 85/85/85 102/102/102 101/101/101
f 85/85/85 78/78/78 102/102/102
f 100/100/100 102/102/102 103/103/103
f 104/104/104 102/102/102 78/78/78
f 104/104/104 103/103/103 102/102/102
f 104/104/104 78/78/78 61/61/61
f 104/104/104 61/61/61 103/103/103
f 105/105/105 103/103/103 61/61/61
f 105/105/105 61/61/61 106/106/106
