g raogo4
v 0.562486 2.387187 -0.395488
v 0.4962896 2.427099 -0.2495673
v 0.5034974 2.409531 -0.4100592
v -0.1509787 -2.39223 -0.380379
v -0.07093113 -2.155865 -0.5124714
v -0.1516291 -2.352283 -0.520036
v -0.04606693 -2.16793 -0.3580172
v 0.1333135 -0.8019584 -0.3797247
v 0.1716626 -0.815647 -0.2482836
v 0.3748754 0.9429801 -0.2990229
v 0.3178762 0.9619501 -0.3919251
v 0.5705712 2.161336 -0.253793
v 0.2837079 0.9092724 0.3256547
v 0.08645947 -0.8480042 0.3712289
v -0.1256396 -2.184648 0.277457
v 0.5377362 2.172623 -0.4147599
v 0.4761804 2.183657 -0.4664757
v 0.2667306 0.9711385 -0.4461091
v 0.562486 2.387187 -0.395488
v 0.09163029 -0.7973753 -0.427458
v 0.1333135 -0.8019584 -0.3797247
v 0.5835851 2.406261 -0.239526
v -0.1280848 -2.150653 -0.5651844
v -0.07093113 -2.155865 -0.5124714
v -0.1516291 -2.352283 -0.520036
v -0.1927745 -2.374298 -0.5347607
v 0.5104707 2.396631 0.4085405
v -0.2065798 -2.435759 -0.3988535
v -0.3739364 -2.345819 -0.5822628
v 0.4896711 2.147325 0.3917778
v 0.4240296 2.150264 0.5442359
v 0.4773381 2.396628 0.5654533
v 0.3948739 2.409486 0.5959861
v -0.4254786 -2.404502 -0.4295332
v -0.4492499 -2.332646 -0.575012
v -0.5094764 -2.409203 0.2083337
v -0.2748172 -2.464834 0.2396066
v -0.2217108 -2.422819 0.2458599
v -0.2990252 -2.409149 0.3613727
v -0.4747474 -2.365689 0.316119
v -0.2664973 -2.167048 0.397577
v -0.4935061 -2.136296 0.4156368
v -0.2617785 -0.800317 0.4433095
v -0.2720839 -2.372357 0.3648355
v -0.2140071 -2.176026 0.3857744
v -0.02076404 -0.8425589 0.455157
v -0.06457012 -0.8345631 0.4632261
v 0.1970723 0.9092329 0.4677761
v 0.1303552 0.9176576 0.5131614
v -0.03378742 0.9463923 0.4468515
v 0.1106656 2.195296 0.5352142
v 0.3464311 2.159451 0.583679
v 0.1604474 2.427878 0.5280693
v 0.4761804 2.183657 -0.4664757
v 0.562486 2.387187 -0.395488
v 0.5034974 2.409531 -0.4100592
v 0.2979863 2.41673 -0.416713
v 0.2415212 2.463636 -0.2791922
v 0.4962896 2.427099 -0.2495673
v 0.2336019 2.218415 -0.4878619
v 0.06148465 1.00047 -0.5083134
v 0.2667306 0.9711385 -0.4461091
v 0.09163029 -0.7973753 -0.427458
v 0.1594995 2.227092 -0.4368727
v 0.2405465 2.426142 -0.3785031
v -0.002941777 1.006912 -0.4671814
v 0.1806138 2.443337 -0.2680132
v -0.1077792 -0.7726566 -0.485328
v -0.1623961 -0.7665993 -0.4559433
v -0.3603846 -2.119799 -0.5959861
v -0.1280848 -2.150653 -0.5651844
v -0.4382254 -2.109522 -0.5789702
v -0.5042598 -2.104137 -0.4245846
v -0.3739364 -2.345819 -0.5822628
v -0.1927745 -2.374298 -0.5347607
v -0.4492499 -2.332646 -0.575012
v -0.2654235 -0.7564727 -0.3375456
v -0.07995098 1.006413 -0.3352234
v -0.4814517 -2.357997 -0.4344161
v -0.5498778 -2.371058 0.1924055
v -0.4254786 -2.404502 -0.4295332
v -0.5094764 -2.409203 0.2083337
v -0.4747474 -2.365689 0.316119
v -0.3394668 -0.7783254 0.2801349
v 0.09958393 2.229421 -0.2981389
v -0.5835864 -2.116498 0.2166765
v -0.5104815 -2.341909 0.2883756
v -0.4935061 -2.136296 0.4156368
v -0.5377032 -2.127933 0.3666799
v -0.2617785 -0.800317 0.4433095
v -0.2911994 -0.7941612 0.3982542
v -0.08072727 0.9548714 0.40114
v -0.03378742 0.9463923 0.4468515
v 0.1106656 2.195296 0.5352142
v -0.1430918 0.974791 0.2767313
v 0.0100301 2.217044 0.3399866
v 0.05653126 2.204333 0.5028446
v 0.05820401 2.464834 0.3553092
v 0.1088517 2.427142 0.4887512
v 0.1604474 2.427878 0.5280693
v 0.1639837 2.454115 0.3680036
v 0.3948739 2.409486 0.5959861
v 0.4191926 2.417082 0.397908
v 0.4773381 2.396628 0.5654533
v 0.5104707 2.396631 0.4085405
v 0.5835851 2.406261 -0.239526
v 0.562486 2.387187 -0.395488
vt 0.3974849 0.18967
vt 0.3980059 0.1898183
vt 0.3975138 0.1896943
vt 0.3977104 0.1675021
vt 0.3972683 0.1685778
vt 0.3973123 0.1675979
vt 0.3976853 0.1686491
vt 0.3975996 0.1747865
vt 0.3979366 0.1748494
vt 0.397794 0.1828817
vt 0.3975882 0.1828492
vt 0.3978673 0.1886874
vt 0.399735 0.1828375
vt 0.3998267 0.1748465
vt 0.3996019 0.1687514
vt 0.3974272 0.1886438
vt 0.3973461 0.1885979
vt 0.3974884 0.1827958
vt 0.3974849 0.18967
vt 0.3975087 0.174716
vt 0.3975996 0.1747865
vt 0.3979289 0.1898348
vt 0.3971807 0.1684696
vt 0.3972683 0.1685778
vt 0.3973123 0.1675979
vt 0.3973134 0.1674218
vt 0.3999408 0.1899065
vt 0.3977147 0.167207
vt 0.3973853 0.1671814
vt 0.3998762 0.1887327
vt 0.4004079 0.1887124
vt 0.4004453 0.1899152
vt 0.4006416 0.1898813
vt 0.3978818 0.1669157
vt 0.3974946 0.1671004
vt 0.3998284 0.167069
vt 0.3996279 0.1672853
vt 0.399589 0.1675621
vt 0.4000143 0.1675362
vt 0.4001039 0.1673723
vt 0.4001176 0.1686315
vt 0.4004509 0.1683582
vt 0.4004687 0.1745095
vt 0.3999976 0.1677417
vt 0.4000189 0.1686825
vt 0.4001997 0.1747312
vt 0.400278 0.1746971
vt 0.4002576 0.1827668
vt 0.4004749 0.1827257
vt 0.4004905 0.1825914
vt 0.4007851 0.1885129
vt 0.4006231 0.1886683
vt 0.4007412 0.1896498
vt 0.3973461 0.1885979
vt 0.3974849 0.18967
vt 0.3975138 0.1896943
vt 0.3977388 0.1894648
vt 0.3982282 0.1896562
vt 0.3980059 0.1898183
vt 0.3975731 0.1884364
vt 0.3975477 0.1826053
vt 0.3974884 0.1827958
vt 0.3975087 0.174716
vt 0.3978169 0.1883969
vt 0.3979243 0.1894478
vt 0.3977478 0.182556
vt 0.3983327 0.1894876
vt 0.3975725 0.1744652
vt 0.3977235 0.1744135
vt 0.3973595 0.1681598
vt 0.3971807 0.1684696
vt 0.3975001 0.1680687
vt 0.3980294 0.1680485
vt 0.3973853 0.1671814
vt 0.3973134 0.1674218
vt 0.3974946 0.1671004
vt 0.3981948 0.1743388
vt 0.3982347 0.1824919
vt 0.3979388 0.1670055
vt 0.3998374 0.1671466
vt 0.3978818 0.1669157
vt 0.3998284 0.167069
vt 0.4001039 0.1673723
vt 0.4000931 0.1744013
vt 0.3983086 0.1883761
vt 0.3999895 0.1681765
vt 0.4000713 0.1673923
vt 0.4004509 0.1683582
vt 0.4003654 0.1682881
vt 0.4004687 0.1745095
vt 0.4003752 0.1744668
vt 0.4004161 0.1825435
vt 0.4004905 0.1825914
vt 0.4007851 0.1885129
vt 0.4001297 0.182494
vt 0.4003351 0.188417
vt 0.4007596 0.1884735
vt 0.4003622 0.1896356
vt 0.4006898 0.1895682
vt 0.4007412 0.1896498
vt 0.4002643 0.1897241
vt 0.4006416 0.1898813
vt 0.4000264 0.1898834
vt 0.4004453 0.1899152
vt 0.3999408 0.1899065
vt 0.3979289 0.1898348
vt 0.3974849 0.18967
vn 0.9313155 0.1356997 -0.3379899
vn 0.1682719 0.985693 0.0096877
vn 0.1306062 0.5913537 -0.7957656
vn 0.8735287 -0.4861821 0.02397211
vn 0.9172801 -0.142336 -0.3719379
vn 0.8352039 -0.4520625 -0.3131676
vn 0.977805 -0.2008129 0.05976215
vn 0.9219248 -0.1108106 -0.3711815
vn 0.9895573 -0.1335747 0.05416763
vn 0.989867 -0.1322674 0.05165918
vn 0.8465614 -0.1263432 -0.5170794
vn 0.9858467 -0.1575441 0.0573235
vn 0.9687047 -0.1335773 0.2092087
vn 0.9676707 -0.1310394 0.2155041
vn 0.9572885 -0.2003761 0.2084421
vn 0.8969284 -0.1548534 -0.4141737
vn 0.2355497 0.009725456 -0.9718137
vn 0.4046104 -0.06400879 -0.9122463
vn 0.9313155 0.1356997 -0.3379899
vn 0.4023543 -0.02577998 -0.915121
vn 0.9219248 -0.1108106 -0.3711815
vn 0.961394 0.2687988 0.05889553
vn 0.2795267 0.02167516 -0.9598933
vn 0.9172801 -0.142336 -0.3719379
vn 0.8352039 -0.4520625 -0.3131677
vn 0.2132419 -0.5357573 -0.8170018
vn 0.9667886 0.2148994 0.1383409
vn -0.02309115 -0.9933321 -0.1129513
vn 0.02777831 -0.5717043 -0.8199893
vn 0.9716083 -0.1581143 0.1760027
vn 0.7477314 -0.1773828 0.6398695
vn 0.8539898 0.03891061 0.5188326
vn -0.03501102 0.5067888 0.8613589
vn -0.2425958 -0.9638206 -0.1104402
vn -0.8201518 -0.2074089 -0.5332285
vn -0.3220229 -0.9467263 0.003275005
vn -0.04465211 -0.9985777 0.02913256
vn 0.8643236 -0.4805336 0.1484324
vn -0.2003503 -0.5295753 0.8242631
vn -0.2173326 -0.5404077 0.8128505
vn 0.0816082 -0.08855302 0.9927227
vn -0.1201807 -0.06278779 0.9907645
vn -0.1913537 0.005087445 0.981508
vn 0.6624875 -0.3182222 0.6781186
vn 0.628954 -0.1625224 0.7602652
vn 0.5117688 -0.09076339 0.8543153
vn 0.02976884 -0.03939025 0.9987803
vn 0.7650486 -0.1236281 0.6319944
vn 0.03217113 -0.0435383 0.9985336
vn -0.4642539 0.03081832 0.8851659
vn -0.2683642 -0.001355083 0.9633166
vn -0.0455325 -0.0468233 0.9978649
vn -0.2338691 0.5653678 0.7909896
vn 0.2355497 0.009725456 -0.9718137
vn 0.9313155 0.1356997 -0.3379899
vn 0.1306062 0.5913537 -0.7957656
vn 0.004969105 0.6087218 -0.7933683
vn 0.03822545 0.9988222 -0.02988509
vn 0.1682719 0.985693 0.0096877
vn -0.05788914 0.07568657 -0.9954498
vn 0.03174972 -0.001355062 -0.9994949
vn 0.4046104 -0.06400879 -0.9122463
vn 0.4023543 -0.02577998 -0.915121
vn -0.8031072 0.1706531 -0.5708733
vn -0.6319177 0.5183132 -0.5762216
vn -0.7694916 0.09341294 -0.6317887
vn -0.8284443 0.5205991 -0.206535
vn 0.11322 0.01443404 -0.993465
vn -0.7437283 0.1275522 -0.6562002
vn 0.1343865 0.03483719 -0.9903165
vn 0.2795267 0.02167516 -0.9598933
vn -0.8041808 0.1906941 -0.5629644
vn -0.9748512 0.148423 -0.1662404
vn 0.02777831 -0.5717043 -0.8199893
vn 0.2132419 -0.5357573 -0.8170018
vn -0.8201518 -0.2074089 -0.5332285
vn -0.9683364 0.1383046 -0.2078376
vn -0.9752112 0.1260244 -0.181882
vn -0.9586172 -0.2491652 -0.1377306
vn -0.9708368 -0.2360838 -0.04171947
vn -0.2425958 -0.9638206 -0.1104402
vn -0.3220229 -0.9467263 0.003275005
vn -0.2173326 -0.5404077 0.8128505
vn -0.9900086 0.1407779 -0.008044272
vn -0.969614 0.1618932 -0.1834098
vn -0.9906905 0.1311781 -0.03639699
vn -0.8028002 -0.3171057 0.5049314
vn -0.1201807 -0.06278779 0.9907645
vn -0.914723 0.1110215 0.3885307
vn -0.1913537 0.005087445 0.981508
vn -0.8893297 0.1236714 0.4402249
vn -0.8176776 0.07306299 0.5710213
vn -0.4642539 0.03081832 0.8851659
vn -0.2683642 -0.001355083 0.9633166
vn -0.9934634 0.1138787 0.007895064
vn -0.9875132 0.1498414 -0.04863339
vn -0.8147414 0.0635659 0.5763298
vn -0.8388815 0.5432927 -0.03332962
vn -0.7679716 0.3054084 0.5629791
vn -0.2338691 0.5653678 0.7909896
vn 0.05040558 0.997428 0.05095583
vn -0.03501102 0.5067888 0.8613589
vn 0.157629 0.9867714 0.03788557
vn 0.8539898 0.03891061 0.5188326
vn 0.9667886 0.2148994 0.1383409
vn 0.961394 0.2687988 0.05889553
vn 0.9313155 0.1356997 -0.3379899
g raogo4_0
f 3/3/3 2/2/2 1/1/1
f 6/6/6 5/5/5 4/4/4
f 7/7/7 4/4/4 5/5/5
f 5/5/5 8/8/8 7/7/7
f 9/9/9 7/7/7 8/8/8
f 9/9/9 8/8/8 10/10/10
f 11/11/11 10/10/10 8/8/8
f 10/10/10 11/11/11 12/12/12
f 10/10/10 13/13/13 9/9/9
f 10/10/10 12/12/12 13/13/13
f 9/9/9 14/14/14 7/7/7
f 14/14/14 9/9/9 13/13/13
f 7/7/7 15/15/15 4/4/4
f 15/15/15 7/7/7 14/14/14
f 16/16/16 12/12/12 11/11/11
f 16/16/16 11/11/11 17/17/17
f 18/18/18 17/17/17 11/11/11
f 16/16/16 17/17/17 19/19/19
f 16/16/16 19/19/19 12/12/12
f 18/18/18 11/11/11 20/20/20
f 21/21/21 20/20/20 11/11/11
f 22/22/22 12/12/12 19/19/19
f 20/20/20 21/21/21 23/23/23
f 24/24/24 23/23/23 21/21/21
f 24/24/24 25/25/25 23/23/23
f 26/26/26 23/23/23 25/25/25
f 22/22/22 27/27/27 12/12/12
f 26/26/26 25/25/25 28/28/28
f 26/26/26 28/28/28 29/29/29
f 4/4/4 28/28/28 25/25/25
f 30/30/30 12/12/12 27/27/27
f 30/30/30 27/27/27 31/31/31
f 30/30/30 13/13/13 12/12/12
f 30/30/30 31/31/31 13/13/13
f 32/32/32 31/31/31 27/27/27
f 32/32/32 33/33/33 31/31/31
f 34/34/34 29/29/29 28/28/28
f 29/29/29 34/34/34 35/35/35
f 34/34/34 28/28/28 36/36/36
f 28/28/28 4/4/4 37/37/37
f 37/37/37 36/36/36 28/28/28
f 38/38/38 37/37/37 4/4/4
f 38/38/38 4/4/4 15/15/15
f 37/37/37 39/39/39 36/36/36
f 37/37/37 38/38/38 39/39/39
f 40/40/40 36/36/36 39/39/39
f 39/39/39 41/41/41 40/40/40
f 42/42/42 40/40/40 41/41/41
f 42/42/42 41/41/41 43/43/43
f 44/44/44 39/39/39 38/38/38
f 38/38/38 15/15/15 44/44/44
f 39/39/39 44/44/44 41/41/41
f 45/45/45 44/44/44 15/15/15
f 45/45/45 41/41/41 44/44/44
f 15/15/15 14/14/14 45/45/45
f 45/45/45 46/46/46 41/41/41
f 46/46/46 45/45/45 14/14/14
f 47/47/47 43/43/43 41/41/41
f 47/47/47 41/41/41 46/46/46
f 46/46/46 14/14/14 48/48/48
f 46/46/46 48/48/48 47/47/47
f 13/13/13 48/48/48 14/14/14
f 48/48/48 13/13/13 31/31/31
f 47/47/47 49/49/49 43/43/43
f 49/49/49 47/47/47 48/48/48
f 48/48/48 31/31/31 49/49/49
f 50/50/50 43/43/43 49/49/49
f 50/50/50 49/49/49 51/51/51
f 52/52/52 49/49/49 31/31/31
f 52/52/52 51/51/51 49/49/49
f 52/52/52 31/31/31 33/33/33
f 51/51/51 52/52/52 53/53/53
f 33/33/33 53/53/53 52/52/52
f 56/56/56 55/55/55 54/54/54
f 56/56/56 54/54/54 57/57/57
f 57/57/57 58/58/58 56/56/56
f 59/59/59 56/56/56 58/58/58
f 60/60/60 57/57/57 54/54/54
f 60/60/60 54/54/54 61/61/61
f 62/62/62 61/61/61 54/54/54
f 62/62/62 63/63/63 61/61/61
f 60/60/60 64/64/64 57/57/57
f 57/57/57 65/65/65 58/58/58
f 65/65/65 57/57/57 64/64/64
f 61/61/61 66/66/66 60/60/60
f 64/64/64 60/60/60 66/66/66
f 67/67/67 58/58/58 65/65/65
f 65/65/65 64/64/64 67/67/67
f 68/68/68 61/61/61 63/63/63
f 66/66/66 61/61/61 69/69/69
f 68/68/68 69/69/69 61/61/61
f 68/68/68 63/63/63 70/70/70
f 71/71/71 70/70/70 63/63/63
f 70/70/70 72/72/72 68/68/68
f 69/69/69 68/68/68 72/72/72
f 72/72/72 73/73/73 69/69/69
f 70/70/70 71/71/71 74/74/74
f 70/70/70 74/74/74 72/72/72
f 75/75/75 74/74/74 71/71/71
f 76/76/76 72/72/72 74/74/74
f 72/72/72 76/76/76 73/73/73
f 69/69/69 77/77/77 66/66/66
f 77/77/77 69/69/69 73/73/73
f 66/66/66 78/78/78 64/64/64
f 78/78/78 66/66/66 77/77/77
f 79/79/79 73/73/73 76/76/76
f 79/79/79 80/80/80 73/73/73
f 79/79/79 76/76/76 81/81/81
f 79/79/79 81/81/81 80/80/80
f 82/82/82 80/80/80 81/81/81
f 82/82/82 83/83/83 80/80/80
f 77/77/77 73/73/73 84/84/84
f 77/77/77 84/84/84 78/78/78
f 85/85/85 64/64/64 78/78/78
f 85/85/85 67/67/67 64/64/64
f 86/86/86 73/73/73 80/80/80
f 86/86/86 84/84/84 73/73/73
f 87/87/87 80/80/80 83/83/83
f 83/83/83 88/88/88 87/87/87
f 87/87/87 89/89/89 80/80/80
f 89/89/89 87/87/87 88/88/88
f 86/86/86 80/80/80 89/89/89
f 88/88/88 90/90/90 89/89/89
f 89/89/89 91/91/91 86/86/86
f 91/91/91 89/89/89 90/90/90
f 84/84/84 86/86/86 91/91/91
f 91/91/91 90/90/90 92/92/92
f 91/91/91 92/92/92 84/84/84
f 93/93/93 92/92/92 90/90/90
f 93/93/93 94/94/94 92/92/92
f 95/95/95 84/84/84 92/92/92
f 95/95/95 78/78/78 84/84/84
f 85/85/85 78/78/78 96/96/96
f 95/95/95 96/96/96 78/78/78
f 92/92/92 97/97/97 95/95/95
f 97/97/97 92/92/92 94/94/94
f 96/96/96 95/95/95 97/97/97
f 96/96/96 98/98/98 85/85/85
f 96/96/96 97/97/97 98/98/98
f 67/67/67 85/85/85 98/98/98
f 97/97/97 94/94/94 99/99/99
f 99/99/99 98/98/98 97/97/97
f 100/100/100 99/99/99 94/94/94
f 99/99/99 100/100/100 98/98/98
f 98/98/98 101/101/101 67/67/67
f 101/101/101 98/98/98 100/100/100
f 58/58/58 67/67/67 101/101/101
f 100/100/100 102/102/102 101/101/101
f 101/101/101 103/103/103 58/58/58
f 103/103/103 101/101/101 102/102/102
f 102/102/102 104/104/104 103/103/103
f 105/105/105 103/103/103 104/104/104
f 59/59/59 58/58/58 103/103/103
f 103/103/103 105/105/105 59/59/59
f 106/106/106 59/59/59 105/105/105
f 106/106/106 107/107/107 59/59/59
