g rock_block
v -0.05834126 0.2527883 0.01414539
v 0.03640437 0.2524378 -0.1697578
v 0.04343677 0.3028197 0.02858144
v 0.04343677 0.3028197 0.02858144
v 0.03640437 0.2524378 -0.1697578
v 0.04238105 0.2005701 0.02823259
v 0.04238105 0.2005701 0.02823259
v 0.03640437 0.2524378 -0.1697578
v -0.05834126 0.2527883 0.01414539
v -0.07486558 0.2358534 0.1450545
v -0.02514863 0.2348774 0.2807984
v 0.02585674 0.1836352 0.1591414
v 0.02585674 0.1836352 0.1591414
v -0.02514863 0.2348774 0.2807984
v 0.02691341 0.2858847 0.1594902
v 0.02691341 0.2858847 0.1594902
v -0.02514863 0.2348774 0.2807984
v -0.07486558 0.2358534 0.1450545
v -0.2602141 0.2550908 -0.05022994
v -0.1429942 0.2544361 -0.2129194
v -0.1613476 0.3051053 -0.02204553
v -0.1613476 0.3051053 -0.02204553
v -0.1429942 0.2544361 -0.2129194
v -0.1624033 0.2028558 -0.02239429
v -0.1624033 0.2028558 -0.02239429
v -0.1429942 0.2544361 -0.2129194
v -0.2602141 0.2550908 -0.05022994
v -0.2974045 0.2383842 0.07624637
v -0.2686322 0.2375832 0.2240642
v -0.1995938 0.1861492 0.104082
v -0.1995938 0.1861492 0.104082
v -0.2686322 0.2375832 0.2240642
v -0.198539 0.2883987 0.1044308
v -0.198539 0.2883987 0.1044308
v -0.2686322 0.2375832 0.2240642
v -0.2974045 0.2383842 0.07624637
v -0.255748 0.09110147 -0.08442298
v -0.1527979 0.09069067 -0.2754625
v -0.1545279 0.1411266 -0.06647231
v -0.1545279 0.1411266 -0.06647231
v -0.1527979 0.09069067 -0.2754625
v -0.1555827 0.03887713 -0.06682074
v -0.1555827 0.03887713 -0.06682074
v -0.1527979 0.09069067 -0.2754625
v -0.255748 0.09110147 -0.08442298
v -0.2781661 0.06691921 0.04415064
v -0.234462 0.06597537 0.1886729
v -0.1780007 0.01469481 0.061752
v -0.1780007 0.01469481 0.061752
v -0.234462 0.06597537 0.1886729
v -0.1769459 0.1169443 0.06210076
v -0.1769459 0.1169443 0.06210076
v -0.234462 0.06597537 0.1886729
v -0.2781661 0.06691921 0.04415064
v -0.03244805 0.08862436 -0.03368933
v 0.09502864 0.08779162 -0.1752114
v 0.06351256 0.1386392 0.003196478
v 0.06351256 0.1386392 0.003196478
v 0.09502864 0.08779162 -0.1752114
v 0.06245685 0.03638971 0.002847739
v 0.06245685 0.03638971 0.002847739
v 0.09502864 0.08779162 -0.1752114
v -0.03244805 0.08862436 -0.03368933
v -0.08805871 0.0647372 0.1087791
v -0.07488751 0.06407058 0.2644052
v 0.006847147 0.01250249 0.1453155
v 0.006847147 0.01250249 0.1453155
v -0.07488751 0.06407058 0.2644052
v 0.007900957 0.1147521 0.1456642
v 0.007900957 0.1147521 0.1456642
v -0.07488751 0.06407058 0.2644052
v -0.08805871 0.0647372 0.1087791
v 0.1740625 0.08622259 0.04575163
v 0.3015382 0.08538985 -0.09577078
v 0.2700222 0.1362374 0.08263683
v 0.2700222 0.1362374 0.08263683
v 0.3015382 0.08538985 -0.09577078
v 0.2689674 0.03398794 0.08228795
v 0.2689674 0.03398794 0.08228795
v 0.3015382 0.08538985 -0.09577078
v 0.1740625 0.08622259 0.04575163
v 0.1209323 0.0623318 0.1817712
v 0.131623 0.06166881 0.343846
v 0.2158372 0.01009715 0.218308
v 0.2158372 0.01009715 0.218308
v 0.131623 0.06166881 0.343846
v 0.216892 0.1123467 0.2186564
v 0.216892 0.1123467 0.2186564
v 0.131623 0.06166881 0.343846
v 0.1209323 0.0623318 0.1817712
v 0.1671836 0.2503636 0.04274884
v 0.2775848 0.2496976 -0.09600307
v 0.2660511 0.3003781 0.07093321
v 0.2660511 0.3003781 0.07093321
v 0.2775848 0.2496976 -0.09600307
v 0.2649944 0.1981286 0.07058477
v 0.2649944 0.1981286 0.07058477
v 0.2775848 0.2496976 -0.09600307
v 0.1671836 0.2503636 0.04274884
v 0.1214702 0.233643 0.1991492
v 0.1519477 0.2328448 0.3409807
v 0.219281 0.181408 0.2269847
v 0.219281 0.181408 0.2269847
v 0.1519477 0.2328448 0.3409807
v 0.2203357 0.2836574 0.2273335
v 0.2203357 0.2836574 0.2273335
v 0.1519477 0.2328448 0.3409807
v 0.1214702 0.233643 0.1991492
v -0.4074576 0.4075848 -0.04325236
v -0.3843367 0.4159909 -0.1042162
v -0.326793 0.447673 -0.06828351
v -0.3423388 0.4421154 -0.02803981
v -0.3423388 0.4421154 -0.02803981
v -0.3003714 0.4375532 0.01820007
v -0.4017041 0.4025871 -0.0005693212
v -0.4074576 0.4075848 -0.04325236
v -0.3843367 0.4159909 -0.1042162
v -0.352545 0.3693742 -0.1321523
v -0.2642148 0.4502534 -0.07361007
v -0.326793 0.447673 -0.06828351
v -0.3216412 0.28042 0.1246337
v -0.4017041 0.4025871 -0.0005693212
v -0.3003714 0.4375532 0.01820007
v -0.1852725 0.4587495 0.09803065
v -0.1852725 0.4587495 0.09803065
v 0.04393459 0.2874007 0.2168864
v -0.3216412 0.28042 0.1246337
v 0.09054542 0.4180194 0.2058624
v 0.3144777 0.3890235 0.2796043
v 0.2285144 0.4275368 0.225103
v 0.3478191 0.3932808 0.2522157
v 0.3144777 0.3890235 0.2796043
v 0.2285144 0.4275368 0.225103
v 0.2910945 0.4301177 0.2197717
v 0.2910945 0.4301177 0.2197717
v 0.3066413 0.4356754 0.1795277
v 0.3724773 0.4016578 0.1918535
v 0.3478191 0.3932808 0.2522157
v 0.3066413 0.4356754 0.1795277
v 0.264672 0.3628647 0.1332922
v 0.3682487 0.2957127 0.1498268
v 0.3724773 0.4016578 0.1918535
v -0.1015275 0.2525674 -0.09290223
v 0.2309835 0.1629241 0.009218559
v 0.147908 0.4449565 0.06036241
v -0.1279099 0.3554453 -0.0474697
v -0.1279099 0.3554453 -0.0474697
v -0.2642148 0.4502534 -0.07361007
v -0.352545 0.3693742 -0.1321523
v -0.1015275 0.2525674 -0.09290223
v 0.2309835 0.1629241 0.009218559
v 0.3682487 0.2957127 0.1498268
v 0.264672 0.3628647 0.1332922
v 0.147908 0.4449565 0.06036241
v -0.3216412 0.28042 0.1246337
v 0.04393459 0.2874007 0.2168864
v 0.08058047 -0.08010876 0.1656335
v -0.2681868 -0.0801087 0.06961288
v -0.1016648 -0.08010828 -0.1900462
v 0.2783792 -0.08010828 -0.06933039
v 0.2309835 0.1629241 0.009218559
v -0.1015275 0.2525674 -0.09290223
v 0.3478191 0.3932808 0.2522157
v 0.3724773 0.4016578 0.1918535
v 0.4098289 -0.08010852 0.1188236
v 0.3823154 -0.0801087 0.1906717
v -0.3843367 0.4159909 -0.1042162
v -0.4074576 0.4075848 -0.04325236
v -0.4097455 -0.08010846 -0.1191858
v -0.3808758 -0.08010834 -0.1905035
v -0.4097455 -0.08010846 -0.1191858
v -0.4074576 0.4075848 -0.04325236
v -0.4017041 0.4025871 -0.0005693212
v -0.4030392 -0.08010852 -0.06947474
v -0.4030392 -0.08010852 -0.06947474
v -0.4017041 0.4025871 -0.0005693212
v -0.3216412 0.28042 0.1246337
v -0.2681868 -0.0801087 0.06961288
v 0.08058047 -0.08010876 0.1656335
v 0.04393459 0.2874007 0.2168864
v 0.3144777 0.3890235 0.2796043
v 0.3434713 -0.0801087 0.2225635
v 0.3434713 -0.0801087 0.2225635
v 0.3144777 0.3890235 0.2796043
v 0.3478191 0.3932808 0.2522157
v 0.3823154 -0.0801087 0.1906717
v -0.3843367 0.4159909 -0.1042162
v -0.3808758 -0.08010834 -0.1905035
v -0.3438237 -0.08010834 -0.2230959
v -0.352545 0.3693742 -0.1321523
v -0.352545 0.3693742 -0.1321523
v -0.3438237 -0.08010834 -0.2230959
v -0.1016648 -0.08010828 -0.1900462
v -0.1015275 0.2525674 -0.09290223
v 0.2309835 0.1629241 0.009218559
v 0.2783792 -0.08010828 -0.06933039
v 0.4049127 -0.08010846 0.06981379
v 0.3682487 0.2957127 0.1498268
v 0.3682487 0.2957127 0.1498268
v 0.4049127 -0.08010846 0.06981379
v 0.4098289 -0.08010852 0.1188236
v 0.3724773 0.4016578 0.1918535
v -0.3003714 0.4375532 0.01820007
v -0.3423388 0.4421154 -0.02803981
v -0.326793 0.447673 -0.06828351
v -0.2642148 0.4502534 -0.07361007
v 0.09054542 0.4180194 0.2058624
v -0.1852725 0.4587495 0.09803065
v -0.1279099 0.3554453 -0.0474697
v 0.147908 0.4449565 0.06036241
v 0.2285144 0.4275368 0.225103
v 0.09054542 0.4180194 0.2058624
v 0.147908 0.4449565 0.06036241
v 0.264672 0.3628647 0.1332922
v -0.1852725 0.4587495 0.09803065
v -0.3003714 0.4375532 0.01820007
v -0.2642148 0.4502534 -0.07361007
v -0.1279099 0.3554453 -0.0474697
v 0.3066413 0.4356754 0.1795277
v 0.2910945 0.4301177 0.2197717
v 0.2285144 0.4275368 0.225103
v 0.264672 0.3628647 0.1332922
vt 0.3273851 0.01818919
vt 0.3624864 0.08079308
vt 0.362497 0.01193839
vt 0.362497 0.01193839
vt 0.3624864 0.08079308
vt 0.3621355 0.01207221
vt 0.3621355 0.01207221
vt 0.3624864 0.08079308
vt 0.3273851 0.01818919
vt 0.3180833 0.04636572
vt 0.3538936 0.04636572
vt 0.3717987 0.01950802
vt 0.3717987 0.01950802
vt 0.3538936 0.04636572
vt 0.3717987 0.07322341
vt 0.3717987 0.07322341
vt 0.3538936 0.04636572
vt 0.3180833 0.04636572
vt 0.3273993 0.01952541
vt 0.3624311 0.07962924
vt 0.3624828 0.01310223
vt 0.3624828 0.01310223
vt 0.3624311 0.07962924
vt 0.3621069 0.01318735
vt 0.3621069 0.01318735
vt 0.3624311 0.07962924
vt 0.3273993 0.01952541
vt 0.318818 0.03046167
vt 0.3710642 0.0304876
vt 0.3347654 0.06193349
vt 0.3347654 0.06193349
vt 0.3710642 0.0304876
vt 0.3349539 0.06226978
vt 0.3349539 0.06226978
vt 0.3710642 0.0304876
vt 0.318818 0.03046167
vt 0.3271085 0.01061559
vt 0.3506947 0.08211589
vt 0.3627737 0.01062006
vt 0.3627737 0.01062006
vt 0.3506947 0.08211589
vt 0.3623921 0.01067513
vt 0.3623921 0.01067513
vt 0.3506947 0.08211589
vt 0.3271085 0.01061559
vt 0.3271085 0.06974068
vt 0.3507278 0.02298513
vt 0.3623921 0.06974632
vt 0.3623921 0.06974632
vt 0.3507278 0.02298513
vt 0.3627736 0.06969059
vt 0.3627736 0.06969059
vt 0.3507278 0.02298513
vt 0.3271085 0.06974068
vt 0.3274102 0.02148002
vt 0.3619883 0.07779217
vt 0.3624719 0.01493925
vt 0.3624719 0.01493925
vt 0.3619883 0.07779217
vt 0.3620901 0.01499182
vt 0.3620901 0.01499182
vt 0.3619883 0.07779217
vt 0.3274102 0.02148002
vt 0.3275872 0.06325915
vt 0.3618199 0.02125666
vt 0.3619245 0.07136819
vt 0.3619245 0.07136819
vt 0.3618199 0.02125666
vt 0.362295 0.07147479
vt 0.362295 0.07147479
vt 0.3618199 0.02125666
vt 0.3275872 0.06325915
vt 0.32741 0.02147999
vt 0.3619884 0.07779223
vt 0.3624721 0.01493925
vt 0.3624721 0.01493925
vt 0.3619884 0.07779223
vt 0.36209 0.01499176
vt 0.36209 0.01499176
vt 0.3619884 0.07779223
vt 0.32741 0.02147999
vt 0.3275809 0.06447867
vt 0.3622971 0.02009035
vt 0.3619305 0.07253511
vt 0.3619305 0.07253511
vt 0.3622971 0.02009035
vt 0.3623012 0.07264107
vt 0.3623012 0.07264107
vt 0.3622971 0.02009035
vt 0.3275809 0.06447867
vt 0.3271076 0.01798165
vt 0.3507701 0.0747658
vt 0.3627744 0.01796567
vt 0.3627744 0.01796567
vt 0.3507701 0.0747658
vt 0.3623892 0.01798192
vt 0.3623892 0.01798192
vt 0.3507701 0.0747658
vt 0.3271076 0.01798165
vt 0.3180833 0.04636572
vt 0.3538936 0.04636572
vt 0.3717987 0.01950802
vt 0.3717987 0.01950802
vt 0.3538936 0.04636572
vt 0.3717987 0.07322341
vt 0.3717987 0.07322341
vt 0.3538936 0.04636572
vt 0.3180833 0.04636572
vt 0.2560927 0.1792545
vt 0.2641447 0.1823037
vt 0.2593989 0.1937961
vt 0.2540834 0.1917801
vt 0.2540834 0.1917801
vt 0.2479761 0.1901252
vt 0.2504551 0.1774415
vt 0.2560927 0.1792545
vt 0.2641447 0.1823037
vt 0.2678346 0.1653939
vt 0.2601023 0.1947321
vt 0.2593989 0.1937961
vt 0.2339183 0.1331263
vt 0.2504551 0.1774415
vt 0.2479761 0.1901252
vt 0.2374321 0.1978141
vt 0.2374321 0.1978141
vt 0.2217336 0.1356585
vt 0.2339183 0.1331263
vt 0.2231897 0.1830396
vt 0.2134499 0.1725214
vt 0.2206484 0.1864919
vt 0.2170673 0.1740656
vt 0.2134499 0.1725214
vt 0.2206484 0.1864919
vt 0.2213526 0.1874281
vt 0.2213526 0.1874281
vt 0.226668 0.1894441
vt 0.22504 0.1771043
vt 0.2170673 0.1740656
vt 0.226668 0.1894441
vt 0.2327747 0.1630327
vt 0.2305909 0.1386737
vt 0.22504 0.1771043
vt 0.2626505 0.1230232
vt 0.2491624 0.09050572
vt 0.2424073 0.1928107
vt 0.2566498 0.1603413
vt 0.2566498 0.1603413
vt 0.2601023 0.1947321
vt 0.2678346 0.1653939
vt 0.2626505 0.1230232
vt 0.2491624 0.09050572
vt 0.2305909 0.1386737
vt 0.2327747 0.1630327
vt 0.2424073 0.1928107
vt 0.2339183 0.1331263
vt 0.2217336 0.1356585
vt 0.2285031 0.002347402
vt 0.2411855 0.002347402
vt 0.2754813 0.002347588
vt 0.2595371 0.002347588
vt 0.2491624 0.09050572
vt 0.2626505 0.1230232
vt 0.2170673 0.1740656
vt 0.22504 0.1771043
vt 0.2346857 0.002347461
vt 0.225196 0.002347402
vt 0.2641447 0.1823037
vt 0.2560927 0.1792545
vt 0.266122 0.002347528
vt 0.2755417 0.002347528
vt 0.266122 0.002347528
vt 0.2560927 0.1792545
vt 0.2504551 0.1774415
vt 0.2595562 0.002347461
vt 0.2595562 0.002347461
vt 0.2504551 0.1774415
vt 0.2339183 0.1331263
vt 0.2411855 0.002347402
vt 0.2285031 0.002347402
vt 0.2217336 0.1356585
vt 0.2134499 0.1725214
vt 0.2209838 0.002347402
vt 0.2209838 0.002347402
vt 0.2134499 0.1725214
vt 0.2170673 0.1740656
vt 0.225196 0.002347402
vt 0.2641447 0.1823037
vt 0.2755417 0.002347528
vt 0.2798465 0.002347528
vt 0.2678346 0.1653939
vt 0.2678346 0.1653939
vt 0.2798465 0.002347528
vt 0.2754813 0.002347588
vt 0.2626505 0.1230232
vt 0.2491624 0.09050572
vt 0.2595371 0.002347588
vt 0.241159 0.002347528
vt 0.2305909 0.1386737
vt 0.2305909 0.1386737
vt 0.241159 0.002347528
vt 0.2346857 0.002347461
vt 0.22504 0.1771043
vt 0.2479761 0.1901252
vt 0.2540834 0.1917801
vt 0.2593989 0.1937961
vt 0.2601023 0.1947321
vt 0.2231897 0.1830396
vt 0.2374321 0.1978141
vt 0.2566498 0.1603413
vt 0.2424073 0.1928107
vt 0.2206484 0.1864919
vt 0.2231897 0.1830396
vt 0.2424073 0.1928107
vt 0.2327747 0.1630327
vt 0.2374321 0.1978141
vt 0.2479761 0.1901252
vt 0.2601023 0.1947321
vt 0.2566498 0.1603413
vt 0.226668 0.1894441
vt 0.2213526 0.1874281
vt 0.2206484 0.1864919
vt 0.2327747 0.1630327
vn -0.4068882 0.8886984 -0.2113224
vn -0.4068883 0.8886984 -0.2113224
vn -0.4068882 0.8886984 -0.2113224
vn 0.9994086 -0.01020041 -0.03283677
vn 0.9994086 -0.01020041 -0.03283677
vn 0.9994086 -0.01020041 -0.03283677
vn -0.4251248 -0.8786512 -0.2173496
vn -0.4251247 -0.8786512 -0.2173496
vn -0.4251247 -0.8786512 -0.2173496
vn -0.4720936 -0.865647 0.166682
vn -0.4720937 -0.865647 0.166682
vn -0.4720937 -0.865647 0.166682
vn 0.9205362 -0.01083023 0.390507
vn 0.9205362 -0.01083023 0.390507
vn 0.9205362 -0.01083023 0.3905071
vn -0.4541427 0.8740472 0.1726149
vn -0.4541427 0.8740472 0.1726149
vn -0.4541427 0.8740472 0.1726149
vn -0.3717367 0.8877765 -0.2714124
vn -0.3717369 0.8877765 -0.2714123
vn -0.3717367 0.8877765 -0.2714125
vn 0.9950808 -0.01060368 0.09849712
vn 0.9950808 -0.01060368 0.09849713
vn 0.9950808 -0.01060368 0.09849713
vn -0.3899575 -0.8780453 -0.277434
vn -0.3899575 -0.8780453 -0.277434
vn -0.3899575 -0.8780453 -0.277434
vn -0.4890591 -0.8675438 0.09049299
vn -0.4890591 -0.8675438 0.09049297
vn -0.4890591 -0.8675438 0.09049299
vn 0.8647284 -0.01063516 0.5021272
vn 0.8647284 -0.01063516 0.5021272
vn 0.8647284 -0.01063516 0.5021272
vn -0.4710602 0.8768131 0.09644169
vn -0.4710602 0.8768131 0.09644166
vn -0.4710601 0.8768132 0.09644167
vn -0.4010552 0.8897269 -0.2180385
vn -0.4010552 0.8897269 -0.2180384
vn -0.4010552 0.8897269 -0.2180385
vn 0.9998884 -0.01035423 0.01077288
vn 0.9998884 -0.01035423 0.01077285
vn 0.9998884 -0.01035423 0.01077284
vn -0.4193134 -0.8797543 -0.2240729
vn -0.4193134 -0.8797542 -0.2240728
vn -0.4193133 -0.8797543 -0.2240728
vn -0.4768931 -0.8679731 0.1385481
vn -0.4768932 -0.8679731 0.1385481
vn -0.4768931 -0.8679731 0.1385481
vn 0.9119921 -0.01080863 0.4100654
vn 0.9119921 -0.01080863 0.4100654
vn 0.9119921 -0.01080863 0.4100654
vn -0.4588912 0.8766637 0.1444975
vn -0.4588912 0.8766637 0.1444976
vn -0.4588912 0.8766637 0.1444975
vn -0.3416178 0.8862136 -0.3129261
vn -0.3416178 0.8862136 -0.312926
vn -0.3416177 0.8862136 -0.3129261
vn 0.984166 -0.01075845 0.1769225
vn 0.984166 -0.01075845 0.1769225
vn 0.984166 -0.01075845 0.1769225
vn -0.3598096 -0.8768213 -0.318938
vn -0.3598095 -0.8768213 -0.318938
vn -0.3598096 -0.8768213 -0.318938
vn -0.4930224 -0.8691863 0.03800057
vn -0.4930224 -0.8691863 0.03800062
vn -0.4930224 -0.8691863 0.03800062
vn 0.8223376 -0.01042536 0.5689042
vn 0.8223377 -0.01042536 0.5689042
vn 0.8223376 -0.01042536 0.5689042
vn -0.4749848 0.8788952 0.04396221
vn -0.4749848 0.8788952 0.04396218
vn -0.4749848 0.8788952 0.0439622
vn -0.3416179 0.8862136 -0.3129258
vn -0.3416179 0.8862137 -0.3129258
vn -0.3416179 0.8862136 -0.3129258
vn 0.984166 -0.01075879 0.1769225
vn 0.984166 -0.01075879 0.1769225
vn 0.984166 -0.01075879 0.1769225
vn -0.3598096 -0.8768212 -0.3189384
vn -0.3598097 -0.8768212 -0.3189384
vn -0.3598097 -0.8768212 -0.3189383
vn -0.4904654 -0.8709851 0.02878689
vn -0.4904654 -0.8709851 0.0287869
vn -0.4904654 -0.8709851 0.0287869
vn 0.8284128 -0.01045772 0.5600204
vn 0.8284128 -0.01045772 0.5600206
vn 0.8284128 -0.01045772 0.5600206
vn -0.4723907 0.8807036 0.03476066
vn -0.4723907 0.8807036 0.03476068
vn -0.4723909 0.8807034 0.03476066
vn -0.3635766 0.8841106 -0.2935309
vn -0.3635765 0.8841106 -0.2935309
vn -0.3635766 0.8841106 -0.2935309
vn 0.9973407 -0.01053682 0.07211331
vn 0.9973407 -0.01053682 0.07211331
vn 0.9973407 -0.01053682 0.07211331
vn -0.3817216 -0.874398 -0.2995274
vn -0.3817215 -0.874398 -0.2995274
vn -0.3817215 -0.874398 -0.2995275
vn -0.4908106 -0.8654393 0.1005976
vn -0.4908107 -0.8654391 0.1005976
vn -0.4908107 -0.8654392 0.1005976
vn 0.8588677 -0.01060886 0.5120876
vn 0.8588677 -0.01060886 0.5120876
vn 0.8588677 -0.01060887 0.5120876
vn -0.4728554 0.8746763 0.1065322
vn -0.4728554 0.8746763 0.1065322
vn -0.4728554 0.8746763 0.1065322
vn -0.4573931 0.8877267 -0.05227624
vn -0.4573931 0.8877267 -0.05227624
vn -0.4573931 0.8877267 -0.05227624
vn -0.4573931 0.8877267 -0.05227624
vn -0.4197882 0.8505656 0.316727
vn -0.4197882 0.8505656 0.316727
vn -0.4197882 0.8505656 0.316727
vn -0.4197882 0.8505656 0.316727
vn 0.0189904 0.6282123 -0.7778101
vn 0.0189904 0.6282123 -0.7778101
vn 0.0189904 0.6282124 -0.7778101
vn 0.01899043 0.6282123 -0.7778101
vn -0.4609751 0.5395956 0.7045131
vn -0.4609751 0.5395956 0.7045131
vn -0.4609751 0.5395956 0.7045131
vn -0.460975 0.5395955 0.7045132
vn -0.2732192 0.2741185 0.9220685
vn -0.2732192 0.2741185 0.9220684
vn -0.2732192 0.2741185 0.9220684
vn -0.2732192 0.2741185 0.9220684
vn -0.2643332 0.2943184 0.9184251
vn -0.2643332 0.2943184 0.9184251
vn 0.1207612 0.8396686 0.5295031
vn 0.1207612 0.8396686 0.529503
vn 0.1207612 0.8396686 0.529503
vn 0.1207612 0.8396686 0.529503
vn 0.4012865 0.8717479 0.2811133
vn 0.4012864 0.871748 0.2811133
vn 0.4012864 0.8717479 0.2811132
vn 0.4012865 0.8717479 0.2811132
vn 0.35155 0.3398508 -0.8723039
vn 0.35155 0.3398508 -0.8723039
vn 0.3515501 0.3398509 -0.8723039
vn 0.3515501 0.3398509 -0.8723039
vn 0.3098769 0.313349 -0.8976573
vn 0.309877 0.313349 -0.8976573
vn 0.309877 0.313349 -0.8976573
vn 0.309877 0.313349 -0.8976573
vn 0.3476934 0.3702019 -0.8614289
vn 0.3476933 0.3702019 -0.8614289
vn 0.3476933 0.3702018 -0.8614289
vn 0.3476933 0.3702018 -0.8614289
vn 0.5534884 0.3698259 -0.7462435
vn 0.5534884 0.3698259 -0.7462435
vn 0.5534884 0.3698259 -0.7462435
vn 0.5534885 0.3698259 -0.7462435
vn -0.2518192 -0.1285961 0.9591925
vn -0.2518192 -0.1285961 0.9591925
vn -0.2518192 -0.1285961 0.9591925
vn -0.2518192 -0.1285961 0.9591925
vn 0.3158211 0.1934188 -0.9288952
vn 0.3158211 0.1934187 -0.9288952
vn 0.3158211 0.1934188 -0.9288952
vn 0.3158211 0.1934188 -0.9288952
vn 0.9299777 0.004363381 0.3675901
vn 0.9299777 0.004363381 0.3675901
vn 0.9299777 0.004363381 0.3675901
vn 0.9299777 0.004363381 0.3675901
vn -0.9318188 0.03962354 -0.3607543
vn -0.9318188 0.03962353 -0.3607543
vn -0.9318188 0.03962353 -0.3607543
vn -0.9318188 0.03962353 -0.3607543
vn -0.9911288 -0.02290856 0.1309154
vn -0.9911288 -0.02290856 0.1309153
vn -0.9911288 -0.02290856 0.1309154
vn -0.9911288 -0.02290856 0.1309153
vn -0.7972177 -0.1047122 0.5945413
vn -0.7972177 -0.1047122 0.5945413
vn -0.7972176 -0.1047122 0.5945414
vn -0.7972177 -0.1047122 0.5945413
vn -0.1961439 -0.1158863 0.9737032
vn -0.1961439 -0.1158863 0.9737032
vn -0.1961439 -0.1158863 0.9737032
vn -0.1961439 -0.1158863 0.9737032
vn 0.6379336 -0.05376115 0.7682126
vn 0.6379336 -0.05376115 0.7682126
vn 0.6379336 -0.05376115 0.7682126
vn 0.6379336 -0.05376115 0.7682126
vn -0.6203929 0.1048232 -0.7772546
vn -0.6203929 0.1048232 -0.7772546
vn -0.620393 0.1048232 -0.7772546
vn -0.6203929 0.1048232 -0.7772546
vn 0.1812433 0.1704151 -0.9685606
vn 0.1812433 0.1704151 -0.9685606
vn 0.1812434 0.1704151 -0.9685606
vn 0.1812433 0.1704151 -0.9685606
vn 0.679095 0.17206 -0.7136003
vn 0.6790951 0.17206 -0.7136002
vn 0.679095 0.17206 -0.7136003
vn 0.6790951 0.17206 -0.7136002
vn 0.9789222 0.08117639 -0.1874079
vn 0.9789222 0.08117639 -0.1874079
vn 0.9789222 0.08117639 -0.1874079
vn 0.9789222 0.08117639 -0.1874079
vn -0.03022543 0.9916619 0.1252721
vn -0.03022543 0.9916619 0.1252721
vn -0.03022543 0.9916619 0.1252721
vn -0.03022544 0.9916619 0.1252721
vn 0.01188689 0.9683201 -0.2494291
vn 0.0118869 0.9683201 -0.2494291
vn 0.0118869 0.9683201 -0.249429
vn 0.01188689 0.9683201 -0.2494291
vn 0.2868682 0.9571697 -0.03915191
vn 0.2868682 0.9571697 -0.03915195
vn 0.2868682 0.9571697 -0.03915195
vn 0.2868682 0.9571697 -0.03915196
vn 0.3546705 0.9115069 -0.2082404
vn 0.3546704 0.9115068 -0.2082404
vn 0.3546705 0.9115069 -0.2082404
vn 0.3546705 0.9115069 -0.2082404
vn -0.3714167 0.7844958 -0.4966044
vn -0.3714167 0.7844959 -0.4966044
vn -0.3714168 0.7844958 -0.4966044
vn -0.3714167 0.7844959 -0.4966043
g rock_block_0
f 3/3/3 2/2/2 1/1/1
f 6/6/6 5/5/5 4/4/4
f 9/9/9 8/8/8 7/7/7
f 12/12/12 11/11/11 10/10/10
f 15/15/15 14/14/14 13/13/13
f 18/18/18 17/17/17 16/16/16
f 21/21/21 20/20/20 19/19/19
f 24/24/24 23/23/23 22/22/22
f 27/27/27 26/26/26 25/25/25
f 30/30/30 29/29/29 28/28/28
f 33/33/33 32/32/32 31/31/31
f 36/36/36 35/35/35 34/34/34
f 39/39/39 38/38/38 37/37/37
f 42/42/42 41/41/41 40/40/40
f 45/45/45 44/44/44 43/43/43
f 48/48/48 47/47/47 46/46/46
f 51/51/51 50/50/50 49/49/49
f 54/54/54 53/53/53 52/52/52
f 57/57/57 56/56/56 55/55/55
f 60/60/60 59/59/59 58/58/58
f 63/63/63 62/62/62 61/61/61
f 66/66/66 65/65/65 64/64/64
f 69/69/69 68/68/68 67/67/67
f 72/72/72 71/71/71 70/70/70
f 75/75/75 74/74/74 73/73/73
f 78/78/78 77/77/77 76/76/76
f 81/81/81 80/80/80 79/79/79
f 84/84/84 83/83/83 82/82/82
f 87/87/87 86/86/86 85/85/85
f 90/90/90 89/89/89 88/88/88
f 93/93/93 92/92/92 91/91/91
f 96/96/96 95/95/95 94/94/94
f 99/99/99 98/98/98 97/97/97
f 102/102/102 101/101/101 100/100/100
f 105/105/105 104/104/104 103/103/103
f 108/108/108 107/107/107 106/106/106
f 111/111/111 110/110/110 109/109/109
f 112/112/112 111/111/111 109/109/109
f 115/115/115 114/114/114 113/113/113
f 116/116/116 115/115/115 113/113/113
f 119/119/119 118/118/118 117/117/117
f 120/120/120 119/119/119 117/117/117
f 123/123/123 122/122/122 121/121/121
f 124/124/124 123/123/123 121/121/121
f 127/127/127 126/126/126 125/125/125
f 126/126/126 128/128/128 125/125/125
f 126/126/126 129/129/129 128/128/128
f 129/129/129 130/130/130 128/128/128
f 133/133/133 132/132/132 131/131/131
f 134/134/134 133/133/133 131/131/131
f 137/137/137 136/136/136 135/135/135
f 138/138/138 137/137/137 135/135/135
f 141/141/141 140/140/140 139/139/139
f 142/142/142 141/141/141 139/139/139
f 145/145/145 144/144/144 143/143/143
f 146/146/146 145/145/145 143/143/143
f 149/149/149 148/148/148 147/147/147
f 150/150/150 149/149/149 147/147/147
f 153/153/153 152/152/152 151/151/151
f 154/154/154 153/153/153 151/151/151
f 157/157/157 156/156/156 155/155/155
f 158/158/158 157/157/157 155/155/155
f 161/161/161 160/160/160 159/159/159
f 162/162/162 161/161/161 159/159/159
f 165/165/165 164/164/164 163/163/163
f 166/166/166 165/165/165 163/163/163
f 169/169/169 168/168/168 167/167/167
f 170/170/170 169/169/169 167/167/167
f 173/173/173 172/172/172 171/171/171
f 174/174/174 173/173/173 171/171/171
f 177/177/177 176/176/176 175/175/175
f 178/178/178 177/177/177 175/175/175
f 181/181/181 180/180/180 179/179/179
f 182/182/182 181/181/181 179/179/179
f 185/185/185 184/184/184 183/183/183
f 186/186/186 185/185/185 183/183/183
f 189/189/189 188/188/188 187/187/187
f 190/190/190 189/189/189 187/187/187
f 193/193/193 192/192/192 191/191/191
f 194/194/194 193/193/193 191/191/191
f 197/197/197 196/196/196 195/195/195
f 198/198/198 197/197/197 195/195/195
f 201/201/201 200/200/200 199/199/199
f 202/202/202 201/201/201 199/199/199
f 205/205/205 204/204/204 203/203/203
f 206/206/206 205/205/205 203/203/203
f 209/209/209 208/208/208 207/207/207
f 210/210/210 209/209/209 207/207/207
f 213/213/213 212/212/212 211/211/211
f 214/214/214 213/213/213 211/211/211
f 217/217/217 216/216/216 215/215/215
f 218/218/218 217/217/217 215/215/215
f 221/221/221 220/220/220 219/219/219
f 222/222/222 221/221/221 219/219/219
