g upgrade_house_lv3
v 0.007041016 0.06760811 0.02826477
v 0.007041016 0.08497467 0.02826477
v 0.01043488 0.08855552 0.02826477
v 0.01043488 0.06760811 0.02826477
v 0.007041016 0.08497467 0.02826477
v -0.00603363 0.08750088 0.02826477
v -0.00942749 0.09108177 0.02826477
v 0.01043488 0.08855552 0.02826477
v -0.00603363 0.08750088 0.02826477
v -0.00809021 0.06760811 0.02826477
v -0.0117395 0.06760811 0.02826477
v -0.00942749 0.09108177 0.02826477
v 0.01043488 0.06760811 0.01767822
v 0.01043488 0.06760811 0.02826477
v 0.01043488 0.08855552 0.02826477
v 0.009282837 0.09031303 0.01947021
v 0.009282837 0.09031303 0.01947021
v 0.01043488 0.08855552 0.02826477
v -0.00942749 0.09108177 0.02826477
v -0.008275299 0.09283928 0.01947021
v -0.008275299 0.09283928 0.01947021
v -0.00942749 0.09108177 0.02826477
v -0.0117395 0.06760811 0.02826477
v -0.0117395 0.06760811 0.01767822
v 0.007041016 0.06760811 0.02826477
v 0.007041016 0.06760811 0.02526001
v 0.005612946 0.08355301 0.02526001
v 0.007041016 0.08497467 0.02826477
v 0.007041016 0.08497467 0.02826477
v 0.005612946 0.08355301 0.02526001
v -0.00460556 0.08607925 0.02526001
v -0.00603363 0.08750088 0.02826477
v -0.00603363 0.08750088 0.02826477
v -0.00460556 0.08607925 0.02526001
v -0.00809021 0.06760811 0.02526001
v -0.00809021 0.06760811 0.02826477
v 0.02512283 0.07761047 -0.02021973
v 0.02512283 0.07761047 0.01525024
v 0.02512283 0.1048083 0.01699219
v 0.02512283 0.1048083 -0.02196167
v -0.02709122 0.07660583 0.01498779
v -0.03140396 0.07660583 0.01760803
v -0.03140396 0.07714264 -0.02205444
v -0.02709122 0.07714264 -0.01913513
v -0.02046081 0.1033687 -0.02859131
v 0.01849243 0.1048083 -0.02859131
v 0.02512283 0.1048083 -0.02196167
v -0.02709122 0.1033685 -0.02196167
v -0.02709122 0.1017175 0.01699158
v 0.02512283 0.1048083 0.01699219
v -0.02046081 0.07714264 -0.02859192
v -0.02046081 0.1033687 -0.02859131
v -0.02709122 0.1033685 -0.02196167
v -0.02709122 0.07714264 -0.01913513
v -0.02709122 0.07660583 0.01498779
v -0.02709122 0.1017175 0.01699158
v -0.02046081 0.09796295 0.02362244
v -0.02046081 0.07538559 0.02079651
v 0.02512283 0.07761047 -0.02021973
v 0.0292865 0.07761047 0.0179126
v 0.02512283 0.07761047 0.01525024
v 0.0292865 0.07761047 -0.02331482
v 0.01849243 0.07761063 -0.02625732
v 0.02157959 0.07761063 -0.03033264
v -0.02046081 0.07714264 -0.02859192
v -0.0236969 0.07714264 -0.03304626
v 0.01849243 0.07761063 -0.02625732
v 0.02512283 0.1048083 0.01699219
v 0.01849228 0.09944534 0.02362244
v -0.02046081 0.09796295 0.02362244
v -0.02709122 0.1017175 0.01699158
v -0.00809021 0.06760811 0.02526001
v -0.00460556 0.08607925 0.02526001
v 0.005612946 0.08355301 0.02526001
v 0.007041016 0.06760811 0.02526001
v 0.02512283 0.1048083 0.01699219
v 0.02512283 0.07761047 0.01525024
v 0.01849228 0.07586746 0.02128784
v 0.01849228 0.09944534 0.02362244
v 0.01849243 0.1048083 -0.02859131
v 0.01849243 0.07761063 -0.02625732
v 0.02512283 0.07761047 -0.02021973
v 0.02512283 0.1048083 -0.02196167
v 0.01849243 0.1048083 -0.02859131
v -0.02046081 0.1033687 -0.02859131
v -0.02046081 0.07714264 -0.02859192
v 0.01849243 0.07761063 -0.02625732
v -0.02046081 0.09796295 0.02362244
v 0.01849228 0.09944534 0.02362244
v 0.01849228 0.07586746 0.02128784
v -0.02046081 0.07538559 0.02079651
v -0.02709122 0.1033685 -0.02196167
v -0.02709122 0.1017175 0.01699158
v -0.02709122 0.07660583 0.01498779
v -0.02709122 0.07714264 -0.01913513
v 0.01849228 0.07586746 0.02128784
v 0.02157959 0.07586746 0.02493042
v -0.02369705 0.07538559 0.02435974
v -0.02046081 0.07538559 0.02079651
v -0.03140396 0.07714264 -0.02205444
v -0.03140396 0.07660583 0.01760803
v -0.03140396 0.06451324 0.01648682
v -0.03140396 0.06451324 -0.02047302
v -0.02369705 0.07538559 0.02435974
v 0.02157959 0.07586746 0.02493042
v 0.02157959 0.06451324 0.02362366
v -0.02369705 0.06451324 0.02277771
v 0.02157959 0.07761063 -0.03033264
v -0.0236969 0.07714264 -0.03304626
v -0.0236969 0.06451324 -0.03304626
v 0.02157959 0.06451324 -0.02902527
v 0.02157959 0.07761063 -0.03033264
v 0.02157959 0.06451324 -0.02902527
v 0.0292865 0.06451324 -0.02233948
v 0.0292865 0.07761047 -0.02331482
v 0.0292865 0.07761047 0.0179126
v 0.0292865 0.06451324 0.01693786
v 0.02157959 0.06451324 0.02362366
v 0.02157959 0.07586746 0.02493042
v -0.03140396 0.06451324 0.01648682
v -0.03140396 0.07660583 0.01760803
v -0.02369705 0.07538559 0.02435974
v -0.02369705 0.06451324 0.02277771
v -0.0236969 0.06451324 -0.03304626
v -0.0236969 0.07714264 -0.03304626
v -0.03140396 0.07714264 -0.02205444
v -0.03140396 0.06451324 -0.02047302
v 0.0292865 0.06451324 -0.02233948
v 0.0292865 0.06451324 0.01693786
v 0.0292865 0.07761047 0.0179126
v 0.0292865 0.07761047 -0.02331482
v 0.02512283 0.07761047 0.01525024
v 0.0292865 0.07761047 0.0179126
v 0.02157959 0.07586746 0.02493042
v 0.01849228 0.07586746 0.02128784
v -0.02046081 0.07538559 0.02079651
v -0.02369705 0.07538559 0.02435974
v -0.03140396 0.07660583 0.01760803
v -0.02709122 0.07660583 0.01498779
v -0.02709122 0.07714264 -0.01913513
v -0.03140396 0.07714264 -0.02205444
v -0.0236969 0.07714264 -0.03304626
v -0.02046081 0.07714264 -0.02859192
v -0.02709122 0.06451324 0.01402283
v -0.03140396 0.06451324 0.01648682
v -0.02369705 0.06451324 0.02277771
v -0.02709122 0.06451324 -0.01777466
v -0.03140396 0.06451324 -0.02047302
v -0.02046081 0.06451324 0.01943542
v 0.02157959 0.06451324 0.02362366
v 0.02512283 0.06451324 0.01441101
v 0.01849228 0.06451324 0.02016296
v 0.0292865 0.06451324 0.01693786
v 0.0292865 0.06451324 -0.02233948
v 0.02512283 0.06451324 -0.01938049
v 0.02157959 0.06451324 -0.02902527
v 0.01849228 0.06451324 -0.02513306
v -0.0236969 0.06451324 -0.03304626
v -0.02046081 0.06451324 -0.02859192
vt 0.09019348 0.4609095
vt 0.09019348 0.5301329
vt 0.09130253 0.5299006
vt 0.09019348 0.4623292
vt 0.09019348 0.5301329
vt 0.008763419 0.5301329
vt 0.008170603 0.529972
vt 0.09130253 0.5299006
vt 0.008763419 0.5301329
vt 0.008763419 0.4609095
vt 0.008763419 0.4621422
vt 0.008170603 0.529972
vt 0.09019348 0.4623292
vt 0.09019348 0.4623292
vt 0.09130253 0.5299006
vt 0.09051675 0.5297527
vt 0.09051675 0.5297527
vt 0.09130253 0.5299006
vt 0.008170603 0.529972
vt 0.008887442 0.5298593
vt 0.008887442 0.5298593
vt 0.008170603 0.529972
vt 0.008763419 0.4621422
vt 0.008763419 0.4621422
vt 0.09019348 0.4609095
vt 0.09019348 0.4609095
vt 0.09019348 0.5301329
vt 0.09019348 0.5301329
vt 0.09019348 0.5301329
vt 0.09019348 0.5301329
vt 0.008763419 0.5301329
vt 0.008763419 0.5301329
vt 0.008763419 0.5301329
vt 0.008763419 0.5301329
vt 0.008763419 0.4609095
vt 0.008763419 0.4609095
vt 0.2915297 0.6994607
vt 0.2915298 0.6994607
vt 0.2915298 0.7410911
vt 0.2915298 0.7410911
vt 0.04615624 0.5224173
vt 0.04498823 0.5242841
vt 0.08210513 0.5247597
vt 0.08085611 0.522862
vt 0.32359 0.7852597
vt 0.3816767 0.7852597
vt 0.391554 0.7753757
vt 0.3137161 0.7753723
vt 0.313612 0.7172733
vt 0.3915566 0.7173287
vt 0.2217572 0.6987444
vt 0.2217572 0.7388873
vt 0.2116082 0.7388873
vt 0.2116082 0.6987445
vt 0.2116082 0.6979231
vt 0.2116082 0.7363601
vt 0.2217572 0.7306132
vt 0.2217572 0.696055
vt 0.08267382 0.469748
vt 0.04545498 0.4672019
vt 0.04659563 0.4690397
vt 0.08405617 0.4679567
vt 0.08871081 0.4765863
vt 0.09050646 0.4752662
vt 0.09056118 0.5162448
vt 0.09248587 0.5176821
vt 0.08871081 0.4765863
vt 0.3915566 0.7173287
vt 0.3812384 0.704973
vt 0.3231531 0.7056317
vt 0.313612 0.7172733
vt 0.02339262 0.8219881
vt 0.02339262 0.9775602
vt 0.08257216 0.9775602
vt 0.08257216 0.8219881
vt 0.2915298 0.7410911
vt 0.2915298 0.6994607
vt 0.2813807 0.6967925
vt 0.2813807 0.732882
vt 0.2813807 0.7410911
vt 0.2813807 0.6994608
vt 0.2915297 0.6994607
vt 0.2915298 0.7410911
vt 0.2813807 0.7410911
vt 0.2217572 0.7388873
vt 0.2217572 0.6987444
vt 0.2813807 0.6994608
vt 0.2273492 0.7330904
vt 0.2869727 0.7353593
vt 0.2869727 0.6992697
vt 0.2273492 0.6985323
vt 0.2116082 0.7388873
vt 0.2116082 0.7363601
vt 0.2116082 0.6979231
vt 0.2116082 0.6987445
vt 0.04027089 0.4758725
vt 0.03869185 0.4745002
vt 0.03869185 0.5169393
vt 0.04026511 0.5155454
vt 0.1112974 0.4807278
vt 0.1112974 0.4799063
vt 0.1112974 0.4613964
vt 0.1112974 0.4613964
vt 0.1215016 0.538344
vt 0.1811251 0.5390813
vt 0.1811251 0.5217022
vt 0.1215016 0.5217022
vt 0.1810699 0.4814441
vt 0.1214464 0.4807276
vt 0.1214464 0.4613964
vt 0.1810699 0.4613964
vt 0.1810699 0.4814441
vt 0.1810699 0.4613964
vt 0.1912189 0.4613964
vt 0.1912189 0.481444
vt 0.1912189 0.481444
vt 0.1912189 0.4613964
vt 0.1810699 0.4613964
vt 0.1810699 0.4787757
vt 0.1112974 0.4613964
vt 0.1112974 0.4799063
vt 0.1214464 0.4780383
vt 0.1214464 0.4613964
vt 0.1214464 0.4613964
vt 0.1214464 0.4807276
vt 0.1112974 0.4807278
vt 0.1112974 0.4613964
vt 0.1912189 0.4613964
vt 0.1912189 0.4613964
vt 0.1912189 0.481444
vt 0.1912189 0.481444
vt 0.04659563 0.4690397
vt 0.04545498 0.4672019
vt 0.03869185 0.4745002
vt 0.04027089 0.4758725
vt 0.04026511 0.5155454
vt 0.03869185 0.5169393
vt 0.04498823 0.5242841
vt 0.04615624 0.5224173
vt 0.08085611 0.522862
vt 0.08210513 0.5247597
vt 0.09248587 0.5176821
vt 0.09056118 0.5162448
vt 0.1146734 0.5155537
vt 0.1146734 0.5155537
vt 0.1229045 0.5155537
vt 0.1146734 0.5155537
vt 0.1146734 0.5155537
vt 0.1229045 0.5155537
vt 0.171261 0.5155537
vt 0.1794921 0.5155537
vt 0.171261 0.5155537
vt 0.1794921 0.5155537
vt 0.1794921 0.5155537
vt 0.1794921 0.5155537
vt 0.171261 0.5155537
vt 0.171261 0.5155537
vt 0.1229045 0.5155537
vt 0.1229045 0.5155537
vn 0 0 1
vn 0 0 1
vn 0 0 1
vn 0 0 1
vn 0 0 1
vn 0 1.236052E-07 1
vn 0 1.274235E-07 1
vn 0 0 1
vn 0 1.236052E-07 1
vn 0 1.485117E-07 1
vn 0 1.485117E-07 1
vn 0 1.274235E-07 1
vn 0.9979782 0.02866886 -0.05672585
vn 0.9979782 0.02866886 -0.05672585
vn 0.9979782 0.02866886 -0.05672585
vn 0.9979782 0.02866886 -0.05672585
vn 0.131256 0.9721281 0.1942649
vn 0.131256 0.9721281 0.1942649
vn 0.131256 0.9721281 0.1942649
vn 0.131256 0.9721281 0.1942649
vn -0.9916821 0.119376 -0.04812627
vn -0.9916821 0.119376 -0.04812627
vn -0.9916821 0.119376 -0.04812627
vn -0.9916821 0.119376 -0.04812627
vn -0.9698147 -0.04157588 0.2402727
vn -0.9698147 -0.04157588 0.2402727
vn -0.9698147 -0.04157588 0.2402727
vn -0.9698147 -0.04157588 0.2402727
vn -0.1924117 -0.8870572 0.4196512
vn -0.1924117 -0.8870572 0.4196512
vn -0.1924117 -0.8870572 0.4196512
vn -0.1924117 -0.8870572 0.4196512
vn 0.9557564 -0.1380519 0.2597527
vn 0.9557564 -0.1380519 0.2597527
vn 0.9557564 -0.1380519 0.2597527
vn 0.9557564 -0.1380519 0.2597527
vn 1 1.629207E-07 0
vn 1 1.629207E-07 0
vn 1 1.629207E-07 0
vn 1 1.629207E-07 0
vn -0.0005036021 0.9998941 0.01454486
vn -0.0005036021 0.9998941 0.01454486
vn -0.0005036021 0.9998941 0.01454486
vn -0.0005036021 0.9998941 0.01454486
vn -0.0315684 0.9995016 0
vn -0.0315684 0.9995016 0
vn -0.03941319 0.9991234 0.01411099
vn -0.03941514 0.9991233 0.01411448
vn -0.04333363 0.9988363 0.02116851
vn -0.04333363 0.9988363 0.02116851
vn -0.7711726 -0.03424948 -0.6357041
vn -0.7711726 -0.03424948 -0.6357041
vn -0.7711726 -0.03424948 -0.6357041
vn -0.7711726 -0.03424948 -0.6357041
vn -0.6966396 -0.07228754 0.7137701
vn -0.6966396 -0.07228754 0.7137701
vn -0.6966396 -0.07228754 0.7137701
vn -0.6966396 -0.07228754 0.7137701
vn -1.629207E-07 1 0
vn -1.629207E-07 1 0
vn -1.629207E-07 1 0
vn -1.629207E-07 1 0
vn -1.629207E-07 1 0
vn -0.01112232 0.9999381 0.0001943188
vn -0.01112232 0.9999381 0.0001943188
vn -0.01112232 0.9999381 0.0001943188
vn -0.01112232 0.9999381 0.0001943188
vn -0.04129884 0.8233188 0.5660748
vn -0.04129884 0.8233188 0.5660748
vn -0.04129884 0.8233188 0.5660748
vn -0.04129884 0.8233188 0.5660748
vn 0 1.086642E-07 1
vn 0 1.086642E-07 1
vn 0 1.086642E-07 1
vn 0 1.086642E-07 1
vn 0.7053703 -0.05672576 0.7065654
vn 0.7053703 -0.05672576 0.7065654
vn 0.7053703 -0.05672576 0.7065654
vn 0.7053703 -0.05672576 0.7065654
vn 0.6897439 -0.05410956 -0.7220288
vn 0.6897439 -0.05410956 -0.7220288
vn 0.6897439 -0.05410956 -0.7220288
vn 0.6897439 -0.05410956 -0.7220288
vn 0.03099396 -0.04363919 -0.9985666
vn 0.03099396 -0.04363919 -0.9985666
vn 0.03099396 -0.04363919 -0.9985666
vn 0.03099396 -0.04363919 -0.9985666
vn -0.00346464 -0.1111173 0.9938013
vn -0.00346464 -0.1111173 0.9938013
vn -0.00346464 -0.1111173 0.9938013
vn -0.00346464 -0.1111173 0.9938013
vn -1 -1.629207E-07 0
vn -1 -1.629207E-07 0
vn -1 -1.629207E-07 0
vn -1 -1.629207E-07 0
vn -0.01143649 0.9999346 -0.0002364958
vn -0.01143649 0.9999346 -0.0002364958
vn -0.01143649 0.9999346 -0.0002364958
vn -0.01143649 0.9999346 -0.0002364958
vn -1 -1.629207E-07 0
vn -1 -1.629207E-07 0
vn -1 -1.629207E-07 0
vn -1 -1.629207E-07 0
vn -0.01482862 -0.1288631 0.9915515
vn -0.01482862 -0.1288631 0.9915515
vn -0.01482862 -0.1288631 0.9915515
vn -0.01482862 -0.1288631 0.9915515
vn 0.07432849 -0.05059043 -0.9959497
vn 0.07432849 -0.05059043 -0.9959497
vn 0.07432849 -0.05059043 -0.9959497
vn 0.07432849 -0.05059043 -0.9959497
vn 0.6630231 -0.06496193 -0.745775
vn 0.6630231 -0.06496193 -0.745775
vn 0.6630231 -0.06496193 -0.745775
vn 0.6630231 -0.06496193 -0.745775
vn 0.6671938 -0.06920964 0.7416619
vn 0.6671938 -0.06920964 0.7416619
vn 0.6671938 -0.06920964 0.7416619
vn 0.6671938 -0.06920964 0.7416619
vn -0.6474766 -0.08909462 0.7568595
vn -0.6474766 -0.08909462 0.7568595
vn -0.6474766 -0.08909462 0.7568595
vn -0.6474766 -0.08909462 0.7568595
vn -0.8363813 -0.03425951 -0.5470765
vn -0.8363813 -0.03425951 -0.5470765
vn -0.8363813 -0.03425951 -0.5470765
vn -0.8363813 -0.03425951 -0.5470765
vn 1 1.629207E-07 0
vn 1 1.629207E-07 0
vn 1 1.629207E-07 0
vn 1 1.629207E-07 0
vn -0.1168904 0.9840077 0.1344083
vn -0.1168904 0.9840077 0.1344083
vn -0.1168904 0.9840077 0.1344083
vn -0.1168904 0.9840077 0.1344083
vn 0.08157568 0.991679 0.09959015
vn 0.08157568 0.991679 0.09959015
vn 0.08157568 0.991679 0.09959015
vn 0.08157568 0.991679 0.09959015
vn -1.629207E-07 1 0
vn -1.629207E-07 1 0
vn -1.629207E-07 1 0
vn -1.629207E-07 1 0
vn 1.629207E-07 -1 0
vn 1.629207E-07 -1 0
vn 1.629207E-07 -1 0
vn 1.629207E-07 -1 0
vn 1.629207E-07 -1 0
vn 1.629207E-07 -1 0
vn 1.629207E-07 -1 0
vn 1.629207E-07 -1 0
vn 1.629207E-07 -1 0
vn 1.629207E-07 -1 0
vn 1.629207E-07 -1 0
vn 1.629207E-07 -1 0
vn 1.629207E-07 -1 0
vn 1.629207E-07 -1 0
vn 1.629207E-07 -1 0
vn 1.629207E-07 -1 0
g upgrade_house_lv3_0
f 3/3/3 2/2/2 1/1/1
f 4/4/4 3/3/3 1/1/1
f 7/7/7 6/6/6 5/5/5
f 8/8/8 7/7/7 5/5/5
f 11/11/11 10/10/10 9/9/9
f 12/12/12 11/11/11 9/9/9
f 15/15/15 14/14/14 13/13/13
f 16/16/16 15/15/15 13/13/13
f 19/19/19 18/18/18 17/17/17
f 20/20/20 19/19/19 17/17/17
f 23/23/23 22/22/22 21/21/21
f 24/24/24 23/23/23 21/21/21
f 27/27/27 26/26/26 25/25/25
f 28/28/28 27/27/27 25/25/25
f 31/31/31 30/30/30 29/29/29
f 32/32/32 31/31/31 29/29/29
f 35/35/35 34/34/34 33/33/33
f 36/36/36 35/35/35 33/33/33
f 39/39/39 38/38/38 37/37/37
f 40/40/40 39/39/39 37/37/37
f 43/43/43 42/42/42 41/41/41
f 44/44/44 43/43/43 41/41/41
f 47/47/47 46/46/46 45/45/45
f 48/48/48 47/47/47 45/45/45
f 48/48/48 49/49/49 47/47/47
f 49/49/49 50/50/50 47/47/47
f 53/53/53 52/52/52 51/51/51
f 54/54/54 53/53/53 51/51/51
f 57/57/57 56/56/56 55/55/55
f 58/58/58 57/57/57 55/55/55
f 61/61/61 60/60/60 59/59/59
f 60/60/60 62/62/62 59/59/59
f 59/59/59 62/62/62 63/63/63
f 62/62/62 64/64/64 63/63/63
f 64/64/64 66/66/66 65/65/65
f 67/67/67 64/64/64 65/65/65
f 70/70/70 69/69/69 68/68/68
f 71/71/71 70/70/70 68/68/68
f 74/74/74 73/73/73 72/72/72
f 75/75/75 74/74/74 72/72/72
f 78/78/78 77/77/77 76/76/76
f 79/79/79 78/78/78 76/76/76
f 82/82/82 81/81/81 80/80/80
f 83/83/83 82/82/82 80/80/80
f 86/86/86 85/85/85 84/84/84
f 87/87/87 86/86/86 84/84/84
f 90/90/90 89/89/89 88/88/88
f 91/91/91 90/90/90 88/88/88
f 94/94/94 93/93/93 92/92/92
f 95/95/95 94/94/94 92/92/92
f 98/98/98 97/97/97 96/96/96
f 99/99/99 98/98/98 96/96/96
f 102/102/102 101/101/101 100/100/100
f 103/103/103 102/102/102 100/100/100
f 106/106/106 105/105/105 104/104/104
f 107/107/107 106/106/106 104/104/104
f 110/110/110 109/109/109 108/108/108
f 111/111/111 110/110/110 108/108/108
f 114/114/114 113/113/113 112/112/112
f 115/115/115 114/114/114 112/112/112
f 118/118/118 117/117/117 116/116/116
f 119/119/119 118/118/118 116/116/116
f 122/122/122 121/121/121 120/120/120
f 123/123/123 122/122/122 120/120/120
f 126/126/126 125/125/125 124/124/124
f 127/127/127 126/126/126 124/124/124
f 130/130/130 129/129/129 128/128/128
f 131/131/131 130/130/130 128/128/128
f 134/134/134 133/133/133 132/132/132
f 135/135/135 134/134/134 132/132/132
f 138/138/138 137/137/137 136/136/136
f 139/139/139 138/138/138 136/136/136
f 142/142/142 141/141/141 140/140/140
f 143/143/143 142/142/142 140/140/140
f 146/146/146 145/145/145 144/144/144
f 144/144/144 145/145/145 147/147/147
f 145/145/145 148/148/148 147/147/147
f 149/149/149 146/146/146 144/144/144
f 150/150/150 146/146/146 149/149/149
f 151/151/151 149/149/149 144/144/144
f 151/151/151 144/144/144 147/147/147
f 152/152/152 150/150/150 149/149/149
f 151/151/151 152/152/152 149/149/149
f 153/153/153 150/150/150 152/152/152
f 151/151/151 153/153/153 152/152/152
f 154/154/154 153/153/153 151/151/151
f 155/155/155 154/154/154 151/151/151
f 155/155/155 151/151/151 147/147/147
f 156/156/156 154/154/154 155/155/155
f 157/157/157 156/156/156 155/155/155
f 157/157/157 155/155/155 147/147/147
f 158/158/158 156/156/156 157/157/157
f 148/148/148 158/158/158 159/159/159
f 147/147/147 148/148/148 159/159/159
f 147/147/147 159/159/159 157/157/157
f 159/159/159 158/158/158 157/157/157
