g wall_spike6
v -0.5109698 -0.2704487 0.5109696
v -0.3309828 3.670526 0.3483971
v 0.2512102 3.670526 0.5109696
v 0.5109697 -0.2704487 0.5109696
v -0.3309828 3.670526 0.3483971
v -0.2303389 3.670526 -0.1074903
v 0.4066523 3.670526 -0.01391391
v 0.2512102 3.670526 0.5109696
v -0.2303389 3.670526 -0.1074903
v -0.5109698 -0.2704487 -0.6156872
v 0.5109697 -0.2704487 -0.4514847
v 0.4066523 3.670526 -0.01391391
v 0.5109697 -0.2704487 0.5109696
v 0.2512102 3.670526 0.5109696
v 0.4066523 3.670526 -0.01391391
v 0.5109697 -0.2704487 -0.4514847
v -0.5109698 -0.2704487 -0.6156872
v -0.2303389 3.670526 -0.1074903
v -0.3309828 3.670526 0.3483971
v -0.5109698 -0.2704487 0.5109696
vt 0.006139755 0.8273292
vt 0.1145922 0.8217806
vt 0.1150025 0.780863
vt 0.006859958 0.7555056
vt 0.004395127 0.1494459
vt 0.002960801 0.1806936
vt 0.04580188 0.1857417
vt 0.04489356 0.1490751
vt 0.1146631 0.814707
vt 0.006139755 0.8273292
vt 0.006859958 0.7555056
vt 0.115112 0.7699383
vt 0.006859958 0.7555056
vt 0.1150025 0.780863
vt 0.115112 0.7699383
vt 0.006859958 0.7555056
vt 0.006139755 0.8273292
vt 0.1146631 0.814707
vt 0.1145922 0.8217806
vt 0.006139755 0.8273292
vn -0.1008103 0.01949661 0.9947146
vn -0.1008103 0.01949661 0.9947146
vn -0.1008103 0.01949661 0.9947146
vn -0.1008103 0.01949661 0.9947146
vn 0 1 0
vn 0 1 0
vn 0 1 0
vn 0 1 0
vn 0.1525382 0.1143784 -0.9816566
vn 0.1525382 0.1143784 -0.9816566
vn 0.1525382 0.1143784 -0.9816566
vn 0.1525382 0.1143783 -0.9816566
vn 0.9937816 0.04013811 0.1038604
vn 0.9937816 0.04013812 0.1038604
vn 0.9937816 0.04013811 0.1038604
vn 0.9937816 0.04013811 0.1038604
vn -0.9961259 0.0609911 -0.0633499
vn -0.9961259 0.0609911 -0.0633499
vn -0.9961259 0.0609911 -0.0633499
vn -0.9961259 0.0609911 -0.0633499
g wall_spike6_0
f 3/3/3 2/2/2 1/1/1
f 4/4/4 3/3/3 1/1/1
f 7/7/7 6/6/6 5/5/5
f 8/8/8 7/7/7 5/5/5
f 11/11/11 10/10/10 9/9/9
f 12/12/12 11/11/11 9/9/9
f 15/15/15 14/14/14 13/13/13
f 16/16/16 15/15/15 13/13/13
f 19/19/19 18/18/18 17/17/17
f 20/20/20 19/19/19 17/17/17
