g wall_spike3
v -0.5109697 -0.2704487 0.7460937
v -0.1690193 3.910912 0.03204643
v 0.1575081 3.910912 -0.005664682
v 0.5109697 -0.2704487 0.5162828
v -0.1690193 3.910912 0.03204643
v -0.1125725 3.910912 -0.2402203
v 0.2446889 3.910912 -0.2798313
v 0.1575081 3.910912 -0.005664682
v -0.1125725 3.910912 -0.2402203
v -0.5109697 -0.2704487 -0.5109697
v 0.5109697 -0.2704487 -0.5109697
v 0.2446889 3.910912 -0.2798313
v 0.5109697 -0.2704487 0.5162828
v 0.1575081 3.910912 -0.005664682
v 0.2446889 3.910912 -0.2798313
v 0.5109697 -0.2704487 -0.5109697
v -0.5109697 -0.2704487 -0.5109697
v -0.1125725 3.910912 -0.2402203
v -0.1690193 3.910912 0.03204643
v -0.5109697 -0.2704487 0.7460937
vt 0.006239414 0.8173882
vt 0.1214134 0.8008896
vt 0.1216436 0.7779408
vt 0.006959617 0.7455646
vt 0.01503515 0.1516682
vt 0.01394174 0.1702663
vt 0.03636438 0.1790556
vt 0.03550255 0.1597989
vt 0.1214533 0.7969224
vt 0.006239414 0.8173882
vt 0.006959617 0.7455646
vt 0.121705 0.7718135
vt 0.006959617 0.7455646
vt 0.1216436 0.7779408
vt 0.121705 0.7718135
vt 0.006959617 0.7455646
vt 0.006239414 0.8173882
vt 0.1214533 0.7969224
vt 0.1214134 0.8008896
vt 0.006239414 0.8173882
vn 0.1925766 0.1437325 0.9706984
vn 0.1925766 0.1437325 0.9706984
vn 0.1925766 0.1437325 0.9706984
vn 0.1925766 0.1437325 0.9706984
vn 0 1 0
vn 0 1 0
vn 0 1 0
vn 0 1 0
vn -0.02865613 0.06033357 -0.9977669
vn -0.02865613 0.06033357 -0.9977669
vn -0.02865613 0.06033357 -0.9977669
vn -0.02865613 0.06033356 -0.9977669
vn 0.9948745 0.07604542 0.06664567
vn 0.9948745 0.07604543 0.06664567
vn 0.9948745 0.07604543 0.06664567
vn 0.9948745 0.07604543 0.06664567
vn -0.9956006 0.08619211 -0.03674708
vn -0.9956006 0.08619211 -0.03674708
vn -0.9956006 0.0861921 -0.03674708
vn -0.9956006 0.08619212 -0.03674708
g wall_spike3_0
f 3/3/3 2/2/2 1/1/1
f 4/4/4 3/3/3 1/1/1
f 7/7/7 6/6/6 5/5/5
f 8/8/8 7/7/7 5/5/5
f 11/11/11 10/10/10 9/9/9
f 12/12/12 11/11/11 9/9/9
f 15/15/15 14/14/14 13/13/13
f 16/16/16 15/15/15 13/13/13
f 19/19/19 18/18/18 17/17/17
f 20/20/20 19/19/19 17/17/17
