g wall_spike10
v 0.1379455 -0.38588 -0.7873623
v -0.4963293 0.1448333 -0.5500064
v 0.308632 0.294246 -0.814605
v 0.308632 0.294246 -0.814605
v -0.4963293 0.1448333 -0.5500064
v 0.3864101 -0.1243551 -1.739693
v 0.3864101 -0.1243551 -1.739693
v -0.4963293 0.1448333 -0.5500064
v 0.1379455 -0.38588 -0.7873623
v -0.001977041 0.4115005 1.943808
v 0.4963293 0.1463902 -0.1287786
v 0.3284645 0.3392637 2.210742
v 0.1186693 0.303689 -0.2020811
v 0.2913385 0.2887173 -1.882533
v 0.07679182 0.2325921 -1.912483
v 0.07679182 0.2325921 -1.912483
v -0.0184702 -0.3057282 -2.210742
v 0.1770773 -0.4004927 -2.171717
v 0.2913385 0.2887173 -1.882533
v -0.1511657 -0.1906564 -0.2056943
v -0.1537611 -0.2018795 1.833253
v 0.1761592 -0.2702191 2.194191
v 0.1991287 -0.4115005 -0.1316807
v -0.0184702 -0.3057282 -2.210742
v 0.1770773 -0.4004927 -2.171717
v 0.3284645 0.3392637 2.210742
v 0.1991287 -0.4115005 -0.1316807
v 0.1761592 -0.2702191 2.194191
v 0.4963293 0.1463902 -0.1287786
v 0.1770773 -0.4004927 -2.171717
v 0.2913385 0.2887173 -1.882533
v -0.1537611 -0.2018795 1.833253
v 0.1186693 0.303689 -0.2020811
v -0.001977041 0.4115005 1.943808
v -0.1511657 -0.1906564 -0.2056943
v 0.07679182 0.2325921 -1.912483
v -0.0184702 -0.3057282 -2.210742
v 0.3284645 0.3392637 2.210742
v 0.1761592 -0.2702191 2.194191
v -0.1537611 -0.2018795 1.833253
v -0.001977041 0.4115005 1.943808
vt 0.03014141 0.03997678
vt 0.0094558 0.03223592
vt 0.03570789 0.04086524
vt 0.03570789 0.04086524
vt 0.0094558 0.03223592
vt 0.03824455 0.07103509
vt 0.03824455 0.07103509
vt 0.0094558 0.03223592
vt 0.03014141 0.03997678
vt 0.06607175 0.2579891
vt 0.1082746 0.4335219
vt 0.09405774 0.2353817
vt 0.07628965 0.4397301
vt 0.09091341 0.582052
vt 0.07274288 0.5845886
vt 0.05623239 0.7407601
vt 0.01599085 0.7388139
vt 0.01237446 0.7232134
vt 0.06376976 0.7262586
vt 0.1070139 0.1546392
vt 0.1069703 0.1203748
vt 0.1125146 0.1143093
vt 0.1129006 0.1533954
vt 0.1092438 0.188334
vt 0.11253 0.1876781
vt 0.06269978 0.9610249
vt 0.00999099 0.773175
vt 0.01443764 0.9579438
vt 0.05420342 0.7750245
vt 0.01678562 0.6115049
vt 0.07057589 0.6364276
vt 0.05082276 0.9737768
vt 0.1162018 0.8427995
vt 0.1233871 0.9818054
vt 0.05749562 0.8418604
vt 0.1122366 0.7320247
vt 0.049079 0.7119575
vt 0.05971736 0.7188224
vt 0.01343036 0.7198133
vt 0.01295307 0.7446388
vt 0.05951163 0.7437489
vn 0.3190455 -0.04214416 0.9468019
vn 0.3190455 -0.04214417 0.9468019
vn 0.3190455 -0.04214417 0.9468019
vn -0.2959471 0.8606653 -0.4143316
vn -0.2959471 0.8606653 -0.4143316
vn -0.2959471 0.8606653 -0.4143316
vn -0.6745362 -0.6478822 -0.3539063
vn -0.6745362 -0.6478822 -0.3539063
vn -0.6745362 -0.6478821 -0.3539063
vn 0.3264205 0.9442775 -0.04230483
vn 0.2777627 0.9602802 -0.02664268
vn 0.3264205 0.9442775 -0.04230484
vn 0.2611679 0.9650574 -0.02134171
vn 0.1669773 0.9859251 0.00837333
vn 0.1669773 0.9859251 0.008373331
vn 0.1884991 0.3975704 -0.8980011
vn 0.188499 0.3975704 -0.8980011
vn 0.188499 0.3975704 -0.8980011
vn 0.1884991 0.3975704 -0.8980011
vn -0.4523842 -0.8916615 0.01697611
vn -0.404552 -0.9141767 0.02487019
vn -0.404552 -0.9141767 0.02487019
vn -0.4430809 -0.8962901 0.01853219
vn -0.5018589 -0.8649075 0.008523442
vn -0.5018589 -0.8649075 0.008523443
vn 0.9309471 -0.3595318 0.06383079
vn 0.943484 -0.3314157 0.001217401
vn 0.9309471 -0.3595318 0.06383079
vn 0.9431709 -0.3322936 0.00311958
vn 0.9520802 -0.2979589 -0.06902058
vn 0.9520802 -0.2979589 -0.06902058
vn -0.9327642 0.3587103 -0.0357488
vn -0.935212 0.3520792 -0.03766678
vn -0.9327642 0.3587103 -0.03574881
vn -0.9353034 0.3518287 -0.03773912
vn -0.9383048 0.3434713 -0.04014546
vn -0.9383048 0.3434713 -0.04014546
vn -0.6757722 0.09202753 0.731343
vn -0.6757723 0.09202754 0.7313432
vn -0.6757722 0.09202752 0.7313432
vn -0.6757722 0.09202752 0.7313432
g wall_spike10_0
f 3/3/3 2/2/2 1/1/1
f 6/6/6 5/5/5 4/4/4
f 9/9/9 8/8/8 7/7/7
f 12/12/12 11/11/11 10/10/10
f 11/11/11 13/13/13 10/10/10
f 11/11/11 14/14/14 13/13/13
f 14/14/14 15/15/15 13/13/13
f 18/18/18 17/17/17 16/16/16
f 19/19/19 18/18/18 16/16/16
f 22/22/22 21/21/21 20/20/20
f 23/23/23 22/22/22 20/20/20
f 23/23/23 20/20/20 24/24/24
f 25/25/25 23/23/23 24/24/24
f 28/28/28 27/27/27 26/26/26
f 27/27/27 29/29/29 26/26/26
f 27/27/27 30/30/30 29/29/29
f 30/30/30 31/31/31 29/29/29
f 34/34/34 33/33/33 32/32/32
f 33/33/33 35/35/35 32/32/32
f 33/33/33 36/36/36 35/35/35
f 36/36/36 37/37/37 35/35/35
f 40/40/40 39/39/39 38/38/38
f 41/41/41 40/40/40 38/38/38
