g wall_spike11
v 0.1960456 -0.17441 1.932787
v -0.5531218 0.2438558 1.393436
v 0.3455647 0.4394349 1.549279
v 0.3455647 0.4394349 1.549279
v -0.5531218 0.2438558 1.393436
v 0.1975083 -0.1226094 1.017273
v 0.1975083 -0.1226094 1.017273
v -0.5531218 0.2438558 1.393436
v 0.1960456 -0.17441 1.932787
v 0.2036393 0.4535936 1.826694
v 0.3605251 0.3977363 -0.1366516
v 0.5531218 0.3801435 2.182631
v 0.05271862 0.1969273 -0.1432923
v 0.2269671 0.2904083 -2.101133
v 0.02219515 0.2392035 -1.947014
v 0.02219515 0.2392035 -1.947014
v -0.05855633 -0.198832 -2.035634
v 0.1271663 -0.2985811 -2.182631
v 0.2269671 0.2904083 -2.101133
v -0.0103565 -0.3007778 -0.1198292
v 0.03352682 -0.1927308 1.694584
v 0.3830096 -0.2661811 2.050521
v 0.2500131 -0.4535936 -0.09666729
v -0.05855633 -0.198832 -2.035634
v 0.1271663 -0.2985811 -2.182631
v 0.5531218 0.3801435 2.182631
v 0.2500131 -0.4535936 -0.09666729
v 0.3830096 -0.2661811 2.050521
v 0.3605251 0.3977363 -0.1366516
v 0.1271663 -0.2985811 -2.182631
v 0.2269671 0.2904083 -2.101133
v 0.03352682 -0.1927308 1.694584
v 0.05271862 0.1969273 -0.1432923
v 0.2036393 0.4535936 1.826694
v -0.0103565 -0.3007778 -0.1198292
v 0.02219515 0.2392035 -1.947014
v -0.05855633 -0.198832 -2.035634
v 0.5531218 0.3801435 2.182631
v 0.3830096 -0.2661811 2.050521
v 0.03352682 -0.1927308 1.694584
v 0.2036393 0.4535936 1.826694
vt 0.03362823 0.03670669
vt 0.009195685 0.05429651
vt 0.03850448 0.04921399
vt 0.03850448 0.04921399
vt 0.009195685 0.05429651
vt 0.03367591 0.06656428
vt 0.03367591 0.06656428
vt 0.009195685 0.05429651
vt 0.03362823 0.03670669
vt 0.08005738 0.2587288
vt 0.09334445 0.4250096
vt 0.109656 0.2285835
vt 0.06727552 0.425572
vt 0.08203307 0.5913868
vt 0.06469038 0.578334
vt 0.05294612 0.7401922
vt 0.02014849 0.7388411
vt 0.01601344 0.7238653
vt 0.05997029 0.7263129
vt 0.1070352 0.1522252
vt 0.1077726 0.1217342
vt 0.1136457 0.1157527
vt 0.1114107 0.151836
vt 0.1062252 0.1844203
vt 0.1093462 0.1868906
vt 0.06531588 0.9604383
vt 0.005847037 0.777351
vt 0.01446896 0.9480904
vt 0.0734432 0.7766529
vt 0.02418947 0.6124585
vt 0.07063872 0.6206282
vt 0.04955468 0.9629071
vt 0.1006494 0.8445413
vt 0.1259756 0.9723777
vt 0.0414733 0.8453494
vt 0.1103944 0.7278898
vt 0.05859917 0.7215307
vt 0.06130275 0.7177708
vt 0.01207721 0.7194395
vt 0.0116477 0.7457541
vt 0.06087318 0.7440854
vn -0.2580478 0.5563385 0.7898726
vn -0.2580478 0.5563385 0.7898726
vn -0.2580478 0.5563385 0.7898726
vn -0.02498204 0.6906822 -0.7227268
vn -0.02498204 0.6906822 -0.7227268
vn -0.02498204 0.6906821 -0.7227268
vn -0.4586427 -0.8871601 -0.05092897
vn -0.4586427 -0.8871601 -0.05092897
vn -0.4586427 -0.8871601 -0.05092897
vn -0.1679802 0.9849187 -0.04144381
vn -0.2835706 0.9586753 -0.02301144
vn -0.1679802 0.9849187 -0.04144382
vn -0.2995807 0.9538532 -0.02037927
vn -0.4403605 0.8978136 0.003675643
vn -0.4403604 0.8978136 0.003675642
vn -0.5759308 0.2311359 -0.7841429
vn -0.5759308 0.2311359 -0.7841429
vn -0.5759307 0.2311359 -0.7841429
vn -0.5759308 0.231136 -0.7841429
vn -0.4455775 -0.89479 0.02848859
vn -0.3930247 -0.9155135 0.08582778
vn -0.3930246 -0.9155136 0.08582779
vn -0.4380479 -0.8981935 0.03691272
vn -0.4995763 -0.8655934 -0.03422748
vn -0.4995763 -0.8655934 -0.03422748
vn 0.9815472 -0.1799377 -0.06471063
vn 0.9845315 -0.1629069 -0.06449129
vn 0.9815472 -0.1799377 -0.06471062
vn 0.9846258 -0.1623389 -0.06448366
vn 0.9877282 -0.1423758 -0.06420219
vn 0.9877282 -0.1423758 -0.06420218
vn -0.9799476 0.196753 0.03148167
vn -0.9839316 0.176111 0.02938736
vn -0.9799476 0.1967529 0.03148166
vn -0.983849 0.1765635 0.02943332
vn -0.9883174 0.1500461 0.02673555
vn -0.9883174 0.1500461 0.02673555
vn -0.7085048 0.04249166 0.7044256
vn -0.7085049 0.04249166 0.7044256
vn -0.7085048 0.04249166 0.7044256
vn -0.7085048 0.04249166 0.7044256
g wall_spike11_0
f 3/3/3 2/2/2 1/1/1
f 6/6/6 5/5/5 4/4/4
f 9/9/9 8/8/8 7/7/7
f 12/12/12 11/11/11 10/10/10
f 11/11/11 13/13/13 10/10/10
f 11/11/11 14/14/14 13/13/13
f 14/14/14 15/15/15 13/13/13
f 18/18/18 17/17/17 16/16/16
f 19/19/19 18/18/18 16/16/16
f 22/22/22 21/21/21 20/20/20
f 23/23/23 22/22/22 20/20/20
f 23/23/23 20/20/20 24/24/24
f 25/25/25 23/23/23 24/24/24
f 28/28/28 27/27/27 26/26/26
f 27/27/27 29/29/29 26/26/26
f 27/27/27 30/30/30 29/29/29
f 30/30/30 31/31/31 29/29/29
f 34/34/34 33/33/33 32/32/32
f 33/33/33 35/35/35 32/32/32
f 33/33/33 36/36/36 35/35/35
f 36/36/36 37/37/37 35/35/35
f 40/40/40 39/39/39 38/38/38
f 41/41/41 40/40/40 38/38/38
