g wood_spikes2
v 0.1009111 3.091548 0.1537803
v 0.1816978 3.394262 -0.01354165
v 0.2688522 2.421494 0.06416434
v 0.1816978 3.394262 -0.01354165
v 0.1775856 2.708403 -0.1308958
v 0.2688522 2.421494 0.06416434
v 0.1816978 3.394262 -0.01354165
v 0.1009111 3.091548 0.1537803
v -0.07233143 2.418205 0.06398328
v 0.007396698 2.572505 0.2360097
v 0.1009111 3.091548 0.1537803
v 0.1929283 2.598161 0.192007
v -0.07233143 2.418205 0.06398328
v 0.1009111 3.091548 0.1537803
v 0.007396698 2.572505 0.2360097
v 0.1775856 2.708403 -0.1308958
v 0.1816978 3.394262 -0.01354165
v -0.03088474 2.573733 -0.08079499
v -0.03088474 2.573733 -0.08079499
v 0.1816978 3.394262 -0.01354165
v -0.07233143 2.418205 0.06398328
v 0.1009111 3.091548 0.1537803
v 0.2688522 2.421494 0.06416434
v 0.1929283 2.598161 0.192007
v 0.311882 1.755264 0.3056282
v 0.2979202 1.537041 0.2959017
v -0.09239101 1.537905 0.3908251
v -0.09803391 1.756258 0.4037179
v 0.2392759 1.750025 -0.2948316
v 0.231163 1.531935 -0.2792527
v 0.3995361 1.535166 0.08541837
v 0.4173613 1.753314 0.0871404
v -0.09803391 1.756258 0.4037179
v -0.09239101 1.537905 0.3908251
v -0.2607651 1.538565 0.0261313
v -0.2760887 1.756865 0.0217106
v -0.1521378 1.822691 0.022608
v -0.09276199 1.821593 -0.1003696
v -0.03088474 2.573733 -0.08079499
v -0.07233143 2.418205 0.06398328
v -0.1705999 1.754918 -0.1967658
v -0.1591339 1.536685 -0.1843552
v 0.231163 1.531935 -0.2792527
v 0.2392759 1.750025 -0.2948316
v 0.311882 1.755264 0.3056282
v 0.4173613 1.753314 0.0871404
v 0.3995361 1.535166 0.08541837
v 0.2979202 1.537041 0.2959017
v -0.2760887 1.756865 0.0217106
v -0.2607651 1.538565 0.0261313
v -0.1591339 1.536685 -0.1843552
v -0.1705999 1.754918 -0.1967658
v -0.03504181 1.823566 0.2733378
v 0.007396698 2.572505 0.2360097
v 0.1929283 2.598161 0.192007
v 0.2341385 1.821637 0.2091214
v -0.03504181 1.823566 0.2733378
v -0.1521378 1.822691 0.022608
v -0.07233143 2.418205 0.06398328
v 0.007396698 2.572505 0.2360097
v -0.09276199 1.821593 -0.1003696
v 0.1764069 1.81966 -0.1645909
v 0.1775856 2.708403 -0.1308958
v -0.03088474 2.573733 -0.08079499
v 0.3671827 0.2016455 0.360525
v 0.4902182 0.0003327442 0.4828418
v -0.2947502 0.004591748 0.7300587
v -0.1875191 0.2055829 0.5329356
v 0.5072021 0.1992953 0.0971598
v 0.6898031 -0.002213845 0.1094681
v 0.4902182 0.0003327442 0.4828418
v 0.3671827 0.2016455 0.360525
v 0.3110743 0.1972173 -0.4049216
v 0.4160118 -0.004476957 -0.599551
v 0.6898031 -0.002213845 0.1094681
v 0.5072021 0.1992953 0.0971598
v -0.2436409 0.2011573 -0.2324995
v -0.3689394 -0.0002196651 -0.3523357
v 0.4160118 -0.004476957 -0.599551
v 0.3110743 0.1972173 -0.4049216
v -0.3836594 0.2035051 0.03085836
v -0.5685701 0.002329775 0.02103813
v -0.3689394 -0.0002196651 -0.3523357
v -0.2436409 0.2011573 -0.2324995
v -0.1875191 0.2055829 0.5329356
v -0.2947502 0.004591748 0.7300587
v -0.5685701 0.002329775 0.02103813
v -0.3836594 0.2035051 0.03085836
v 0.2341385 1.821637 0.2091214
v 0.311882 1.755264 0.3056282
v -0.09803391 1.756258 0.4037179
v -0.03504181 1.823566 0.2733378
v 0.1764069 1.81966 -0.1645909
v 0.2392759 1.750025 -0.2948316
v 0.4173613 1.753314 0.0871404
v 0.2935028 1.820539 0.08614077
v -0.03504181 1.823566 0.2733378
v -0.09803391 1.756258 0.4037179
v -0.2760887 1.756865 0.0217106
v -0.1521378 1.822691 0.022608
v -0.09276199 1.821593 -0.1003696
v -0.1705999 1.754918 -0.1967658
v 0.2392759 1.750025 -0.2948316
v 0.1764069 1.81966 -0.1645909
v 0.2935028 1.820539 0.08614077
v 0.4173613 1.753314 0.0871404
v 0.311882 1.755264 0.3056282
v 0.2341385 1.821637 0.2091214
v -0.1521378 1.822691 0.022608
v -0.2760887 1.756865 0.0217106
v -0.1705999 1.754918 -0.1967658
v -0.09276199 1.821593 -0.1003696
v 0.2201653 1.546075 0.1993999
v 0.3450899 0.4695941 0.3363091
v -0.1637573 0.473214 0.4919924
v -0.02941513 1.547878 0.260448
v -0.02941513 1.547878 0.260448
v -0.1637573 0.473214 0.4919924
v -0.3465576 0.4713213 0.0302816
v -0.1367989 1.54705 0.0270232
v -0.1367989 1.54705 0.0270232
v -0.3465576 0.4713213 0.0302816
v -0.2192392 0.4691709 -0.2107774
v -0.08129883 1.546023 -0.08795911
v -0.08129883 1.546023 -0.08795911
v -0.2192392 0.4691709 -0.2107774
v 0.2896261 0.4655554 -0.3664563
v 0.1682959 1.544224 -0.149003
v 0.1682959 1.544224 -0.149003
v 0.2896261 0.4655554 -0.3664563
v 0.4724083 0.4674483 0.09524342
v 0.2756805 1.545051 0.08441815
v 0.2756805 1.545051 0.08441815
v 0.4724083 0.4674483 0.09524342
v 0.3450899 0.4695941 0.3363091
v 0.2201653 1.546075 0.1993999
v 0.4389839 0.4281605 0.4495147
v 0.461071 0.2261215 0.4737277
v -0.265976 0.2466165 0.6968554
v -0.2422113 0.4483342 0.6559064
v -0.2422113 0.4483342 0.6559064
v -0.265976 0.2466165 0.6968554
v -0.5323982 0.2311306 0.02221585
v -0.4952965 0.4330445 0.02164043
v -0.4952965 0.4330445 0.02164043
v -0.5323982 0.2311306 0.02221585
v -0.3372498 0.2252993 -0.345998
v -0.312851 0.4274046 -0.3242756
v -0.312851 0.4274046 -0.3242756
v -0.3372498 0.2252993 -0.345998
v 0.3899803 0.2353303 -0.5693382
v 0.368515 0.4377612 -0.5308819
v 0.368515 0.4377612 -0.5308819
v 0.3899803 0.2353303 -0.5693382
v 0.6562347 0.225336 0.1054774
v 0.6214561 0.4275769 0.1035548
v 0.6214561 0.4275769 0.1035548
v 0.6562347 0.225336 0.1054774
v 0.461071 0.2261215 0.4737277
v 0.4389839 0.4281605 0.4495147
v 0.3450899 0.4695941 0.3363091
v 0.4389839 0.4281605 0.4495147
v -0.2422113 0.4483342 0.6559064
v -0.1637573 0.473214 0.4919924
v -0.1637573 0.473214 0.4919924
v -0.2422113 0.4483342 0.6559064
v -0.4952965 0.4330445 0.02164043
v -0.3465576 0.4713213 0.0302816
v -0.3465576 0.4713213 0.0302816
v -0.4952965 0.4330445 0.02164043
v -0.312851 0.4274046 -0.3242756
v -0.2192392 0.4691709 -0.2107774
v -0.2192392 0.4691709 -0.2107774
v -0.312851 0.4274046 -0.3242756
v 0.368515 0.4377612 -0.5308819
v 0.2896261 0.4655554 -0.3664563
v 0.2896261 0.4655554 -0.3664563
v 0.368515 0.4377612 -0.5308819
v 0.6214561 0.4275769 0.1035548
v 0.4724083 0.4674483 0.09524342
v 0.4724083 0.4674483 0.09524342
v 0.6214561 0.4275769 0.1035548
v 0.4389839 0.4281605 0.4495147
v 0.3450899 0.4695941 0.3363091
v 0.2688522 2.421494 0.06416434
v 0.2935028 1.820539 0.08614077
v 0.2341385 1.821637 0.2091214
v 0.1929283 2.598161 0.192007
v 0.1775856 2.708403 -0.1308958
v 0.1764069 1.81966 -0.1645909
v 0.2935028 1.820539 0.08614077
v 0.2688522 2.421494 0.06416434
vt 0.6680285 0.2469587
vt 0.6727849 0.2568361
vt 0.6779163 0.2298638
vt 0.3920143 0.2647983
vt 0.3917328 0.2434852
vt 0.3979796 0.2434313
vt 0.6727849 0.2568361
vt 0.6680285 0.2469587
vt 0.6578285 0.230082
vt 0.6552202 0.2188507
vt 0.6573294 0.2642824
vt 0.6594048 0.2185382
vt 0.6534219 0.2190106
vt 0.6573294 0.2642824
vt 0.6552202 0.2188507
vt 0.6432228 0.2429308
vt 0.6433387 0.2647869
vt 0.6373481 0.243037
vt 0.3774638 0.2435888
vt 0.3920143 0.2647983
vt 0.3746269 0.2436042
vt 0.6573294 0.2642824
vt 0.6611172 0.2184249
vt 0.6594048 0.2185382
vt 0.477131 0.2451881
vt 0.4762951 0.221632
vt 0.463973 0.2204251
vt 0.4641377 0.2439344
vt 0.4544678 0.2460274
vt 0.4546972 0.2224339
vt 0.4733807 0.222263
vt 0.474106 0.2458427
vt 0.4641377 0.2439344
vt 0.463973 0.2204251
vt 0.4452886 0.2210161
vt 0.4444987 0.2445395
vt 0.5244997 0.2606417
vt 0.5287281 0.2606417
vt 0.5289 0.2599658
vt 0.5242591 0.259696
vt 0.4414741 0.2451944
vt 0.4423746 0.2216465
vt 0.4546972 0.2224339
vt 0.4544678 0.2460274
vt 0.477131 0.2451881
vt 0.474106 0.2458427
vt 0.4733807 0.222263
vt 0.4762951 0.221632
vt 0.4444987 0.2445395
vt 0.4452886 0.2210161
vt 0.4423746 0.2216465
vt 0.4414741 0.2451944
vt 0.519085 0.2576437
vt 0.5205375 0.2576437
vt 0.5242638 0.2555728
vt 0.5244997 0.2546457
vt 0.519085 0.2576437
vt 0.5244997 0.2606417
vt 0.5242591 0.259696
vt 0.5205375 0.2576437
vt 0.5287281 0.2606417
vt 0.5341427 0.2576437
vt 0.533105 0.2576437
vt 0.5289 0.2599658
vt 0.5253804 0.2104881
vt 0.525526 0.2044853
vt 0.5225755 0.2044853
vt 0.5220569 0.2104881
vt 0.5279757 0.2104881
vt 0.52783 0.2044853
vt 0.525526 0.2044853
vt 0.5253804 0.2104881
vt 0.5312991 0.2104881
vt 0.5307805 0.2044853
vt 0.52783 0.2044853
vt 0.5279757 0.2104881
vt 0.5279757 0.2104881
vt 0.52783 0.2044853
vt 0.5307805 0.2044853
vt 0.5312991 0.2104881
vt 0.5253804 0.2104881
vt 0.525526 0.2044853
vt 0.52783 0.2044853
vt 0.5279757 0.2104881
vt 0.5220569 0.2104881
vt 0.5225755 0.2044853
vt 0.525526 0.2044853
vt 0.5253804 0.2104881
vt 0.4588996 0.2596505
vt 0.4600745 0.2625048
vt 0.4703799 0.2543005
vt 0.4656664 0.2542864
vt 0.4496953 0.2534761
vt 0.4449041 0.2530082
vt 0.4521067 0.2621002
vt 0.4544148 0.2594226
vt 0.4656664 0.2542864
vt 0.4703799 0.2543005
vt 0.4631905 0.2452879
vt 0.4609469 0.2483398
vt 0.4564621 0.2481123
vt 0.4552228 0.2448837
vt 0.4449041 0.2530082
vt 0.4496953 0.2534761
vt 0.4544148 0.2594226
vt 0.4521067 0.2621002
vt 0.4600745 0.2625048
vt 0.4588996 0.2596505
vt 0.4609469 0.2483398
vt 0.4631905 0.2452879
vt 0.4552228 0.2448837
vt 0.4564621 0.2481123
vt 0.5235783 0.2566639
vt 0.5247068 0.210159
vt 0.5196584 0.210159
vt 0.51564 0.2566639
vt 0.51564 0.2566639
vt 0.5196584 0.210159
vt 0.5247068 0.210159
vt 0.5235783 0.2566639
vt 0.5235783 0.2566639
vt 0.5247068 0.210159
vt 0.5286492 0.210159
vt 0.5297777 0.2566639
vt 0.5297777 0.2566639
vt 0.5286492 0.210159
vt 0.5336975 0.210159
vt 0.537716 0.2566639
vt 0.537716 0.2566639
vt 0.5336975 0.210159
vt 0.5286492 0.210159
vt 0.5297777 0.2566639
vt 0.5297777 0.2566639
vt 0.5286492 0.210159
vt 0.5247068 0.210159
vt 0.5235783 0.2566639
vt 0.4869046 0.2428603
vt 0.4886118 0.2210566
vt 0.4671818 0.220723
vt 0.4667385 0.2426596
vt 0.4667385 0.2426596
vt 0.4671818 0.220723
vt 0.4344035 0.2201343
vt 0.4358185 0.2420203
vt 0.4358185 0.2420203
vt 0.4344035 0.2201343
vt 0.4299934 0.2210094
vt 0.4316408 0.2428226
vt 0.4316408 0.2428226
vt 0.4299934 0.2210094
vt 0.4514179 0.2246376
vt 0.4518014 0.2463183
vt 0.4518014 0.2463183
vt 0.4514179 0.2246376
vt 0.4842004 0.2224763
vt 0.4827255 0.2442083
vt 0.4827255 0.2442083
vt 0.4842004 0.2224763
vt 0.4886118 0.2210566
vt 0.4869046 0.2428603
vt 0.4588757 0.2589942
vt 0.4596858 0.261282
vt 0.4698872 0.2542357
vt 0.466495 0.2536125
vt 0.466495 0.2536125
vt 0.4698872 0.2542357
vt 0.4627924 0.2462963
vt 0.461335 0.2479555
vt 0.461335 0.2479555
vt 0.4627924 0.2462963
vt 0.4556293 0.2461103
vt 0.4563452 0.2478482
vt 0.4563452 0.2478482
vt 0.4556293 0.2461103
vt 0.4454867 0.2535016
vt 0.4487257 0.2532303
vt 0.4487257 0.2532303
vt 0.4454867 0.2535016
vt 0.4525324 0.2611531
vt 0.4538858 0.258887
vt 0.4538858 0.258887
vt 0.4525324 0.2611531
vt 0.4596858 0.261282
vt 0.4588757 0.2589942
vt 0.5288962 0.2553066
vt 0.5287281 0.2546457
vt 0.5244997 0.2546457
vt 0.5242638 0.2555728
vt 0.533105 0.2576437
vt 0.5341427 0.2576437
vt 0.5287281 0.2546457
vt 0.5288962 0.2553066
vn 0.792865 0.1187818 0.5977089
vn 0.792865 0.1187818 0.5977089
vn 0.792865 0.1187818 0.5977089
vn 0.9330921 0.05521187 -0.3553743
vn 0.9251056 0.04123526 -0.3774643
vn 0.9124286 0.02111178 -0.408691
vn -0.9679338 0.2508409 -0.01352689
vn -0.9679338 0.2508409 -0.01352689
vn -0.9679338 0.2508409 -0.01352689
vn 0.22732 0.04733424 0.972669
vn 0.2141403 0.1150907 0.969999
vn 0.2263936 0.05229375 0.9726312
vn -0.9189304 0.09374809 0.3831166
vn -0.945266 0.2098863 0.2498398
vn -0.9330013 0.1405578 0.3312885
vn -0.2812914 0.09404305 -0.9550031
vn -0.3278703 0.161241 -0.9308611
vn -0.2538035 0.05540171 -0.9656678
vn -0.9727528 0.2084456 -0.1015
vn -0.9678737 0.251337 -0.007080528
vn -0.959125 0.1363281 -0.2479798
vn 0.9381039 0.197027 0.2848531
vn 0.8990483 0.06531906 0.43295
vn 0.9248272 0.1371026 0.3548203
vn 0.2340019 -0.05475108 0.9706933
vn 0.2340019 -0.05475108 0.9706933
vn 0.2340019 -0.05475108 0.9706933
vn 0.2340019 -0.05475107 0.9706933
vn 0.9052767 -0.06715088 -0.4194817
vn 0.9052767 -0.06715087 -0.4194817
vn 0.9052767 -0.06715088 -0.4194816
vn 0.9052767 -0.06715088 -0.4194817
vn -0.9059491 -0.05165387 0.4202239
vn -0.9059491 -0.05165387 0.4202239
vn -0.9059491 -0.05165387 0.4202239
vn -0.9059491 -0.05165388 0.4202239
vn -0.9496011 0.1130574 -0.2923624
vn -0.9496011 0.1130574 -0.2923624
vn -0.9727528 0.2084456 -0.1015
vn -0.959125 0.1363281 -0.2479798
vn -0.2346796 -0.06402515 -0.9699619
vn -0.2346797 -0.06402516 -0.9699619
vn -0.2346797 -0.06402516 -0.9699619
vn -0.2346797 -0.06402515 -0.9699619
vn 0.897621 -0.07677317 0.4340304
vn 0.897621 -0.07677318 0.4340304
vn 0.897621 -0.07677317 0.4340304
vn 0.897621 -0.07677318 0.4340304
vn -0.8984475 -0.0718385 -0.4331645
vn -0.8984475 -0.07183851 -0.4331645
vn -0.8984475 -0.0718385 -0.4331644
vn -0.8984475 -0.0718385 -0.4331644
vn 0.2296845 0.0345282 0.9726524
vn 0.22732 0.04733424 0.972669
vn 0.2263936 0.05229375 0.9726312
vn 0.2296845 0.0345282 0.9726524
vn -0.9146861 0.08197679 0.3957641
vn -0.9146861 0.08197679 0.3957641
vn -0.9189304 0.09374809 0.3831166
vn -0.9330013 0.1405578 0.3312885
vn -0.2432922 0.04080994 -0.9690942
vn -0.2432921 0.04080993 -0.9690942
vn -0.2812914 0.09404305 -0.9550031
vn -0.2538035 0.05540171 -0.9656678
vn 0.2403936 0.6093776 0.7555593
vn 0.2403937 0.6093777 0.7555593
vn 0.2403936 0.6093776 0.7555593
vn 0.2403936 0.6093777 0.7555593
vn 0.6819476 0.6373376 0.358815
vn 0.6819476 0.6373376 0.3588149
vn 0.6819477 0.6373376 0.358815
vn 0.6819476 0.6373376 0.3588149
vn 0.7169999 0.6381506 -0.2804906
vn 0.7169999 0.6381506 -0.2804906
vn 0.7169999 0.6381506 -0.2804906
vn 0.7169999 0.6381506 -0.2804906
vn -0.2345647 0.6052935 -0.7606571
vn -0.2345647 0.6052935 -0.7606571
vn -0.2345647 0.6052935 -0.7606571
vn -0.2345647 0.6052935 -0.7606571
vn -0.6765239 0.6391495 -0.3657912
vn -0.6765239 0.6391495 -0.3657912
vn -0.6765239 0.6391495 -0.3657912
vn -0.6765239 0.6391495 -0.3657912
vn -0.712788 0.6455256 0.2742806
vn -0.712788 0.6455256 0.2742806
vn -0.7127881 0.6455256 0.2742806
vn -0.7127881 0.6455256 0.2742806
vn 0.1226864 0.8585326 0.4978653
vn 0.1226864 0.8585326 0.4978652
vn 0.1226864 0.8585326 0.4978653
vn 0.1226864 0.8585326 0.4978652
vn 0.4699614 0.8535606 -0.2248786
vn 0.4699614 0.8535606 -0.2248786
vn 0.4699614 0.8535606 -0.2248786
vn 0.4699614 0.8535606 -0.2248786
vn -0.4629651 0.8597575 0.2155933
vn -0.4629651 0.8597575 0.2155933
vn -0.4629651 0.8597575 0.2155933
vn -0.4629651 0.8597575 0.2155933
vn -0.1124985 0.8547697 -0.5066684
vn -0.1124985 0.8547697 -0.5066684
vn -0.1124985 0.8547697 -0.5066684
vn -0.1124985 0.8547697 -0.5066684
vn 0.4643704 0.8587686 0.2165101
vn 0.4643705 0.8587686 0.2165101
vn 0.4643704 0.8587686 0.2165101
vn 0.4643704 0.8587686 0.2165101
vn -0.4554351 0.860691 -0.2275743
vn -0.455435 0.8606908 -0.2275743
vn -0.4554351 0.8606908 -0.2275743
vn -0.455435 0.8606908 -0.2275743
vn 0.272234 0.1612898 0.948617
vn 0.272234 0.1612898 0.948617
vn 0.272234 0.1612898 0.948617
vn 0.272234 0.1612898 0.948617
vn -0.9069094 0.1863804 0.3778593
vn -0.9069094 0.1863804 0.3778594
vn -0.9069094 0.1863804 0.3778594
vn -0.9069094 0.1863804 0.3778593
vn -0.8765337 0.1666648 -0.4515656
vn -0.8765337 0.1666647 -0.4515656
vn -0.8765337 0.1666647 -0.4515656
vn -0.8765337 0.1666647 -0.4515656
vn -0.2705415 0.1521484 -0.9506094
vn -0.2705415 0.1521484 -0.9506094
vn -0.2705415 0.1521484 -0.9506094
vn -0.2705415 0.1521484 -0.9506094
vn 0.9090726 0.1705195 -0.3801446
vn 0.9090726 0.1705195 -0.3801447
vn 0.9090726 0.1705195 -0.3801447
vn 0.9090726 0.1705195 -0.3801447
vn 0.878403 0.162002 0.4496261
vn 0.878403 0.162002 0.449626
vn 0.878403 0.162002 0.4496261
vn 0.878403 0.162002 0.449626
vn 0.2923745 0.1511816 0.9442782
vn 0.2923745 0.1511816 0.9442782
vn 0.2923745 0.1511816 0.9442782
vn 0.2923745 0.1511816 0.9442782
vn -0.9164952 0.1752031 0.3596395
vn -0.9164952 0.1752031 0.3596394
vn -0.9164952 0.1752031 0.3596394
vn -0.9164952 0.1752031 0.3596395
vn -0.8720223 0.1570065 -0.4636011
vn -0.8720223 0.1570065 -0.4636012
vn -0.8720223 0.1570065 -0.4636012
vn -0.8720223 0.1570065 -0.4636012
vn -0.2908313 0.1428432 -0.9460512
vn -0.2908313 0.1428432 -0.9460512
vn -0.2908314 0.1428432 -0.9460512
vn -0.2908313 0.1428432 -0.9460512
vn 0.9183986 0.1603018 -0.3617284
vn 0.9183986 0.1603018 -0.3617284
vn 0.9183986 0.1603018 -0.3617284
vn 0.9183986 0.1603018 -0.3617284
vn 0.8737774 0.1527534 0.4617137
vn 0.8737774 0.1527534 0.4617137
vn 0.8737774 0.1527534 0.4617137
vn 0.8737774 0.1527534 0.4617137
vn 0.08850048 0.9698313 0.2271452
vn 0.08850048 0.9698313 0.2271452
vn 0.08850047 0.9698313 0.2271451
vn 0.08850048 0.9698313 0.2271452
vn -0.2207846 0.9726198 0.07256075
vn -0.2207846 0.9726198 0.07256075
vn -0.2207845 0.9726198 0.07256074
vn -0.2207846 0.9726198 0.07256075
vn -0.2451328 0.9590202 -0.1420918
vn -0.2451328 0.9590202 -0.1420918
vn -0.2451328 0.9590202 -0.1420918
vn -0.2451328 0.9590202 -0.1420918
vn -0.07797728 0.9680884 -0.2381687
vn -0.07797728 0.9680884 -0.2381687
vn -0.07797729 0.9680884 -0.2381687
vn -0.07797729 0.9680884 -0.2381687
vn 0.2301675 0.9695051 -0.0841599
vn 0.2301675 0.9695051 -0.08415989
vn 0.2301674 0.9695051 -0.08415988
vn 0.2301675 0.9695051 -0.08415989
vn 0.2554202 0.9580044 0.1303384
vn 0.2554202 0.9580044 0.1303384
vn 0.2554202 0.9580044 0.1303384
vn 0.2554202 0.9580044 0.1303384
vn 0.8990483 0.06531906 0.43295
vn 0.8946515 0.05535641 0.4433219
vn 0.8946515 0.05535641 0.443322
vn 0.9248272 0.1371026 0.3548203
vn 0.9251056 0.04123526 -0.3774643
vn 0.9100721 0.01759646 -0.4140763
vn 0.9100721 0.01759646 -0.4140763
vn 0.9124286 0.02111178 -0.408691
g wood_spikes2_0
f 3/3/3 2/2/2 1/1/1
f 6/6/6 5/5/5 4/4/4
f 9/9/9 8/8/8 7/7/7
f 12/12/12 11/11/11 10/10/10
f 15/15/15 14/14/14 13/13/13
f 18/18/18 17/17/17 16/16/16
f 21/21/21 20/20/20 19/19/19
f 24/24/24 23/23/23 22/22/22
f 27/27/27 26/26/26 25/25/25
f 28/28/28 27/27/27 25/25/25
f 31/31/31 30/30/30 29/29/29
f 32/32/32 31/31/31 29/29/29
f 35/35/35 34/34/34 33/33/33
f 36/36/36 35/35/35 33/33/33
f 39/39/39 38/38/38 37/37/37
f 40/40/40 39/39/39 37/37/37
f 43/43/43 42/42/42 41/41/41
f 44/44/44 43/43/43 41/41/41
f 47/47/47 46/46/46 45/45/45
f 48/48/48 47/47/47 45/45/45
f 51/51/51 50/50/50 49/49/49
f 52/52/52 51/51/51 49/49/49
f 55/55/55 54/54/54 53/53/53
f 56/56/56 55/55/55 53/53/53
f 59/59/59 58/58/58 57/57/57
f 60/60/60 59/59/59 57/57/57
f 63/63/63 62/62/62 61/61/61
f 64/64/64 63/63/63 61/61/61
f 67/67/67 66/66/66 65/65/65
f 68/68/68 67/67/67 65/65/65
f 71/71/71 70/70/70 69/69/69
f 72/72/72 71/71/71 69/69/69
f 75/75/75 74/74/74 73/73/73
f 76/76/76 75/75/75 73/73/73
f 79/79/79 78/78/78 77/77/77
f 80/80/80 79/79/79 77/77/77
f 83/83/83 82/82/82 81/81/81
f 84/84/84 83/83/83 81/81/81
f 87/87/87 86/86/86 85/85/85
f 88/88/88 87/87/87 85/85/85
f 91/91/91 90/90/90 89/89/89
f 92/92/92 91/91/91 89/89/89
f 95/95/95 94/94/94 93/93/93
f 96/96/96 95/95/95 93/93/93
f 99/99/99 98/98/98 97/97/97
f 100/100/100 99/99/99 97/97/97
f 103/103/103 102/102/102 101/101/101
f 104/104/104 103/103/103 101/101/101
f 107/107/107 106/106/106 105/105/105
f 108/108/108 107/107/107 105/105/105
f 111/111/111 110/110/110 109/109/109
f 112/112/112 111/111/111 109/109/109
f 115/115/115 114/114/114 113/113/113
f 116/116/116 115/115/115 113/113/113
f 119/119/119 118/118/118 117/117/117
f 120/120/120 119/119/119 117/117/117
f 123/123/123 122/122/122 121/121/121
f 124/124/124 123/123/123 121/121/121
f 127/127/127 126/126/126 125/125/125
f 128/128/128 127/127/127 125/125/125
f 131/131/131 130/130/130 129/129/129
f 132/132/132 131/131/131 129/129/129
f 135/135/135 134/134/134 133/133/133
f 136/136/136 135/135/135 133/133/133
f 139/139/139 138/138/138 137/137/137
f 140/140/140 139/139/139 137/137/137
f 143/143/143 142/142/142 141/141/141
f 144/144/144 143/143/143 141/141/141
f 147/147/147 146/146/146 145/145/145
f 148/148/148 147/147/147 145/145/145
f 151/151/151 150/150/150 149/149/149
f 152/152/152 151/151/151 149/149/149
f 155/155/155 154/154/154 153/153/153
f 156/156/156 155/155/155 153/153/153
f 159/159/159 158/158/158 157/157/157
f 160/160/160 159/159/159 157/157/157
f 163/163/163 162/162/162 161/161/161
f 164/164/164 163/163/163 161/161/161
f 167/167/167 166/166/166 165/165/165
f 168/168/168 167/167/167 165/165/165
f 171/171/171 170/170/170 169/169/169
f 172/172/172 171/171/171 169/169/169
f 175/175/175 174/174/174 173/173/173
f 176/176/176 175/175/175 173/173/173
f 179/179/179 178/178/178 177/177/177
f 180/180/180 179/179/179 177/177/177
f 183/183/183 182/182/182 181/181/181
f 184/184/184 183/183/183 181/181/181
f 187/187/187 186/186/186 185/185/185
f 188/188/188 187/187/187 185/185/185
f 191/191/191 190/190/190 189/189/189
f 192/192/192 191/191/191 189/189/189
