g 小ylindrical小one2
v 2.453101 0.8121721 1.76298E-07
v 2.6 1 1.948185E-07
v 2.550041 1 0.5072349
v 2.405965 0.8121719 0.4785764
v 1.831278 4.662249E-15 9.864382E-08
v 2.402086 1 0.9949768
v 1.79609 1.561653E-08 0.3572646
v 2.26637 0.8121719 0.9387612
v 2.161821 1 1.444483
v 1.69188 3.063292E-08 0.7007996
v 2.039679 0.8121721 1.36287
v 1.838477 1 1.838478
v 1.522652 4.447212E-08 1.017404
v 1.734604 0.8121721 1.734605
v 1.444482 1 2.161821
v 1.294909 5.660228E-08 1.294909
v 1.36287 0.8121721 2.03968
v 0.9949763 1 2.402087
v 1.017403 6.655724E-08 1.522652
v 0.9387606 0.8121721 2.266371
v 0.507234 1 2.550042
v 0.7007993 7.395445E-08 1.69188
v 0.4785756 0.8121721 2.405966
v -1.022788E-06 1 2.6
v 0.357264 7.850961E-08 1.796091
v -9.566717E-07 0.8121721 2.453102
v -0.5072361 1 2.550042
v -6.95415E-07 8.004771E-08 1.831278
v -0.4785775 0.8121721 2.405966
v -0.9949782 1 2.402086
v -0.3572654 7.85096E-08 1.79609
v -0.9387625 0.8121721 2.26637
v -1.444484 1 2.161821
v -0.7008005 7.395442E-08 1.69188
v -1.362871 0.8121721 2.039679
v -1.838479 1 1.838477
v -1.017404 6.655721E-08 1.522652
v -1.734606 0.8121721 1.734604
v -2.161822 1 1.444481
v -1.29491 5.660225E-08 1.294908
v -2.03968 0.8121721 1.362869
v -2.402088 1 0.9949753
v -1.522653 4.447207E-08 1.017403
v -2.266371 0.8121721 0.9387597
v -2.550042 1 0.507233
v -1.691881 3.063288E-08 0.7007985
v -2.405966 0.8121721 0.4785745
v -2.6 1 -2.119445E-06
v -1.796091 1.561647E-08 0.3572632
v -2.453102 0.8121721 -2.00721E-06
v -2.550041 1 -0.5072371
v -1.831278 -6.65883E-14 -1.531379E-06
v -2.405965 0.8121719 -0.4785785
v -2.402086 1 -0.9949792
v -1.79609 -1.56166E-08 -0.3572662
v -2.266369 0.8121721 -0.9387634
v -2.161819 1 -1.444485
v -1.691879 -3.0633E-08 -0.7008013
v -2.039678 0.8121721 -1.362872
v -1.838475 1 -1.838479
v -1.522651 -4.447219E-08 -1.017405
v -1.734603 0.8121719 -1.734606
v -1.44448 1 -2.161822
v -1.294907 -5.660233E-08 -1.29491
v -1.362867 0.8121721 -2.03968
v -0.9949735 1 -2.402088
v -1.017401 -6.655727E-08 -1.522653
v -0.9387581 0.8121721 -2.266371
v -0.5072311 1 -2.550042
v -0.7007973 -7.395445E-08 -1.691881
v -0.4785728 0.8121721 -2.405966
v -1.756009E-07 1 -2.6
v -0.3572619 -7.850961E-08 -1.79609
v -1.573497E-07 0.8121719 -2.453101
v 0.5072346 1 -2.550041
v -9.870894E-08 -8.004768E-08 -1.831277
v 0.4785762 0.8121721 -2.405965
v 0.9949768 1 -2.402086
v 0.3572645 -7.850958E-08 -1.79609
v 0.9387611 0.8121719 -2.26637
v 1.444482 1 -2.16182
v 0.7007996 -7.395441E-08 -1.69188
v 1.36287 0.8121719 -2.039679
v 1.838477 1 -1.838477
v 1.017403 -6.655721E-08 -1.522651
v 1.734604 0.8121721 -1.734604
v 2.161821 1 -1.444482
v 1.294909 -5.660225E-08 -1.294909
v 2.039679 0.8121721 -1.36287
v 2.402086 1 -0.9949765
v 1.522652 -4.44721E-08 -1.017403
v 2.26637 0.8121721 -0.9387609
v 2.550041 1 -0.5072345
v 1.69188 -3.063291E-08 -0.7007994
v 2.405965 0.8121719 -0.478576
v 2.6 1 1.948185E-07
v 1.79609 -1.561652E-08 -0.3572644
v 2.453101 0.8121721 1.76298E-07
v 1.831278 4.662249E-15 9.864382E-08
vt 0.9999422 0.7675977
vt 0.9999409 0.9999796
vt 0.9686945 0.9999794
vt 0.9686958 0.7675975
vt 0.9999435 5.957484E-05
vt 0.9374482 0.9999791
vt 0.968697 5.933642E-05
vt 0.9374493 0.7675973
vt 0.9062018 0.999979
vt 0.9374505 5.909801E-05
vt 0.906203 0.767597
vt 0.8749555 0.9999788
vt 0.9062041 5.885959E-05
vt 0.8749566 0.7675968
vt 0.8437091 0.9999786
vt 0.8749577 5.868077E-05
vt 0.8437101 0.7675967
vt 0.8124628 0.9999784
vt 0.8437111 5.844235E-05
vt 0.8124638 0.7675965
vt 0.7812165 0.9999782
vt 0.8124647 5.826354E-05
vt 0.7812174 0.7675963
vt 0.7499701 0.9999781
vt 0.7812183 5.808473E-05
vt 0.7499709 0.7675961
vt 0.7187238 0.999978
vt 0.7499718 5.790591E-05
vt 0.7187245 0.767596
vt 0.6874774 0.9999779
vt 0.7187253 5.77569E-05
vt 0.6874781 0.7675959
vt 0.656231 0.9999778
vt 0.6874788 5.760789E-05
vt 0.6562317 0.7675958
vt 0.6249846 0.9999776
vt 0.6562324 5.748868E-05
vt 0.6249852 0.7675956
vt 0.5937382 0.9999776
vt 0.6249859 5.736947E-05
vt 0.5937388 0.7675955
vt 0.5624918 0.9999775
vt 0.5937394 5.725026E-05
vt 0.5624924 0.7675954
vt 0.5312455 0.9999774
vt 0.5624929 5.716085E-05
vt 0.5312459 0.7675954
vt 0.4999991 0.9999774
vt 0.5312464 5.704165E-05
vt 0.4999996 0.7675953
vt 0.4687526 0.9999773
vt 0.5 5.695224E-05
vt 0.4687531 0.7675952
vt 0.4375063 0.9999772
vt 0.4687535 5.686283E-05
vt 0.4375066 0.7675951
vt 0.4062598 0.9999772
vt 0.437507 5.680323E-05
vt 0.4062602 0.7675951
vt 0.3750135 0.9999771
vt 0.4062606 5.677342E-05
vt 0.3750138 0.7675951
vt 0.343767 0.9999771
vt 0.3750141 5.671382E-05
vt 0.3437673 0.767595
vt 0.3125206 0.9999771
vt 0.3437676 5.665421E-05
vt 0.3125209 0.7675949
vt 0.2812743 0.9999771
vt 0.3125211 5.659461E-05
vt 0.2812744 0.7675949
vt 0.2500282 0.999977
vt 0.2812746 5.653501E-05
vt 0.2500283 0.7675949
vt 0.2187818 0.9999771
vt 0.2500285 5.653501E-05
vt 0.2187819 0.7675949
vt 0.1875354 0.9999771
vt 0.218782 5.65052E-05
vt 0.1875354 0.7675949
vt 0.156289 0.9999771
vt 0.1875355 5.64754E-05
vt 0.156289 0.7675949
vt 0.1250426 0.9999771
vt 0.156289 5.64754E-05
vt 0.1250426 0.7675949
vt 0.09379625 0.9999772
vt 0.1250425 5.64754E-05
vt 0.09379613 0.767595
vt 0.06254983 0.9999772
vt 0.09379601 5.653501E-05
vt 0.06254965 0.767595
vt 0.03130347 0.9999773
vt 0.06254947 5.653501E-05
vt 0.03130323 0.7675951
vt 5.704165E-05 0.9999774
vt 0.03130299 5.659461E-05
vt 5.674362E-05 0.7675952
vt 5.64456E-05 5.665421E-05
vn -0.7907435 0.6121476 0
vn -0.7877033 0.6160548 0
vn -0.7725673 0.6160553 -0.1536733
vn -0.7755494 0.612148 -0.1542664
vn -0.7940035 0.6079131 0
vn -0.7277428 0.6160551 -0.3014408
vn -0.778747 0.6079131 -0.1549024
vn -0.7305516 0.6121479 -0.3026043
vn -0.654951 0.6160553 -0.4376242
vn -0.7335637 0.6079131 -0.3038519
vn -0.657479 0.612148 -0.4393133
vn -0.5569897 0.6160557 -0.5569899
vn -0.6601898 0.6079132 -0.4411247
vn -0.5591397 0.6121482 -0.5591398
vn -0.437624 0.6160557 -0.6549509
vn -0.5614452 0.6079131 -0.5614454
vn -0.4393133 0.6121481 -0.6574789
vn -0.3014404 0.6160561 -0.7277421
vn -0.4411248 0.6079131 -0.6601898
vn -0.302604 0.6121483 -0.7305513
vn -0.153673 0.6160561 -0.7725669
vn -0.3038518 0.6079131 -0.7335637
vn -0.1542662 0.6121484 -0.775549
vn 0 0.616056 -0.7877024
vn -0.1549023 0.6079132 -0.7787469
vn 0 0.6121483 -0.790743
vn 0.1536737 0.6160557 -0.772567
vn 0 0.6079133 -0.7940034
vn 0.1542668 0.6121482 -0.7755491
vn 0.301441 0.6160557 -0.7277421
vn 0.1549028 0.6079132 -0.7787468
vn 0.3026045 0.6121482 -0.7305512
vn 0.4376244 0.6160557 -0.6549505
vn 0.3038523 0.6079133 -0.7335635
vn 0.4393136 0.6121482 -0.6574786
vn 0.55699 0.6160561 -0.5569893
vn 0.441125 0.6079133 -0.6601895
vn 0.55914 0.6121483 -0.5591393
vn 0.6549504 0.6160567 -0.4376232
vn 0.5614457 0.6079131 -0.5614448
vn 0.6574787 0.6121486 -0.4393126
vn 0.7277418 0.6160568 -0.3014396
vn 0.6601901 0.6079131 -0.4411242
vn 0.7305511 0.6121488 -0.3026034
vn 0.7725669 0.6160562 -0.1536724
vn 0.7335637 0.6079133 -0.3038513
vn 0.775549 0.6121484 -0.1542657
vn 0.7877028 0.6160555 0
vn 0.778747 0.6079133 -0.154902
vn 0.7907431 0.6121481 0
vn 0.7725673 0.6160551 0.1536742
vn 0.7940034 0.6079133 0
vn 0.7755492 0.6121479 0.1542674
vn 0.7277421 0.6160554 0.3014417
vn 0.7787468 0.6079133 0.1549035
vn 0.7305511 0.612148 0.3026052
vn 0.6549505 0.6160552 0.4376251
vn 0.7335632 0.6079132 0.3038528
vn 0.6574784 0.612148 0.4393142
vn 0.5569894 0.616055 0.556991
vn 0.6601892 0.6079133 0.4411255
vn 0.5591393 0.6121478 0.5591407
vn 0.4376235 0.6160553 0.6549515
vn 0.5614445 0.6079131 0.561446
vn 0.4393126 0.6121479 0.6574795
vn 0.3014398 0.6160555 0.7277429
vn 0.4411239 0.6079131 0.6601904
vn 0.3026032 0.612148 0.730552
vn 0.1536723 0.6160554 0.7725676
vn 0.3038508 0.6079131 0.7335642
vn 0.1542655 0.612148 0.7755495
vn 0 0.6160553 0.7877029
vn 0.1549016 0.6079131 0.7787471
vn 0 0.612148 0.7907432
vn -0.1536731 0.6160554 0.7725673
vn 0 0.6079133 0.7940035
vn -0.1542664 0.612148 0.7755493
vn -0.3014406 0.6160555 0.7277425
vn -0.1549025 0.6079131 0.778747
vn -0.3026043 0.612148 0.7305515
vn -0.437624 0.6160557 0.6549507
vn -0.303852 0.607913 0.7335637
vn -0.4393133 0.6121481 0.6574788
vn -0.5569898 0.6160557 0.5569898
vn -0.4411249 0.607913 0.6601899
vn -0.5591398 0.612148 0.5591398
vn -0.6549513 0.6160553 0.4376241
vn -0.5614454 0.6079131 0.5614454
vn -0.6574792 0.6121478 0.4393133
vn -0.7277425 0.6160554 0.3014408
vn -0.66019 0.607913 0.4411247
vn -0.7305515 0.6121479 0.3026043
vn -0.7725676 0.616055 0.1536734
vn -0.7335637 0.607913 0.3038521
vn -0.7755495 0.6121477 0.1542665
vn -0.7877033 0.6160548 0
vn -0.7787469 0.6079131 0.1549026
vn -0.7907435 0.6121476 0
vn -0.7940035 0.6079131 0
g 小ylindrical小one2_0
f 3/3/3 2/2/2 1/1/1
f 4/4/4 3/3/3 1/1/1
f 4/4/4 1/1/1 5/5/5
f 6/6/6 3/3/3 4/4/4
f 7/7/7 4/4/4 5/5/5
f 8/8/8 6/6/6 4/4/4
f 8/8/8 4/4/4 7/7/7
f 9/9/9 6/6/6 8/8/8
f 10/10/10 8/8/8 7/7/7
f 11/11/11 9/9/9 8/8/8
f 11/11/11 8/8/8 10/10/10
f 12/12/12 9/9/9 11/11/11
f 13/13/13 11/11/11 10/10/10
f 14/14/14 12/12/12 11/11/11
f 14/14/14 11/11/11 13/13/13
f 15/15/15 12/12/12 14/14/14
f 16/16/16 14/14/14 13/13/13
f 17/17/17 15/15/15 14/14/14
f 17/17/17 14/14/14 16/16/16
f 18/18/18 15/15/15 17/17/17
f 19/19/19 17/17/17 16/16/16
f 20/20/20 18/18/18 17/17/17
f 20/20/20 17/17/17 19/19/19
f 21/21/21 18/18/18 20/20/20
f 22/22/22 20/20/20 19/19/19
f 23/23/23 21/21/21 20/20/20
f 23/23/23 20/20/20 22/22/22
f 24/24/24 21/21/21 23/23/23
f 25/25/25 23/23/23 22/22/22
f 26/26/26 24/24/24 23/23/23
f 26/26/26 23/23/23 25/25/25
f 27/27/27 24/24/24 26/26/26
f 28/28/28 26/26/26 25/25/25
f 29/29/29 27/27/27 26/26/26
f 29/29/29 26/26/26 28/28/28
f 30/30/30 27/27/27 29/29/29
f 31/31/31 29/29/29 28/28/28
f 32/32/32 30/30/30 29/29/29
f 32/32/32 29/29/29 31/31/31
f 33/33/33 30/30/30 32/32/32
f 34/34/34 32/32/32 31/31/31
f 35/35/35 33/33/33 32/32/32
f 35/35/35 32/32/32 34/34/34
f 36/36/36 33/33/33 35/35/35
f 37/37/37 35/35/35 34/34/34
f 38/38/38 36/36/36 35/35/35
f 38/38/38 35/35/35 37/37/37
f 39/39/39 36/36/36 38/38/38
f 40/40/40 38/38/38 37/37/37
f 41/41/41 39/39/39 38/38/38
f 41/41/41 38/38/38 40/40/40
f 42/42/42 39/39/39 41/41/41
f 43/43/43 41/41/41 40/40/40
f 44/44/44 42/42/42 41/41/41
f 44/44/44 41/41/41 43/43/43
f 45/45/45 42/42/42 44/44/44
f 46/46/46 44/44/44 43/43/43
f 47/47/47 45/45/45 44/44/44
f 47/47/47 44/44/44 46/46/46
f 48/48/48 45/45/45 47/47/47
f 49/49/49 47/47/47 46/46/46
f 50/50/50 48/48/48 47/47/47
f 50/50/50 47/47/47 49/49/49
f 51/51/51 48/48/48 50/50/50
f 52/52/52 50/50/50 49/49/49
f 53/53/53 51/51/51 50/50/50
f 53/53/53 50/50/50 52/52/52
f 54/54/54 51/51/51 53/53/53
f 55/55/55 53/53/53 52/52/52
f 56/56/56 54/54/54 53/53/53
f 56/56/56 53/53/53 55/55/55
f 57/57/57 54/54/54 56/56/56
f 58/58/58 56/56/56 55/55/55
f 59/59/59 57/57/57 56/56/56
f 59/59/59 56/56/56 58/58/58
f 60/60/60 57/57/57 59/59/59
f 61/61/61 59/59/59 58/58/58
f 62/62/62 60/60/60 59/59/59
f 62/62/62 59/59/59 61/61/61
f 63/63/63 60/60/60 62/62/62
f 64/64/64 62/62/62 61/61/61
f 65/65/65 63/63/63 62/62/62
f 65/65/65 62/62/62 64/64/64
f 66/66/66 63/63/63 65/65/65
f 67/67/67 65/65/65 64/64/64
f 68/68/68 66/66/66 65/65/65
f 68/68/68 65/65/65 67/67/67
f 69/69/69 66/66/66 68/68/68
f 70/70/70 68/68/68 67/67/67
f 71/71/71 69/69/69 68/68/68
f 71/71/71 68/68/68 70/70/70
f 72/72/72 69/69/69 71/71/71
f 73/73/73 71/71/71 70/70/70
f 74/74/74 72/72/72 71/71/71
f 74/74/74 71/71/71 73/73/73
f 75/75/75 72/72/72 74/74/74
f 76/76/76 74/74/74 73/73/73
f 77/77/77 75/75/75 74/74/74
f 77/77/77 74/74/74 76/76/76
f 78/78/78 75/75/75 77/77/77
f 79/79/79 77/77/77 76/76/76
f 80/80/80 78/78/78 77/77/77
f 80/80/80 77/77/77 79/79/79
f 81/81/81 78/78/78 80/80/80
f 82/82/82 80/80/80 79/79/79
f 83/83/83 81/81/81 80/80/80
f 83/83/83 80/80/80 82/82/82
f 84/84/84 81/81/81 83/83/83
f 85/85/85 83/83/83 82/82/82
f 86/86/86 84/84/84 83/83/83
f 86/86/86 83/83/83 85/85/85
f 87/87/87 84/84/84 86/86/86
f 88/88/88 86/86/86 85/85/85
f 89/89/89 87/87/87 86/86/86
f 89/89/89 86/86/86 88/88/88
f 90/90/90 87/87/87 89/89/89
f 91/91/91 89/89/89 88/88/88
f 92/92/92 90/90/90 89/89/89
f 92/92/92 89/89/89 91/91/91
f 93/93/93 90/90/90 92/92/92
f 94/94/94 92/92/92 91/91/91
f 95/95/95 93/93/93 92/92/92
f 95/95/95 92/92/92 94/94/94
f 96/96/96 93/93/93 95/95/95
f 97/97/97 95/95/95 94/94/94
f 98/98/98 96/96/96 95/95/95
f 98/98/98 95/95/95 97/97/97
f 99/99/99 98/98/98 97/97/97
