g upgrade_house_lv2
v 0.009570617 0.03562233 0.04052033
v 0.009570313 0.05551506 0.04052002
v 0.01397003 0.06034942 0.04052002
v 0.01546265 0.03562225 0.04052033
v 0.009570313 0.05551506 0.04052002
v -0.00634552 0.05423439 0.04052002
v -0.009394837 0.05909592 0.04052002
v 0.01397003 0.06034942 0.04052002
v -0.00634552 0.05423439 0.04052002
v -0.006951599 0.03562233 0.04052033
v -0.01181335 0.03562225 0.04052033
v -0.009394837 0.05909592 0.04052002
v 0.01385925 0.03562225 0.03204712
v 0.01546265 0.03562225 0.04052033
v 0.01397003 0.06034942 0.04052002
v 0.01499145 0.06149948 0.03204712
v 0.01499145 0.06149948 0.03204712
v 0.01397003 0.06034942 0.04052002
v -0.009394837 0.05909592 0.04052002
v -0.01124054 0.05909592 0.03204712
v -0.01124054 0.05909592 0.03204712
v -0.009394837 0.05909592 0.04052002
v -0.01181335 0.03562225 0.04052033
v -0.01124054 0.03562225 0.03204712
v 0.009570617 0.03562233 0.04052033
v 0.009570617 0.03562233 0.03672302
v 0.009570313 0.05551506 0.03672302
v 0.009570313 0.05551506 0.04052002
v 0.009570313 0.05551506 0.04052002
v 0.009570313 0.05551506 0.03672302
v -0.004953613 0.0519469 0.03672302
v -0.00634552 0.05423439 0.04052002
v -0.00634552 0.05423439 0.04052002
v -0.004953613 0.0519469 0.03672302
v -0.006951599 0.03562233 0.03672302
v -0.006951599 0.03562233 0.04052033
v 0.0324202 0.04684173 -0.023974
v 0.0324202 0.04684173 0.02264587
v 0.0324202 0.06925689 0.02394836
v 0.0324202 0.06925689 -0.02527649
v -0.0251831 0.0735646 -0.03365539
v 0.02404144 0.06925689 -0.03365539
v 0.0324202 0.06925689 -0.02527649
v -0.03356201 0.07356475 -0.02527649
v -0.03356201 0.07356475 0.02394836
v 0.0324202 0.06925689 0.02394836
v -0.0251831 0.0735646 0.03232727
v 0.02404144 0.06925689 0.03232727
v -0.0251831 0.04852066 -0.03190948
v -0.0251831 0.0735646 -0.03365539
v -0.03356201 0.07356475 -0.02527649
v -0.03356201 0.04852051 -0.023974
v -0.03356201 0.04852051 0.02264587
v -0.03356201 0.07356475 0.02394836
v -0.0251831 0.0735646 0.03232727
v -0.0251831 0.04852066 0.03058136
v -0.008052979 0.03429657 0.03760834
v -0.005788574 0.05279705 0.03760803
v 0.01067169 0.05684082 0.03760803
v 0.01067169 0.03429657 0.03760834
v -0.03356201 0.04852051 0.02264587
v -0.03892517 0.04852051 0.0265094
v -0.03892517 0.04852051 -0.02767853
v -0.03356201 0.04852051 -0.023974
v 0.0324202 0.06925689 0.02394836
v 0.0324202 0.04684173 0.02264587
v 0.02404144 0.04684173 0.03058136
v 0.02404144 0.06925689 0.03232727
v 0.02404144 0.06925689 -0.03365539
v 0.02404144 0.04684173 -0.03190948
v 0.0324202 0.04684173 -0.023974
v 0.0324202 0.06925689 -0.02527649
v 0.02404144 0.06925689 -0.03365539
v -0.0251831 0.0735646 -0.03365539
v -0.0251831 0.04852066 -0.03190948
v 0.02404144 0.04684173 -0.03190948
v -0.0251831 0.0735646 0.03232727
v 0.02404144 0.06925689 0.03232727
v 0.02404144 0.04684173 0.03058136
v -0.0251831 0.04852066 0.03058136
v -0.03356201 0.07356475 -0.02527649
v -0.03356201 0.07356475 0.02394836
v -0.03356201 0.04852051 0.02264587
v -0.03356201 0.04852051 -0.023974
v 0.0324202 0.04684173 -0.023974
v 0.03776855 0.04684173 -0.02767853
v 0.03776855 0.04684173 0.0265094
v 0.0324202 0.04684173 0.02264587
v -0.03892517 0.04852051 -0.02767853
v -0.03892517 0.04852051 0.0265094
v -0.03892517 0.03252747 0.0255426
v -0.03892517 0.03252747 -0.02671204
v -0.0291861 0.04852051 0.03573303
v 0.02802948 0.04684173 0.03573303
v 0.02802948 0.03252747 0.03443725
v -0.0291861 0.03252747 0.03443725
v 0.02802948 0.04684173 -0.03690246
v -0.0291861 0.04852051 -0.03690246
v -0.0291861 0.03252747 -0.03560669
v 0.02802948 0.03252747 -0.03560669
v 0.02802948 0.04684173 -0.03690246
v 0.02802948 0.03252747 -0.03560669
v 0.03776855 0.03252747 -0.02671204
v 0.03776855 0.04684173 -0.02767853
v 0.03776855 0.03252747 -0.02671204
v 0.0377684 0.03252747 0.0255426
v 0.03776855 0.04684173 0.0265094
v 0.03776855 0.04684173 -0.02767853
v 0.03776855 0.04684173 0.0265094
v 0.0377684 0.03252747 0.0255426
v 0.02802948 0.03252747 0.03443725
v 0.02802948 0.04684173 0.03573303
v -0.03892517 0.03252747 0.0255426
v -0.03892517 0.04852051 0.0265094
v -0.0291861 0.04852051 0.03573303
v -0.0291861 0.03252747 0.03443725
v -0.0291861 0.03252747 -0.03560669
v -0.0291861 0.04852051 -0.03690246
v -0.03892517 0.04852051 -0.02767853
v -0.03892517 0.03252747 -0.02671204
v 0.0324202 0.04684173 0.02264587
v 0.03776855 0.04684173 0.0265094
v 0.02802948 0.04684173 0.03573303
v 0.02404144 0.04684173 0.03058136
v 0.02404144 0.04684173 0.03058136
v -0.0291861 0.04852051 0.03573303
v -0.0251831 0.04852066 0.03058136
v -0.03892517 0.04852051 0.0265094
v -0.03356201 0.04852051 0.02264587
v 0.02404144 0.04684173 -0.03190948
v 0.03776855 0.04684173 -0.02767853
v 0.0324202 0.04684173 -0.023974
v 0.02802948 0.04684173 -0.03690246
v -0.0251831 0.04852066 -0.03190948
v 0.02404144 0.04684173 -0.03190948
v -0.0291861 0.04852051 -0.03690246
v -0.03356201 0.04852051 -0.023974
v -0.03892517 0.04852051 -0.02767853
v -0.03356201 0.03252747 -0.02314239
v -0.03892517 0.03252747 -0.02671204
v -0.03892517 0.03252747 0.0255426
v -0.03356201 0.03252747 0.02181427
v -0.0251831 0.03252731 -0.03079468
v -0.0291861 0.03252747 0.03443725
v -0.0291861 0.03252747 -0.03560669
v -0.0251831 0.03252731 0.02946655
v 0.02404144 0.03252731 -0.03079468
v 0.02802948 0.03252747 0.03443725
v 0.02802948 0.03252747 -0.03560669
v 0.02404144 0.03252731 0.02946655
v 0.0324202 0.03252747 -0.02314239
v 0.0377684 0.03252747 0.0255426
v 0.03776855 0.03252747 -0.02671204
v 0.0324202 0.03252747 0.02181427
vt 0.09063929 0.4452558
vt 0.09063929 0.5144792
vt 0.09174834 0.5142469
vt 0.09063929 0.4466755
vt 0.09063929 0.5144792
vt 0.009209236 0.5144792
vt 0.008616412 0.5143183
vt 0.09174834 0.5142469
vt 0.009209236 0.5144792
vt 0.009209236 0.4452558
vt 0.009209236 0.4464885
vt 0.008616412 0.5143183
vt 0.09063929 0.4466755
vt 0.09063929 0.4466755
vt 0.09174834 0.5142469
vt 0.09096257 0.514099
vt 0.09096257 0.514099
vt 0.09174834 0.5142469
vt 0.008616412 0.5143183
vt 0.009333251 0.5142056
vt 0.009333251 0.5142056
vt 0.008616412 0.5143183
vt 0.009209236 0.4464885
vt 0.009209236 0.4464885
vt 0.09063929 0.4452558
vt 0.09063929 0.4452558
vt 0.09063929 0.5144792
vt 0.09063929 0.5144792
vt 0.09063929 0.5144792
vt 0.09063929 0.5144792
vt 0.009209236 0.5144792
vt 0.009209236 0.5144792
vt 0.009209236 0.5144792
vt 0.009209236 0.5144792
vt 0.009209236 0.4452558
vt 0.009209236 0.4452558
vt 0.2928038 0.7178421
vt 0.2928038 0.7178422
vt 0.2928038 0.7454068
vt 0.2928038 0.7454068
vt 0.3128774 0.7220739
vt 0.3128922 0.7829502
vt 0.3232369 0.793251
vt 0.3232369 0.7117878
vt 0.3838814 0.7117878
vt 0.3838814 0.793251
vt 0.3942409 0.7220739
vt 0.3942261 0.7829502
vt 0.221967 0.7199066
vt 0.221967 0.7507042
vt 0.2116631 0.7507042
vt 0.2116631 0.7199067
vt 0.2116631 0.7199067
vt 0.2116631 0.7507042
vt 0.221967 0.7507042
vt 0.221967 0.7199067
vt 0.01568866 0.8087849
vt 0.01568866 0.9929952
vt 0.07608569 0.9929952
vt 0.07608569 0.8087849
vt 0.0374565 0.5258219
vt 0.03576986 0.5281628
vt 0.08651364 0.5281644
vt 0.08489653 0.5258234
vt 0.2928038 0.7454068
vt 0.2928038 0.7178422
vt 0.2825 0.7178422
vt 0.2825 0.7454068
vt 0.2825 0.7454068
vt 0.2825 0.7178421
vt 0.2928038 0.7178421
vt 0.2928038 0.7454068
vt 0.2825 0.7454068
vt 0.221967 0.7507042
vt 0.221967 0.7199066
vt 0.2825 0.7178421
vt 0.2201765 0.7882476
vt 0.2807096 0.7829502
vt 0.2807096 0.7553856
vt 0.2201765 0.7574501
vt 0.2116631 0.7507042
vt 0.2116631 0.7507042
vt 0.2116631 0.7199067
vt 0.2116631 0.7199067
vt 0.08489639 0.4586569
vt 0.08651364 0.4563223
vt 0.03576946 0.4563223
vt 0.03745595 0.4586568
vt 0.1082763 0.4951228
vt 0.1082763 0.4951228
vt 0.1082763 0.4754554
vt 0.1082763 0.4754554
vt 0.1186353 0.5554285
vt 0.1791684 0.5533639
vt 0.1791684 0.535761
vt 0.1186353 0.535761
vt 0.1791132 0.4930582
vt 0.1185802 0.4951228
vt 0.1185802 0.4754554
vt 0.1791132 0.4754554
vt 0.1791132 0.4930582
vt 0.1791132 0.4754554
vt 0.189417 0.4754554
vt 0.189417 0.4930582
vt 0.189417 0.4754554
vt 0.189417 0.4754554
vt 0.189417 0.4930583
vt 0.189417 0.4930582
vt 0.189417 0.4930583
vt 0.189417 0.4754554
vt 0.1791132 0.4754554
vt 0.1791132 0.4930583
vt 0.1082763 0.4754554
vt 0.1082763 0.4951228
vt 0.1185802 0.4951228
vt 0.1185802 0.4754554
vt 0.1185802 0.4754554
vt 0.1185802 0.4951228
vt 0.1082763 0.4951228
vt 0.1082763 0.4754554
vt 0.03745595 0.4586568
vt 0.03576946 0.4563223
vt 0.02713299 0.4654428
vt 0.02938227 0.4671829
vt 0.02938227 0.4671829
vt 0.02713344 0.5190417
vt 0.02938262 0.5172949
vt 0.03576986 0.5281628
vt 0.0374565 0.5258219
vt 0.09297094 0.4671836
vt 0.08651364 0.4563223
vt 0.08489639 0.4586569
vt 0.09515104 0.4654435
vt 0.09297064 0.5172973
vt 0.09297094 0.4671836
vt 0.09515056 0.519044
vt 0.08489653 0.5258234
vt 0.08651364 0.5281644
vt 0 0
vt 0 0
vt 0 0
vt 0 0
vt 0 0
vt 0 0
vt 0 0
vt 0 0
vt 0 0
vt 0 0
vt 0 0
vt 0 0
vt 0 0
vt 0 0
vt 0 0
vt 0 0
vn 0 0 1
vn 0 6.298545E-07 1
vn 0 6.237427E-07 1
vn 0 0 1
vn 0 6.298545E-07 1
vn 0 5.632625E-07 1
vn 0 7.784524E-07 1
vn 0 6.237427E-07 1
vn 0 5.632625E-07 1
vn 0 0 1
vn 0 0 1
vn 0 7.784524E-07 1
vn 0.9994025 0.007112767 -0.03382357
vn 0.9994025 0.007112767 -0.03382357
vn 0.9994025 0.007112767 -0.03382357
vn 0.9994025 0.007112767 -0.03382357
vn -0.07334876 0.9947701 0.07107993
vn -0.07334876 0.9947701 0.07107993
vn -0.07334876 0.9947701 0.07107993
vn -0.07334876 0.9947701 0.07107993
vn -0.995878 0.05130199 0.07480054
vn -0.995878 0.05130199 0.07480054
vn -0.995878 0.05130199 0.07480054
vn -0.995878 0.05130199 0.07480054
vn -1 -1.629207E-07 0
vn -1 -1.629207E-07 0
vn -1 -1.629207E-07 0
vn -1 -1.629207E-07 0
vn 0.1495481 -0.9388422 0.3101783
vn 0.1495481 -0.9388422 0.3101783
vn 0.1495481 -0.9388422 0.3101783
vn 0.1495481 -0.9388422 0.3101783
vn 0.9768867 -0.0728182 0.2009725
vn 0.9768867 -0.0728182 0.2009725
vn 0.9768867 -0.0728182 0.2009725
vn 0.9768867 -0.0728182 0.2009725
vn 1 1.629207E-07 0
vn 1 1.629207E-07 0
vn 1 1.629207E-07 0
vn 1 1.629207E-07 0
vn 0.07457509 0.9972154 0
vn 0.07457509 0.9972154 0
vn 0.06829677 0.997665 0
vn 0.06829677 0.997665 0
vn 0.06829678 0.997665 0
vn 0.06829678 0.997665 0
vn 0.07457513 0.9972154 0
vn 0.07457513 0.9972154 0
vn -0.6969033 -0.04355985 -0.7158409
vn -0.6969033 -0.04355985 -0.7158409
vn -0.6969033 -0.04355985 -0.7158409
vn -0.6969033 -0.04355985 -0.7158409
vn -0.696903 -0.0435598 0.7158412
vn -0.696903 -0.0435598 0.7158412
vn -0.696903 -0.0435598 0.7158412
vn -0.696903 -0.0435598 0.7158412
vn 0 1.329181E-07 1
vn 0 1.329181E-07 1
vn 0 1.329181E-07 1
vn 0 1.329181E-07 1
vn -8.685114E-07 1 0
vn -8.685114E-07 1 0
vn -8.685114E-07 1 0
vn -8.685114E-07 1 0
vn 0.6967388 -0.04865696 0.7156728
vn 0.6967388 -0.04865696 0.7156728
vn 0.6967388 -0.04865696 0.7156728
vn 0.6967388 -0.04865696 0.7156728
vn 0.6967391 -0.04865702 -0.7156724
vn 0.6967391 -0.04865702 -0.7156724
vn 0.6967391 -0.04865702 -0.7156724
vn 0.6967391 -0.04865702 -0.7156724
vn -0.004461256 -0.07336443 -0.9972952
vn -0.004461256 -0.07336443 -0.9972952
vn -0.004461256 -0.07336443 -0.9972952
vn -0.004461256 -0.07336443 -0.9972952
vn -0.004461256 -0.07336443 0.9972952
vn -0.004461256 -0.07336443 0.9972952
vn -0.004461256 -0.07336443 0.9972952
vn -0.004461256 -0.07336443 0.9972952
vn -1 -1.629207E-07 0
vn -1 -1.629207E-07 0
vn -1 -1.629207E-07 0
vn -1 -1.629207E-07 0
vn 5.446265E-07 1 0
vn 5.446265E-07 1 0
vn 5.446265E-07 1 0
vn 5.446265E-07 1 0
vn -1 -1.629207E-07 0
vn -1 -1.629207E-07 0
vn -1 -1.629207E-07 0
vn -1 -1.629207E-07 0
vn -0.001249898 -0.08519435 0.9963636
vn -0.001249898 -0.08519435 0.9963636
vn -0.001249898 -0.08519435 0.9963636
vn -0.001249898 -0.08519435 0.9963636
vn -0.001249898 -0.08519412 -0.9963636
vn -0.001249898 -0.08519412 -0.9963636
vn -0.001249898 -0.08519412 -0.9963636
vn -0.001249898 -0.08519412 -0.9963636
vn 0.6799515 -0.05776517 -0.7309782
vn 0.6799515 -0.05776517 -0.7309782
vn 0.6799515 -0.05776517 -0.7309782
vn 0.6799515 -0.05776517 -0.7309782
vn 1 1.629207E-07 0
vn 1 1.629207E-07 0
vn 1 1.629207E-07 0
vn 1 1.629207E-07 0
vn 0.6799511 -0.05776532 0.7309785
vn 0.6799511 -0.05776532 0.7309785
vn 0.6799511 -0.05776532 0.7309785
vn 0.6799511 -0.05776532 0.7309785
vn -0.6801769 -0.05171892 0.7312211
vn -0.6801769 -0.05171892 0.7312211
vn -0.6801769 -0.05171892 0.7312211
vn -0.6801769 -0.05171892 0.7312211
vn -0.6801772 -0.05171867 -0.7312209
vn -0.6801772 -0.05171867 -0.7312209
vn -0.6801772 -0.05171867 -0.7312209
vn -0.6801772 -0.05171867 -0.7312209
vn -1.629207E-07 1 0
vn -1.629207E-07 1 0
vn -1.629207E-07 1 0
vn -1.629207E-07 1 0
vn 0.03152955 0.9995028 4.537377E-05
vn -1.629207E-07 1 2.756386E-07
vn -1.629207E-07 1 2.756386E-07
vn -1.629207E-07 1 2.756386E-07
vn -1.629207E-07 1 2.756386E-07
vn 4.372787E-07 1 0
vn 4.372787E-07 1 0
vn 4.372787E-07 1 0
vn 4.372787E-07 1 0
vn -1.629207E-07 1 2.806221E-07
vn 0.03152971 0.9995028 -4.681664E-05
vn -1.629207E-07 1 2.806221E-07
vn -1.629207E-07 1 2.806221E-07
vn -1.629207E-07 1 2.806221E-07
vn 1.629207E-07 -1 0
vn 1.629207E-07 -1 0
vn 1.629207E-07 -1 0
vn 1.629207E-07 -1 0
vn 1.629207E-07 -1 0
vn 1.629207E-07 -1 0
vn 1.629207E-07 -1 0
vn 1.629207E-07 -1 0
vn 1.629207E-07 -1 0
vn 1.629207E-07 -1 0
vn 1.629207E-07 -1 0
vn 1.629207E-07 -1 0
vn -5.70804E-07 -1 0
vn 1.629207E-07 -1 0
vn -5.70804E-07 -1 0
vn 1.629207E-07 -1 0
g upgrade_house_lv2_0
f 3/3/3 2/2/2 1/1/1
f 4/4/4 3/3/3 1/1/1
f 7/7/7 6/6/6 5/5/5
f 8/8/8 7/7/7 5/5/5
f 11/11/11 10/10/10 9/9/9
f 12/12/12 11/11/11 9/9/9
f 15/15/15 14/14/14 13/13/13
f 16/16/16 15/15/15 13/13/13
f 19/19/19 18/18/18 17/17/17
f 20/20/20 19/19/19 17/17/17
f 23/23/23 22/22/22 21/21/21
f 24/24/24 23/23/23 21/21/21
f 27/27/27 26/26/26 25/25/25
f 28/28/28 27/27/27 25/25/25
f 31/31/31 30/30/30 29/29/29
f 32/32/32 31/31/31 29/29/29
f 35/35/35 34/34/34 33/33/33
f 36/36/36 35/35/35 33/33/33
f 39/39/39 38/38/38 37/37/37
f 40/40/40 39/39/39 37/37/37
f 43/43/43 42/42/42 41/41/41
f 44/44/44 43/43/43 41/41/41
f 44/44/44 45/45/45 43/43/43
f 45/45/45 46/46/46 43/43/43
f 45/45/45 47/47/47 46/46/46
f 47/47/47 48/48/48 46/46/46
f 51/51/51 50/50/50 49/49/49
f 52/52/52 51/51/51 49/49/49
f 55/55/55 54/54/54 53/53/53
f 56/56/56 55/55/55 53/53/53
f 59/59/59 58/58/58 57/57/57
f 60/60/60 59/59/59 57/57/57
f 63/63/63 62/62/62 61/61/61
f 64/64/64 63/63/63 61/61/61
f 67/67/67 66/66/66 65/65/65
f 68/68/68 67/67/67 65/65/65
f 71/71/71 70/70/70 69/69/69
f 72/72/72 71/71/71 69/69/69
f 75/75/75 74/74/74 73/73/73
f 76/76/76 75/75/75 73/73/73
f 79/79/79 78/78/78 77/77/77
f 80/80/80 79/79/79 77/77/77
f 83/83/83 82/82/82 81/81/81
f 84/84/84 83/83/83 81/81/81
f 87/87/87 86/86/86 85/85/85
f 88/88/88 87/87/87 85/85/85
f 91/91/91 90/90/90 89/89/89
f 92/92/92 91/91/91 89/89/89
f 95/95/95 94/94/94 93/93/93
f 96/96/96 95/95/95 93/93/93
f 99/99/99 98/98/98 97/97/97
f 100/100/100 99/99/99 97/97/97
f 103/103/103 102/102/102 101/101/101
f 104/104/104 103/103/103 101/101/101
f 107/107/107 106/106/106 105/105/105
f 108/108/108 107/107/107 105/105/105
f 111/111/111 110/110/110 109/109/109
f 112/112/112 111/111/111 109/109/109
f 115/115/115 114/114/114 113/113/113
f 116/116/116 115/115/115 113/113/113
f 119/119/119 118/118/118 117/117/117
f 120/120/120 119/119/119 117/117/117
f 123/123/123 122/122/122 121/121/121
f 124/124/124 123/123/123 121/121/121
f 126/126/126 123/123/123 125/125/125
f 127/127/127 126/126/126 125/125/125
f 128/128/128 126/126/126 127/127/127
f 129/129/129 128/128/128 127/127/127
f 132/132/132 131/131/131 130/130/130
f 131/131/131 133/133/133 130/130/130
f 135/135/135 133/133/133 134/134/134
f 133/133/133 136/136/136 134/134/134
f 134/134/134 136/136/136 137/137/137
f 136/136/136 138/138/138 137/137/137
f 141/141/141 140/140/140 139/139/139
f 142/142/142 141/141/141 139/139/139
f 139/139/139 140/140/140 143/143/143
f 144/144/144 141/141/141 142/142/142
f 140/140/140 145/145/145 143/143/143
f 146/146/146 144/144/144 142/142/142
f 143/143/143 145/145/145 147/147/147
f 148/148/148 144/144/144 146/146/146
f 145/145/145 149/149/149 147/147/147
f 150/150/150 148/148/148 146/146/146
f 147/147/147 149/149/149 151/151/151
f 152/152/152 148/148/148 150/150/150
f 149/149/149 153/153/153 151/151/151
f 154/154/154 152/152/152 150/150/150
f 151/151/151 153/153/153 154/154/154
f 153/153/153 152/152/152 154/154/154
