g arrow_lv2
v -0.007451152 0.02389248 0.05112326
v -0.0008325005 0.0274485 0.05846091
v 0.005786152 0.0238925 0.05112326
v 0.005786152 0.0238925 0.05112326
v -0.0008325005 0.0274485 0.05846091
v 0.005786152 0.03100454 0.05112326
v 0.005786152 0.03100454 0.05112326
v -0.0008325005 0.0274485 0.05846091
v -0.007451152 0.03100453 0.05112326
v -0.007451152 0.03100453 0.05112326
v -0.0008325005 0.0274485 0.05846091
v -0.007451152 0.02389248 0.05112326
v -0.003304424 0.02855522 0.05674216
v -0.0008325005 0.03211126 0.06407858
v 0.001639423 0.02855521 0.05674216
v 0.001639423 0.02855521 0.05674216
v -0.0008325005 0.03211126 0.06407858
v 0.001639423 0.03566729 0.05674216
v 0.001639423 0.03566729 0.05674216
v -0.0008325005 0.03211126 0.06407858
v -0.003304424 0.03566727 0.05674216
v -0.003304424 0.03566727 0.05674216
v -0.0008325005 0.03211126 0.06407858
v -0.003304424 0.02855522 0.05674216
v -0.007451229 0.02389248 -0.006436555
v -0.007451229 0.03100453 -0.006436555
v -0.007451152 0.03100453 0.05112326
v -0.007451152 0.02389248 0.05112326
v -0.007451229 0.03100453 -0.006436555
v 0.005786152 0.03100454 0.05112326
v -0.007451152 0.03100453 0.05112326
v 0.005786228 0.03100454 -0.006436555
v 0.01479204 0.0307993 -0.01779153
v -0.01645704 0.0307993 -0.01779153
v 0.005786228 0.03100454 -0.006436555
v 0.005786228 0.0238925 -0.006436555
v 0.005786152 0.0238925 0.05112326
v 0.005786152 0.03100454 0.05112326
v 0.005786228 0.0238925 -0.006436555
v -0.007451152 0.02389248 0.05112326
v 0.005786152 0.0238925 0.05112326
v -0.007451229 0.02389248 -0.006436555
v -0.01645704 0.02409779 -0.01779153
v 0.01479204 0.02409779 -0.01779153
v 0.01479204 0.02409779 -0.01779153
v 0.01479204 0.0307993 -0.01779153
v -0.01645704 0.0307993 -0.01779153
v -0.01645704 0.02409779 -0.01779153
v -0.007451229 0.02389248 -0.006436555
v -0.01645704 0.02409779 -0.01779153
v -0.01645704 0.0307993 -0.01779153
v -0.007451229 0.03100453 -0.006436555
v 0.005786228 0.03100454 -0.006436555
v 0.01479204 0.0307993 -0.01779153
v 0.01479204 0.02409779 -0.01779153
v 0.005786228 0.0238925 -0.006436555
v -0.007451229 -0.00301128 0.009049285
v -0.007451305 0.02476521 0.02966696
v -0.007451152 0.02452686 0.04014426
v -0.007451229 0.003820995 0.007698577
v -0.007451152 0.002987331 -0.008392121
v -0.007451229 -0.003844945 -0.007041413
v -0.007451229 0.003820995 0.007698577
v 0.005786247 0.003821014 0.007698577
v 0.005786304 0.02476519 0.02966696
v -0.007451305 0.02476521 0.02966696
v 0.005786247 0.003821014 0.007698577
v 0.005786228 -0.003011261 0.009049285
v 0.005786152 0.02452685 0.04014426
v 0.005786304 0.02476519 0.02966696
v 0.005786228 -0.003011261 0.009049285
v -0.007451229 -0.00301128 0.009049285
v -0.007451152 0.02452686 0.04014426
v 0.005786152 0.02452685 0.04014426
v -0.007451305 0.02476521 0.02966696
v 0.005786304 0.02476519 0.02966696
v 0.005786152 0.02452685 0.04014426
v -0.007451152 0.02452686 0.04014426
v -0.007451229 0.003820995 0.007698577
v -0.007451152 0.002987331 -0.008392121
v 0.005786304 0.00298735 -0.008392121
v 0.005786247 0.003821014 0.007698577
v 0.005786247 0.003821014 0.007698577
v 0.005786304 0.00298735 -0.008392121
v 0.005786228 -0.003844925 -0.007041413
v 0.005786228 -0.003011261 0.009049285
v 0.01583254 0.02627735 0.03955587
v 0.01583254 0.03334416 0.03955587
v 0.02958803 0.033344 0.03161398
v 0.02958803 0.02627735 0.03161398
v 0.02958803 0.02627735 0.03161398
v 0.02958803 0.033344 0.03161398
v 0.03979753 0.033344 0.01944723
v 0.03979753 0.02627735 0.01944723
v 0.03979753 0.02627735 0.01944723
v 0.03979753 0.033344 0.01944723
v 0.04484879 0.033344 0.00556784
v 0.04484879 0.02627735 0.00556784
v -0.04484878 0.02627735 0.004521697
v -0.04484879 0.033344 0.004521697
v -0.03941633 0.033344 0.01944723
v -0.03941633 0.02627735 0.01944723
v -0.03941633 0.02627735 0.01944723
v -0.03941633 0.033344 0.01944723
v -0.02920683 0.033344 0.03161398
v -0.02920683 0.02627735 0.03161398
v -0.02920683 0.02627735 0.03161398
v -0.02920683 0.033344 0.03161398
v -0.01545134 0.03334416 0.03955587
v -0.01545134 0.02627735 0.03955587
v -0.01545134 0.02627735 0.03955587
v -0.01545134 0.03334416 0.03955587
v 0.0001904488 0.03334414 0.04231345
v 0.0001904488 0.02627737 0.04231345
v 0.0001904488 0.02627737 0.04231345
v 0.0001904488 0.03334414 0.04231345
v 0.01583254 0.03334416 0.03955587
v 0.01583254 0.02627735 0.03955587
v 0.01363771 0.02627735 0.0335256
v 0.02546282 0.02627735 0.02669821
v 0.02546282 0.03334416 0.02669821
v 0.01363771 0.03334416 0.0335256
v 0.02546282 0.02627735 0.02669821
v 0.03423982 0.02627735 0.01623801
v 0.03423982 0.033344 0.01623801
v 0.02546282 0.03334416 0.02669821
v 0.03423982 0.02627735 0.01623801
v 0.03890993 0.02627735 0.003407195
v 0.03890993 0.033344 0.003407195
v 0.03423982 0.033344 0.01623801
v -0.03852879 0.02627735 0.003407195
v -0.03385862 0.02627735 0.01623801
v -0.03385862 0.033344 0.01623801
v -0.03852879 0.033344 0.003407195
v -0.03385862 0.02627735 0.01623801
v -0.02508161 0.02627735 0.02669821
v -0.02508161 0.033344 0.02669821
v -0.03385862 0.033344 0.01623801
v -0.02508161 0.02627735 0.02669821
v -0.01325651 0.02627735 0.0335256
v -0.01325651 0.03334416 0.0335256
v -0.02508161 0.033344 0.02669821
v -0.01325651 0.02627735 0.0335256
v 0.0001904488 0.02627737 0.03589621
v 0.0001904488 0.03334414 0.03589621
v -0.01325651 0.03334416 0.0335256
v 0.0001904488 0.02627737 0.03589621
v 0.01363771 0.02627735 0.0335256
v 0.01363771 0.03334416 0.0335256
v 0.0001904488 0.03334414 0.03589621
v 0.03423982 0.02627735 0.01623801
v 0.04484879 0.02627735 0.00556784
v 0.03890993 0.02627735 0.003407195
v 0.03979753 0.02627735 0.01944723
v 0.02546282 0.02627735 0.02669821
v 0.02958803 0.02627735 0.03161398
v 0.01363771 0.02627735 0.0335256
v 0.01583254 0.02627735 0.03955587
v 0.0001904488 0.02627737 0.03589621
v 0.0001904488 0.02627737 0.04231345
v -0.01325651 0.02627735 0.0335256
v -0.01545134 0.02627735 0.03955587
v -0.02508161 0.02627735 0.02669821
v -0.02920683 0.02627735 0.03161398
v -0.03385862 0.02627735 0.01623801
v -0.03941633 0.02627735 0.01944723
v -0.03852879 0.02627735 0.003407195
v -0.04484878 0.02627735 0.004521697
v 0.03890993 0.02627735 0.003407195
v 0.04484879 0.02627735 0.00556784
v 0.04484879 0.033344 0.00556784
v 0.03890993 0.033344 0.003407195
v 0.03890993 0.033344 0.003407195
v 0.04484879 0.033344 0.00556784
v 0.03979753 0.033344 0.01944723
v 0.03423982 0.033344 0.01623801
v 0.02958803 0.033344 0.03161398
v 0.02546282 0.03334416 0.02669821
v 0.01583254 0.03334416 0.03955587
v 0.01363771 0.03334416 0.0335256
v 0.0001904488 0.03334414 0.04231345
v 0.0001904488 0.03334414 0.03589621
v -0.01545134 0.03334416 0.03955587
v -0.01325651 0.03334416 0.0335256
v -0.02920683 0.033344 0.03161398
v -0.02508161 0.033344 0.02669821
v -0.03941633 0.033344 0.01944723
v -0.03385862 0.033344 0.01623801
v -0.04484879 0.033344 0.004521697
v -0.03852879 0.033344 0.003407195
v -0.003304501 0.02855522 -0.0008188789
v -0.003304501 0.03566727 -0.0008188789
v -0.003304424 0.03566727 0.05674216
v -0.003304424 0.02855522 0.05674216
v -0.003304501 0.03566727 -0.0008188789
v 0.001639423 0.03566729 0.05674216
v -0.003304424 0.03566727 0.05674216
v 0.001639423 0.03566729 -0.0008188789
v 0.005002918 0.03546198 -0.01217386
v -0.006667919 0.035462 -0.01217386
v 0.001639423 0.03566729 -0.0008188789
v 0.001639423 0.02855521 -0.0008188789
v 0.001639423 0.02855521 0.05674216
v 0.001639423 0.03566729 0.05674216
v 0.001639423 0.02855521 -0.0008188789
v -0.003304424 0.02855522 0.05674216
v 0.001639423 0.02855521 0.05674216
v -0.003304501 0.02855522 -0.0008188789
v -0.006667919 0.02876049 -0.01217386
v 0.005002918 0.02876051 -0.01217386
v 0.005002918 0.02876051 -0.01217386
v 0.005002918 0.03546198 -0.01217386
v -0.006667919 0.035462 -0.01217386
v -0.006667919 0.02876049 -0.01217386
v -0.003304501 0.02855522 -0.0008188789
v -0.006667919 0.02876049 -0.01217386
v -0.006667919 0.035462 -0.01217386
v -0.003304501 0.03566727 -0.0008188789
v 0.001639423 0.03566729 -0.0008188789
v 0.005002918 0.03546198 -0.01217386
v 0.005002918 0.02876051 -0.01217386
v 0.001639423 0.02855521 -0.0008188789
vt 0.06491973 0.971791
vt 0.04679181 0.988875
vt 0.02873852 0.9717336
vt 0.02873852 0.9717336
vt 0.04679181 0.988875
vt 0.02873852 0.9717336
vt 0.02873852 0.9717336
vt 0.04679181 0.988875
vt 0.06491973 0.971791
vt 0.06491973 0.971791
vt 0.04679181 0.988875
vt 0.06491973 0.971791
vt 0.05410054 0.9295444
vt 0.04771134 0.937323
vt 0.04165246 0.9294974
vt 0.04165246 0.9294974
vt 0.04771134 0.937323
vt 0.04165246 0.9294974
vt 0.04165246 0.9294974
vt 0.04771134 0.937323
vt 0.05410054 0.9295444
vt 0.05410054 0.9295444
vt 0.04771134 0.937323
vt 0.05410054 0.9295444
vt 0.06521251 0.8375297
vt 0.06521251 0.8375297
vt 0.06491973 0.971791
vt 0.06491973 0.971791
vt 0.06521251 0.8375297
vt 0.02873852 0.9717336
vt 0.06491973 0.971791
vt 0.02903142 0.8374722
vt 0.004474066 0.8109474
vt 0.08988514 0.8110831
vt 0.02903142 0.8374722
vt 0.02903142 0.8374722
vt 0.02873852 0.9717336
vt 0.02873852 0.9717336
vt 0.02903142 0.8374722
vt 0.06491973 0.971791
vt 0.02873852 0.9717336
vt 0.06521251 0.8375297
vt 0.08988514 0.8110831
vt 0.004474066 0.8109474
vt 0.004474066 0.8109474
vt 0.004474066 0.8109474
vt 0.08988514 0.8110831
vt 0.08988514 0.8110831
vt 0.06521251 0.8375297
vt 0.08988514 0.8110831
vt 0.08988514 0.8110831
vt 0.06521251 0.8375297
vt 0.02903142 0.8374722
vt 0.004474066 0.8109474
vt 0.004474066 0.8109474
vt 0.02903142 0.8374722
vt 0.066336 0.8797282
vt 0.06625774 0.9495587
vt 0.06621798 0.9850438
vt 0.06634106 0.8751531
vt 0.06640216 0.8206556
vt 0.06639703 0.8252306
vt 0.06634106 0.8751531
vt 0.02150717 0.8751029
vt 0.02142408 0.9495085
vt 0.06625774 0.9495587
vt 0.02150717 0.8751029
vt 0.0215021 0.8796779
vt 0.0213842 0.9849936
vt 0.02142408 0.9495085
vt 0.0215021 0.8796779
vt 0.066336 0.8797282
vt 0.06621798 0.9850438
vt 0.0213842 0.9849936
vt 0.06625774 0.9495587
vt 0.02142408 0.9495085
vt 0.0213842 0.9849936
vt 0.06621798 0.9850438
vt 0.06634106 0.8751531
vt 0.06640216 0.8206556
vt 0.02156826 0.8206053
vt 0.02150717 0.8751029
vt 0.02150717 0.8751029
vt 0.02156826 0.8206053
vt 0.02156325 0.8251803
vt 0.0215021 0.8796779
vt 0.03249975 0.978305
vt 0.03249975 0.978305
vt 0.02254685 0.9416664
vt 0.02254685 0.9416664
vt 0.02254685 0.9416664
vt 0.02254685 0.9416664
vt 0.0151821 0.8857807
vt 0.0151821 0.8857807
vt 0.0151821 0.8857807
vt 0.0151821 0.8857807
vt 0.01156696 0.8221872
vt 0.01156696 0.8221872
vt 0.07665988 0.8194438
vt 0.07665988 0.8194438
vt 0.07266363 0.887588
vt 0.07266363 0.887588
vt 0.07266363 0.887588
vt 0.07266363 0.887588
vt 0.06521126 0.9430078
vt 0.06521126 0.9430078
vt 0.06521126 0.9430078
vt 0.06521126 0.9430078
vt 0.0552009 0.9790187
vt 0.0552009 0.9790187
vt 0.0552009 0.9790187
vt 0.0552009 0.9790187
vt 0.04384025 0.9912772
vt 0.04384025 0.9912772
vt 0.04384025 0.9912772
vt 0.04384025 0.9912772
vt 0.03249975 0.978305
vt 0.03249975 0.978305
vt 0.0341142 0.9507719
vt 0.02555808 0.9192746
vt 0.02555808 0.9192746
vt 0.0341142 0.9507719
vt 0.02555808 0.9192746
vt 0.01922675 0.8712308
vt 0.01922675 0.8712308
vt 0.02555808 0.9192746
vt 0.01922675 0.8712308
vt 0.01588424 0.8124357
vt 0.01588424 0.8124357
vt 0.01922675 0.8712308
vt 0.07207783 0.8142024
vt 0.06864246 0.8727845
vt 0.06864246 0.8727845
vt 0.07207783 0.8142024
vt 0.06864246 0.8727845
vt 0.06223556 0.9204277
vt 0.06223556 0.9204277
vt 0.06864246 0.8727845
vt 0.06223556 0.9204277
vt 0.05362996 0.9513855
vt 0.05362996 0.9513855
vt 0.06223556 0.9204277
vt 0.05362996 0.9513855
vt 0.0438635 0.961924
vt 0.0438635 0.961924
vt 0.05362996 0.9513855
vt 0.0438635 0.961924
vt 0.0341142 0.9507719
vt 0.0341142 0.9507719
vt 0.0438635 0.961924
vt 0.01922675 0.8712308
vt 0.01156696 0.8221872
vt 0.01588424 0.8124357
vt 0.0151821 0.8857807
vt 0.02555808 0.9192746
vt 0.02254685 0.9416664
vt 0.0341142 0.9507719
vt 0.03249975 0.978305
vt 0.0438635 0.961924
vt 0.04384025 0.9912772
vt 0.05362996 0.9513855
vt 0.0552009 0.9790187
vt 0.06223556 0.9204277
vt 0.06521126 0.9430078
vt 0.06864246 0.8727845
vt 0.07266363 0.887588
vt 0.07207783 0.8142024
vt 0.07665988 0.8194438
vt 0.01588424 0.8124357
vt 0.01156696 0.8221872
vt 0.01156696 0.8221872
vt 0.01588424 0.8124357
vt 0.01588424 0.8124357
vt 0.01156696 0.8221872
vt 0.0151821 0.8857807
vt 0.01922675 0.8712308
vt 0.02254685 0.9416664
vt 0.02555808 0.9192746
vt 0.03249975 0.978305
vt 0.0341142 0.9507719
vt 0.04384025 0.9912772
vt 0.0438635 0.961924
vt 0.0552009 0.9790187
vt 0.05362996 0.9513855
vt 0.06521126 0.9430078
vt 0.06223556 0.9204277
vt 0.07266363 0.887588
vt 0.06864246 0.8727845
vt 0.07665988 0.8194438
vt 0.07207783 0.8142024
vt 0.05539616 0.8683313
vt 0.05539616 0.8683313
vt 0.05410054 0.9295444
vt 0.05410054 0.9295444
vt 0.05539616 0.8683313
vt 0.04165246 0.9294974
vt 0.05410054 0.9295444
vt 0.04294803 0.8682843
vt 0.03473487 0.856177
vt 0.06412055 0.8562878
vt 0.04294803 0.8682843
vt 0.04294803 0.8682843
vt 0.04165246 0.9294974
vt 0.04165246 0.9294974
vt 0.04294803 0.8682843
vt 0.05410054 0.9295444
vt 0.04165246 0.9294974
vt 0.05539616 0.8683313
vt 0.06412055 0.8562878
vt 0.03473487 0.856177
vt 0.03473487 0.856177
vt 0.03473487 0.856177
vt 0.06412055 0.8562878
vt 0.06412055 0.8562878
vt 0.05539616 0.8683313
vt 0.06412055 0.8562878
vt 0.06412055 0.8562878
vt 0.05539616 0.8683313
vt 0.04294803 0.8682843
vt 0.03473487 0.856177
vt 0.03473487 0.856177
vt 0.04294803 0.8682843
vn 1.46607E-07 -0.8998672 0.436164
vn 1.46607E-07 -0.8998672 0.436164
vn 1.46607E-07 -0.8998672 0.436164
vn 0.7424986 1.209684E-07 0.6698475
vn 0.7424986 1.209684E-07 0.6698475
vn 0.7424986 1.209684E-07 0.6698475
vn -1.466069E-07 0.8998666 0.4361651
vn -1.466069E-07 0.8998666 0.4361651
vn -1.466069E-07 0.8998666 0.4361651
vn -0.7424985 -1.209684E-07 0.6698476
vn -0.7424985 -1.209684E-07 0.6698476
vn -0.7424985 -1.209684E-07 0.6698476
vn 1.46607E-07 -0.8998675 0.4361634
vn 1.46607E-07 -0.8998675 0.4361634
vn 1.46607E-07 -0.8998675 0.4361634
vn 0.9476544 1.543925E-07 0.3192979
vn 0.9476544 1.543925E-07 0.3192979
vn 0.9476544 1.543925E-07 0.3192979
vn -1.46607E-07 0.8998675 0.4361634
vn -1.46607E-07 0.8998675 0.4361634
vn -1.46607E-07 0.8998675 0.4361634
vn -0.9476544 -1.543925E-07 0.319298
vn -0.9476544 -1.543925E-07 0.319298
vn -0.9476544 -1.543925E-07 0.319298
vn -1 -1.629207E-07 0
vn -1 -1.629207E-07 0
vn -1 -1.629207E-07 0
vn -1 -1.629207E-07 0
vn -1.629207E-07 1 0
vn -1.629207E-07 1 0
vn -1.629207E-07 1 0
vn -1.629207E-07 1 0
vn -1.62894E-07 0.9998366 -0.01807598
vn -1.62894E-07 0.9998366 -0.01807598
vn 1 1.629207E-07 0
vn 1 1.629207E-07 0
vn 1 1.629207E-07 0
vn 1 1.629207E-07 0
vn 1.629207E-07 -1 0
vn 1.629207E-07 -1 0
vn 1.629207E-07 -1 0
vn 1.629207E-07 -1 0
vn 1.62894E-07 -0.9998366 -0.01807598
vn 1.62894E-07 -0.9998366 -0.01807598
vn 0 0 -1
vn 0 0 -1
vn 0 0 -1
vn 0 0 -1
vn -0.7834925 -1.276471E-07 0.6214013
vn -0.7834925 -1.276471E-07 0.6214013
vn -0.7834925 -1.276471E-07 0.6214013
vn -0.7834925 -1.276471E-07 0.6214013
vn 0.7834925 1.276471E-07 0.6214013
vn 0.7834925 1.276471E-07 0.6214013
vn 0.7834925 1.276471E-07 0.6214013
vn 0.7834925 1.276471E-07 0.6214013
vn -1 -1.629207E-07 0
vn -1 -1.629207E-07 0
vn -1 -1.629207E-07 0
vn -1 -1.629207E-07 0
vn -1 -1.629207E-07 0
vn -1 -1.629207E-07 0
vn -1.179192E-07 0.7237831 -0.6900276
vn -1.179192E-07 0.7237831 -0.6900276
vn -1.179192E-07 0.7237831 -0.6900276
vn -1.179192E-07 0.7237831 -0.6900276
vn 1 1.629207E-07 0
vn 1 1.629207E-07 0
vn 1 1.629207E-07 0
vn 1 1.629207E-07 0
vn 1.219669E-07 -0.7486274 0.662991
vn 1.219669E-07 -0.7486274 0.662991
vn 1.219669E-07 -0.7486274 0.662991
vn 1.219669E-07 -0.7486274 0.662991
vn -1.628785E-07 0.9997414 0.02274375
vn -1.628785E-07 0.9997414 0.02274375
vn -1.628785E-07 0.9997414 0.02274375
vn -1.628785E-07 0.9997414 0.02274375
vn -1.627024E-07 0.9986606 -0.05174075
vn -1.627024E-07 0.9986606 -0.05174075
vn -1.627024E-07 0.9986606 -0.05174075
vn -1.627024E-07 0.9986606 -0.05174075
vn 1 1.629207E-07 0
vn 1 1.629207E-07 0
vn 1 1.629207E-07 0
vn 1 1.629207E-07 0
vn 0.5000008 0 0.866025
vn 0.5000008 0 0.866025
vn 0.5000008 0 0.866025
vn 0.5000008 0 0.866025
vn 0.7660438 1.248044E-07 0.6427883
vn 0.7660438 1.248044E-07 0.6427883
vn 0.7660438 1.248044E-07 0.6427883
vn 0.7660438 1.248044E-07 0.6427883
vn 0.939692 1.530953E-07 0.3420218
vn 0.939692 1.530953E-07 0.3420218
vn 0.939692 1.530953E-07 0.3420218
vn 0.939692 1.530953E-07 0.3420218
vn -0.939692 -1.530953E-07 0.3420219
vn -0.939692 -1.530953E-07 0.3420219
vn -0.939692 -1.530953E-07 0.3420219
vn -0.939692 -1.530953E-07 0.3420219
vn -0.7660452 -1.248046E-07 0.6427867
vn -0.7660452 -1.248046E-07 0.6427867
vn -0.7660452 -1.248046E-07 0.6427867
vn -0.7660452 -1.248046E-07 0.6427867
vn -0.4999986 0 0.8660262
vn -0.4999986 0 0.8660262
vn -0.4999986 0 0.8660262
vn -0.4999986 0 0.8660262
vn -0.1736493 0 0.9848075
vn -0.1736493 0 0.9848075
vn -0.1736493 0 0.9848075
vn -0.1736493 0 0.9848075
vn 0.1736482 0 0.9848077
vn 0.1736482 0 0.9848077
vn 0.1736482 0 0.9848077
vn 0.1736482 0 0.9848077
vn -0.5000002 0 -0.8660253
vn -0.5000002 0 -0.8660253
vn -0.5000002 0 -0.8660253
vn -0.5000002 0 -0.8660253
vn -0.7660443 -1.248045E-07 -0.6427878
vn -0.7660443 -1.248045E-07 -0.6427878
vn -0.7660443 -1.248045E-07 -0.6427878
vn -0.7660443 -1.248045E-07 -0.6427878
vn -0.9396922 -1.530953E-07 -0.3420213
vn -0.9396922 -1.530953E-07 -0.3420213
vn -0.9396922 -1.530953E-07 -0.3420213
vn -0.9396922 -1.530953E-07 -0.3420213
vn 0.939692 1.530953E-07 -0.3420219
vn 0.939692 1.530953E-07 -0.3420219
vn 0.939692 1.530953E-07 -0.3420219
vn 0.939692 1.530953E-07 -0.3420219
vn 0.7660441 1.248044E-07 -0.6427881
vn 0.7660441 1.248044E-07 -0.6427881
vn 0.7660441 1.248044E-07 -0.6427881
vn 0.7660441 1.248044E-07 -0.6427881
vn 0.5000015 -2.9684E-07 -0.8660246
vn 0.5000015 -2.9684E-07 -0.8660246
vn 0.5000015 -2.9684E-07 -0.8660246
vn 0.5000015 -2.9684E-07 -0.8660246
vn 0.173648 0 -0.9848077
vn 0.173648 0 -0.9848077
vn 0.173648 0 -0.9848077
vn 0.173648 0 -0.9848077
vn -0.1736481 0 -0.9848077
vn -0.1736481 0 -0.9848077
vn -0.1736481 0 -0.9848077
vn -0.1736481 0 -0.9848077
vn 7.926023E-07 -1 0
vn 1.629207E-07 -1 0
vn 1.629207E-07 -1 0
vn 7.926013E-07 -1 0
vn 7.926017E-07 -1 0
vn 7.92602E-07 -1 0
vn 4.777604E-07 -1 0
vn 4.777613E-07 -1 0
vn 6.35181E-07 -1 0
vn 6.35181E-07 -1 0
vn 3.203405E-07 -1 0
vn 3.203415E-07 -1 0
vn 1.629207E-07 -1 0
vn 1.629207E-07 -1 0
vn 1.629207E-07 -1 0
vn 1.629207E-07 -1 0
vn 1.629207E-07 -1 0
vn 1.629207E-07 -1 0
vn 0.3420224 0 -0.9396918
vn 0.3420224 0 -0.9396918
vn 0.3420224 0 -0.9396918
vn 0.3420224 0 -0.9396918
vn -1.629207E-07 1 0
vn -1.629207E-07 1 0
vn -1.629207E-07 1 0
vn -1.629207E-07 1 0
vn -1.629207E-07 1 0
vn -1.629207E-07 1 0
vn -3.20341E-07 1 0
vn -3.203405E-07 1 0
vn -6.351813E-07 1 0
vn -6.351815E-07 1 0
vn -4.777621E-07 1 0
vn -4.777609E-07 1 0
vn -1.629207E-07 1 0
vn -1.629207E-07 1 0
vn -1.42228E-06 1 0
vn -1.42228E-06 1 0
vn -2.681641E-06 1 0
vn -2.681641E-06 1 0
vn -1 -1.629207E-07 0
vn -1 -1.629207E-07 0
vn -1 -1.629207E-07 0
vn -1 -1.629207E-07 0
vn -1.629207E-07 1 0
vn -1.629207E-07 1 0
vn -1.629207E-07 1 0
vn -1.629207E-07 1 0
vn -1.628941E-07 0.9998366 -0.01807598
vn -1.628941E-07 0.9998366 -0.01807598
vn 1 1.629207E-07 0
vn 1 1.629207E-07 0
vn 1 1.629207E-07 0
vn 1 1.629207E-07 0
vn 1.629207E-07 -1 0
vn 1.629207E-07 -1 0
vn 1.629207E-07 -1 0
vn 1.629207E-07 -1 0
vn 1.628941E-07 -0.9998366 -0.01807598
vn 1.628941E-07 -0.9998366 -0.01807598
vn 0 0 -1
vn 0 0 -1
vn 0 0 -1
vn 0 0 -1
vn -0.9588199 -1.562116E-07 0.2840149
vn -0.9588199 -1.562116E-07 0.2840149
vn -0.9588199 -1.562116E-07 0.2840149
vn -0.9588199 -1.562116E-07 0.2840149
vn 0.9588199 1.562116E-07 0.2840149
vn 0.9588199 1.562116E-07 0.2840149
vn 0.9588199 1.562116E-07 0.2840149
vn 0.9588199 1.562116E-07 0.2840149
g arrow_lv2_0
f 3/3/3 2/2/2 1/1/1
f 6/6/6 5/5/5 4/4/4
f 9/9/9 8/8/8 7/7/7
f 12/12/12 11/11/11 10/10/10
f 15/15/15 14/14/14 13/13/13
f 18/18/18 17/17/17 16/16/16
f 21/21/21 20/20/20 19/19/19
f 24/24/24 23/23/23 22/22/22
f 27/27/27 26/26/26 25/25/25
f 28/28/28 27/27/27 25/25/25
f 31/31/31 30/30/30 29/29/29
f 30/30/30 32/32/32 29/29/29
f 32/32/32 33/33/33 29/29/29
f 33/33/33 34/34/34 29/29/29
f 37/37/37 36/36/36 35/35/35
f 38/38/38 37/37/37 35/35/35
f 41/41/41 40/40/40 39/39/39
f 40/40/40 42/42/42 39/39/39
f 42/42/42 43/43/43 39/39/39
f 43/43/43 44/44/44 39/39/39
f 47/47/47 46/46/46 45/45/45
f 48/48/48 47/47/47 45/45/45
f 51/51/51 50/50/50 49/49/49
f 52/52/52 51/51/51 49/49/49
f 55/55/55 54/54/54 53/53/53
f 56/56/56 55/55/55 53/53/53
f 59/59/59 58/58/58 57/57/57
f 58/58/58 60/60/60 57/57/57
f 60/60/60 61/61/61 57/57/57
f 61/61/61 62/62/62 57/57/57
f 65/65/65 64/64/64 63/63/63
f 66/66/66 65/65/65 63/63/63
f 69/69/69 68/68/68 67/67/67
f 70/70/70 69/69/69 67/67/67
f 73/73/73 72/72/72 71/71/71
f 74/74/74 73/73/73 71/71/71
f 77/77/77 76/76/76 75/75/75
f 78/78/78 77/77/77 75/75/75
f 81/81/81 80/80/80 79/79/79
f 82/82/82 81/81/81 79/79/79
f 85/85/85 84/84/84 83/83/83
f 86/86/86 85/85/85 83/83/83
f 89/89/89 88/88/88 87/87/87
f 90/90/90 89/89/89 87/87/87
f 93/93/93 92/92/92 91/91/91
f 94/94/94 93/93/93 91/91/91
f 97/97/97 96/96/96 95/95/95
f 98/98/98 97/97/97 95/95/95
f 101/101/101 100/100/100 99/99/99
f 102/102/102 101/101/101 99/99/99
f 105/105/105 104/104/104 103/103/103
f 106/106/106 105/105/105 103/103/103
f 109/109/109 108/108/108 107/107/107
f 110/110/110 109/109/109 107/107/107
f 113/113/113 112/112/112 111/111/111
f 114/114/114 113/113/113 111/111/111
f 117/117/117 116/116/116 115/115/115
f 118/118/118 117/117/117 115/115/115
f 121/121/121 120/120/120 119/119/119
f 122/122/122 121/121/121 119/119/119
f 125/125/125 124/124/124 123/123/123
f 126/126/126 125/125/125 123/123/123
f 129/129/129 128/128/128 127/127/127
f 130/130/130 129/129/129 127/127/127
f 133/133/133 132/132/132 131/131/131
f 134/134/134 133/133/133 131/131/131
f 137/137/137 136/136/136 135/135/135
f 138/138/138 137/137/137 135/135/135
f 141/141/141 140/140/140 139/139/139
f 142/142/142 141/141/141 139/139/139
f 145/145/145 144/144/144 143/143/143
f 146/146/146 145/145/145 143/143/143
f 149/149/149 148/148/148 147/147/147
f 150/150/150 149/149/149 147/147/147
f 153/153/153 152/152/152 151/151/151
f 152/152/152 154/154/154 151/151/151
f 151/151/151 154/154/154 155/155/155
f 154/154/154 156/156/156 155/155/155
f 155/155/155 156/156/156 157/157/157
f 156/156/156 158/158/158 157/157/157
f 157/157/157 158/158/158 159/159/159
f 158/158/158 160/160/160 159/159/159
f 159/159/159 160/160/160 161/161/161
f 160/160/160 162/162/162 161/161/161
f 161/161/161 162/162/162 163/163/163
f 162/162/162 164/164/164 163/163/163
f 163/163/163 164/164/164 165/165/165
f 164/164/164 166/166/166 165/165/165
f 165/165/165 166/166/166 167/167/167
f 166/166/166 168/168/168 167/167/167
f 171/171/171 170/170/170 169/169/169
f 172/172/172 171/171/171 169/169/169
f 175/175/175 174/174/174 173/173/173
f 176/176/176 175/175/175 173/173/173
f 177/177/177 175/175/175 176/176/176
f 178/178/178 177/177/177 176/176/176
f 179/179/179 177/177/177 178/178/178
f 180/180/180 179/179/179 178/178/178
f 181/181/181 179/179/179 180/180/180
f 182/182/182 181/181/181 180/180/180
f 183/183/183 181/181/181 182/182/182
f 184/184/184 183/183/183 182/182/182
f 185/185/185 183/183/183 184/184/184
f 186/186/186 185/185/185 184/184/184
f 187/187/187 185/185/185 186/186/186
f 188/188/188 187/187/187 186/186/186
f 189/189/189 187/187/187 188/188/188
f 190/190/190 189/189/189 188/188/188
f 193/193/193 192/192/192 191/191/191
f 194/194/194 193/193/193 191/191/191
f 197/197/197 196/196/196 195/195/195
f 196/196/196 198/198/198 195/195/195
f 198/198/198 199/199/199 195/195/195
f 199/199/199 200/200/200 195/195/195
f 203/203/203 202/202/202 201/201/201
f 204/204/204 203/203/203 201/201/201
f 207/207/207 206/206/206 205/205/205
f 206/206/206 208/208/208 205/205/205
f 208/208/208 209/209/209 205/205/205
f 209/209/209 210/210/210 205/205/205
f 213/213/213 212/212/212 211/211/211
f 214/214/214 213/213/213 211/211/211
f 217/217/217 216/216/216 215/215/215
f 218/218/218 217/217/217 215/215/215
f 221/221/221 220/220/220 219/219/219
f 222/222/222 221/221/221 219/219/219
