g arrow_lv1
v -0.007451152 0.01911262 0.05150009
v -0.0008325005 0.02195713 0.05883651
v 0.005786152 0.01911261 0.05150009
v 0.005786152 0.01911261 0.05150009
v -0.0008325005 0.02195713 0.05883651
v 0.005786152 0.02480165 0.05150009
v 0.005786152 0.02480165 0.05150009
v -0.0008325005 0.02195713 0.05883651
v -0.007451152 0.02480164 0.05150009
v -0.007451152 0.02480164 0.05150009
v -0.0008325005 0.02195713 0.05883651
v -0.007451152 0.01911262 0.05150009
v -0.003304424 0.02284241 0.05711776
v -0.0008325005 0.02568695 0.06445419
v 0.001639423 0.02284241 0.05711776
v 0.001639423 0.02284241 0.05711776
v -0.0008325005 0.02568695 0.06445419
v 0.001639423 0.02853147 0.05711776
v 0.001639423 0.02853147 0.05711776
v -0.0008325005 0.02568695 0.06445419
v -0.003304424 0.02853145 0.05711776
v -0.003304424 0.02853145 0.05711776
v -0.0008325005 0.02568695 0.06445419
v -0.003304424 0.02284241 0.05711776
v -0.007451229 0.01911262 -0.00606095
v -0.007451229 0.02480164 -0.00606095
v -0.007451152 0.02480164 0.05150009
v -0.007451152 0.01911262 0.05150009
v -0.007451229 0.02480164 -0.00606095
v 0.005786152 0.02480165 0.05150009
v -0.007451152 0.02480164 0.05150009
v 0.005786228 0.02480165 -0.00606095
v 0.01479204 0.02463753 -0.01741593
v -0.01645704 0.02463753 -0.01741593
v 0.005786228 0.02480165 -0.00606095
v 0.005786228 0.01911261 -0.00606095
v 0.005786152 0.01911261 0.05150009
v 0.005786152 0.02480165 0.05150009
v 0.005786228 0.01911261 -0.00606095
v -0.007451152 0.01911262 0.05150009
v 0.005786152 0.01911261 0.05150009
v -0.007451229 0.01911262 -0.00606095
v -0.01645704 0.01927681 -0.01741593
v 0.01479204 0.01927681 -0.01741593
v 0.01479204 0.01927681 -0.01741593
v 0.01479204 0.02463753 -0.01741593
v -0.01645704 0.02463753 -0.01741593
v -0.01645704 0.01927681 -0.01741593
v -0.007451229 0.01911262 -0.00606095
v -0.01645704 0.01927681 -0.01741593
v -0.01645704 0.02463753 -0.01741593
v -0.007451229 0.02480164 -0.00606095
v 0.005786228 0.02480165 -0.00606095
v 0.01479204 0.02463753 -0.01741593
v 0.01479204 0.01927681 -0.01741593
v 0.005786228 0.01911261 -0.00606095
v -0.007451229 -0.002408219 0.009424889
v -0.007451305 0.01981071 0.03004256
v -0.007451152 0.01962006 0.04051986
v -0.007451229 0.003057098 0.008074181
v -0.007451305 0.002390213 -0.008016516
v -0.007451229 -0.003075028 -0.006665809
v -0.007451229 0.003057098 0.008074181
v 0.005786228 0.003057079 0.008074181
v 0.005786304 0.0198107 0.03004256
v -0.007451305 0.01981071 0.03004256
v 0.005786228 0.003057079 0.008074181
v 0.005786228 -0.002408199 0.009424889
v 0.005786152 0.01962004 0.04051986
v 0.005786304 0.0198107 0.03004256
v 0.005786228 -0.002408199 0.009424889
v -0.007451229 -0.002408219 0.009424889
v -0.007451152 0.01962006 0.04051986
v 0.005786152 0.01962004 0.04051986
v -0.007451305 0.01981071 0.03004256
v 0.005786304 0.0198107 0.03004256
v 0.005786152 0.01962004 0.04051986
v -0.007451152 0.01962006 0.04051986
v -0.007451229 0.003057098 0.008074181
v -0.007451305 0.002390213 -0.008016516
v 0.005786304 0.002390232 -0.008016516
v 0.005786228 0.003057079 0.008074181
v 0.005786228 0.003057079 0.008074181
v 0.005786304 0.002390232 -0.008016516
v 0.005786228 -0.003075047 -0.006665809
v 0.005786228 -0.002408199 0.009424889
v 0.01583254 0.02102028 0.03993148
v 0.01583254 0.0266732 0.03993148
v 0.02958803 0.02667305 0.03198959
v 0.02958803 0.02102028 0.03198959
v 0.02958803 0.02102028 0.03198959
v 0.02958803 0.02667305 0.03198959
v 0.03979753 0.02667305 0.01982284
v 0.03979753 0.02102028 0.01982284
v 0.03979753 0.02102028 0.01982284
v 0.03979753 0.02667305 0.01982284
v 0.04484879 0.02667305 0.005944665
v 0.04484879 0.02102028 0.005944665
v -0.04484879 0.02102028 0.004897302
v -0.04484879 0.02667305 0.004897302
v -0.03941633 0.02667305 0.01982284
v -0.03941633 0.02102028 0.01982284
v -0.03941633 0.02102028 0.01982284
v -0.03941633 0.02667305 0.01982284
v -0.02920683 0.02667305 0.03198959
v -0.02920683 0.02102028 0.03198959
v -0.02920683 0.02102028 0.03198959
v -0.02920683 0.02667305 0.03198959
v -0.01545134 0.0266732 0.03993148
v -0.01545134 0.02102028 0.03993148
v -0.01545134 0.02102028 0.03993148
v -0.01545134 0.0266732 0.03993148
v 0.0001904488 0.02667315 0.04268905
v 0.0001904488 0.02102032 0.04268905
v 0.0001904488 0.02102032 0.04268905
v 0.0001904488 0.02667315 0.04268905
v 0.01583254 0.0266732 0.03993148
v 0.01583254 0.02102028 0.03993148
v 0.01363771 0.02102035 0.03390121
v 0.02546282 0.02102028 0.02707381
v 0.02546282 0.0266732 0.02707381
v 0.01363771 0.02667313 0.03390121
v 0.02546282 0.02102028 0.02707381
v 0.03423982 0.02102028 0.01661361
v 0.03423982 0.02667305 0.01661361
v 0.02546282 0.0266732 0.02707381
v 0.03423982 0.02102028 0.01661361
v 0.03890993 0.02102028 0.0037828
v 0.03890993 0.02667305 0.0037828
v 0.03423982 0.02667305 0.01661361
v -0.03852879 0.02102028 0.0037828
v -0.03385862 0.02102028 0.01661361
v -0.03385862 0.02667305 0.01661361
v -0.03852879 0.02667305 0.0037828
v -0.03385862 0.02102028 0.01661361
v -0.02508161 0.02102028 0.02707381
v -0.02508161 0.02667305 0.02707381
v -0.03385862 0.02667305 0.01661361
v -0.02508161 0.02102028 0.02707381
v -0.01325651 0.02102028 0.03390121
v -0.01325651 0.0266732 0.03390121
v -0.02508161 0.02667305 0.02707381
v -0.01325651 0.02102028 0.03390121
v 0.0001904488 0.02102032 0.03627181
v 0.0001904488 0.02667315 0.03627181
v -0.01325651 0.0266732 0.03390121
v 0.0001904488 0.02102032 0.03627181
v 0.01363771 0.02102035 0.03390121
v 0.01363771 0.02667313 0.03390121
v 0.0001904488 0.02667315 0.03627181
v 0.03423982 0.02102028 0.01661361
v 0.04484879 0.02102028 0.005944665
v 0.03890993 0.02102028 0.0037828
v 0.03979753 0.02102028 0.01982284
v 0.02546282 0.02102028 0.02707381
v 0.02958803 0.02102028 0.03198959
v 0.01363771 0.02102035 0.03390121
v 0.01583254 0.02102028 0.03993148
v 0.0001904488 0.02102032 0.03627181
v 0.0001904488 0.02102032 0.04268905
v -0.01325651 0.02102028 0.03390121
v -0.01545134 0.02102028 0.03993148
v -0.02508161 0.02102028 0.02707381
v -0.02920683 0.02102028 0.03198959
v -0.03385862 0.02102028 0.01661361
v -0.03941633 0.02102028 0.01982284
v -0.03852879 0.02102028 0.0037828
v -0.04484879 0.02102028 0.004897302
v 0.03890993 0.02102028 0.0037828
v 0.04484879 0.02102028 0.005944665
v 0.04484879 0.02667305 0.005944665
v 0.03890993 0.02667305 0.0037828
v 0.03890993 0.02667305 0.0037828
v 0.04484879 0.02667305 0.005944665
v 0.03979753 0.02667305 0.01982284
v 0.03423982 0.02667305 0.01661361
v 0.02958803 0.02667305 0.03198959
v 0.02546282 0.0266732 0.02707381
v 0.01583254 0.0266732 0.03993148
v 0.01363771 0.02667313 0.03390121
v 0.0001904488 0.02667315 0.04268905
v 0.0001904488 0.02667315 0.03627181
v -0.01545134 0.0266732 0.03993148
v -0.01325651 0.0266732 0.03390121
v -0.02920683 0.02667305 0.03198959
v -0.02508161 0.02667305 0.02707381
v -0.03941633 0.02667305 0.01982284
v -0.03385862 0.02667305 0.01661361
v -0.04484879 0.02667305 0.004897302
v -0.03852879 0.02667305 0.0037828
v -0.003304501 0.02284241 -0.0004432742
v -0.003304501 0.02853145 -0.0004432742
v -0.003304424 0.02853145 0.05711776
v -0.003304424 0.02284241 0.05711776
v -0.003304501 0.02853145 -0.0004432742
v 0.001639423 0.02853147 0.05711776
v -0.003304424 0.02853145 0.05711776
v 0.001639423 0.02853147 -0.0004432742
v 0.005002918 0.02836725 -0.01179825
v -0.006667919 0.02836723 -0.01179825
v 0.001639423 0.02853147 -0.0004432742
v 0.001639423 0.02284241 -0.0004432742
v 0.001639423 0.02284241 0.05711776
v 0.001639423 0.02853147 0.05711776
v 0.001639423 0.02284241 -0.0004432742
v -0.003304424 0.02284241 0.05711776
v 0.001639423 0.02284241 0.05711776
v -0.003304501 0.02284241 -0.0004432742
v -0.006667919 0.02300659 -0.01179825
v 0.005002918 0.02300661 -0.01179825
v 0.005002918 0.02300661 -0.01179825
v 0.005002918 0.02836725 -0.01179825
v -0.006667919 0.02836723 -0.01179825
v -0.006667919 0.02300659 -0.01179825
v -0.003304501 0.02284241 -0.0004432742
v -0.006667919 0.02300659 -0.01179825
v -0.006667919 0.02836723 -0.01179825
v -0.003304501 0.02853145 -0.0004432742
v 0.001639423 0.02853147 -0.0004432742
v 0.005002918 0.02836725 -0.01179825
v 0.005002918 0.02300661 -0.01179825
v 0.001639423 0.02284241 -0.0004432742
vt 0.0703849 0.975118
vt 0.05225698 0.992202
vt 0.03420369 0.9750605
vt 0.03420369 0.9750605
vt 0.05225698 0.992202
vt 0.03420369 0.9750605
vt 0.03420369 0.9750605
vt 0.05225698 0.992202
vt 0.0703849 0.975118
vt 0.0703849 0.975118
vt 0.05225698 0.992202
vt 0.0703849 0.975118
vt 0.0595657 0.9328714
vt 0.0531765 0.9406499
vt 0.04711763 0.9328244
vt 0.04711763 0.9328244
vt 0.0531765 0.9406499
vt 0.04711763 0.9328244
vt 0.04711763 0.9328244
vt 0.0531765 0.9406499
vt 0.0595657 0.9328714
vt 0.0595657 0.9328714
vt 0.0531765 0.9406499
vt 0.0595657 0.9328714
vt 0.07067768 0.8408567
vt 0.07067768 0.8408567
vt 0.0703849 0.975118
vt 0.0703849 0.975118
vt 0.07067768 0.8408567
vt 0.03420369 0.9750605
vt 0.0703849 0.975118
vt 0.03449658 0.8407992
vt 0.009939231 0.8142744
vt 0.0953503 0.8144101
vt 0.03449658 0.8407992
vt 0.03449658 0.8407992
vt 0.03420369 0.9750605
vt 0.03420369 0.9750605
vt 0.03449658 0.8407992
vt 0.0703849 0.975118
vt 0.03420369 0.9750605
vt 0.07067768 0.8408567
vt 0.0953503 0.8144101
vt 0.009939231 0.8142744
vt 0.009939231 0.8142744
vt 0.009939231 0.8142744
vt 0.0953503 0.8144101
vt 0.0953503 0.8144101
vt 0.07067768 0.8408567
vt 0.0953503 0.8144101
vt 0.0953503 0.8144101
vt 0.07067768 0.8408567
vt 0.03449658 0.8407992
vt 0.009939231 0.8142744
vt 0.009939231 0.8142744
vt 0.03449658 0.8407992
vt 0.07180116 0.8830552
vt 0.0717229 0.9528857
vt 0.07168315 0.9883707
vt 0.07180623 0.8784801
vt 0.07186732 0.8239825
vt 0.0718622 0.8285576
vt 0.07180623 0.8784801
vt 0.02697233 0.8784298
vt 0.02688924 0.9528355
vt 0.0717229 0.9528857
vt 0.02697233 0.8784298
vt 0.02696726 0.8830049
vt 0.02684937 0.9883206
vt 0.02688924 0.9528355
vt 0.02696726 0.8830049
vt 0.07180116 0.8830552
vt 0.07168315 0.9883707
vt 0.02684937 0.9883206
vt 0.0717229 0.9528857
vt 0.02688924 0.9528355
vt 0.02684937 0.9883206
vt 0.07168315 0.9883707
vt 0.07180623 0.8784801
vt 0.07186732 0.8239825
vt 0.02703343 0.8239322
vt 0.02697233 0.8784298
vt 0.02697233 0.8784298
vt 0.02703343 0.8239322
vt 0.02702842 0.8285073
vt 0.02696726 0.8830049
vt 0.03796492 0.9816319
vt 0.03796492 0.9816319
vt 0.02801201 0.9449933
vt 0.02801201 0.9449933
vt 0.02801201 0.9449933
vt 0.02801201 0.9449933
vt 0.02064727 0.8891077
vt 0.02064727 0.8891077
vt 0.02064727 0.8891077
vt 0.02064727 0.8891077
vt 0.01703212 0.8255141
vt 0.01703212 0.8255141
vt 0.08212505 0.8227708
vt 0.08212505 0.8227708
vt 0.07812879 0.890915
vt 0.07812879 0.890915
vt 0.07812879 0.890915
vt 0.07812879 0.890915
vt 0.07067642 0.9463348
vt 0.07067642 0.9463348
vt 0.07067642 0.9463348
vt 0.07067642 0.9463348
vt 0.06066606 0.9823456
vt 0.06066606 0.9823456
vt 0.06066606 0.9823456
vt 0.06066606 0.9823456
vt 0.04930542 0.9946042
vt 0.04930542 0.9946042
vt 0.04930542 0.9946042
vt 0.04930542 0.9946042
vt 0.03796492 0.9816319
vt 0.03796492 0.9816319
vt 0.03957937 0.9540989
vt 0.03102324 0.9226015
vt 0.03102324 0.9226015
vt 0.03957937 0.9540989
vt 0.03102324 0.9226015
vt 0.02469192 0.8745578
vt 0.02469192 0.8745578
vt 0.03102324 0.9226015
vt 0.02469192 0.8745578
vt 0.02134941 0.8157627
vt 0.02134941 0.8157627
vt 0.02469192 0.8745578
vt 0.077543 0.8175294
vt 0.07410762 0.8761115
vt 0.07410762 0.8761115
vt 0.077543 0.8175294
vt 0.07410762 0.8761115
vt 0.06770072 0.9237546
vt 0.06770072 0.9237546
vt 0.07410762 0.8761115
vt 0.06770072 0.9237546
vt 0.05909512 0.9547125
vt 0.05909512 0.9547125
vt 0.06770072 0.9237546
vt 0.05909512 0.9547125
vt 0.04932866 0.9652509
vt 0.04932866 0.9652509
vt 0.05909512 0.9547125
vt 0.04932866 0.9652509
vt 0.03957937 0.9540989
vt 0.03957937 0.9540989
vt 0.04932866 0.9652509
vt 0.02469192 0.8745578
vt 0.01703212 0.8255141
vt 0.02134941 0.8157627
vt 0.02064727 0.8891077
vt 0.03102324 0.9226015
vt 0.02801201 0.9449933
vt 0.03957937 0.9540989
vt 0.03796492 0.9816319
vt 0.04932866 0.9652509
vt 0.04930542 0.9946042
vt 0.05909512 0.9547125
vt 0.06066606 0.9823456
vt 0.06770072 0.9237546
vt 0.07067642 0.9463348
vt 0.07410762 0.8761115
vt 0.07812879 0.890915
vt 0.077543 0.8175294
vt 0.08212505 0.8227708
vt 0.02134941 0.8157627
vt 0.01703212 0.8255141
vt 0.01703212 0.8255141
vt 0.02134941 0.8157627
vt 0.02134941 0.8157627
vt 0.01703212 0.8255141
vt 0.02064727 0.8891077
vt 0.02469192 0.8745578
vt 0.02801201 0.9449933
vt 0.03102324 0.9226015
vt 0.03796492 0.9816319
vt 0.03957937 0.9540989
vt 0.04930542 0.9946042
vt 0.04932866 0.9652509
vt 0.06066606 0.9823456
vt 0.05909512 0.9547125
vt 0.07067642 0.9463348
vt 0.06770072 0.9237546
vt 0.07812879 0.890915
vt 0.07410762 0.8761115
vt 0.08212505 0.8227708
vt 0.077543 0.8175294
vt 0.06086133 0.8716583
vt 0.06086133 0.8716583
vt 0.0595657 0.9328714
vt 0.0595657 0.9328714
vt 0.06086133 0.8716583
vt 0.04711763 0.9328244
vt 0.0595657 0.9328714
vt 0.04841319 0.8716113
vt 0.04020003 0.8595039
vt 0.06958572 0.8596148
vt 0.04841319 0.8716113
vt 0.04841319 0.8716113
vt 0.04711763 0.9328244
vt 0.04711763 0.9328244
vt 0.04841319 0.8716113
vt 0.0595657 0.9328714
vt 0.04711763 0.9328244
vt 0.06086133 0.8716583
vt 0.06958572 0.8596148
vt 0.04020003 0.8595039
vt 0.04020003 0.8595039
vt 0.04020003 0.8595039
vt 0.06958572 0.8596148
vt 0.06958572 0.8596148
vt 0.06086133 0.8716583
vt 0.06958572 0.8596148
vt 0.06958572 0.8596148
vt 0.06086133 0.8716583
vt 0.04841319 0.8716113
vt 0.04020003 0.8595039
vt 0.04020003 0.8595039
vt 0.04841319 0.8716113
vn 1.519028E-07 -0.9323727 0.3614983
vn 1.519028E-07 -0.9323727 0.3614983
vn 1.519028E-07 -0.9323727 0.3614983
vn 0.7424986 1.209684E-07 0.6698475
vn 0.7424986 1.209684E-07 0.6698475
vn 0.7424986 1.209684E-07 0.6698475
vn -1.519028E-07 0.9323723 0.3614994
vn -1.519028E-07 0.9323723 0.3614994
vn -1.519028E-07 0.9323723 0.3614994
vn -0.7424985 -1.209684E-07 0.6698476
vn -0.7424985 -1.209684E-07 0.6698476
vn -0.7424985 -1.209684E-07 0.6698476
vn 1.519029E-07 -0.932373 0.3614979
vn 1.519029E-07 -0.932373 0.3614979
vn 1.519029E-07 -0.932373 0.3614979
vn 0.9476544 1.543925E-07 0.3192979
vn 0.9476544 1.543925E-07 0.3192979
vn 0.9476544 1.543925E-07 0.3192979
vn -1.519029E-07 0.932373 0.3614979
vn -1.519029E-07 0.932373 0.3614979
vn -1.519029E-07 0.932373 0.3614979
vn -0.9476544 -1.543925E-07 0.319298
vn -0.9476544 -1.543925E-07 0.319298
vn -0.9476544 -1.543925E-07 0.319298
vn -1 -1.629207E-07 0
vn -1 -1.629207E-07 0
vn -1 -1.629207E-07 0
vn -1 -1.629207E-07 0
vn -1.629207E-07 1 0
vn -1.629207E-07 1 0
vn -1.629207E-07 1 0
vn -1.629207E-07 1 0
vn -1.629036E-07 0.9998955 -0.01446015
vn -1.629036E-07 0.9998955 -0.01446015
vn 1 1.629207E-07 0
vn 1 1.629207E-07 0
vn 1 1.629207E-07 0
vn 1 1.629207E-07 0
vn 1.629207E-07 -1 0
vn 1.629207E-07 -1 0
vn 1.629207E-07 -1 0
vn 1.629207E-07 -1 0
vn 1.629036E-07 -0.9998955 -0.01446015
vn 1.629036E-07 -0.9998955 -0.01446015
vn 0 0 -1
vn 0 0 -1
vn 0 0 -1
vn 0 0 -1
vn -0.7834925 -1.276471E-07 0.6214013
vn -0.7834925 -1.276471E-07 0.6214013
vn -0.7834925 -1.276471E-07 0.6214013
vn -0.7834925 -1.276471E-07 0.6214013
vn 0.7834925 1.276471E-07 0.6214013
vn 0.7834925 1.276471E-07 0.6214013
vn 0.7834925 1.276471E-07 0.6214013
vn 0.7834925 1.276471E-07 0.6214013
vn -1 -1.629207E-07 0
vn -1 -1.629207E-07 0
vn -1 -1.629207E-07 0
vn -1 -1.629207E-07 0
vn -1 -1.629207E-07 0
vn -1 -1.629207E-07 0
vn -1.295481E-07 0.7951607 -0.6063988
vn -1.295481E-07 0.7951607 -0.6063988
vn -1.295481E-07 0.7951607 -0.6063988
vn -1.295481E-07 0.7951607 -0.6063988
vn 1 1.629207E-07 0
vn 1 1.629207E-07 0
vn 1 1.629207E-07 0
vn 1 1.629207E-07 0
vn 1.329422E-07 -0.8159933 0.5780613
vn 1.329422E-07 -0.8159933 0.5780613
vn 1.329422E-07 -0.8159933 0.5780613
vn 1.329422E-07 -0.8159933 0.5780613
vn -1.628937E-07 0.9998344 0.01819483
vn -1.628937E-07 0.9998344 0.01819483
vn -1.628937E-07 0.9998344 0.01819483
vn -1.628937E-07 0.9998344 0.01819483
vn -1.627809E-07 0.9991423 -0.04140832
vn -1.627809E-07 0.9991423 -0.04140832
vn -1.627809E-07 0.9991423 -0.04140832
vn -1.627809E-07 0.9991423 -0.04140832
vn 1 1.629207E-07 0
vn 1 1.629207E-07 0
vn 1 1.629207E-07 0
vn 1 1.629207E-07 0
vn 0.5000008 0 0.866025
vn 0.5000008 0 0.866025
vn 0.5000008 0 0.866025
vn 0.5000008 0 0.866025
vn 0.7660438 1.248044E-07 0.6427883
vn 0.7660438 1.248044E-07 0.6427883
vn 0.7660438 1.248044E-07 0.6427883
vn 0.7660438 1.248044E-07 0.6427883
vn 0.939692 1.530953E-07 0.3420218
vn 0.939692 1.530953E-07 0.3420218
vn 0.939692 1.530953E-07 0.3420218
vn 0.939692 1.530953E-07 0.3420218
vn -0.939692 -1.530953E-07 0.3420219
vn -0.939692 -1.530953E-07 0.3420219
vn -0.939692 -1.530953E-07 0.3420219
vn -0.939692 -1.530953E-07 0.3420219
vn -0.7660452 -1.248046E-07 0.6427867
vn -0.7660452 -1.248046E-07 0.6427867
vn -0.7660452 -1.248046E-07 0.6427867
vn -0.7660452 -1.248046E-07 0.6427867
vn -0.4999986 0 0.8660262
vn -0.4999986 0 0.8660262
vn -0.4999986 0 0.8660262
vn -0.4999986 0 0.8660262
vn -0.1736493 0 0.9848075
vn -0.1736493 0 0.9848075
vn -0.1736493 0 0.9848075
vn -0.1736493 0 0.9848075
vn 0.1736482 0 0.9848077
vn 0.1736482 0 0.9848077
vn 0.1736482 0 0.9848077
vn 0.1736482 0 0.9848077
vn -0.5000002 0 -0.8660253
vn -0.5000002 0 -0.8660253
vn -0.5000002 0 -0.8660253
vn -0.5000002 0 -0.8660253
vn -0.7660443 -1.248045E-07 -0.6427878
vn -0.7660443 -1.248045E-07 -0.6427878
vn -0.7660443 -1.248045E-07 -0.6427878
vn -0.7660443 -1.248045E-07 -0.6427878
vn -0.9396922 -1.530953E-07 -0.3420213
vn -0.9396922 -1.530953E-07 -0.3420213
vn -0.9396922 -1.530953E-07 -0.3420213
vn -0.9396922 -1.530953E-07 -0.3420213
vn 0.939692 1.530953E-07 -0.3420219
vn 0.939692 1.530953E-07 -0.3420219
vn 0.939692 1.530953E-07 -0.3420219
vn 0.939692 1.530953E-07 -0.3420219
vn 0.7660441 1.248044E-07 -0.6427881
vn 0.7660441 1.248044E-07 -0.6427881
vn 0.7660441 1.248044E-07 -0.6427881
vn 0.7660441 1.248044E-07 -0.6427881
vn 0.5000015 -3.914637E-07 -0.8660246
vn 0.5000015 -3.914637E-07 -0.8660246
vn 0.5000015 -3.914637E-07 -0.8660246
vn 0.5000015 -3.914637E-07 -0.8660246
vn 0.173648 0 -0.9848077
vn 0.173648 0 -0.9848077
vn 0.173648 0 -0.9848077
vn 0.173648 0 -0.9848077
vn -0.1736481 0 -0.9848077
vn -0.1736481 0 -0.9848077
vn -0.1736481 0 -0.9848077
vn -0.1736481 0 -0.9848077
vn 6.666142E-07 -1 0
vn 1.629207E-07 -1 0
vn 1.629207E-07 -1 0
vn 6.666134E-07 -1 0
vn 6.666138E-07 -1 0
vn 6.666139E-07 -1 0
vn 4.147665E-07 -1 0
vn 4.147674E-07 -1 0
vn 5.406902E-07 -1 0
vn 5.406902E-07 -1 0
vn 2.888436E-07 -1 0
vn 2.888444E-07 -1 0
vn 1.629207E-07 -1 0
vn 1.629207E-07 -1 0
vn 1.629207E-07 -1 0
vn 1.629207E-07 -1 0
vn 1.629207E-07 -1 0
vn 1.629207E-07 -1 0
vn 0.3420224 0 -0.9396918
vn 0.3420224 0 -0.9396918
vn 0.3420224 0 -0.9396918
vn 0.3420224 0 -0.9396918
vn -1.629207E-07 1 0
vn -1.629207E-07 1 0
vn -1.629207E-07 1 0
vn -1.629207E-07 1 0
vn -1.629207E-07 1 0
vn -1.629207E-07 1 0
vn -2.88844E-07 1 0
vn -2.888436E-07 1 0
vn -5.406905E-07 1 0
vn -5.406905E-07 1 0
vn -4.147679E-07 1 0
vn -4.14767E-07 1 0
vn -1.629207E-07 1 0
vn -1.629207E-07 1 0
vn -1.170305E-06 1 0
vn -1.170305E-06 1 0
vn -2.17769E-06 1 0
vn -2.17769E-06 1 0
vn -1 -1.629207E-07 0
vn -1 -1.629207E-07 0
vn -1 -1.629207E-07 0
vn -1 -1.629207E-07 0
vn -1.629207E-07 1 0
vn -1.629207E-07 1 0
vn -1.629207E-07 1 0
vn -1.629207E-07 1 0
vn -1.629036E-07 0.9998955 -0.01446015
vn -1.629036E-07 0.9998955 -0.01446015
vn 1 1.629207E-07 0
vn 1 1.629207E-07 0
vn 1 1.629207E-07 0
vn 1 1.629207E-07 0
vn 1.629207E-07 -1 0
vn 1.629207E-07 -1 0
vn 1.629207E-07 -1 0
vn 1.629207E-07 -1 0
vn 1.629036E-07 -0.9998955 -0.01446015
vn 1.629036E-07 -0.9998955 -0.01446015
vn 0 0 -1
vn 0 0 -1
vn 0 0 -1
vn 0 0 -1
vn -0.9588199 -1.562116E-07 0.2840149
vn -0.9588199 -1.562116E-07 0.2840149
vn -0.9588199 -1.562116E-07 0.2840149
vn -0.9588199 -1.562116E-07 0.2840149
vn 0.9588199 1.562116E-07 0.2840149
vn 0.9588199 1.562116E-07 0.2840149
vn 0.9588199 1.562116E-07 0.2840149
vn 0.9588199 1.562116E-07 0.2840149
g arrow_lv1_0
f 3/3/3 2/2/2 1/1/1
f 6/6/6 5/5/5 4/4/4
f 9/9/9 8/8/8 7/7/7
f 12/12/12 11/11/11 10/10/10
f 15/15/15 14/14/14 13/13/13
f 18/18/18 17/17/17 16/16/16
f 21/21/21 20/20/20 19/19/19
f 24/24/24 23/23/23 22/22/22
f 27/27/27 26/26/26 25/25/25
f 28/28/28 27/27/27 25/25/25
f 31/31/31 30/30/30 29/29/29
f 30/30/30 32/32/32 29/29/29
f 32/32/32 33/33/33 29/29/29
f 33/33/33 34/34/34 29/29/29
f 37/37/37 36/36/36 35/35/35
f 38/38/38 37/37/37 35/35/35
f 41/41/41 40/40/40 39/39/39
f 40/40/40 42/42/42 39/39/39
f 42/42/42 43/43/43 39/39/39
f 43/43/43 44/44/44 39/39/39
f 47/47/47 46/46/46 45/45/45
f 48/48/48 47/47/47 45/45/45
f 51/51/51 50/50/50 49/49/49
f 52/52/52 51/51/51 49/49/49
f 55/55/55 54/54/54 53/53/53
f 56/56/56 55/55/55 53/53/53
f 59/59/59 58/58/58 57/57/57
f 58/58/58 60/60/60 57/57/57
f 60/60/60 61/61/61 57/57/57
f 61/61/61 62/62/62 57/57/57
f 65/65/65 64/64/64 63/63/63
f 66/66/66 65/65/65 63/63/63
f 69/69/69 68/68/68 67/67/67
f 70/70/70 69/69/69 67/67/67
f 73/73/73 72/72/72 71/71/71
f 74/74/74 73/73/73 71/71/71
f 77/77/77 76/76/76 75/75/75
f 78/78/78 77/77/77 75/75/75
f 81/81/81 80/80/80 79/79/79
f 82/82/82 81/81/81 79/79/79
f 85/85/85 84/84/84 83/83/83
f 86/86/86 85/85/85 83/83/83
f 89/89/89 88/88/88 87/87/87
f 90/90/90 89/89/89 87/87/87
f 93/93/93 92/92/92 91/91/91
f 94/94/94 93/93/93 91/91/91
f 97/97/97 96/96/96 95/95/95
f 98/98/98 97/97/97 95/95/95
f 101/101/101 100/100/100 99/99/99
f 102/102/102 101/101/101 99/99/99
f 105/105/105 104/104/104 103/103/103
f 106/106/106 105/105/105 103/103/103
f 109/109/109 108/108/108 107/107/107
f 110/110/110 109/109/109 107/107/107
f 113/113/113 112/112/112 111/111/111
f 114/114/114 113/113/113 111/111/111
f 117/117/117 116/116/116 115/115/115
f 118/118/118 117/117/117 115/115/115
f 121/121/121 120/120/120 119/119/119
f 122/122/122 121/121/121 119/119/119
f 125/125/125 124/124/124 123/123/123
f 126/126/126 125/125/125 123/123/123
f 129/129/129 128/128/128 127/127/127
f 130/130/130 129/129/129 127/127/127
f 133/133/133 132/132/132 131/131/131
f 134/134/134 133/133/133 131/131/131
f 137/137/137 136/136/136 135/135/135
f 138/138/138 137/137/137 135/135/135
f 141/141/141 140/140/140 139/139/139
f 142/142/142 141/141/141 139/139/139
f 145/145/145 144/144/144 143/143/143
f 146/146/146 145/145/145 143/143/143
f 149/149/149 148/148/148 147/147/147
f 150/150/150 149/149/149 147/147/147
f 153/153/153 152/152/152 151/151/151
f 152/152/152 154/154/154 151/151/151
f 151/151/151 154/154/154 155/155/155
f 154/154/154 156/156/156 155/155/155
f 155/155/155 156/156/156 157/157/157
f 156/156/156 158/158/158 157/157/157
f 157/157/157 158/158/158 159/159/159
f 158/158/158 160/160/160 159/159/159
f 159/159/159 160/160/160 161/161/161
f 160/160/160 162/162/162 161/161/161
f 161/161/161 162/162/162 163/163/163
f 162/162/162 164/164/164 163/163/163
f 163/163/163 164/164/164 165/165/165
f 164/164/164 166/166/166 165/165/165
f 165/165/165 166/166/166 167/167/167
f 166/166/166 168/168/168 167/167/167
f 171/171/171 170/170/170 169/169/169
f 172/172/172 171/171/171 169/169/169
f 175/175/175 174/174/174 173/173/173
f 176/176/176 175/175/175 173/173/173
f 177/177/177 175/175/175 176/176/176
f 178/178/178 177/177/177 176/176/176
f 179/179/179 177/177/177 178/178/178
f 180/180/180 179/179/179 178/178/178
f 181/181/181 179/179/179 180/180/180
f 182/182/182 181/181/181 180/180/180
f 183/183/183 181/181/181 182/182/182
f 184/184/184 183/183/183 182/182/182
f 185/185/185 183/183/183 184/184/184
f 186/186/186 185/185/185 184/184/184
f 187/187/187 185/185/185 186/186/186
f 188/188/188 187/187/187 186/186/186
f 189/189/189 187/187/187 188/188/188
f 190/190/190 189/189/189 188/188/188
f 193/193/193 192/192/192 191/191/191
f 194/194/194 193/193/193 191/191/191
f 197/197/197 196/196/196 195/195/195
f 196/196/196 198/198/198 195/195/195
f 198/198/198 199/199/199 195/195/195
f 199/199/199 200/200/200 195/195/195
f 203/203/203 202/202/202 201/201/201
f 204/204/204 203/203/203 201/201/201
f 207/207/207 206/206/206 205/205/205
f 206/206/206 208/208/208 205/205/205
f 208/208/208 209/209/209 205/205/205
f 209/209/209 210/210/210 205/205/205
f 213/213/213 212/212/212 211/211/211
f 214/214/214 213/213/213 211/211/211
f 217/217/217 216/216/216 215/215/215
f 218/218/218 217/217/217 215/215/215
f 221/221/221 220/220/220 219/219/219
f 222/222/222 221/221/221 219/219/219
